<svg width="12" height="13" viewBox="0 0 12 13" fill="none" xmlns="http://www.w3.org/2000/svg">
<path fill-rule="evenodd" clip-rule="evenodd" d="M0.75 0.833333C0.75 0.442132 1.08579 0.125 1.5 0.125H7.5C8.49456 0.125 9.44839 0.498139 10.1516 1.16233C10.8549 1.82652 11.25 2.72736 11.25 3.66667C11.25 4.60598 10.8549 5.50681 10.1516 6.171C9.44839 6.83519 8.49456 7.20833 7.5 7.20833H1.5C1.08579 7.20833 0.75 6.8912 0.75 6.5V0.833333ZM2.25 1.54167V5.79167H7.5C8.09674 5.79167 8.66903 5.56778 9.09099 5.16927C9.51295 4.77075 9.75 4.23025 9.75 3.66667C9.75 3.10308 9.51295 2.56258 9.09099 2.16406C8.66903 1.76555 8.09674 1.54167 7.5 1.54167H2.25Z" fill="black"/>
<path fill-rule="evenodd" clip-rule="evenodd" d="M0.75 6.5C0.75 6.1088 1.08579 5.79167 1.5 5.79167H8.25C9.24456 5.79167 10.1984 6.16481 10.9016 6.829C11.6049 7.49319 12 8.39402 12 9.33333C12 10.2726 11.6049 11.1735 10.9016 11.8377C10.1984 12.5019 9.24456 12.875 8.25 12.875H1.5C1.08579 12.875 0.75 12.5579 0.75 12.1667V6.5ZM2.25 7.20833V11.4583H8.25C8.84674 11.4583 9.41903 11.2344 9.84099 10.8359C10.2629 10.4374 10.5 9.89692 10.5 9.33333C10.5 8.76975 10.2629 8.22925 9.84099 7.83073C9.41903 7.43222 8.84674 7.20833 8.25 7.20833H2.25Z" fill="black"/>
</svg>
