<svg width="241" height="103" viewBox="0 0 241 103" fill="none" xmlns="http://www.w3.org/2000/svg">
<path d="M-23 10.6228C-23 10.6228 -18.7745 7.24283 -12.2256 18.6522C-8.36667 25.3735 -4.58133 24.1002 -1.25787 22.8282C1.05933 21.9415 3.15147 21.0548 4.88747 22.8775C9.11294 27.3135 11.4369 29.6375 10.5916 34.4962C9.7468 39.3562 11.0145 50.1308 12.4932 45.0602C13.9724 39.9895 11.8593 24.9895 16.2957 23.5108C20.7328 22.0321 21.3667 22.8775 26.226 29.0042C29.0353 32.5468 32.4104 30.0855 35.5333 27.6228C37.8113 25.8282 39.9552 24.0322 41.6484 24.5668C43.3156 25.0935 44.8375 24.6362 46.3343 24.1788C48.4411 23.5335 50.4989 22.8895 52.8457 24.9895C56.8599 28.5815 54.9583 53.3002 58.3385 48.4402C61.7187 43.5815 60.24 27.9468 62.564 30.6935C64.888 33.4402 67.8457 39.3562 69.7467 28.1588C71.648 16.9615 74.8173 21.6095 79.6773 25.6228C84.536 29.6375 88.3387 29.0042 91.2973 24.5668C94.2547 20.1308 101.227 28.3695 103.761 45.4828C106.297 62.5948 107.141 48.2295 108.409 40.4122C109.677 32.5948 112.212 26.8908 116.227 31.3282C120.241 35.7642 118.551 41.6802 121.508 44.0042C124.467 46.3282 124.044 65.7642 126.156 61.9615C128.269 58.1588 126.791 38.3002 129.748 36.3975C132.705 34.4962 131.437 26.2575 137.353 27.7362C143.269 29.2148 144.325 42.3135 148.128 38.9335C150.113 37.1682 151.524 41.5095 152.989 45.8495C154.329 49.8228 155.717 53.7948 157.636 53.0882C161.649 51.6095 157.847 98.9335 162.917 101.892C167.988 104.849 163.763 52.8775 167.565 49.0748C171.368 45.2708 177.705 42.7362 178.973 34.4962C180.241 26.2575 189.96 11.4682 192.284 21.8202C194.608 32.1722 201.157 32.5948 200.945 41.4682C200.735 50.3415 202.636 58.5815 204.115 52.2428C205.593 45.9055 203.269 34.9188 209.608 31.1162C215.945 27.3135 213.621 17.8068 220.805 16.9615C227.988 16.1162 237.707 9.98949 240.241 11.6802C240.241 11.6802 236.651 5.97482 226.72 5.97482C216.791 5.97482 209.819 -4.37715 195.031 2.17218C187.453 5.52818 174.773 4.28017 162.988 3.03351C151.769 1.84551 141.361 0.65882 136.931 3.44015C132.513 6.21348 130.843 4.54151 126.915 2.86818C122.767 1.10018 116.1 -0.666514 101.015 2.80682C86.824 6.07348 79.54 4.35748 73.4173 2.64149C66.8697 0.805483 61.65 -1.02916 50.7328 3.22817C39.3567 7.6655 30.2473 6.52817 22.3156 5.39083C15.5171 4.41483 9.58427 3.44015 3.8312 5.97482C-1.70053 8.41348 -6.8996 7.72949 -11.2855 7.04682C-16.7824 6.19083 -21.0027 5.33484 -23 10.6228Z" fill="#D0ECF5"/>
</svg>
