<svg width="338" height="95" viewBox="0 0 338 95" fill="none" xmlns="http://www.w3.org/2000/svg">
<path d="M0 24.2772C0 24.2772 4.81466 15.7186 20.864 22.1386C36.9147 28.5586 34.7746 29.6279 48.684 23.7426C50.984 22.7706 53.204 21.8919 55.308 21.1039C65.3653 17.3359 76.1746 15.9959 86.8493 17.1932C92.1066 17.7826 97.348 18.2133 99.2413 17.8586C108.288 16.1613 109.673 -4.07744 120.373 0.738555C131.073 5.55322 138.563 34.9773 157.288 22.6733C176.012 10.3679 179.757 1.80789 188.852 11.4386C197.947 21.0679 210.252 32.8386 223.092 28.5586C235.932 24.2773 283.011 8.76255 270.171 22.1386C262.744 29.8746 271.607 27.0493 280.916 24.2253C287.7 22.1666 294.723 20.1079 295.851 22.1386C298.525 26.9532 315.645 29.6279 315.645 29.6279C315.645 29.6279 331.695 17.8586 337.045 30.6986C337.045 30.6986 326.88 29.0933 318.32 37.1173C313.053 42.0559 306.772 40.5106 300.227 38.9666C296.136 38.0013 291.941 37.0359 287.825 37.6533C277.127 39.2586 287.291 57.9826 280.336 56.3773C277.355 55.6893 275.16 64.1399 273.584 72.5906C271.481 83.8586 270.477 95.1266 270.171 84.7319C269.636 66.5426 263.216 32.8386 260.541 44.6079C257.867 56.3772 249.307 54.2373 243.421 47.8173C237.536 41.3986 231.652 38.7226 231.117 46.2132C230.581 53.7026 239.141 67.0773 228.441 66.5426C223.829 66.3119 221.504 73.5359 220.264 80.7599C218.628 90.2959 218.885 99.8319 218.277 92.2226C217.207 78.8479 218.277 44.0733 212.392 54.7733C209.301 60.3919 206.505 55.2399 203.928 50.0866C201.597 45.4292 199.444 40.7706 197.412 44.0733C193.132 51.0279 186.177 58.5172 180.828 53.1679C175.477 47.8172 166.383 43.5372 161.568 51.5626C159.129 55.6252 154.085 54.2026 149.075 52.7799C144.189 51.3919 139.335 50.0052 136.959 53.7026C134.613 57.3506 129.349 51.4813 123.948 45.6119C118.26 39.4293 112.417 33.2479 109.673 38.1879C104.324 47.8172 101.113 70.8226 98.4387 63.3319C97.14 59.6959 96.8493 66.6533 96.4667 73.6119C96.0613 80.9839 95.5507 88.3572 93.624 83.1279C89.8786 72.9626 87.204 37.6533 84.528 45.1426C81.8533 52.6319 74.8987 45.6773 62.5933 39.2586C55.8827 35.7559 51.5587 37.0292 46.9293 38.3026C43.0733 39.3639 39.0053 40.4253 33.1693 38.7226C20.3293 34.9773 9.62933 22.1386 0 24.2772Z" fill="#D0ECF5"/>
</svg>
