<svg width="17" height="17" viewBox="0 0 17 17" fill="none" xmlns="http://www.w3.org/2000/svg">
<g opacity="0.7">
  <path fill-rule="evenodd" clip-rule="evenodd" d="M10.8325 3.74848C11.1091 3.47186 11.5576 3.47186 11.8342 3.74848L16.0842 7.99848C16.3608 8.2751 16.3608 8.7236 16.0842 9.00022L11.8342 13.2502C11.5576 13.5268 11.1091 13.5268 10.8325 13.2502C10.5558 12.9736 10.5558 12.5251 10.8325 12.2485L14.5816 8.49935L10.8325 4.75022C10.5558 4.4736 10.5558 4.0251 10.8325 3.74848Z" fill="black"/>
  <path fill-rule="evenodd" clip-rule="evenodd" d="M6.16623 3.74848C6.44285 4.0251 6.44285 4.4736 6.16623 4.75022L2.4171 8.49935L6.16623 12.2485C6.44285 12.5251 6.44285 12.9736 6.16623 13.2502C5.88961 13.5268 5.44112 13.5268 5.1645 13.2502L0.914497 9.00022C0.637876 8.7236 0.637876 8.2751 0.914497 7.99848L5.1645 3.74848C5.44112 3.47186 5.88961 3.47186 6.16623 3.74848Z" fill="black"/>
</g>
</svg>
