<svg width="360" height="377" viewBox="0 0 360 377" fill="none" xmlns="http://www.w3.org/2000/svg">
<path d="M251.471 377H304.765L328.565 353.2V269.345H251.471V377Z" fill="#8BB5F3"/>
<path d="M304.764 377L328.564 353.2H304.764V377Z" fill="#0099C4"/>
<path d="M261.062 284.99H319.089V281.902H261.062V284.99Z" fill="#57667F"/>
<path d="M261.062 297.773H319.089V294.696H261.062V297.773Z" fill="#57667F"/>
<path d="M261.062 310.561H319.089V307.489H261.062V310.561Z" fill="#57667F"/>
<path d="M261.062 323.357H319.089V320.273H261.062V323.357Z" fill="#57667F"/>
<path d="M261.062 336.137H319.089V333.069H261.062V336.137Z" fill="#57667F"/>
<path d="M261.062 348.928H290.073V345.856H261.062V348.928Z" fill="#57667F"/>
<path d="M141.346 376.744H218.446V269.093H141.346V376.744Z" fill="#8BB5F3"/>
<path d="M149.086 368.133H210.89V276.076H149.086V368.133Z" fill="white"/>
<path d="M195.854 323.23C194.369 323.23 182.771 329.943 181.381 329.736C179.985 329.535 163.931 297.957 162.265 298.21C160.599 298.454 149.086 320.86 149.086 320.86V368.133H210.89V356.614C210.89 356.614 197.345 323.23 195.854 323.23Z" fill="#0099C4"/>
<path d="M188.666 285.038C181.875 285.038 176.373 290.538 176.373 297.324C176.373 304.115 181.875 309.611 188.666 309.611C195.452 309.611 200.954 304.115 200.954 297.324C200.954 290.538 195.452 285.038 188.666 285.038Z" fill="#ED4313"/>
<path d="M31.2188 376.744H108.319V269.093H31.2188V376.744Z" fill="#8BB5F3"/>
<path d="M61.4952 334.779C52.5713 334.779 45.3398 339.612 45.3398 345.548C45.3398 351.506 52.5713 356.318 61.4952 356.318C70.4084 356.318 77.6452 351.506 77.6452 345.548C77.6452 339.612 70.4084 334.779 61.4952 334.779Z" fill="#57667F"/>
<path d="M73.582 345.549H77.6461V290.701H73.582V345.549Z" fill="#57667F"/>
<path d="M77.6461 290.698C74.3991 288.868 73.582 285.471 73.582 285.471V290.698C73.582 290.698 73.582 292.524 75.614 296.8C77.646 301.06 81.9064 301.06 85.7688 303.091C89.6259 305.114 91.6633 312.387 91.6633 312.387C91.6633 312.387 93.69 303.496 90.878 298.932C88.0661 294.371 80.8931 292.524 77.6461 290.698Z" fill="#57667F"/>
<path d="M276.169 69.4105C246.437 69.4105 250.188 -0.00072147 179.29 -0.00072147C142.098 -0.00072147 113.586 23.385 99.3779 44.4538C92.7778 54.2356 79.4185 58.6296 64.0271 58.4593C34.2578 58.1299 0 82.4775 0 115.442C0 158.687 37.1228 183.738 71.7519 183.738C71.7519 183.738 267.261 183.738 307.466 183.738C347.666 183.738 362.681 146.378 359.322 124.163C353.385 84.9976 311.88 69.4105 276.169 69.4105Z" fill="#8BB5F3"/>
<path d="M117.594 169.943C115.286 169.943 113.758 167.487 113.758 161.747C113.758 156.023 115.286 153.689 117.594 153.689C119.859 153.689 121.392 156.023 121.392 161.747C121.392 167.487 119.859 169.943 117.594 169.943ZM52.4151 169.943C50.1178 169.943 48.5898 167.487 48.5898 161.747C48.5898 156.023 50.1178 153.689 52.4151 153.689C54.6912 153.689 56.2245 156.023 56.2245 161.747C56.2245 167.487 54.6912 169.943 52.4151 169.943ZM150.493 135.432C148.196 135.432 146.663 132.975 146.663 127.251C146.663 121.516 148.196 119.186 150.493 119.186C152.764 119.186 154.292 121.516 154.292 127.251C154.292 132.975 152.764 135.432 150.493 135.432ZM52.4151 135.432C50.1178 135.432 48.5898 132.975 48.5898 127.251C48.5898 126.009 48.6588 124.931 48.7968 123.999C51.0994 123.846 53.455 123.526 55.8425 123.033C56.0918 124.162 56.2245 125.557 56.2245 127.251C56.2245 132.975 54.6912 135.432 52.4151 135.432Z" fill="#72A4EC"/>
<path d="M179.889 183.738C123.911 183.738 71.7519 183.738 71.7519 183.738C37.1228 183.738 0 158.687 0 115.442C0 82.695 33.8015 58.4593 63.4276 58.4593C63.6292 58.4593 63.8308 58.4593 64.0271 58.4593C64.3189 58.4657 64.6054 58.4657 64.8919 58.4657C79.9172 58.4657 92.9051 54.0557 99.3779 44.4538C113.586 23.385 142.098 -0.00072147 179.29 -0.00072147L179.889 0.0135852V15.4474C179.842 15.4538 179.788 15.4638 179.741 15.4745V17.0932H179.889V18.7533C171.645 19.0286 163.882 20.2388 156.699 22.2019C156.349 16.6311 154.067 13.6653 150.491 13.6653C146.565 13.6653 144.21 17.1823 144.21 23.7458C144.21 24.7427 144.263 25.6711 144.369 26.5312C131.885 31.9752 121.788 39.8528 114.796 48.9056C113.57 49.6537 112.631 50.9573 112.037 52.7872C106.71 60.9487 103.829 69.8662 103.856 78.7015C103.882 86.3569 108.891 93.4345 116.849 96.2347V100.502H112.376V102.591H123.407V100.502H119.364V96.9578C120.987 97.3186 122.712 97.5091 124.515 97.5091C129.476 97.5091 135.073 96.0543 141.032 92.6222C141.987 92.0645 143.074 91.5239 144.273 90.9992C144.231 91.5547 144.21 92.1393 144.21 92.7484C144.21 99.3018 146.565 102.957 150.491 102.957C154.386 102.957 156.747 99.3018 156.747 92.7484C156.747 90.5848 156.492 88.7486 156.004 87.2625C162.938 85.6565 171.183 84.5854 179.868 84.4464C179.826 84.4564 179.783 84.4628 179.741 84.4734V86.0958H179.889V100.502H178.823V102.591H179.889V119.096C178.51 120.773 177.751 123.521 177.751 127.251C177.751 130.982 178.51 133.767 179.889 135.475V153.455C179.842 153.46 179.788 153.472 179.741 153.476V155.111H179.889V169.515H178.823V171.59H179.889V183.738ZM150.491 151.673C146.565 151.673 144.21 155.196 144.21 161.747C144.21 168.311 146.565 171.961 150.491 171.961C154.386 171.961 156.747 168.311 156.747 161.747C156.747 155.196 154.386 151.673 150.491 151.673ZM117.592 151.673C113.666 151.673 111.299 155.196 111.299 161.747C111.299 168.311 113.666 171.961 117.592 171.961C121.475 171.961 123.836 168.311 123.836 161.747C123.836 155.196 121.475 151.673 117.592 151.673ZM52.4133 151.673C48.4925 151.673 46.1369 155.196 46.1369 161.747C46.1369 168.311 48.4925 171.961 52.4133 171.961C56.3129 171.961 58.6686 168.311 58.6686 161.747C58.6686 155.196 56.3129 151.673 52.4133 151.673ZM78.5112 169.515V171.59H89.5467V169.515H85.5039V152.033H83.5727C82.4957 152.68 81.2118 153.18 79.4291 153.476V155.111H82.9891V169.515H78.5112ZM150.491 117.171C146.565 117.171 144.21 120.687 144.21 127.251C144.21 133.808 146.565 137.46 150.491 137.46C154.386 137.46 156.747 133.808 156.747 127.251C156.747 120.687 154.386 117.171 150.491 117.171ZM46.3438 124.099C46.2058 125.054 46.1369 126.111 46.1369 127.251C46.1369 133.808 48.4925 137.46 52.4133 137.46C56.3129 137.46 58.6686 133.808 58.6686 127.251C58.6686 125.432 58.4882 123.846 58.1433 122.503C71.2639 119.181 81.355 111.382 84.8884 102.842C88.0824 102.162 89.9765 98.6222 89.9765 92.7484C89.9765 86.1871 87.6155 82.6578 83.7213 82.6578C82.2941 82.6578 81.0738 83.1263 80.0976 84.0378C75.1635 80.0279 67.6932 77.7502 59.2468 77.7502C55.3579 77.7502 51.262 78.233 47.1078 79.2464C35.9874 81.974 26.9892 87.9156 22.2461 94.8292V83.0308H20.3096C19.2431 83.6712 17.9539 84.1646 16.1765 84.4734V86.0958H19.7313V99.5671C19.6145 99.8738 19.5031 100.189 19.4023 100.502H15.2587V102.591H18.8665C18.4473 104.767 18.4739 106.958 19.0044 109.106C21.2752 118.385 32.1993 124.105 45.5904 124.105C45.8398 124.105 46.0944 124.105 46.3438 124.099ZM20.4687 117.171C16.548 117.171 14.1869 120.687 14.1869 127.251C14.1869 133.808 16.548 137.46 20.4687 137.46C24.3577 137.46 26.7186 133.808 26.7186 127.251C26.7186 120.687 24.3577 117.171 20.4687 117.171ZM112.376 135.009V137.087H123.407V135.009H119.364V117.527H117.433C116.361 118.174 115.072 118.673 113.289 118.974V120.602H116.849V135.009H112.376ZM78.5112 135.009V137.087H89.5467V135.009H85.5039V117.527H83.5727C82.4957 118.174 81.2118 118.673 79.4291 118.974V120.602H82.9891V135.009H78.5112ZM150.491 169.944C148.194 169.944 146.661 167.488 146.661 161.747C146.661 156.023 148.194 153.69 150.491 153.69C152.762 153.69 154.29 156.023 154.29 161.747C154.29 167.488 152.762 169.944 150.491 169.944ZM20.4687 135.433C18.1661 135.433 16.6381 132.975 16.6381 127.251C16.6381 121.517 18.1661 119.187 20.4687 119.187C22.7342 119.187 24.2728 121.517 24.2728 127.251C24.2728 132.975 22.7342 135.433 20.4687 135.433ZM150.491 100.931C148.194 100.931 146.661 98.4789 146.661 92.7484C146.661 91.7144 146.709 90.7923 146.804 89.9758C148.878 89.2006 151.202 88.4732 153.728 87.8201C154.088 89.0515 154.29 90.6803 154.29 92.7484C154.29 98.4789 152.762 100.931 150.491 100.931ZM85.8222 99.9714C86.3899 97.5611 86.4165 95.1258 85.8382 92.7484C85.1644 90.0065 83.7372 87.5713 81.7104 85.5011C82.2781 84.9456 82.9573 84.6909 83.7213 84.6909C85.9867 84.6909 87.5253 87.02 87.5253 92.7484C87.5253 96.448 86.8833 98.7813 85.8222 99.9714ZM146.719 25.5486C146.682 24.9873 146.661 24.3883 146.661 23.7458C146.661 18.011 148.194 15.6814 150.491 15.6814C152.645 15.6814 154.131 17.7829 154.279 22.8958C151.674 23.6816 149.154 24.5724 146.719 25.5486Z" fill="#72A4EC"/>
<path d="M144.374 26.5312C144.268 25.6712 144.215 24.7428 144.215 23.7458C144.215 17.1824 146.57 13.6653 150.497 13.6653C154.073 13.6653 156.354 16.6311 156.704 22.202C155.892 22.4253 155.081 22.6534 154.285 22.8959C154.136 17.783 152.651 15.6814 150.497 15.6814C148.199 15.6814 146.666 18.0111 146.666 23.7458C146.666 24.3883 146.687 24.9873 146.724 25.5487C145.934 25.8681 145.149 26.1975 144.374 26.5312Z" fill="#597496"/>
<path d="M185.817 18.752C185.064 18.7143 184.3 18.6915 183.525 18.6915C183.451 18.6915 183.377 18.6915 183.308 18.6915V17.0961H179.896V15.4503C181.605 15.1373 182.852 14.6545 183.886 14.0247H185.817V18.752Z" fill="#6D809A"/>
<path d="M179.897 17.0977H179.748V15.479C179.796 15.4683 179.849 15.4583 179.897 15.4519V17.0977Z" fill="#597496"/>
<path d="M112.039 52.793C112.633 50.9631 113.572 49.6595 114.798 48.9114C113.816 50.1837 112.899 51.4788 112.039 52.793Z" fill="#597496"/>
<path d="M18.8754 102.594H15.2676V100.505H19.4112C19.1884 101.199 19.008 101.893 18.8754 102.594ZM19.7402 99.5701V86.0988H16.1854V84.4764C17.9628 84.1676 19.252 83.6742 20.3185 83.0338H22.255V94.8323C21.1992 96.3703 20.3503 97.9578 19.7402 99.5701Z" fill="#597496"/>
<path d="M84.8963 102.844C85.2942 101.892 85.602 100.933 85.8301 99.9734C86.8912 98.7834 87.5332 96.45 87.5332 92.7505C87.5332 87.0221 85.9946 84.693 83.7291 84.693C82.9651 84.693 82.286 84.9477 81.7183 85.5031C81.2143 84.9954 80.6785 84.5062 80.1055 84.0399C81.0817 83.1284 82.3019 82.6599 83.7291 82.6599C87.6234 82.6599 89.9844 86.1891 89.9844 92.7505C89.9844 98.6242 88.0902 102.164 84.8963 102.844Z" fill="#597496"/>
<path d="M123.413 102.594H112.383V100.505H116.855V96.2377C117.667 96.5258 118.505 96.764 119.37 96.9609V100.505H123.413V102.594Z" fill="#597496"/>
<path d="M150.497 102.961C146.57 102.961 144.215 99.3054 144.215 92.752C144.215 92.143 144.236 91.5583 144.279 91.0028C145.074 90.6526 145.918 90.3131 146.809 89.9794C146.714 90.7959 146.666 91.718 146.666 92.752C146.666 98.4825 148.199 100.934 150.497 100.934C152.767 100.934 154.295 98.4825 154.295 92.752C154.295 90.6839 154.094 89.0551 153.733 87.8237C154.476 87.6333 155.234 87.4423 156.009 87.2661C156.497 88.7522 156.752 90.5884 156.752 92.752C156.752 99.3054 154.391 102.961 150.497 102.961Z" fill="#597496"/>
<path d="M189.866 102.594H179.896V100.505H183.308V86.0988H179.896V84.4494C180.517 84.443 181.138 84.4388 181.764 84.4388C183.106 84.4388 184.459 84.4594 185.817 84.5072V100.505H189.866V102.594Z" fill="#6D809A"/>
<path d="M179.898 102.594H178.832V100.505H179.898V102.594ZM179.898 86.0988H179.75V84.4764C179.792 84.4658 179.835 84.4595 179.877 84.4494C179.883 84.4494 179.888 84.4494 179.898 84.4494V86.0988Z" fill="#597496"/>
<path d="M20.4752 137.465C16.5544 137.465 14.1934 133.813 14.1934 127.256C14.1934 120.692 16.5544 117.175 20.4752 117.175C24.3641 117.175 26.725 120.692 26.725 127.256C26.725 133.813 24.3641 137.465 20.4752 137.465ZM20.4752 119.192C18.1726 119.192 16.6445 121.521 16.6445 127.256C16.6445 132.98 18.1726 135.438 20.4752 135.438C22.7406 135.438 24.2792 132.98 24.2792 127.256C24.2792 121.521 22.7406 119.192 20.4752 119.192Z" fill="#597496"/>
<path d="M89.5551 137.094H78.5195V135.015H82.9974V120.609H79.4374V118.98C81.2201 118.68 82.504 118.18 83.581 117.533H85.5122V135.015H89.5551V137.094Z" fill="#597496"/>
<path d="M123.413 137.094H112.383V135.015H116.855V120.609H113.295V118.98C115.078 118.68 116.367 118.18 117.439 117.533H119.37V135.015H123.413V137.094Z" fill="#597496"/>
<path d="M52.419 137.465C48.4982 137.465 46.1426 133.813 46.1426 127.256C46.1426 126.116 46.2115 125.059 46.3494 124.103C47.1612 124.093 47.973 124.062 48.8007 124.004C48.6627 124.936 48.5937 126.014 48.5937 127.256C48.5937 132.98 50.1217 135.438 52.419 135.438C54.6951 135.438 56.2284 132.98 56.2284 127.256C56.2284 125.562 56.0957 124.168 55.8463 123.038C56.4724 122.91 57.0985 122.767 57.7298 122.614C57.8678 122.582 58.0111 122.545 58.149 122.508C58.4939 123.851 58.6742 125.436 58.6742 127.256C58.6742 133.813 56.3186 137.465 52.419 137.465Z" fill="#597496"/>
<path d="M150.497 137.465C146.57 137.465 144.215 133.813 144.215 127.256C144.215 120.692 146.57 117.175 150.497 117.175C154.391 117.175 156.752 120.692 156.752 127.256C156.752 133.813 154.391 137.465 150.497 137.465ZM150.497 119.192C148.199 119.192 146.666 121.521 146.666 127.256C146.666 132.98 148.199 135.438 150.497 135.438C152.767 135.438 154.295 132.98 154.295 127.256C154.295 121.521 152.767 119.192 150.497 119.192Z" fill="#597496"/>
<path d="M184.04 137.465C182.348 137.465 180.942 136.785 179.896 135.48V119.1C180.942 117.828 182.348 117.175 184.04 117.175C187.934 117.175 190.29 120.692 190.29 127.256C190.29 133.813 187.934 137.465 184.04 137.465ZM184.04 119.192C181.737 119.192 180.204 121.521 180.204 127.256C180.204 132.98 181.737 135.438 184.04 135.438C186.306 135.438 187.844 132.98 187.844 127.256C187.844 121.521 186.306 119.192 184.04 119.192Z" fill="#6D809A"/>
<path d="M179.896 135.477C178.517 133.769 177.758 130.983 177.758 127.253C177.758 123.522 178.517 120.774 179.896 119.097V135.477Z" fill="#597496"/>
<path d="M89.5551 171.592H78.5195V169.517H82.9974V155.113H79.4374V153.478C81.2201 153.182 82.504 152.682 83.581 152.036H85.5122V169.517H89.5551V171.592Z" fill="#597496"/>
<path d="M117.603 171.965C113.677 171.965 111.311 168.315 111.311 161.752C111.311 155.2 113.677 151.678 117.603 151.678C121.487 151.678 123.848 155.2 123.848 161.752C123.848 168.315 121.487 171.965 117.603 171.965ZM117.603 153.694C115.295 153.694 113.767 156.028 113.767 161.752C113.767 167.492 115.295 169.948 117.603 169.948C119.868 169.948 121.402 167.492 121.402 161.752C121.402 156.028 119.868 153.694 117.603 153.694Z" fill="#597496"/>
<path d="M52.419 171.965C48.4982 171.965 46.1426 168.315 46.1426 161.752C46.1426 155.2 48.4982 151.678 52.419 151.678C56.3186 151.678 58.6742 155.2 58.6742 161.752C58.6742 168.315 56.3186 171.965 52.419 171.965ZM52.419 153.694C50.1217 153.694 48.5937 156.028 48.5937 161.752C48.5937 167.492 50.1217 169.948 52.419 169.948C54.6951 169.948 56.2284 167.492 56.2284 161.752C56.2284 156.028 54.6951 153.694 52.419 153.694Z" fill="#597496"/>
<path d="M150.497 171.965C146.57 171.965 144.215 168.315 144.215 161.752C144.215 155.2 146.57 151.678 150.497 151.678C154.391 151.678 156.752 155.2 156.752 161.752C156.752 168.315 154.391 171.965 150.497 171.965ZM150.497 153.694C148.199 153.694 146.666 156.028 146.666 161.752C146.666 167.492 148.199 169.948 150.497 169.948C152.767 169.948 154.295 167.492 154.295 161.752C154.295 156.028 152.767 153.694 150.497 153.694Z" fill="#597496"/>
<path d="M189.866 171.592H179.896V169.517H183.308V155.113H179.896V153.458C181.605 153.155 182.852 152.668 183.886 152.036H185.817V169.517H189.866V171.592Z" fill="#6D809A"/>
<path d="M179.898 171.592H178.832V169.517H179.898V171.592ZM179.898 155.113H179.75V153.478C179.798 153.474 179.851 153.462 179.898 153.458V155.113Z" fill="#597496"/>
<path d="M219.483 33.5898H217.09C215.753 32.2486 214.368 30.97 212.925 29.7598V17.1013H209.365V15.4826C211.143 15.1696 212.437 14.6762 213.504 14.0299H215.44V31.5112H219.483V33.5898Z" fill="#6D809A"/>
<path d="M245.6 68.4531C241.679 68.4531 239.318 64.8077 239.318 58.2506C239.318 51.6935 241.679 48.1637 245.6 48.1637C249.494 48.1637 251.85 51.6935 251.85 58.2506C251.85 64.8077 249.494 68.4531 245.6 68.4531ZM245.6 50.1867C243.303 50.1867 241.775 52.5137 241.775 58.2506C241.775 63.9747 243.303 66.4307 245.6 66.4307C247.871 66.4307 249.404 63.9747 249.404 58.2506C249.404 52.5137 247.871 50.1867 245.6 50.1867Z" fill="#6D809A"/>
<path d="M219.482 102.594H208.441V100.505H212.925V89.1081C213.768 89.3877 214.606 89.6865 215.439 89.9995V100.505H219.482V102.594Z" fill="#6D809A"/>
<path d="M282.615 87.9141C281.777 87.8456 280.944 87.7814 280.116 87.713C279.469 85.6178 278.333 84.7 276.906 84.7C275.596 84.7 274.534 85.4581 273.861 87.1824C273.06 87.1081 272.269 87.0291 271.479 86.9442C272.497 84.136 274.375 82.6669 276.906 82.6669C279.697 82.6669 281.702 84.4761 282.615 87.9141Z" fill="#6D809A"/>
<path d="M312.557 92.6758C311.724 92.4105 310.886 92.1617 310.042 91.9277V86.1017H306.482V84.4792C308.26 84.1705 309.549 83.6771 310.621 83.0367H312.557V92.6758Z" fill="#6D809A"/>
<path d="M213.657 137.465C209.731 137.465 207.375 133.813 207.375 127.256C207.375 120.692 209.731 117.175 213.657 117.175C217.551 117.175 219.907 120.692 219.907 127.256C219.907 133.813 217.551 137.465 213.657 137.465ZM213.657 119.192C211.354 119.192 209.821 121.521 209.821 127.256C209.821 132.98 211.354 135.438 213.657 135.438C215.922 135.438 217.45 132.98 217.45 127.256C217.45 121.521 215.922 119.192 213.657 119.192Z" fill="#6D809A"/>
<path d="M245.6 137.465C241.679 137.465 239.318 133.813 239.318 127.256C239.318 120.692 241.679 117.175 245.6 117.175C246.704 117.175 247.685 117.457 248.518 118.008C249.203 118.831 249.887 119.641 250.566 120.427C251.399 122.093 251.85 124.381 251.85 127.256C251.85 133.813 249.494 137.465 245.6 137.465ZM245.6 119.192C243.303 119.192 241.775 121.521 241.775 127.256C241.775 132.98 243.303 135.438 245.6 135.438C247.871 135.438 249.404 132.98 249.404 127.256C249.404 121.521 247.871 119.192 245.6 119.192Z" fill="#6D809A"/>
<path d="M343.669 137.465C342.407 137.465 341.303 137.081 340.391 136.35C340.661 135.558 340.905 134.737 341.117 133.894C341.77 134.949 342.645 135.438 343.669 135.438C345.94 135.438 347.473 132.98 347.473 127.256C347.473 121.521 345.94 119.192 343.669 119.192C342.72 119.192 341.903 119.594 341.266 120.47C341.086 119.685 340.863 118.895 340.603 118.1C341.473 117.484 342.502 117.175 343.669 117.175C347.569 117.175 349.925 120.692 349.925 127.256C349.925 133.813 347.569 137.465 343.669 137.465Z" fill="#6D809A"/>
<path d="M219.482 171.592H208.441V169.517H212.925V155.113H209.365V153.478C211.142 153.182 212.436 152.682 213.503 152.036H215.439V169.517H219.482V171.592Z" fill="#6D809A"/>
<path d="M282.733 171.592H271.703V169.517H276.176V155.113H272.621V153.478C274.398 153.182 275.682 152.682 276.759 152.036H278.691V169.517H282.733V171.592Z" fill="#6D809A"/>
<path d="M310.773 171.965C306.847 171.965 304.486 168.315 304.486 161.752C304.486 158.347 305.123 155.756 306.29 154.059C307.277 154.123 308.248 154.154 309.192 154.16C307.802 155.088 306.943 157.47 306.943 161.752C306.943 167.492 308.476 169.948 310.773 169.948C313.039 169.948 314.572 167.492 314.572 161.752C314.572 157.348 313.67 154.956 312.217 154.079C313.198 154.027 314.153 153.942 315.071 153.837C316.334 155.528 317.029 158.191 317.029 161.752C317.029 168.315 314.668 171.965 310.773 171.965Z" fill="#6D809A"/>
<path d="M245.6 171.965C241.679 171.965 239.318 168.315 239.318 161.752C239.318 155.2 241.679 151.678 245.6 151.678C249.494 151.678 251.85 155.2 251.85 161.752C251.85 168.315 249.494 171.965 245.6 171.965ZM245.6 153.694C243.303 153.694 241.775 156.028 241.775 161.752C241.775 167.492 243.303 169.948 245.6 169.948C247.871 169.948 249.404 167.492 249.404 161.752C249.404 156.028 247.871 153.694 245.6 153.694Z" fill="#6D809A"/>
<path d="M309.47 154.16C309.374 154.16 309.284 154.16 309.188 154.16C309.655 153.848 310.186 153.694 310.769 153.694C311.295 153.694 311.777 153.821 312.213 154.08C311.321 154.134 310.409 154.16 309.47 154.16ZM306.286 154.059C291.669 153.126 272.209 145.539 250.562 120.427C250.032 119.362 249.342 118.555 248.514 118.008C246.116 115.121 243.697 112.019 241.246 108.682C234.715 99.7827 225.6 93.7933 215.434 90.0009V83.0353H213.498C212.431 83.6756 211.137 84.1691 209.359 84.4778V86.1003H212.92V89.1096C204.229 86.2122 194.886 84.8216 185.814 84.5086V83.0353H183.882C182.848 83.6613 181.601 84.1441 179.893 84.4508V66.4762C180.938 67.7755 182.344 68.4551 184.036 68.4551C187.93 68.4551 190.286 64.8097 190.286 58.2526C190.286 51.6955 187.93 48.1657 184.036 48.1657C182.344 48.1657 180.938 48.8247 179.893 50.0975V33.5861H189.862V31.5074H185.814V18.7535C196.764 19.2777 205.55 23.5762 212.92 29.7561V31.5074H208.436V33.5861H217.084C235.495 52.0022 244.694 81.3688 259.205 84.95C262.977 85.8828 267.115 86.4775 271.477 86.9396C270.92 88.4835 270.622 90.4259 270.622 92.7529C270.622 99.3063 272.983 102.962 276.904 102.962C280.798 102.962 283.165 99.3063 283.165 92.7529C283.165 90.8917 282.974 89.2735 282.613 87.9095C291.717 88.6369 301.23 89.4746 310.037 91.9263V100.506H305.554V102.595H316.595V100.506H312.552V92.6744C319.959 95.0513 326.776 98.7115 332.305 104.605C336.581 109.163 339.186 113.727 340.602 118.1C338.554 119.536 337.387 122.644 337.387 127.256C337.387 131.697 338.47 134.806 340.39 136.349C338.379 142.196 334.952 146.399 332.888 147.773C331.063 148.987 324.707 152.718 315.067 153.837C314.006 152.409 312.547 151.678 310.769 151.678C308.881 151.678 307.358 152.488 306.286 154.059ZM305.554 135.013V137.092H316.595V135.013H312.552V117.531H310.616C309.544 118.178 308.255 118.678 306.477 118.978V120.607H310.037V135.013H305.554ZM271.699 135.013V137.092H282.73V135.013H278.687V117.531H276.756C275.679 118.178 274.395 118.678 272.617 118.978V120.607H276.172V135.013H271.699ZM245.596 82.6623C241.675 82.6623 239.315 86.1915 239.315 92.7529C239.315 99.3063 241.675 102.962 245.596 102.962C249.49 102.962 251.846 99.3063 251.846 92.7529C251.846 86.1915 249.49 82.6623 245.596 82.6623ZM213.652 48.1657C209.726 48.1657 207.37 51.6955 207.37 58.2526C207.37 64.8097 209.726 68.4551 213.652 68.4551C217.546 68.4551 219.902 64.8097 219.902 58.2526C219.902 51.6955 217.546 48.1657 213.652 48.1657ZM341.117 133.894C340.311 132.588 339.844 130.422 339.844 127.256C339.844 123.898 340.369 121.706 341.266 120.47C342.401 125.347 342.12 129.919 341.117 133.894ZM276.904 100.935C274.612 100.935 273.079 98.4834 273.079 92.7529C273.079 90.2969 273.36 88.4671 273.859 87.1778C275.907 87.3688 277.997 87.5386 280.114 87.7084C280.496 88.9541 280.708 90.6206 280.708 92.7529C280.708 98.4834 279.175 100.935 276.904 100.935ZM245.596 100.935C243.299 100.935 241.771 98.4834 241.771 92.7529C241.771 87.0245 243.299 84.6954 245.596 84.6954C247.867 84.6954 249.4 87.0245 249.4 92.7529C249.4 98.4834 247.867 100.935 245.596 100.935ZM213.652 66.4327C211.349 66.4327 209.816 63.9767 209.816 58.2526C209.816 52.5157 211.349 50.1888 213.652 50.1888C215.917 50.1888 217.445 52.5157 217.445 58.2526C217.445 63.9767 215.917 66.4327 213.652 66.4327ZM184.036 66.4327C181.734 66.4327 180.2 63.9767 180.2 58.2526C180.2 52.5157 181.734 50.1888 184.036 50.1888C186.302 50.1888 187.84 52.5157 187.84 58.2526C187.84 63.9767 186.302 66.4327 184.036 66.4327ZM183.304 31.5074H179.893V18.7577C181.017 18.7201 182.158 18.6994 183.304 18.693V31.5074Z" fill="#99C7F9"/>
<path d="M124.521 97.5117C122.717 97.5117 120.993 97.3212 119.37 96.9605V83.0335H117.438C116.367 83.6738 115.077 84.1672 113.295 84.476V86.0985H116.855V96.2373C108.896 93.4371 103.888 86.3595 103.862 78.7042C103.835 69.8689 106.716 60.9513 112.043 52.7898C111.56 54.2717 111.305 56.0952 111.305 58.2508C111.305 64.8079 113.671 68.4533 117.598 68.4533C121.481 68.4533 123.842 64.8079 123.842 58.2508C123.842 51.6937 121.481 48.1639 117.598 48.1639C116.547 48.1639 115.613 48.4149 114.802 48.9083C121.794 39.8555 131.891 31.9778 144.375 26.5338C144.969 31.3295 147.165 33.9509 150.497 33.9509C154.391 33.9509 156.752 30.3119 156.752 23.7484C156.752 23.2136 156.736 22.6974 156.705 22.2045C163.888 20.2415 171.65 19.0313 179.895 18.7559V31.5056H178.829V33.5843H179.895V50.0957C178.516 51.7786 177.757 54.5263 177.757 58.2508C177.757 61.979 178.516 64.7644 179.895 66.4744V84.449C179.884 84.449 179.879 84.449 179.874 84.449C171.189 84.588 162.944 85.6592 156.01 87.2652C155.028 84.2415 153.107 82.6605 150.497 82.6605C146.937 82.6605 144.666 85.5637 144.279 91.0018C143.08 91.5265 141.992 92.0672 141.037 92.6248C135.079 96.0569 129.482 97.5117 124.521 97.5117ZM145.282 66.0016V68.0931H156.323V66.0016H152.274V48.5348H150.349C149.272 49.1773 147.982 49.6664 146.21 49.9795V51.5918H149.76V66.0016H145.282ZM146.81 89.9784C147.245 86.2582 148.614 84.6936 150.497 84.6936C151.946 84.6936 153.092 85.6427 153.733 87.8227C151.208 88.4759 148.884 89.2033 146.81 89.9784ZM117.598 66.4309C115.29 66.4309 113.762 63.9749 113.762 58.2508C113.762 52.5139 115.29 50.1869 117.598 50.1869C119.863 50.1869 121.396 52.5139 121.396 58.2508C121.396 63.9749 119.863 66.4309 117.598 66.4309ZM150.497 31.9343C148.46 31.9343 147.022 29.9989 146.725 25.5512C149.16 24.575 151.68 23.6842 154.285 22.8985C154.291 23.1765 154.296 23.4561 154.296 23.7484C154.296 29.4784 152.768 31.9343 150.497 31.9343Z" fill="#82B9F5"/>
<path d="M150.49 33.9453C147.158 33.9453 144.961 31.3239 144.367 26.5282C145.142 26.1945 145.927 25.865 146.718 25.5456C147.015 29.9932 148.452 31.9287 150.49 31.9287C152.761 31.9287 154.289 29.4728 154.289 23.7428C154.289 23.4505 154.283 23.1709 154.278 22.8928C155.074 22.6504 155.885 22.4223 156.697 22.1989C156.729 22.6918 156.745 23.208 156.745 23.7428C156.745 30.3063 154.384 33.9453 150.49 33.9453Z" fill="#6B91C4"/>
<path d="M189.862 33.5801H179.893V31.5014H183.304V18.6869C183.373 18.6869 183.447 18.6869 183.522 18.6869C184.296 18.6869 185.06 18.7098 185.814 18.7474V31.5014H189.862V33.5801Z" fill="#7E9CC6"/>
<path d="M178.828 33.5801H179.893V31.5014H178.828V33.5801Z" fill="#6B91C4"/>
<path d="M117.593 68.4531C113.667 68.4531 111.301 64.8077 111.301 58.2506C111.301 56.095 111.555 54.2715 112.038 52.7896C112.898 51.4755 113.816 50.1804 114.797 48.9081C115.609 48.4147 116.543 48.1637 117.593 48.1637C121.477 48.1637 123.838 51.6935 123.838 58.2506C123.838 64.8077 121.477 68.4531 117.593 68.4531ZM117.593 50.1867C115.285 50.1867 113.757 52.5137 113.757 58.2506C113.757 63.9747 115.285 66.4307 117.593 66.4307C119.859 66.4307 121.392 63.9747 121.392 58.2506C121.392 52.5137 119.859 50.1867 117.593 50.1867Z" fill="#6B91C4"/>
<path d="M156.318 68.0957H145.277V66.0043H149.755V51.5944H146.206V49.9821C147.978 49.669 149.267 49.1799 150.344 48.5374H152.27V66.0043H156.318V68.0957Z" fill="#6B91C4"/>
<path d="M184.036 68.4531C182.344 68.4531 180.938 67.7735 179.893 66.4742V50.0955C180.938 48.8227 182.344 48.1637 184.036 48.1637C187.93 48.1637 190.286 51.6935 190.286 58.2506C190.286 64.8077 187.93 68.4531 184.036 68.4531ZM184.036 50.1867C181.734 50.1867 180.2 52.5137 180.2 58.2506C180.2 63.9747 181.734 66.4307 184.036 66.4307C186.302 66.4307 187.84 63.9747 187.84 58.2506C187.84 52.5137 186.302 50.1867 184.036 50.1867Z" fill="#7E9CC6"/>
<path d="M179.894 66.4707C178.515 64.7607 177.756 61.9753 177.756 58.2471C177.756 54.5226 178.515 51.7749 179.894 50.092V66.4707Z" fill="#6B91C4"/>
<path d="M119.364 96.9609C118.499 96.7641 117.661 96.5259 116.849 96.2378V86.0989H113.289V84.4765C115.072 84.1677 116.361 83.6743 117.433 83.0339H119.364V96.9609Z" fill="#6B91C4"/>
<path d="M144.275 90.998C144.663 85.5599 146.933 82.6567 150.493 82.6567C153.104 82.6567 155.024 84.2378 156.006 87.2614C155.231 87.4375 154.473 87.6285 153.73 87.819C153.088 85.6389 151.942 84.6898 150.493 84.6898C148.61 84.6898 147.241 86.2544 146.806 89.9746C145.915 90.3084 145.071 90.6479 144.275 90.998Z" fill="#6B91C4"/>
<path d="M185.814 84.5098C184.455 84.462 183.102 84.4413 181.76 84.4413C181.134 84.4413 180.513 84.4456 179.893 84.452C181.601 84.1453 182.848 83.6625 183.882 83.0364H185.814V84.5098Z" fill="#7E9CC6"/>
<path d="M217.087 33.5801H208.439V31.5014H212.923V29.75C214.366 30.9602 215.75 32.2388 217.087 33.5801Z" fill="#7E9CC6"/>
<path d="M213.647 68.4531C209.721 68.4531 207.365 64.8077 207.365 58.2506C207.365 51.6935 209.721 48.1637 213.647 48.1637C217.541 48.1637 219.897 51.6935 219.897 58.2506C219.897 64.8077 217.541 68.4531 213.647 68.4531ZM213.647 50.1867C211.344 50.1867 209.811 52.5137 209.811 58.2506C209.811 63.9747 211.344 66.4307 213.647 66.4307C215.912 66.4307 217.44 63.9747 217.44 58.2506C217.44 52.5137 215.912 50.1867 213.647 50.1867Z" fill="#7E9CC6"/>
<path d="M215.43 89.9961C214.597 89.6831 213.759 89.3843 212.916 89.1047V86.0954H209.355V84.473C211.133 84.1642 212.427 83.6708 213.494 83.0304H215.43V89.9961Z" fill="#7E9CC6"/>
<path d="M276.903 102.959C272.982 102.959 270.621 99.3035 270.621 92.7501C270.621 90.4231 270.918 88.4807 271.475 86.9368C272.266 87.0217 273.056 87.1008 273.857 87.175C273.359 88.4643 273.078 90.2942 273.078 92.7501C273.078 98.4806 274.611 100.932 276.903 100.932C279.174 100.932 280.707 98.4806 280.707 92.7501C280.707 90.6178 280.495 88.9513 280.113 87.7056C280.94 87.774 281.773 87.8382 282.612 87.9067C282.972 89.2707 283.163 90.8889 283.163 92.7501C283.163 99.3035 280.797 102.959 276.903 102.959Z" fill="#7E9CC6"/>
<path d="M316.596 102.596H305.555V100.507H310.038V91.9268C310.881 92.1608 311.72 92.4096 312.553 92.6749V100.507H316.596V102.596Z" fill="#7E9CC6"/>
<path d="M245.598 102.959C241.677 102.959 239.316 99.3035 239.316 92.7501C239.316 86.1887 241.677 82.6595 245.598 82.6595C249.492 82.6595 251.848 86.1887 251.848 92.7501C251.848 99.3035 249.492 102.959 245.598 102.959ZM245.598 84.6926C243.301 84.6926 241.773 87.0217 241.773 92.7501C241.773 98.4806 243.301 100.932 245.598 100.932C247.869 100.932 249.402 98.4806 249.402 92.7501C249.402 87.0217 247.869 84.6926 245.598 84.6926Z" fill="#7E9CC6"/>
<path d="M282.731 137.086H271.701V135.007H276.174V120.601H272.619V118.972C274.396 118.672 275.68 118.172 276.757 117.526H278.689V135.007H282.731V137.086Z" fill="#7E9CC6"/>
<path d="M316.596 137.086H305.555V135.007H310.038V120.601H306.478V118.972C308.255 118.672 309.544 118.172 310.616 117.526H312.553V135.007H316.596V137.086Z" fill="#7E9CC6"/>
<path d="M250.56 120.424C249.881 119.639 249.196 118.828 248.512 118.006C249.339 118.553 250.029 119.359 250.56 120.424Z" fill="#7E9CC6"/>
<path d="M340.392 136.348C338.471 134.804 337.389 131.695 337.389 127.254C337.389 122.642 338.556 119.534 340.604 118.098C340.864 118.894 341.087 119.683 341.267 120.468C340.37 121.704 339.845 123.896 339.845 127.254C339.845 130.42 340.312 132.586 341.118 133.892C340.906 134.735 340.662 135.556 340.392 136.348Z" fill="#7E9CC6"/>
<path d="M309.187 154.16C308.243 154.154 307.272 154.123 306.285 154.059C307.357 152.488 308.88 151.678 310.768 151.678C312.546 151.678 314.005 152.409 315.066 153.837C314.148 153.943 313.193 154.028 312.211 154.08C311.776 153.821 311.294 153.694 310.768 153.694C310.185 153.694 309.654 153.848 309.187 154.16Z" fill="#7E9CC6"/>
<path d="M48.7988 123.998C49.2869 120.618 50.6133 119.185 52.4172 119.185C54.0194 119.185 55.2556 120.342 55.8445 123.032C53.457 123.525 51.1014 123.845 48.7988 123.998Z" fill="#82B9F5"/>
<path d="M45.5958 124.107C32.2047 124.107 21.2806 118.388 19.0098 109.109C18.4793 106.96 18.4527 104.769 18.8719 102.593H26.2943V100.504H22.2515V94.8315C26.9946 87.9179 35.9928 81.9762 47.1132 79.2486C51.2674 78.2353 55.3633 77.7525 59.2522 77.7525C67.6987 77.7525 75.1689 80.0301 80.103 84.0401C78.3946 85.6317 77.4396 88.5768 77.4396 92.7507C77.4396 99.3041 79.8059 102.96 83.7267 102.96C84.1352 102.96 84.5225 102.922 84.8938 102.844C81.3604 111.384 71.2693 119.183 58.1487 122.505C57.2468 119.009 55.236 117.173 52.4187 117.173C49.177 117.173 47.007 119.571 46.3492 124.101C46.0998 124.107 45.8452 124.107 45.5958 124.107ZM52.4187 82.6601C48.4979 82.6601 46.1423 86.1893 46.1423 92.7507C46.1423 99.3041 48.4979 102.96 52.4187 102.96C56.3183 102.96 58.674 99.3041 58.674 92.7507C58.674 86.1893 56.3183 82.6601 52.4187 82.6601ZM83.7267 100.933C81.4294 100.933 79.8961 98.4812 79.8961 92.7507C79.8961 88.9312 80.5752 86.6185 81.7158 85.5033C83.7426 87.5735 85.1698 90.0088 85.8436 92.7507C86.4219 95.1281 86.3953 97.5633 85.8276 99.9736C85.244 100.624 84.5331 100.933 83.7267 100.933ZM52.4187 100.933C50.1214 100.933 48.5935 98.4812 48.5935 92.7507C48.5935 87.0223 50.1214 84.6932 52.4187 84.6932C54.6948 84.6932 56.2281 87.0223 56.2281 92.7507C56.2281 98.4812 54.6948 100.933 52.4187 100.933ZM19.7367 100.504H19.4077C19.5085 100.191 19.6199 99.876 19.7367 99.5694V100.504Z" fill="#82B9F5"/>
<path d="M26.2916 102.596H18.8691C19.0018 101.895 19.1822 101.201 19.405 100.507H19.7339V99.5721C20.3441 97.9597 21.193 96.3723 22.2488 94.8342V100.507H26.2916V102.596Z" fill="#6B91C4"/>
<path d="M83.7245 102.959C79.8038 102.959 77.4375 99.3035 77.4375 92.7501C77.4375 88.5762 78.3925 85.6311 80.1009 84.0395C80.6739 84.5058 81.2097 84.995 81.7137 85.5027C80.573 86.618 79.894 88.9306 79.894 92.7501C79.894 98.4806 81.4272 100.932 83.7245 100.932C84.531 100.932 85.2419 100.623 85.8255 99.973C85.5974 100.932 85.2896 101.892 84.8917 102.843C84.5203 102.922 84.1331 102.959 83.7245 102.959Z" fill="#6B91C4"/>
<path d="M52.417 102.959C48.4963 102.959 46.1406 99.3035 46.1406 92.7501C46.1406 86.1887 48.4963 82.6595 52.417 82.6595C56.3166 82.6595 58.6723 86.1887 58.6723 92.7501C58.6723 99.3035 56.3166 102.959 52.417 102.959ZM52.417 84.6926C50.1197 84.6926 48.5918 87.0217 48.5918 92.7501C48.5918 98.4806 50.1197 100.932 52.417 100.932C54.6931 100.932 56.2264 98.4806 56.2264 92.7501C56.2264 87.0217 54.6931 84.6926 52.417 84.6926Z" fill="#6B91C4"/>
<path d="M46.3438 124.098C47.0016 119.567 49.1716 117.17 52.4133 117.17C55.2305 117.17 57.2414 119.005 58.1433 122.502C58.0054 122.539 57.8621 122.577 57.7242 122.608C57.0928 122.761 56.4667 122.904 55.8407 123.032C55.2517 120.342 54.0156 119.186 52.4133 119.186C50.6094 119.186 49.2831 120.618 48.795 123.998C47.9673 124.056 47.1555 124.088 46.3438 124.098Z" fill="#6B91C4"/>
<path d="M175.432 269.088H184.345V183.737H175.432V269.088Z" fill="#57667F"/>
<path d="M276.656 220.686H83.1363C73.3105 220.686 65.3203 228.681 65.3203 238.507V269.088H74.2283V238.507C74.2283 233.595 78.2234 229.599 83.1363 229.599H276.656C281.563 229.599 285.563 233.595 285.563 238.507V269.088H294.477V238.507C294.477 228.681 286.481 220.686 276.656 220.686Z" fill="#57667F"/>
<path d="M290.07 269.088H285.56V238.507C285.56 233.595 281.56 229.599 276.652 229.599H216.684V226.416V225.392H272.938C282.393 225.392 290.07 233.388 290.07 243.203V269.088Z" fill="#465877"/>
<path d="M74.2242 269.088H69.7676V243.203C69.7676 233.388 77.4553 225.392 86.8992 225.392H143.095V229.599H83.1322C78.2193 229.599 74.2242 233.595 74.2242 238.507V269.088Z" fill="#465877"/>
<path d="M179.978 269.088H175.432V234.316H179.978V269.088ZM179.978 218.501H175.432V183.737H179.978V218.501Z" fill="#465877"/>
<path d="M143.102 234.318H216.689V218.503H143.102V234.318Z" fill="#57667F"/>
<path d="M216.689 234.318H143.102V226.418H216.689V229.602V234.318Z" fill="#465877"/>
</svg>
