<svg width="20" height="20" viewBox="0 0 20 20" fill="none" xmlns="http://www.w3.org/2000/svg">
<path d="M15.307 10.604V1.61076H1.8842V18.3893H8.05867C8.50164 18.3893 8.86403 18.7517 8.86403 19.1946C8.86403 19.6376 8.50164 20 8.05867 20H1.07879C0.635832 20 0.273438 19.6376 0.273438 19.1946V0.805356C0.273437 0.362394 0.635878 0 1.07879 0H16.1123C16.5553 0 16.9177 0.362394 16.9177 0.805356V10.604C16.9177 11.047 16.5553 11.4094 16.1123 11.4094C15.6694 11.4094 15.307 11.047 15.307 10.604ZM19.4547 12.5638C19.1191 12.2684 18.6091 12.2953 18.3137 12.6309L13.8976 17.5436L11.6828 15.4094C11.3607 15.1007 10.8506 15.1141 10.5419 15.4362C10.2332 15.7584 10.2466 16.2684 10.5688 16.5772L13.3875 19.2886C13.5352 19.4362 13.7365 19.5168 13.9513 19.5168C13.9647 19.5168 13.9647 19.5168 13.9781 19.5168C14.1929 19.5034 14.4076 19.4094 14.5419 19.2483L19.5083 13.7181C19.8171 13.3691 19.7902 12.8591 19.4547 12.5638ZM12.354 4.698H5.10567C4.66271 4.698 4.30031 5.06039 4.30031 5.50335C4.30031 5.94632 4.66271 6.30871 5.10567 6.30871H12.354C12.7969 6.30871 13.1593 5.94632 13.1593 5.50335C13.1593 5.06039 12.7969 4.698 12.354 4.698ZM13.1594 9.93288C13.1594 9.48992 12.797 9.12753 12.354 9.12753H5.10567C4.66271 9.12753 4.30031 9.48992 4.30031 9.93288C4.30031 10.3758 4.66271 10.7382 5.10567 10.7382H12.354C12.7969 10.7382 13.1594 10.3758 13.1594 9.93288ZM5.10567 13.4228C4.66271 13.4228 4.30031 13.7852 4.30031 14.2282C4.30031 14.6711 4.66271 15.0335 5.10567 15.0335H7.25332C7.69628 15.0335 8.05867 14.6711 8.05867 14.2282C8.05867 13.7852 7.69628 13.4228 7.25332 13.4228H5.10567Z" fill="#9D9D9D"/>
</svg>
