<svg width="15" height="6" viewBox="0 0 15 6" fill="none" xmlns="http://www.w3.org/2000/svg">
<path opacity="0.7" d="M1.85059 0.0551758L2.9375 0.793457C2.30176 1.66162 1.97363 2.59814 1.95312 3.60303V4.99756H0.0664062V3.80811C0.0664062 3.11084 0.230469 2.42041 0.558594 1.73682C0.893555 1.05322 1.32422 0.492676 1.85059 0.0551758ZM5.08057 0.0551758L6.16748 0.793457C5.53174 1.66162 5.20361 2.59814 5.18311 3.60303V4.99756H3.29639V3.80811C3.29639 3.11084 3.46045 2.42041 3.78857 1.73682C4.12354 1.05322 4.5542 0.492676 5.08057 0.0551758ZM9.79572 5.27441L8.71906 4.53613C9.3548 3.64746 9.68293 2.71094 9.70344 1.72656V0.25H11.5799V1.58301C11.5731 2.2666 11.4022 2.9502 11.0672 3.63379C10.7391 4.31055 10.3153 4.85742 9.79572 5.27441ZM12.9437 5.27441L11.867 4.53613C12.5028 3.64746 12.8309 2.71094 12.8514 1.72656V0.25H14.7279V1.58301C14.721 2.2666 14.5501 2.9502 14.2152 3.63379C13.887 4.31055 13.4632 4.85742 12.9437 5.27441Z" fill="black"/>
</svg>
