<svg width="18" height="17" viewBox="0 0 18 17" fill="none" xmlns="http://www.w3.org/2000/svg">
<g opacity="0.7">
<path fill-rule="evenodd" clip-rule="evenodd" d="M6.75 2.83333C6.75 2.44213 7.08579 2.125 7.5 2.125H14.25C14.6642 2.125 15 2.44213 15 2.83333C15 3.22453 14.6642 3.54167 14.25 3.54167H7.5C7.08579 3.54167 6.75 3.22453 6.75 2.83333Z" fill="black"/>
<path fill-rule="evenodd" clip-rule="evenodd" d="M3 14.1673C3 13.7761 3.33579 13.459 3.75 13.459H10.5C10.9142 13.459 11.25 13.7761 11.25 14.1673C11.25 14.5585 10.9142 14.8757 10.5 14.8757H3.75C3.33579 14.8757 3 14.5585 3 14.1673Z" fill="black"/>
<path fill-rule="evenodd" clip-rule="evenodd" d="M11.5135 2.17029C11.9014 2.30765 12.0979 2.71594 11.9524 3.08224L7.45245 14.4156C7.30701 14.7819 6.8747 14.9675 6.48686 14.8301C6.09902 14.6927 5.90252 14.2844 6.04796 13.9181L10.548 2.58481C10.6934 2.21852 11.1257 2.03293 11.5135 2.17029Z" fill="black"/>
</g>
</svg>
