<svg width="61" height="76" viewBox="0 0 61 76" fill="none" xmlns="http://www.w3.org/2000/svg">
<path d="M60.05 31.4514L66.25 7.59993L73.75 1.2666V29.1333L61.25 31.2485L60.05 31.4514Z" fill="#9BC9FF"/>
<path d="M37.5 62.0664C40.9515 62.0664 43.75 64.9022 43.75 68.3997H31.25C31.25 64.9022 34.0485 62.0664 37.5 62.0664Z" fill="#9BC9FF"/>
<path d="M16.25 53.2005L20.9625 52.1113L27.9126 50.515L38.3124 48.1214C40.7025 46.501 42.5885 44.2249 43.75 41.5599V34.2005L44.9249 33.9976L48.6377 33.3772L60.05 31.4519L61.25 31.249L73.75 29.1338V74.7338H1.25L16.25 59.5338V53.2005ZM67.5 68.4005L57.5 58.2671L67.5 48.1338L57.5 58.2671L67.5 68.4005ZM27.5 68.4005H47.5L52.5 63.3338L47.5 68.4005H43.75C43.75 64.9029 40.9515 62.0671 37.5 62.0671C34.0485 62.0671 31.25 64.9029 31.25 68.4005H27.5L22.5 73.4671L27.5 68.4005ZM13.3215 69.6671L21.25 61.6329V57.2411L40.3223 52.8547L41.0925 52.3327C44.2737 50.1791 46.7828 47.151 48.3252 43.6027L48.75 42.6261V38.4934L62.5 36.3843L48.75 38.4934V42.6261L48.3252 43.6027C46.7828 47.151 44.2737 50.1791 41.0925 52.3327L40.3223 52.8547L21.25 57.2411V61.6329L13.3215 69.6671Z" fill="#9BC9FF"/>
<path d="M22.5 30.3999C22.5 28.3013 24.1791 26.5999 26.25 26.5999H27.5V24.0665H30V26.5999H31.2402L31.2201 24.0764L33.7201 24.0566L33.7402 26.5999H37.5V29.1332H35V41.7999H37.5V44.3332H33.7402L33.7201 46.8764L31.2201 46.8566L31.2402 44.3332H30V46.8665H27.5V44.3332H26.25C24.1791 44.3332 22.5 42.6317 22.5 40.5332V37.9999C22.5031 37.0622 22.851 36.1592 23.4747 35.4665C22.851 34.7738 22.5031 33.8708 22.5 32.9332V30.3999ZM32.5 29.1332H26.25C25.5597 29.1332 25 29.7004 25 30.3999V32.9332C25 33.6327 25.5597 34.1999 26.25 34.1999H32.5V29.1332ZM25 40.5332C25 41.2327 25.5597 41.7999 26.25 41.7999H32.5V36.7332H26.25C25.5597 36.7332 25 37.3004 25 37.9999V40.5332Z" fill="#1E81CE"/>
<path d="M30 12.6664C30.6903 12.6664 31.25 12.0993 31.25 11.3997V6.33307C31.25 5.63356 30.6903 5.06641 30 5.06641C29.3097 5.06641 28.75 5.63356 28.75 6.33307V11.3997C28.75 12.0993 29.3097 12.6664 30 12.6664Z" fill="#1E81CE"/>
<path d="M18.355 15.4898C18.8011 15.4892 19.2137 15.248 19.4365 14.8559C19.6593 14.4644 19.6593 13.9814 19.4359 13.5898L16.9359 9.20228C16.7143 8.80707 16.3005 8.56277 15.8519 8.56153C15.4039 8.56029 14.9889 8.80336 14.7655 9.19734C14.5421 9.59131 14.5445 10.0768 14.771 10.469L17.271 14.8565C17.4944 15.2486 17.9076 15.4905 18.355 15.4898Z" fill="#1E81CE"/>
<path d="M9.66012 23.8352C10.2259 23.8352 10.7209 23.4505 10.8674 22.8963C11.0139 22.3428 10.7752 21.7583 10.2851 21.4719L5.95528 18.9386C5.35714 18.5885 4.59237 18.7963 4.24691 19.4025C3.90206 20.0086 4.10714 20.7836 4.70528 21.1336L9.03512 23.6669C9.22494 23.7777 9.44101 23.8358 9.66012 23.8352Z" fill="#1E81CE"/>
<path d="M1.25 35.4669H6.25C6.94031 35.4669 7.5 34.8998 7.5 34.2003C7.5 33.5007 6.94031 32.9336 6.25 32.9336H1.25C0.559692 32.9336 0 33.5007 0 34.2003C0 34.8998 0.559692 35.4669 1.25 35.4669Z" fill="#1E81CE"/>
<path d="M4.70847 49.801C4.92759 49.801 5.14304 49.7429 5.33347 49.6328L9.66331 47.0994C10.2615 46.7494 10.4665 45.9744 10.1217 45.3683C9.77623 44.7622 9.01145 44.5544 8.41331 44.9044L4.08347 47.4377C3.59336 47.7241 3.35471 48.3086 3.5012 48.8621C3.64768 49.4163 4.14268 49.801 4.70847 49.801Z" fill="#1E81CE"/>
<path d="M0 74.7333C0 74.7055 0.0140381 74.6826 0.0152588 74.6548C0.022583 74.541 0.045166 74.4284 0.0823975 74.3202C0.0939941 74.28 0.108032 74.2404 0.123901 74.2014C0.182495 74.0685 0.263062 73.9466 0.362549 73.8415L15 59.0089V53.2C15 52.6093 15.4028 52.0966 15.9711 51.9649L17.8326 51.5369C10.7361 46.0274 8.11218 36.4136 11.4062 27.9922C14.6997 19.5702 23.111 14.3885 32.0056 15.3014C40.8997 16.2143 48.1146 23.0004 49.6753 31.9202L59.0503 30.3382L65.0415 7.27715C65.1074 7.02233 65.2502 6.79473 65.4498 6.62588L72.9498 0.292546C73.0438 0.213997 73.1482 0.149674 73.2599 0.101432H73.2837C73.4149 0.0500976 73.5541 0.0216472 73.6951 0.0179362C73.714 0.00989583 73.7299 0 73.75 0C73.7701 0 73.7915 0.0111328 73.8123 0.0123698C73.9349 0.0191732 74.0558 0.0439128 74.1711 0.0859701C74.1986 0.0964844 74.2285 0.100195 74.2548 0.112565C74.2633 0.114421 74.2719 0.116894 74.2798 0.120606C74.4006 0.179362 74.5117 0.257292 74.6075 0.351921C74.6338 0.377279 74.6527 0.406348 74.6765 0.43418C74.7491 0.517676 74.8108 0.610449 74.8602 0.710644C74.8798 0.748372 74.8975 0.787337 74.9127 0.826921C74.9677 0.967318 74.9969 1.11576 75 1.26667V74.7333C75 75.4328 74.4403 76 73.75 76H1.25C1.10046 75.9969 0.952759 75.9672 0.813599 75.9116C0.770874 75.8949 0.72937 75.8757 0.688477 75.854C0.557861 75.7835 0.438232 75.6938 0.332642 75.5881C0.240479 75.4897 0.165405 75.3759 0.109863 75.2529C0.109863 75.2411 0.0964355 75.2337 0.0915527 75.2226C0.0372314 75.0822 0.00854492 74.9343 0.00488281 74.784C0.00854492 74.7636 0 74.75 0 74.7333ZM30 17.7333C22.1014 17.7364 15.1837 23.1 13.1165 30.8249C11.0486 38.5498 14.3439 46.7201 21.1584 50.7669L23.0536 50.3308C16.1072 47.0009 12.4146 39.1931 14.2053 31.6197C15.9961 24.0469 22.7802 18.7829 30.4614 19.0049C38.1433 19.2276 44.6198 24.875 45.9814 32.5394L47.2314 32.3278C45.7458 23.8694 38.4784 17.7142 30 17.7333ZM42.5775 33.7603C42.5885 33.7299 42.6123 33.7058 42.6251 33.6768C42.6685 33.5728 42.7252 33.4745 42.7936 33.3854C42.8247 33.3558 42.8571 33.3273 42.8912 33.3007C42.9596 33.2271 43.0365 33.1622 43.1201 33.1071C43.1671 33.0861 43.2147 33.0675 43.2635 33.0527C43.3466 33.0094 43.4338 32.9766 43.5236 32.955C42.2644 25.9803 36.037 21.0763 29.0564 21.5624C22.0752 22.0479 16.568 27.7689 16.2616 34.8525C15.9552 41.9361 20.9467 48.1234 27.8589 49.2262L37.8052 46.939C39.8193 45.4905 41.4355 43.5448 42.5 41.286V34.2C42.5 34.0497 42.5262 33.9013 42.5775 33.7603ZM72.5 3.9707L67.3578 8.31312L61.7499 29.8755L72.5 28.0603V3.9707ZM21.25 73.4667C21.25 73.1308 21.3818 72.8086 21.6162 72.5711L26.6162 67.5044C26.8506 67.2669 27.1686 67.1333 27.5 67.1333H30.1123C30.719 63.4781 33.8422 60.8012 37.5 60.8012C41.1578 60.8012 44.281 63.4781 44.8877 67.1333H46.9824L51.6162 62.4378C52.1069 61.9578 52.8864 61.9646 53.3685 62.4532C53.8507 62.9418 53.8574 63.7316 53.3838 64.2289L48.3838 69.2956C48.1494 69.5331 47.8314 69.6667 47.5 69.6667H28.0176L24.2676 73.4667H72.5V30.6295L68.75 31.2628V48.1333C68.75 48.4692 68.6182 48.7914 68.3838 49.0289L59.2676 58.2667L68.3838 67.5044C68.7085 67.8223 68.8391 68.2936 68.7244 68.7365C68.6102 69.1793 68.269 69.525 67.832 69.6407C67.395 69.757 66.9299 69.6246 66.6162 69.2956L56.6162 59.1622C56.1285 58.6674 56.1285 57.8659 56.6162 57.3711L66.25 47.6089V31.6846L45 35.2694V41.5594C44.9994 41.7338 44.9634 41.9064 44.8938 42.0659C43.6389 44.9537 41.5967 47.4177 39.0076 49.1693C38.8806 49.2559 38.739 49.3184 38.5901 49.353L17.5 54.2131V59.5333C17.5 59.8692 17.3682 60.1914 17.1338 60.4289L4.26758 73.4667H21.25ZM32.6776 67.1333H42.3224C41.7615 64.8987 39.7754 63.3346 37.5 63.3346C35.2246 63.3346 33.2385 64.8987 32.6776 67.1333Z" fill="#1E81CE"/>
<path d="M19.9996 57.2403C19.9996 56.649 20.4043 56.1363 20.9731 56.0051L39.8196 51.6695L40.397 51.2793C43.381 49.2599 45.7345 46.4192 47.181 43.0917L47.4996 42.3582V38.4926C47.4996 37.8661 47.9513 37.3336 48.5622 37.2395L62.3122 35.1305C62.7578 35.0532 63.2101 35.2257 63.4951 35.582C63.7795 35.9382 63.8522 36.4225 63.6843 36.848C63.5171 37.2742 63.1356 37.5748 62.687 37.6348L49.9996 39.5818V42.6216C49.999 42.7961 49.963 42.9686 49.8934 43.1282L49.4686 44.1035C47.8304 47.8726 45.1656 51.09 41.7861 53.3772L41.0159 53.8986C40.8883 53.9839 40.7473 54.0452 40.5984 54.0798L22.4996 58.2521V61.6322C22.4996 61.968 22.3678 62.2896 22.1334 62.5271L14.2043 70.5619C13.8906 70.891 13.4261 71.0233 12.9891 70.907C12.5521 70.7914 12.2109 70.4456 12.0962 70.0028C11.982 69.56 12.1121 69.0887 12.4374 68.7708L19.9996 61.1077V57.2403Z" fill="#1E81CE"/>
</svg>
