<svg width="45" height="41" viewBox="0 0 45 41" fill="none" xmlns="http://www.w3.org/2000/svg">
<path d="M22.5002 28.3442C17.1153 28.3442 12.75 23.9789 12.75 18.594C12.75 13.2091 17.1153 8.84375 22.5002 8.84375C27.8851 8.84375 32.2505 13.2091 32.2505 18.594C32.2443 23.9763 27.8826 28.338 22.5002 28.3442ZM22.5002 10.3438C17.9437 10.3438 14.25 14.0375 14.25 18.594C14.25 23.1501 17.9437 26.8442 22.5002 26.8442C27.0568 26.8442 30.7504 23.1501 30.7504 18.594C30.745 14.0397 27.0546 10.3489 22.5002 10.3438Z" fill="#1E81CE"/>
<path d="M27.0002 15.5938C27.0002 14.3509 25.9927 13.3438 24.7502 13.3438H24.0001V11.8438H22.5001V13.3438H21.7501V11.8438H20.2501V13.3438H18V14.8438H19.5V22.344H18V23.844H20.2501V25.3441H21.7501V23.844H22.5001V25.3441H24.0001V23.844H24.7502C25.9927 23.844 27.0002 22.8366 27.0002 21.594V20.094C26.9984 19.5384 26.7896 19.0037 26.4154 18.5939C26.7896 18.1838 26.9984 17.6491 27.0002 17.0939V15.5938ZM21.0001 14.8438H24.7502C25.1644 14.8438 25.5002 15.1793 25.5002 15.5938V17.0939C25.5002 17.5081 25.1644 17.8439 24.7502 17.8439H21.0001V14.8438ZM25.5002 21.594C25.5002 22.0082 25.1644 22.344 24.7502 22.344H21.0001V19.3439H24.7502C25.1644 19.3439 25.5002 19.6794 25.5002 20.094V21.594Z" fill="#1E81CE"/>
<path d="M22.5003 30.5943C15.8728 30.5943 10.5 25.2215 10.5 18.594C10.5 11.9662 15.8728 6.59375 22.5003 6.59375C29.1278 6.59375 34.5006 11.9662 34.5006 18.594C34.4929 25.2182 29.1245 30.5863 22.5003 30.5943ZM22.5003 8.09379C16.7012 8.09379 12 12.7946 12 18.594C12 24.3931 16.7012 29.0943 22.5003 29.0943C28.2994 29.0943 33.0006 24.3931 33.0006 18.594C32.9943 12.7972 28.2968 8.09965 22.5003 8.09379Z" fill="#1E81CE"/>
<path d="M8.36263 32.7305C7.48407 31.8516 6.05911 31.8516 5.18054 32.7305C4.30162 33.6094 4.30198 35.034 5.18054 35.9126C6.05911 36.7911 7.4837 36.7911 8.36263 35.9126C9.24119 35.034 9.24119 33.6094 8.36263 32.7305ZM7.30206 34.8524C7.00908 35.145 6.53446 35.145 6.24185 34.852C5.94887 34.559 5.94887 34.0844 6.24185 33.7914C6.53446 33.4988 7.00908 33.4984 7.30206 33.7911C7.44305 33.9317 7.52215 34.1229 7.52215 34.3217C7.52215 34.5209 7.44305 34.7117 7.30206 34.8524Z" fill="#1E81CE"/>
<path d="M31.9284 37.364C25.2009 40.7413 17.1792 40.2546 10.9092 36.0888C11.8214 33.9563 10.9634 31.48 8.92754 30.3689C6.89172 29.2577 4.34503 29.8759 3.04494 31.7967C1.74486 33.7176 2.11804 36.3119 3.90629 37.7888C5.69455 39.2658 8.31229 39.1417 9.95295 37.5021C10.0024 37.4523 10.0467 37.3984 10.0939 37.3468C16.8112 41.8026 25.4005 42.3193 32.6037 38.7011C32.9702 38.5132 33.1164 38.0642 32.9311 37.6962C32.7454 37.3281 32.2979 37.1787 31.9284 37.3618V37.364ZM6.7705 37.3219C5.33931 37.3212 4.10808 36.3093 3.82939 34.9056C3.55106 33.5015 4.30291 32.0967 5.6257 31.5496C6.94812 31.0024 8.47306 31.4661 9.26776 32.6566C10.0621 33.8468 9.90498 35.4329 8.89238 36.4444C8.3306 37.0084 7.56666 37.3245 6.7705 37.3219Z" fill="#1E81CE"/>
<path d="M36.6383 32.7311C35.7612 33.6108 35.7612 35.0339 36.6383 35.9136C37.5169 36.7922 38.9415 36.7922 39.82 35.9132C40.6989 35.0347 40.6989 33.6101 39.82 32.7315C38.9415 31.8526 37.5169 31.8526 36.6383 32.7311ZM38.7602 34.853C38.4668 35.1456 37.9922 35.1456 37.6996 34.8527C37.4066 34.5597 37.4066 34.0851 37.6996 33.7921C37.9922 33.4995 38.4668 33.4991 38.7602 33.7917C38.9008 33.9323 38.9799 34.1235 38.9799 34.3224C38.9799 34.5216 38.9008 34.7124 38.7602 34.853Z" fill="#1E81CE"/>
<path d="M41.2557 31C45.7085 24.285 46.226 15.7004 42.6118 8.49941C42.4924 8.25807 42.2529 8.09913 41.9841 8.08338C41.7153 8.06727 41.4585 8.19654 41.3113 8.42213C41.1645 8.64772 41.1494 8.93484 41.2721 9.17435C44.6472 15.9011 44.1609 23.9202 39.9973 30.1899C37.8648 29.2776 35.3881 30.1357 34.277 32.1715C33.1658 34.2077 33.7844 36.7547 35.7056 38.0545C37.6268 39.3542 40.2211 38.981 41.6977 37.192C43.1743 35.4034 43.0494 32.7853 41.4095 31.1454C41.3608 31.0904 41.3069 31.0439 41.2557 31ZM40.3504 36.4442C39.3385 37.4564 37.7524 37.6128 36.5622 36.8181C35.372 36.023 34.9094 34.4977 35.4569 33.1753C36.0044 31.8529 37.41 31.1018 38.8137 31.3808C40.2174 31.6599 41.2286 32.8919 41.2289 34.323C41.2307 35.1188 40.9147 35.8828 40.3504 36.4442Z" fill="#1E81CE"/>
<path d="M8.36435 1.27411C7.48579 0.395548 6.0612 0.395548 5.18263 1.27448C4.30371 2.15304 4.30371 3.57764 5.18263 4.4562C6.0612 5.33513 7.48579 5.33513 8.36435 4.45656C9.24328 3.57764 9.24328 2.15304 8.36435 1.27411ZM7.30378 3.39526C7.01117 3.68823 6.53618 3.68823 6.24321 3.39526C5.95023 3.10228 5.95023 2.62766 6.24321 2.33468C6.53618 2.04171 7.01117 2.04171 7.30378 2.33468C7.59676 2.62766 7.59676 3.10228 7.30378 3.39526Z" fill="#1E81CE"/>
<path d="M6.77179 -1.63379C4.95205 -1.63342 3.31175 -0.53696 2.6152 1.14436C1.91901 2.82567 2.30391 4.76078 3.59044 6.04804C3.63988 6.09748 3.69371 6.1418 3.74572 6.18904C-0.709714 12.9048 -1.22682 21.4923 2.38961 28.6947C2.57748 29.0613 3.02646 29.2078 3.39451 29.0221C3.76256 28.8368 3.91198 28.3889 3.72924 28.0198C0.353056 21.2931 0.839762 13.2732 5.00405 7.00424C6.68353 7.72204 8.63036 7.35398 9.93154 6.07185C11.2324 4.79008 11.6297 2.84911 10.9368 1.15901C10.2439 -0.530734 8.5985 -1.63416 6.77179 -1.63379ZM8.89367 4.98747C7.70602 6.11946 5.83866 6.11946 4.65101 4.98747C3.47948 3.81593 3.47948 1.91635 4.65101 0.744811C5.82255 -0.427094 7.72213 -0.427094 8.89367 0.744811C10.0652 1.91635 10.0652 3.81593 8.89367 4.98747Z" fill="#1E81CE"/>
<path d="M36.6377 1.27416C35.7588 2.15308 35.7588 3.57768 36.6377 4.45661C37.5163 5.33517 38.9412 5.33517 39.8198 4.45661C40.6987 3.57768 40.6987 2.15308 39.8198 1.27416C38.9412 0.395594 37.5163 0.395594 36.6377 1.27416ZM38.7596 3.39603C38.4662 3.68864 37.9916 3.68864 37.699 3.39567C37.406 3.10269 37.406 2.62807 37.699 2.33509C37.9916 2.04212 38.4662 2.04212 38.7596 2.33473C38.9002 2.47536 38.9793 2.66616 38.9793 2.86538C38.9793 3.0646 38.9002 3.2554 38.7596 3.39603Z" fill="#1E81CE"/>
<path d="M41.4106 -0.316533C39.6532 -2.07366 36.8043 -2.07366 35.0468 -0.316533C34.9974 -0.267094 34.9538 -0.212893 34.9066 -0.161988C28.1861 -4.61925 19.5927 -5.13453 12.3881 -1.51188C12.1467 -1.39249 11.9878 -1.15298 11.972 -0.884174C11.9559 -0.615369 12.0856 -0.358649 12.3108 -0.211428C12.5364 -0.0645738 12.8235 -0.0495586 13.063 -0.172242C19.7919 -3.55465 27.8177 -3.07087 34.0914 1.09598C33.2004 3.17831 33.9962 5.59829 35.9488 6.74566C37.9015 7.89302 40.4028 7.41035 41.7886 5.6188C43.174 3.82725 43.0121 1.28495 41.4106 -0.316533ZM40.3508 4.98707C39.1632 6.11905 37.2958 6.11905 36.1081 4.98707C34.9366 3.81553 34.9366 1.91594 36.1081 0.744406C37.2797 -0.427498 39.1793 -0.427498 40.3508 0.744406C41.5223 1.91594 41.5223 3.81553 40.3508 4.98707Z" fill="#1E81CE"/>
</svg>
