<svg width="52" height="52" viewBox="0 0 52 52" fill="none" xmlns="http://www.w3.org/2000/svg">
<g clip-path="url(#clip0)">
<path d="M36.0775 26.5315C36.1606 26.1359 36.2217 25.7361 36.26 25.3339C36.4972 22.9809 35.9863 20.6133 34.8 18.5677C31.6657 13.1389 24.7238 11.2786 19.2948 14.4131C13.866 17.5474 12.0059 24.4895 15.1402 29.9183C16.2411 31.835 17.883 33.3844 19.8601 34.3726C20.3579 34.6228 20.873 34.8363 21.4014 35.0119C23.3499 35.6614 25.4382 35.7695 27.4436 35.3245C27.9622 35.2067 28.4721 35.0535 28.9697 34.8654C30.1301 34.4287 31.2111 33.8046 32.1698 33.0178C32.4533 32.7902 32.7234 32.5468 32.9793 32.2885C34.5584 30.7179 35.6366 28.7145 36.0775 26.5315ZM29.0689 31.3424C25.148 33.6061 20.1344 32.2627 17.8707 28.3418C15.607 24.4209 16.9504 19.4073 20.8713 17.1436C24.7921 14.8799 29.8057 16.2233 32.0695 20.1441C34.3332 24.065 32.9898 29.0786 29.0689 31.3424Z" fill="#9BC9FF"/>
<path d="M32.0691 20.1444C29.8054 16.2235 24.7917 14.8801 20.8709 17.1438C16.95 19.4076 15.6066 24.4212 17.8703 28.3421C20.134 32.2629 25.1477 33.6063 29.0685 31.3426C32.9894 29.0789 34.3328 24.0653 32.0691 20.1444ZM27.0696 21.5745C27.4179 22.1777 27.2115 22.9489 26.608 23.2973C27.2117 22.9513 27.9814 23.1575 28.3308 23.759L28.9614 24.8512C29.0044 24.9256 29.0396 25.0044 29.0664 25.086C29.0812 25.1351 29.0924 25.1851 29.1 25.2359C29.1067 25.2704 29.1166 25.3041 29.1206 25.3388C29.1215 25.3465 29.1241 25.3535 29.125 25.3611C29.1255 25.3687 29.1215 25.3945 29.1221 25.4115C29.127 25.4983 29.1227 25.585 29.1094 25.6709C29.1053 25.6964 29.1016 25.722 29.0961 25.7476C29.0744 25.8511 29.0403 25.9515 28.9943 26.0467C28.9898 26.0543 28.9845 26.0612 28.9805 26.0685C28.9344 26.1556 28.8784 26.237 28.8133 26.3109C28.7952 26.3313 28.778 26.3508 28.759 26.3696C28.6821 26.4488 28.5949 26.5176 28.4998 26.574L25.7693 28.1505L26.729 29.7808L25.7693 28.1505L25.2231 28.4657L21.4396 21.9125L21.9857 21.5972L21.0537 19.9509L21.9857 21.5972L24.7162 20.0207C25.3197 19.6723 26.0908 19.8792 26.4391 20.4823L27.0696 21.5745Z" fill="#9BC9FF"/>
<path d="M24.7161 20.0208L21.4395 21.9126L23.3312 25.1892L26.6079 23.2975C27.2113 22.9491 27.4177 22.1778 27.0695 21.5747L26.4389 20.4825C26.0907 19.8793 25.3195 19.6724 24.7161 20.0208Z" fill="#9BC9FF"/>
<path d="M29.101 25.2359C29.1078 25.2703 29.1181 25.3045 29.122 25.3386C29.1178 25.304 29.1078 25.2703 29.101 25.2359Z" fill="#9BC9FF"/>
<path d="M29.0965 25.7473C29.0749 25.8509 29.0407 25.9513 28.9947 26.0465C29.0407 25.9513 29.0749 25.8509 29.0965 25.7473Z" fill="#9BC9FF"/>
<path d="M28.9621 24.8507C29.0048 24.9253 29.0401 25.0041 29.0674 25.0854C29.0404 25.0039 29.005 24.9251 28.9621 24.8507Z" fill="#9BC9FF"/>
<path d="M28.9804 26.0686C28.9343 26.1557 28.8781 26.2369 28.8131 26.311C28.8782 26.2372 28.9343 26.1557 28.9804 26.0686Z" fill="#9BC9FF"/>
<path d="M28.7576 26.3684C28.681 26.4482 28.5939 26.5173 28.4989 26.5739C28.5939 26.5173 28.681 26.4482 28.7576 26.3684Z" fill="#9BC9FF"/>
<path d="M29.1238 25.413C29.1283 25.4997 29.1242 25.5867 29.1111 25.6725C29.1245 25.5866 29.1288 25.4998 29.1238 25.413Z" fill="#9BC9FF"/>
<path d="M29.1243 25.3609C29.1234 25.3533 29.1208 25.3463 29.1198 25.3386C29.1225 25.3627 29.1204 25.387 29.1214 25.4106C29.121 25.3941 29.1258 25.3775 29.1243 25.3609Z" fill="#9BC9FF"/>
<path d="M28.8122 26.3095C28.7948 26.3298 28.7771 26.3497 28.7581 26.3685C28.7771 26.3497 28.7957 26.3301 28.8122 26.3095Z" fill="#9BC9FF"/>
<path d="M28.996 26.0459C28.9919 26.0533 28.9865 26.0603 28.9826 26.0675C28.9849 26.0612 28.99 26.0543 28.996 26.0459Z" fill="#9BC9FF"/>
<path d="M29.1096 25.6704C29.1055 25.6959 29.1021 25.722 29.0963 25.7471C29.1007 25.7221 29.1055 25.6959 29.1096 25.6704Z" fill="#9BC9FF"/>
<path d="M29.0671 25.0859C29.0816 25.1352 29.0928 25.1853 29.1006 25.2358C29.093 25.1851 29.0819 25.135 29.0671 25.0859Z" fill="#9BC9FF"/>
<path d="M25.1859 28.4L25.3385 28.3994L28.5004 26.5738C28.5954 26.5172 28.6824 26.4481 28.759 26.3683C28.778 26.3495 28.7957 26.3297 28.8131 26.3094C28.8782 26.2355 28.9345 26.1543 28.9806 26.0673C28.9845 26.06 28.9898 26.0531 28.9943 26.0455C29.0403 25.9503 29.0744 25.8499 29.0961 25.7464C29.1019 25.7213 29.1053 25.6952 29.1094 25.6697C29.1225 25.584 29.1266 25.4969 29.1221 25.4103C29.1209 25.3861 29.1232 25.3617 29.121 25.3381C29.1191 25.3146 29.1086 25.2723 29.1003 25.2352C29.0924 25.1846 29.0813 25.1345 29.0668 25.0853C29.0397 25.0039 29.0047 24.9256 28.9621 24.851L28.3315 23.7588C27.9821 23.1574 27.2124 22.9511 26.6087 23.2972L23.332 25.189L25.1859 28.4Z" fill="#9BC9FF"/>
<path d="M25.2234 28.4655L25.3381 28.3993L25.1855 28.3999L25.2234 28.4655Z" fill="#9BC9FF"/>
<path d="M18.348 12.7753C18.0464 12.9494 17.6607 12.8461 17.4866 12.5445L16.2255 10.3601C16.0513 10.0585 16.1547 9.67279 16.4563 9.49867C16.7578 9.32455 17.1435 9.4279 17.3177 9.72948L18.5788 11.9139C18.753 12.2155 18.6496 12.6012 18.348 12.7753Z" fill="#1E81CE"/>
<path d="M13.2702 17.8526C13.0751 17.9655 12.8346 17.9658 12.6392 17.8528L10.4549 16.5917C10.1558 16.4167 10.0542 16.0327 10.2275 15.7324C10.4009 15.4322 10.7842 15.3282 11.0854 15.4996L13.2697 16.7606C13.4649 16.8733 13.585 17.0813 13.585 17.3067C13.5852 17.5317 13.4654 17.7399 13.2702 17.8526Z" fill="#1E81CE"/>
<path d="M11.4118 24.7897C11.3159 24.8454 11.2072 24.8744 11.0965 24.8743L8.57432 24.8742C8.22738 24.8719 7.94782 24.5903 7.94785 24.2436C7.94787 23.8969 8.22755 23.6153 8.5742 23.6128L11.0964 23.6129C11.3817 23.6132 11.6317 23.8048 11.7055 24.0804C11.7793 24.356 11.659 24.647 11.4118 24.7897Z" fill="#1E81CE"/>
<path d="M13.2713 31.7257L11.0869 32.9869C10.7853 33.161 10.3996 33.0577 10.2255 32.7561C10.0513 32.4545 10.1547 32.0688 10.4563 31.8947L12.6407 30.6335C12.9423 30.4594 13.328 30.5627 13.5021 30.8643C13.6762 31.1659 13.5729 31.5516 13.2713 31.7257Z" fill="#1E81CE"/>
<path d="M17.0878 38.9876C16.8406 39.1303 16.5282 39.0892 16.3264 38.8875C16.1249 38.6856 16.0836 38.3734 16.2263 38.1261L17.4874 35.9417C17.5993 35.7452 17.8078 35.6234 18.0342 35.6228C18.2604 35.6223 18.4697 35.7433 18.5825 35.9394C18.6952 36.1357 18.6941 36.3771 18.5797 36.5725L17.3187 38.7569C17.2634 38.8527 17.1837 38.9326 17.0878 38.9876Z" fill="#1E81CE"/>
<path d="M41.6817 24.7897C41.5861 24.8452 41.4771 24.8744 41.3665 24.8743L38.8442 24.8742C38.6178 24.8755 38.4083 24.7558 38.2946 24.5601C38.1809 24.3644 38.181 24.1226 38.2945 23.9269C38.408 23.7313 38.6179 23.6115 38.8441 23.6128L41.3664 23.6129C41.6519 23.613 41.9017 23.8048 41.9754 24.0804C42.0492 24.356 41.9289 24.647 41.6817 24.7897Z" fill="#1E81CE"/>
<path d="M39.4842 16.5914L37.2997 17.8526C36.9982 18.0267 36.6125 17.9234 36.4383 17.6218C36.2642 17.3202 36.3676 16.9345 36.6692 16.7604L38.8536 15.4992C39.1552 15.3251 39.5408 15.4284 39.715 15.73C39.8891 16.0316 39.7857 16.4173 39.4842 16.5914Z" fill="#1E81CE"/>
<path d="M32.2223 12.7747C31.9751 12.9174 31.663 12.8761 31.4612 12.6744C31.2594 12.4727 31.2182 12.1605 31.3609 11.9131L32.6219 9.7288C32.7974 9.42982 33.1811 9.32843 33.4814 9.50174C33.7816 9.67505 33.8854 10.0581 33.7143 10.3596L32.4532 12.5439C32.398 12.6398 32.3185 12.7195 32.2223 12.7747Z" fill="#1E81CE"/>
<path d="M25.286 10.9159C25.0911 11.0284 24.8509 11.0281 24.6558 10.9157C24.4609 10.8028 24.3408 10.5948 24.3408 10.3694L24.3409 7.84717C24.3431 7.50065 24.6248 7.22067 24.9715 7.2207C25.3182 7.22072 25.5997 7.50082 25.602 7.84721L25.6019 10.3694C25.6021 10.5951 25.4816 10.8033 25.286 10.9159Z" fill="#1E81CE"/>
<path d="M45.4166 31.1959L36.7784 26.2078C36.8235 25.9379 36.8628 25.6666 36.8888 25.3977C37.1403 22.9131 36.6008 20.4127 35.347 18.2528C32.0384 12.5221 24.7111 10.5587 18.9804 13.8673C13.25 17.1758 11.2864 24.5033 14.595 30.2339C15.758 32.2582 17.4922 33.8943 19.5805 34.9378C19.9682 35.1296 20.3655 35.3005 20.7713 35.4502L20.7695 45.4258C20.7697 45.6707 20.9112 45.893 21.1328 45.9965C21.3542 46.1005 21.6157 46.0668 21.8037 45.9103L25.1863 43.0923L28.568 45.9076C28.756 46.0644 29.0175 46.0979 29.2391 45.9941C29.255 45.986 29.2705 45.9771 29.2855 45.9674C29.4807 45.8547 29.6009 45.6466 29.6009 45.4212L29.5998 35.2812C30.5377 34.9018 31.4182 34.3935 32.2157 33.7709L40.9981 38.8439C41.1933 38.9566 41.4336 38.9565 41.6288 38.8438C41.6447 38.8357 41.6602 38.8267 41.6752 38.817C41.8758 38.6774 41.9773 38.4339 41.9358 38.1926L41.1886 33.8563L45.3203 32.3358C45.5499 32.2513 45.7097 32.0417 45.7304 31.7979C45.7512 31.5544 45.6295 31.3207 45.418 31.1983L45.4166 31.1959ZM28.3406 44.0782L25.5884 41.7875C25.3857 41.6187 25.0993 41.5942 24.8706 41.7259C24.8394 41.7439 24.8097 41.7646 24.7816 41.7872L22.0283 44.0812L22.0289 35.8526C22.2644 35.9107 22.5018 35.9635 22.7414 36.0108C22.8091 36.024 22.8773 36.0319 22.9453 36.0438C23.1273 36.0757 23.3096 36.1051 23.4928 36.1281C23.5851 36.1395 23.6782 36.148 23.7709 36.157C23.9303 36.1734 24.0915 36.1902 24.251 36.198C24.3499 36.2042 24.4497 36.2078 24.5498 36.2111C24.7052 36.2167 24.8612 36.2197 25.0168 36.2188C25.1164 36.2189 25.2165 36.218 25.3158 36.2151C25.475 36.2106 25.6334 36.2024 25.7923 36.1913C25.8867 36.1848 25.9814 36.1795 26.0763 36.1727C26.2506 36.1568 26.4246 36.1349 26.5979 36.1112C26.6755 36.1009 26.754 36.094 26.8305 36.0804C27.081 36.0414 27.3317 35.9959 27.5797 35.939C27.8302 35.8833 28.0829 35.8167 28.3392 35.7409L28.3406 44.0782ZM28.7486 34.2755C28.2785 34.4533 27.7968 34.5981 27.3069 34.7096C25.6536 35.0772 23.9364 35.0464 22.2972 34.6201C22.0638 34.5607 21.8318 34.492 21.6009 34.4141C21.1012 34.2482 20.6144 34.0461 20.1439 33.81C18.2771 32.8766 16.7271 31.4132 15.6872 29.6034C12.727 24.4761 14.4838 17.9197 19.611 14.9595C24.7385 11.9992 31.2946 13.7561 34.2548 18.8833C35.3763 20.8153 35.8584 23.052 35.633 25.2745C35.5967 25.6549 35.5391 26.033 35.4604 26.4073C35.0464 28.4706 34.0271 30.3636 32.5328 31.8453C32.2912 32.0882 32.0363 32.3172 31.769 32.5316C30.864 33.2735 29.844 33.8624 28.7491 34.2751L28.7486 34.2755ZM40.2589 32.8514C39.9735 32.9568 39.8039 33.2506 39.8555 33.5504L40.464 37.0787L33.2467 32.9118C33.3071 32.8538 33.3662 32.7948 33.4249 32.7364C33.6225 32.5398 33.8103 32.3368 33.9925 32.1289C34.0539 32.0586 34.1111 31.9876 34.1696 31.9147C34.2876 31.7736 34.4046 31.6332 34.5148 31.486C34.5802 31.3992 34.6429 31.3107 34.7062 31.2227C34.8031 31.0863 34.8994 30.9501 34.9901 30.8109C35.0527 30.715 35.1136 30.6184 35.1727 30.5206C35.2574 30.3835 35.3393 30.2445 35.4177 30.104C35.4744 30.0026 35.5296 29.9018 35.5829 29.7988C35.658 29.6549 35.729 29.5093 35.7978 29.3626C35.8466 29.2616 35.8958 29.1603 35.9398 29.0548C36.009 28.8969 36.0716 28.737 36.1344 28.5784C36.1716 28.484 36.2108 28.3886 36.2448 28.2918C36.3211 28.0767 36.3895 27.8588 36.4514 27.6403C36.4643 27.5962 36.4793 27.5513 36.4927 27.5087L36.4939 27.5033L43.6191 31.6179L40.2589 32.8514Z" fill="#1E81CE"/>
<path d="M26.9857 20.1671C26.4634 19.2623 25.3066 18.9521 24.4015 19.4746L23.8554 19.7899L23.2248 18.6977L22.1326 19.3283L22.7632 20.4205L22.2216 20.7332L21.6023 19.6402L20.5052 20.2622L21.1294 21.3638L19.4866 22.3123L20.1172 23.4045L21.2094 22.7739L24.3623 28.235L23.2701 28.8656L23.9007 29.9578L25.5435 29.0093L26.1854 30.1007L27.2727 29.4616L26.6358 28.3787L27.1773 28.066L27.8079 29.1582L28.9001 28.5276L28.2695 27.4354L28.8157 27.1201C28.9124 27.0629 29.0037 26.997 29.0887 26.923C29.1173 26.8994 29.1433 26.8741 29.1702 26.8486C29.2256 26.7956 29.2776 26.7397 29.3256 26.68C29.3491 26.6518 29.374 26.6253 29.3954 26.5952C29.4554 26.5133 29.5087 26.4263 29.5546 26.3351C29.5702 26.3044 29.5821 26.272 29.5957 26.2389C29.6264 26.1689 29.6527 26.0975 29.6752 26.0244C29.686 25.9901 29.6956 25.9562 29.7045 25.9211C29.7255 25.8325 29.7404 25.7425 29.7493 25.6521C29.7504 25.6354 29.7548 25.619 29.7558 25.6017C29.7621 25.5049 29.7614 25.4083 29.7536 25.3115C29.7524 25.3008 29.7485 25.2899 29.7472 25.2789C29.7374 25.2084 29.724 25.1384 29.7064 25.0696C29.6964 25.0099 29.6831 24.9511 29.6664 24.8932C29.6262 24.7689 29.5731 24.6491 29.5081 24.5359L28.8775 23.4437C28.6428 23.0402 28.2663 22.7385 27.8211 22.5974C27.9214 22.1412 27.8484 21.6643 27.6163 21.2593L26.9857 20.1671ZM25.8935 20.7977L26.5241 21.8899C26.6982 22.1915 26.5949 22.5772 26.2933 22.7513L23.5628 24.3278L22.3016 22.1433L25.0321 20.5669C25.3337 20.3927 25.7194 20.4961 25.8935 20.7977ZM25.4545 27.6044L24.1934 25.42L26.9239 23.8435C27.2255 23.6694 27.6112 23.7727 27.7853 24.0743L28.4159 25.1665C28.4606 25.2409 28.488 25.3247 28.4961 25.4114C28.5028 25.4822 28.4977 25.5534 28.4812 25.6227C28.4742 25.6462 28.4664 25.6696 28.4568 25.6925C28.4408 25.7381 28.4194 25.7817 28.3934 25.8223C28.3802 25.8438 28.3657 25.8642 28.3504 25.8838C28.3041 25.941 28.2482 25.9901 28.1851 26.0279L25.4545 27.6044Z" fill="#1E81CE"/>
<path d="M29.3839 31.8886C25.1614 34.3264 19.7621 32.8797 17.3243 28.6572C14.8864 24.4347 16.3332 19.0354 20.5556 16.5976C24.7781 14.1598 30.1774 15.6065 32.6153 19.8289C35.0475 24.0522 33.6019 29.4473 29.3839 31.8886ZM21.1862 17.6898C17.5669 19.7794 16.3269 24.4073 18.4165 28.0266C20.5061 31.6459 25.134 32.8859 28.7533 30.7963C32.3726 28.7068 33.6126 24.0788 31.523 20.4595C29.4306 16.844 24.8062 15.6051 21.1862 17.6898Z" fill="#1E81CE"/>
</g>
<defs>
<clipPath id="clip0">
<rect y="19" width="38" height="38" transform="rotate(-30 0 19)" fill="white"/>
</clipPath>
</defs>
</svg>
