<svg width="45" height="45" viewBox="0 0 45 45" fill="none" xmlns="http://www.w3.org/2000/svg">
<g clip-path="url(#clip0)">
<path d="M22.5003 11.3433C16.287 11.3433 11.25 16.3799 11.25 22.5935C11.25 28.8068 16.287 33.8438 22.5003 33.8438C28.7136 33.8438 33.7506 28.8068 33.7506 22.5935C33.7506 16.3799 28.7136 11.3433 22.5003 11.3433ZM22.5003 31.5938C17.5296 31.5938 13.5001 27.5639 13.5001 22.5935C13.5001 17.6228 17.5296 13.5933 22.5003 13.5933C27.471 13.5933 31.5005 17.6228 31.5005 22.5935C31.5005 27.5639 27.471 31.5938 22.5003 31.5938Z" fill="#9BC9FF"/>
<path d="M22.5002 13.5938C17.5295 13.5938 13.5 17.6233 13.5 22.594C13.5 27.5643 17.5295 31.5942 22.5002 31.5942C27.4709 31.5942 31.5005 27.5643 31.5005 22.594C31.5005 17.6233 27.4709 13.5938 22.5002 13.5938ZM26.2503 21.0939C26.2503 21.9223 25.5787 22.594 24.7503 22.594C25.5787 22.594 26.2503 23.2653 26.2503 24.094V25.5941C26.2503 26.4224 25.5787 27.0941 24.7503 27.0941H20.2502V18.0939H24.7503C25.5787 18.0939 26.2503 18.7651 26.2503 19.5939V21.0939Z" fill="#9BC9FF"/>
<path d="M24.7501 18.0938H20.25V22.5939H24.7501C25.5785 22.5939 26.2502 21.9222 26.2502 21.0938V19.5938C26.2502 18.765 25.5785 18.0938 24.7501 18.0938Z" fill="#9BC9FF"/>
<path d="M20.25 27.0939H24.7501C25.5785 27.0939 26.2502 26.4222 26.2502 25.5938V24.0938C26.2502 23.265 25.5785 22.5938 24.7501 22.5938H20.25V27.0939Z" fill="#9BC9FF"/>
<path d="M22.5002 32.3442C17.1153 32.3442 12.75 27.9789 12.75 22.594C12.75 17.2091 17.1153 12.8438 22.5002 12.8438C27.8851 12.8438 32.2505 17.2091 32.2505 22.594C32.2443 27.9763 27.8826 32.338 22.5002 32.3442ZM22.5002 14.3438C17.9437 14.3438 14.25 18.0375 14.25 22.594C14.25 27.1501 17.9437 30.8442 22.5002 30.8442C27.0568 30.8442 30.7504 27.1501 30.7504 22.594C30.745 18.0397 27.0546 14.3489 22.5002 14.3438Z" fill="#1E81CE"/>
<path d="M27.0002 19.5938C27.0002 18.3509 25.9927 17.3438 24.7502 17.3438H24.0001V15.8438H22.5001V17.3438H21.7501V15.8438H20.2501V17.3438H18V18.8438H19.5V26.344H18V27.844H20.2501V29.3441H21.7501V27.844H22.5001V29.3441H24.0001V27.844H24.7502C25.9927 27.844 27.0002 26.8366 27.0002 25.594V24.094C26.9984 23.5384 26.7896 23.0037 26.4154 22.5939C26.7896 22.1838 26.9984 21.6491 27.0002 21.0939V19.5938ZM21.0001 18.8438H24.7502C25.1644 18.8438 25.5002 19.1793 25.5002 19.5938V21.0939C25.5002 21.5081 25.1644 21.8439 24.7502 21.8439H21.0001V18.8438ZM25.5002 25.594C25.5002 26.0082 25.1644 26.344 24.7502 26.344H21.0001V23.3439H24.7502C25.1644 23.3439 25.5002 23.6794 25.5002 24.094V25.594Z" fill="#1E81CE"/>
<path d="M22.5003 34.5943C15.8728 34.5943 10.5 29.2215 10.5 22.594C10.5 15.9662 15.8728 10.5938 22.5003 10.5938C29.1278 10.5938 34.5006 15.9662 34.5006 22.594C34.4929 29.2182 29.1245 34.5863 22.5003 34.5943ZM22.5003 12.0938C16.7012 12.0938 12 16.7946 12 22.594C12 28.3931 16.7012 33.0943 22.5003 33.0943C28.2994 33.0943 33.0006 28.3931 33.0006 22.594C32.9943 16.7972 28.2968 12.0996 22.5003 12.0938Z" fill="#1E81CE"/>
<path d="M8.36263 36.731C7.48407 35.852 6.05911 35.852 5.18054 36.731C4.30162 37.6099 4.30198 39.0345 5.18054 39.9131C6.05911 40.7916 7.4837 40.7916 8.36263 39.9131C9.24119 39.0345 9.24119 37.6099 8.36263 36.731ZM7.30206 38.8529C7.00908 39.1455 6.53446 39.1455 6.24185 38.8525C5.94887 38.5595 5.94887 38.0849 6.24185 37.7919C6.53446 37.4993 7.00908 37.4989 7.30206 37.7915C7.44305 37.9322 7.52215 38.1233 7.52215 38.3222C7.52215 38.5214 7.44305 38.7122 7.30206 38.8529Z" fill="#1E81CE"/>
<path d="M31.9284 41.364C25.2009 44.7413 17.1792 44.2546 10.9092 40.0888C11.8214 37.9563 10.9634 35.48 8.92754 34.3689C6.89172 33.2577 4.34503 33.8759 3.04494 35.7967C1.74486 37.7176 2.11804 40.3119 3.90629 41.7888C5.69455 43.2658 8.31229 43.1417 9.95295 41.5021C10.0024 41.4523 10.0467 41.3984 10.0939 41.3468C16.8112 45.8026 25.4005 46.3193 32.6037 42.7011C32.9702 42.5132 33.1164 42.0642 32.9311 41.6962C32.7454 41.3281 32.2979 41.1787 31.9284 41.3618V41.364ZM6.7705 41.3219C5.33931 41.3212 4.10808 40.3093 3.82939 38.9056C3.55106 37.5015 4.30291 36.0967 5.6257 35.5496C6.94812 35.0024 8.47306 35.4661 9.26776 36.6566C10.0621 37.8468 9.90498 39.4329 8.89238 40.4444C8.3306 41.0084 7.56666 41.3245 6.7705 41.3219Z" fill="#1E81CE"/>
<path d="M36.6383 36.7307C35.7612 37.6103 35.7612 39.0334 36.6383 39.9131C37.5169 40.7917 38.9415 40.7917 39.82 39.9127C40.6989 39.0342 40.6989 37.6096 39.82 36.731C38.9415 35.8521 37.5169 35.8521 36.6383 36.7307ZM38.7602 38.8525C38.4668 39.1451 37.9922 39.1451 37.6996 38.8522C37.4066 38.5592 37.4066 38.0846 37.6996 37.7916C37.9922 37.499 38.4668 37.4986 38.7602 37.7912C38.9008 37.9319 38.9799 38.123 38.9799 38.3219C38.9799 38.5211 38.9008 38.7119 38.7602 38.8525Z" fill="#1E81CE"/>
<path d="M41.2557 35C45.7085 28.285 46.226 19.7004 42.6118 12.4994C42.4924 12.2581 42.2529 12.0991 41.9841 12.0834C41.7153 12.0673 41.4585 12.1965 41.3113 12.4221C41.1645 12.6477 41.1494 12.9348 41.2721 13.1743C44.6472 19.9011 44.1609 27.9202 39.9973 34.1899C37.8648 33.2776 35.3881 34.1357 34.277 36.1715C33.1658 38.2077 33.7844 40.7547 35.7056 42.0545C37.6268 43.3542 40.2211 42.981 41.6977 41.192C43.1743 39.4034 43.0494 36.7853 41.4095 35.1454C41.3608 35.0904 41.3069 35.0439 41.2557 35ZM40.3504 40.4442C39.3385 41.4564 37.7524 41.6128 36.5622 40.8181C35.372 40.023 34.9094 38.4977 35.4569 37.1753C36.0044 35.8529 37.41 35.1018 38.8137 35.3808C40.2174 35.6599 41.2286 36.8919 41.2289 38.323C41.2307 39.1188 40.9147 39.8828 40.3504 40.4442Z" fill="#1E81CE"/>
<path d="M8.36435 5.2746C7.48579 4.39604 6.0612 4.39604 5.18263 5.27496C4.30371 6.15353 4.30371 7.57812 5.18263 8.45669C6.0612 9.33561 7.48579 9.33561 8.36435 8.45705C9.24328 7.57812 9.24328 6.15353 8.36435 5.2746ZM7.30378 7.39575C7.01117 7.68872 6.53618 7.68872 6.24321 7.39575C5.95023 7.10277 5.95023 6.62815 6.24321 6.33517C6.53618 6.0422 7.01117 6.0422 7.30378 6.33517C7.59676 6.62815 7.59676 7.10277 7.30378 7.39575Z" fill="#1E81CE"/>
<path d="M6.77179 2.36572C4.95205 2.36609 3.31175 3.46255 2.6152 5.14387C1.91901 6.82518 2.30391 8.76029 3.59044 10.0476C3.63988 10.097 3.69371 10.1413 3.74572 10.1885C-0.709714 16.9043 -1.22682 25.4918 2.38961 32.6942C2.57748 33.0608 3.02646 33.2073 3.39451 33.0216C3.76256 32.8363 3.91198 32.3884 3.72924 32.0193C0.353056 25.2926 0.839762 17.2727 5.00405 11.0038C6.68353 11.7215 8.63036 11.3535 9.93154 10.0714C11.2324 8.78959 11.6297 6.84862 10.9368 5.15852C10.2439 3.46878 8.5985 2.36536 6.77179 2.36572ZM8.89367 8.98698C7.70602 10.119 5.83866 10.119 4.65101 8.98698C3.47948 7.81544 3.47948 5.91586 4.65101 4.74432C5.82255 3.57242 7.72213 3.57242 8.89367 4.74432C10.0652 5.91586 10.0652 7.81544 8.89367 8.98698Z" fill="#1E81CE"/>
<path d="M36.6377 5.27416C35.7588 6.15308 35.7588 7.57768 36.6377 8.45661C37.5163 9.33517 38.9412 9.33517 39.8198 8.45661C40.6987 7.57768 40.6987 6.15308 39.8198 5.27416C38.9412 4.39559 37.5163 4.39559 36.6377 5.27416ZM38.7596 7.39603C38.4662 7.68864 37.9916 7.68864 37.699 7.39567C37.406 7.10269 37.406 6.62807 37.699 6.33509C37.9916 6.04212 38.4662 6.04212 38.7596 6.33473C38.9002 6.47536 38.9793 6.66616 38.9793 6.86538C38.9793 7.0646 38.9002 7.2554 38.7596 7.39603Z" fill="#1E81CE"/>
<path d="M41.4106 3.68347C39.6532 1.92634 36.8043 1.92634 35.0468 3.68347C34.9974 3.73291 34.9538 3.78711 34.9066 3.83801C28.1861 -0.619253 19.5927 -1.13453 12.3881 2.48812C12.1467 2.60751 11.9878 2.84702 11.972 3.11583C11.9559 3.38463 12.0856 3.64135 12.3108 3.78857C12.5364 3.93543 12.8235 3.95044 13.063 3.82776C19.7919 0.445349 27.8177 0.929125 34.0914 5.09598C33.2004 7.17831 33.9962 9.59829 35.9488 10.7457C37.9015 11.893 40.4028 11.4103 41.7886 9.6188C43.174 7.82725 43.0121 5.28495 41.4106 3.68347ZM40.3508 8.98707C39.1632 10.1191 37.2958 10.1191 36.1081 8.98707C34.9366 7.81553 34.9366 5.91594 36.1081 4.74441C37.2797 3.5725 39.1793 3.5725 40.3508 4.74441C41.5223 5.91594 41.5223 7.81553 40.3508 8.98707Z" fill="#1E81CE"/>
</g>
<defs>
<clipPath id="clip0">
<rect width="45" height="45" fill="white"/>
</clipPath>
</defs>
</svg>
