<svg width="16" height="11" viewBox="0 0 16 11" fill="none" xmlns="http://www.w3.org/2000/svg">
<path d="M14.75 1.9586H5C4.55 1.9586 4.25 1.67527 4.25 1.25027C4.25 0.825266 4.55 0.541932 5 0.541932H14.75C15.2 0.541932 15.5 0.825266 15.5 1.25027C15.5 1.67527 15.2 1.9586 14.75 1.9586Z" fill="black"/>
<path d="M14.75 6.2086H5C4.55 6.2086 4.25 5.92527 4.25 5.50027C4.25 5.07527 4.55 4.79193 5 4.79193H14.75C15.2 4.79193 15.5 5.07527 15.5 5.50027C15.5 5.92527 15.2 6.2086 14.75 6.2086Z" fill="black"/>
<path d="M14.75 10.4586H5C4.55 10.4586 4.25 10.1753 4.25 9.75027C4.25 9.32527 4.55 9.04193 5 9.04193H14.75C15.2 9.04193 15.5 9.32527 15.5 9.75027C15.5 10.1753 15.2 10.4586 14.75 10.4586Z" fill="black"/>
<path d="M1.25 1.9586C1.175 1.9586 1.175 1.9586 1.1 1.9586C1.025 1.9586 1.025 1.9586 0.95 1.88777C0.875 1.88777 0.875 1.81693 0.8 1.81693C0.725 1.81693 0.725 1.7461 0.725 1.7461C0.65 1.67527 0.575 1.60443 0.575 1.5336C0.5 1.46277 0.5 1.3211 0.5 1.25027C0.5 1.17943 0.5 1.03777 0.575 0.966933C0.65 0.896099 0.65 0.825266 0.725 0.754433C0.95 0.541933 1.25 0.471099 1.55 0.612766C1.625 0.683599 1.7 0.683599 1.775 0.754433C1.925 0.896099 2 1.03777 2 1.25027C2 1.46277 1.925 1.60443 1.775 1.7461C1.625 1.88777 1.475 1.9586 1.25 1.9586Z" fill="black"/>
<path d="M1.25 6.2086C1.025 6.2086 0.875 6.13777 0.725 5.9961C0.575 5.85443 0.5 5.71277 0.5 5.50027C0.5 5.42943 0.5 5.42943 0.5 5.3586C0.5 5.28777 0.5 5.28777 0.575 5.21693C0.575 5.1461 0.65 5.1461 0.65 5.07527C0.65 5.00443 0.725 5.00443 0.725 5.00443C0.8 4.9336 0.875 4.86277 0.95 4.86277C1.25 4.7211 1.55 4.79193 1.775 5.00443L1.85 5.07527C1.85 5.1461 1.925 5.1461 1.925 5.21693C1.925 5.28777 1.925 5.28777 2 5.3586C2 5.42943 2 5.42943 2 5.50027C2 5.71277 1.925 5.85443 1.775 5.9961C1.625 6.13777 1.475 6.2086 1.25 6.2086Z" fill="black"/>
<path d="M1.25 10.4586C1.025 10.4586 0.875 10.3878 0.725 10.2461C0.575 10.1044 0.5 9.96277 0.5 9.75027C0.5 9.67943 0.5 9.53777 0.575 9.46693C0.65 9.3961 0.65 9.32527 0.725 9.25443C1.025 8.9711 1.475 8.9711 1.775 9.25443C1.925 9.3961 2 9.53777 2 9.75027C2 9.96277 1.925 10.1044 1.775 10.2461C1.625 10.3878 1.475 10.4586 1.25 10.4586Z" fill="black"/>
</svg>
