<svg width="26" height="26" viewBox="0 0 26 26" fill="none" xmlns="http://www.w3.org/2000/svg">
<g opacity="0.7">
<g clip-path="url(#clip0)">
<path fill-rule="evenodd" clip-rule="evenodd" d="M11.7086 7.34952C11.7192 7.76152 11.3937 8.08695 10.9817 8.07638L8.56276 8.01436L8.62479 10.4333C8.63535 10.8453 8.30992 11.1708 7.89792 11.1602C7.48593 11.1496 7.14337 10.8071 7.13281 10.3951L7.05165 7.23011C7.04109 6.81811 7.36652 6.49269 7.77852 6.50325L10.9435 6.5844C11.3555 6.59497 11.698 6.93752 11.7086 7.34952Z" fill="black"/>
<path fill-rule="evenodd" clip-rule="evenodd" d="M18.3263 6.77386C18.7383 6.78442 19.0808 7.12698 19.0914 7.53897L19.1726 10.7039C19.1831 11.1159 18.8577 11.4414 18.4457 11.4308C18.0337 11.4202 17.6912 11.0777 17.6806 10.6657L17.6186 8.24671L15.1996 8.18468C14.7876 8.17412 14.445 7.83156 14.4345 7.41957C14.4239 7.00757 14.7493 6.68214 15.1613 6.6927L18.3263 6.77386Z" fill="black"/>
<path fill-rule="evenodd" clip-rule="evenodd" d="M7.96886 13.8891C8.38086 13.8996 8.72341 14.2422 8.73398 14.6542L8.796 17.0732L11.215 17.1352C11.627 17.1458 11.9695 17.4883 11.9801 17.9003C11.9907 18.3123 11.6652 18.6377 11.2532 18.6272L8.08827 18.546C7.67627 18.5355 7.33372 18.1929 7.32315 17.7809L7.242 14.6159C7.23143 14.2039 7.55686 13.8785 7.96886 13.8891Z" fill="black"/>
<path fill-rule="evenodd" clip-rule="evenodd" d="M18.5157 14.1586C18.9277 14.1692 19.2703 14.5117 19.2809 14.9237L19.362 18.0887C19.3726 18.5007 19.0471 18.8261 18.6351 18.8156L15.4702 18.7344C15.0582 18.7238 14.7156 18.3813 14.7051 17.9693C14.6945 17.5573 15.0199 17.2319 15.4319 17.2424L17.8509 17.3044L17.7889 14.8855C17.7783 14.4735 18.1037 14.148 18.5157 14.1586Z" fill="black"/>
<path fill-rule="evenodd" clip-rule="evenodd" d="M7.25556 6.70928C7.53942 6.42542 8.01175 6.43754 8.31055 6.73633L19.131 17.5567C19.4298 17.8555 19.4419 18.3279 19.158 18.6117C18.8741 18.8956 18.4018 18.8835 18.103 18.5847L7.28261 7.76427C6.98382 7.46547 6.9717 6.99314 7.25556 6.70928Z" fill="black"/>
<path fill-rule="evenodd" clip-rule="evenodd" d="M18.8613 7.00586C19.1601 7.30466 19.1722 7.777 18.8884 8.06085L8.609 18.3402C8.32514 18.6241 7.85281 18.612 7.55401 18.3132C7.25521 18.0144 7.2431 17.5421 7.52696 17.2582L17.8063 6.97881C18.0902 6.69496 18.5625 6.70707 18.8613 7.00586Z" fill="black"/>
</g>
</g>
<defs>
<clipPath id="clip0">
<path d="M12.8828 0L25.8673 12.9845L13.532 25.3197L0.547554 12.3353L12.8828 0Z" fill="white"/>
</clipPath>
</defs>
</svg>
