<svg width="82" height="82" viewBox="0 0 82 82" fill="none" xmlns="http://www.w3.org/2000/svg">
<path d="M41 82C63.6437 82 82 63.6437 82 41C82 18.3563 63.6437 0 41 0C18.3563 0 0 18.3563 0 41C0 63.6437 18.3563 82 41 82Z" fill="#54C0EB"/>
<path d="M49.022 59.3818H47.3008V42.2024C47.3008 41.7315 47.6905 41.3418 48.1614 41.3418H63.035V43.063H49.022V59.3818Z" fill="#324A5E"/>
<path d="M61.0064 42.2031H59.2852V62.2566H61.0064V42.2031Z" fill="#324A5E"/>
<path d="M64.0425 66.5422H56.2809C56.0536 66.5422 55.875 66.3636 55.875 66.1363V58.3747C55.875 58.1474 56.0536 57.9688 56.2809 57.9688H64.0425C64.2699 57.9688 64.4485 58.1474 64.4485 58.3747V66.1363C64.4322 66.3636 64.2536 66.5422 64.0425 66.5422Z" fill="white"/>
<path d="M52.0425 63.6672H44.2809C44.0536 63.6672 43.875 63.4886 43.875 63.2613V55.4997C43.875 55.2724 44.0536 55.0938 44.2809 55.0938H52.0425C52.2699 55.0938 52.4485 55.2724 52.4485 55.4997V63.2613C52.4485 63.4886 52.2699 63.6672 52.0425 63.6672Z" fill="white"/>
<path d="M34.6991 59.3818H32.9779V43.063H18.9648V41.3418H33.8385C34.3094 41.3418 34.6991 41.7315 34.6991 42.2024V59.3818Z" fill="#324A5E"/>
<path d="M22.6978 42.2031H20.9766V62.2566H22.6978V42.2031Z" fill="#324A5E"/>
<path d="M17.9606 66.5422H25.7222C25.9495 66.5422 26.1282 66.3636 26.1282 66.1363V58.3747C26.1282 58.1474 25.9495 57.9688 25.7222 57.9688H17.9606C17.7333 57.9688 17.5547 58.1474 17.5547 58.3747V66.1363C17.5709 66.3636 17.7495 66.5422 17.9606 66.5422Z" fill="white"/>
<path d="M29.9606 63.6672H37.7222C37.9495 63.6672 38.1281 63.4886 38.1281 63.2613V55.4997C38.1281 55.2724 37.9495 55.0938 37.7222 55.0938H29.9606C29.7333 55.0938 29.5547 55.2724 29.5547 55.4997V63.2613C29.5547 63.4886 29.7333 63.6672 29.9606 63.6672Z" fill="white"/>
<path d="M61.0218 42.2014H59.3007V23.106H22.7173V42.2014H20.9961V22.2454C20.9961 21.7745 21.3858 21.3848 21.8567 21.3848H60.1613C60.6321 21.3848 61.0218 21.7745 61.0218 22.2454V42.2014Z" fill="#324A5E"/>
<path d="M47.1523 29.0336H34.8442C34.487 29.0336 34.2109 28.7576 34.2109 28.4004V16.0923C34.2109 15.735 34.487 15.459 34.8442 15.459H47.1523C47.5095 15.459 47.7856 15.735 47.7856 16.0923V28.4004C47.7856 28.7414 47.4933 29.0336 47.1523 29.0336Z" fill="white"/>
<path d="M66.3125 48.9907H54.0044C53.6471 48.9907 53.3711 48.7146 53.3711 48.3574V36.0493C53.3711 35.6921 53.6471 35.416 54.0044 35.416H66.3125C66.6697 35.416 66.9457 35.6921 66.9457 36.0493V48.3574C66.9457 48.6984 66.6535 48.9907 66.3125 48.9907Z" fill="white"/>
<path d="M27.9922 48.9907H15.684C15.3268 48.9907 15.0508 48.7146 15.0508 48.3574V36.0493C15.0508 35.6921 15.3268 35.416 15.684 35.416H27.9922C28.3494 35.416 28.6254 35.6921 28.6254 36.0493V48.3574C28.6254 48.6984 28.3494 48.9907 27.9922 48.9907Z" fill="white"/>
</svg>
