<svg width="259" height="53" viewBox="0 0 259 53" fill="none" xmlns="http://www.w3.org/2000/svg">
<path d="M11.9708 43.5011C9.90254 43.5529 8.16178 43.3288 6.74849 42.829C5.61096 42.3636 4.58546 41.6828 3.672 40.7866C2.36212 39.132 1.64685 36.5209 1.52621 32.9532C1.4745 29.9887 2.25871 26.602 3.87882 22.793C5.34381 19.4666 7.1966 16.3556 9.43718 13.4601C12.2638 10.1682 15.2972 7.50535 18.5374 5.47159C20.8297 4.04106 22.9841 3.09313 25.0006 2.62777C24.6731 2.78289 24.3457 2.94663 24.0182 3.11898C21.95 4.18756 19.6577 5.97141 17.1413 8.47052C13.7805 11.8659 10.523 16.123 7.36895 21.2418C4.23214 26.3435 2.5517 30.816 2.32765 34.6595C2.39659 37.2965 3.20664 39.3475 4.75782 40.8125C6.30899 42.2774 8.17901 43.0272 10.3679 43.0617C11.5571 42.9238 12.7033 42.6394 13.8063 42.2085C14.8577 42.0017 15.8573 41.6484 16.8052 41.1485C18.7011 40.1317 20.6659 38.3392 22.6997 35.7711C23.5442 34.6336 24.406 33.3582 25.285 31.9449C25.7676 31.1693 26.2502 30.4024 26.7327 29.644C26.095 32.3155 24.6818 35.0042 22.4929 37.7101C20.5798 40.0541 18.3392 41.7173 15.7711 42.6997C15.1507 42.941 14.5302 43.1306 13.9097 43.2685C12.979 43.4925 12.0139 43.639 11.0142 43.708C9.4458 43.6735 8.02389 43.3805 6.74849 42.829C5.52478 42.4153 4.54238 41.7862 3.80126 40.9417C3.76679 40.89 3.7237 40.8383 3.672 40.7866C3.56858 40.6832 3.46517 40.5798 3.36176 40.4764C1.39694 38.3909 0.380064 35.5729 0.311123 32.0225C0.742004 25.0767 4.00808 18.286 10.1094 11.6504C16.2106 4.99762 22.5273 1.42992 29.0595 0.947338C31.4207 0.999043 33.2046 1.63675 34.411 2.86045C35.6175 4.06692 36.2207 5.60085 36.2207 7.46226C36.1001 10.2888 35.0401 12.719 33.0408 14.7528C32.8685 14.9251 32.6875 15.0975 32.4979 15.2698C31.8258 16.5625 30.9468 17.8982 29.8609 19.277C28.6889 20.742 27.4911 21.9485 26.2674 22.8964C26.8189 23.965 27.1119 25.2232 27.1464 26.6709C27.1119 27.6706 26.974 28.6616 26.7327 29.644C27.1464 29.0063 27.5514 28.3772 27.9478 27.7568C28.034 27.6189 28.1719 27.6361 28.3615 27.8085C28.5683 27.9808 28.6286 28.1359 28.5424 28.2738C27.9392 29.5492 27.4566 30.4799 27.0947 31.0659C26.2157 32.5654 25.0265 34.2975 23.527 36.2623C22.0275 38.2272 20.4074 39.8387 18.6667 41.0968C17.7015 41.769 16.7363 42.3033 15.7711 42.6997C15.1679 42.9238 14.5474 43.1134 13.9097 43.2685C13.2548 43.4064 12.6085 43.4839 11.9708 43.5011ZM22.6997 8.59978C23.9406 7.37608 25.3712 6.72976 26.9913 6.66082C27.5428 6.66082 28.0857 6.76423 28.62 6.97105C29.1715 7.16064 29.4645 7.42779 29.499 7.77249C29.499 7.8759 29.4818 7.95346 29.4473 8.00517C29.4301 8.05687 29.3697 8.08273 29.2663 8.08273C29.0423 8.04826 28.8441 7.89314 28.6717 7.61738C28.4994 7.32438 28.1202 7.16064 27.5342 7.12617C26.276 7.21235 25.0265 7.91899 23.7855 9.24611C23.7166 9.31505 23.6476 9.39261 23.5787 9.47878C24.0958 9.3409 24.6128 9.26334 25.1299 9.24611C25.7848 9.24611 26.2846 9.32367 26.6293 9.47878C26.9913 9.61666 27.3187 9.90105 27.6117 10.3319C27.5256 10.4353 27.4825 10.5129 27.4825 10.5646C27.3618 10.7542 27.2757 10.8231 27.224 10.7714C26.9654 10.5818 26.8103 10.4784 26.7586 10.4612C26.3277 10.2716 25.9227 10.1768 25.5435 10.1768C24.5094 10.2113 23.415 10.6594 22.2602 11.5212C22.0017 12.1933 21.8552 12.8827 21.8207 13.5894C21.8379 14.6924 22.1568 15.5714 22.7773 16.2264C23.3977 16.8641 24.2078 17.1916 25.2074 17.2088C26.4311 17.1226 27.629 16.6831 28.801 15.8903C30.8347 12.4088 31.8171 9.3409 31.7482 6.68667C31.7137 5.41127 31.2742 4.48056 30.4297 3.89456C29.6024 3.30857 28.5166 3.0328 27.1722 3.06727C25.8107 3.10174 23.82 4.12724 21.2002 6.14376C17.6842 8.83246 14.3492 12.5467 11.1952 17.2863C9.41995 19.8716 7.79984 22.9395 6.33484 26.49C4.86984 30.0232 4.18044 32.9618 4.26661 35.3058C4.40449 40.1834 6.98116 42.5532 11.9966 42.4153C12.6171 42.3981 13.2203 42.3292 13.8063 42.2085C16.5812 41.1055 18.9941 39.0114 21.0451 35.9263C23.9062 31.6175 25.397 27.9119 25.5177 24.8095C25.5177 24.3614 25.4746 23.9305 25.3884 23.5169C23.527 24.7406 21.6139 25.3783 19.6491 25.43C18.253 25.4817 17.0293 25.0594 15.978 24.1632C15.685 23.9047 15.4264 23.6289 15.2024 23.3359C14.9611 23.5944 14.7198 23.8702 14.4785 24.1632C12.462 26.6451 11.3934 29.1614 11.2727 31.7122C11.29 32.8325 11.5657 33.7201 12.1 34.3751C12.6516 35.0128 13.4013 35.3403 14.3492 35.3575C14.9008 35.3575 15.4006 35.2541 15.8487 35.0473C16.2968 34.8404 16.7105 34.5388 17.0896 34.1424C17.7618 33.4013 18.1841 32.7464 18.3564 32.1776C18.5288 31.6088 18.7097 31.3072 18.8993 31.2727C19.0027 31.2727 19.0803 31.2986 19.132 31.3503C19.1837 31.402 19.2096 31.4882 19.2096 31.6088C19.1923 32.0742 18.7614 32.8498 17.9169 33.9356C17.0896 35.0214 15.9176 35.6333 14.4009 35.7711C13.1772 35.7367 12.1345 35.2196 11.2727 34.22C10.4282 33.2031 9.98871 31.8846 9.95424 30.2645C10.0749 27.5413 11.221 25.1198 13.3927 22.9998C13.7718 22.6379 14.151 22.3018 14.5302 21.9916C14.4096 21.5779 14.3492 21.1384 14.3492 20.6731C14.2458 17.5363 15.5988 14.7786 18.4081 12.4002C19.4422 11.5212 20.4505 10.8231 21.4329 10.3061C21.7431 9.70284 22.1654 9.13408 22.6997 8.59978ZM26.2674 17.9327C24.7162 17.9154 23.415 17.4501 22.3636 16.5366C21.3295 15.6231 20.7952 14.4167 20.7607 12.9172C20.3471 13.3309 19.9334 13.8048 19.5198 14.3391C17.6412 16.7003 16.5812 18.8634 16.3399 20.8282C17.736 20.1043 19.2268 19.7079 20.8124 19.639C22.5187 19.6734 23.9148 20.2077 25.0006 21.2418C25.8107 20.3456 26.6466 19.2512 27.5083 17.9585L27.6376 17.7776C27.1895 17.8637 26.7327 17.9154 26.2674 17.9327ZM24.4835 21.5521C23.8114 20.6558 22.76 20.1905 21.3295 20.156C19.537 20.2939 17.8825 20.9919 16.3658 22.2501C16.4864 22.905 16.8052 23.4393 17.3223 23.853C17.96 24.37 18.7356 24.6027 19.6491 24.551C21.183 24.5165 22.829 23.5686 24.587 21.7072C24.5525 21.6555 24.518 21.6038 24.4835 21.5521ZM34.773 6.11791C34.7558 4.75633 34.3076 3.65327 33.4286 2.80874C32.5669 1.96422 31.3432 1.53334 29.7575 1.5161C28.2925 1.49887 26.7069 1.86942 25.0006 2.62777C25.8451 2.43819 26.6724 2.32616 27.4825 2.29169C29.2749 2.22275 30.783 2.71395 32.0067 3.7653C33.4028 4.97177 34.1439 6.6522 34.2301 8.80661V8.88417C34.5231 7.9707 34.704 7.04861 34.773 6.11791ZM52.4046 30.342H49.4316L46.5877 38.1238H45.0107C44.9418 38.2444 44.8815 38.365 44.8298 38.4857C44.778 38.5891 44.7177 38.7011 44.6488 38.8218H44.3903C44.3213 38.5977 44.2093 38.4168 44.0542 38.2789C43.8991 38.1238 43.6578 38.0462 43.3303 38.0462C42.9683 38.0462 42.6409 38.1238 42.3479 38.2789C42.0549 38.434 41.7102 38.6322 41.3138 38.8735H41.1069C42.21 37.0983 43.2355 35.4264 44.1834 33.858C45.1486 32.2896 46.0276 30.7815 46.8204 29.3338H46.6912C46.6739 29.3338 46.6567 29.3252 46.6395 29.3079C46.2603 29.4113 45.9156 29.5665 45.6053 29.7733C45.2951 29.9629 45.0107 30.1955 44.7522 30.4713C44.7177 30.5058 44.6746 30.523 44.6229 30.523C44.4506 30.523 44.3644 30.3937 44.3644 30.1352C44.3644 29.9284 44.4592 29.756 44.6488 29.6182C44.8556 29.463 45.0883 29.3338 45.3468 29.2304C45.6226 29.127 45.907 29.0494 46.2 28.9977C46.493 28.946 46.7429 28.9029 46.9497 28.8684L47.079 28.8943C47.1134 28.8253 47.1479 28.765 47.1824 28.7133C47.2168 28.6444 47.2513 28.5754 47.2858 28.5065C47.4754 28.1445 47.6563 27.7998 47.8287 27.4724C48.0183 27.1277 48.1906 26.8002 48.3457 26.49L48.3716 26.4383C48.475 26.1797 48.5353 25.9212 48.5526 25.6627C48.587 25.3869 48.6043 25.1456 48.6043 24.9388C48.6043 24.0253 48.363 23.5686 47.8804 23.5686C47.3633 23.5686 46.7256 24.1718 45.9673 25.3783C45.3296 26.4124 44.9159 27.2828 44.7263 27.9894C44.6746 28.1618 44.5885 28.248 44.4678 28.248C44.2093 28.248 44.1059 28.1015 44.1576 27.8085C44.3299 26.9295 44.7694 25.9557 45.4761 24.8871C46.3206 23.5944 47.122 22.9481 47.8804 22.9481C48.5181 22.9481 49.0265 23.3101 49.4057 24.0339L49.4316 24.0856C49.759 23.3101 49.9314 22.7068 49.9486 22.2759C49.9486 21.6038 49.6298 21.2677 48.9921 21.2677C48.7335 21.2677 48.4664 21.3625 48.1906 21.5521C47.9149 21.7244 47.6736 21.914 47.4667 22.1208C46.9669 22.6724 46.536 23.2067 46.1741 23.7237C45.8294 24.2235 45.5278 24.6716 45.2693 25.0681C45.028 25.4472 44.8125 25.7661 44.6229 26.0246C44.4506 26.2659 44.2868 26.3952 44.1317 26.4124C44.0456 26.4124 43.9938 26.3952 43.9766 26.3607C43.9594 26.3262 43.9508 26.2745 43.9508 26.2056C43.9852 25.9815 44.1576 25.6368 44.4678 25.1715C44.778 24.7061 45.2089 24.1029 45.7605 23.3618C46.9152 21.8623 48.0441 21.0264 49.1472 20.854C49.4919 20.8713 49.7763 20.9575 50.0003 21.1126C50.2416 21.2505 50.4226 21.4314 50.5432 21.6555C50.6811 21.8795 50.7759 22.1381 50.8276 22.4311C50.8793 22.7241 50.9052 23.0257 50.9052 23.3359C50.9052 23.9391 50.8104 24.6199 50.6208 25.3783C50.4484 26.1194 50.2244 26.8864 49.9486 27.6792C49.9141 28.2135 49.8538 28.7133 49.7677 29.1787L52.7407 29.4889L55.0416 23.2584H57.1357C57.3081 22.9309 57.489 22.5862 57.6786 22.2242C57.8854 21.8623 58.1095 21.4573 58.3508 21.0092H58.6093C58.6783 21.2332 58.7903 21.4228 58.9454 21.5779C59.1005 21.7158 59.3418 21.7847 59.6693 21.7847C60.0312 21.7847 60.3587 21.7072 60.6517 21.5521C60.9447 21.397 61.2894 21.1987 61.6858 20.9575H61.8926C60.8585 22.5948 59.8934 24.1546 58.9971 25.6368C58.1181 27.1191 57.2908 28.5323 56.5152 29.8767C56.7565 29.8767 56.972 29.8681 57.1616 29.8508C57.3684 29.8336 57.5666 29.7905 57.7562 29.7216C57.963 29.6526 58.1698 29.5578 58.3767 29.4372C58.6007 29.2993 58.842 29.1183 59.1005 28.8943C59.135 28.877 59.1781 28.8684 59.2298 28.8684C59.2643 28.8684 59.2987 28.8512 59.3332 28.8167C59.3849 28.765 59.4108 28.8081 59.4108 28.946C59.4108 29.239 59.3246 29.4717 59.1522 29.644C58.9799 29.8164 58.7472 29.9542 58.4542 30.0577C58.1612 30.1611 57.8251 30.23 57.446 30.2645C57.0668 30.299 56.6704 30.3162 56.2567 30.3162L55.7138 31.3245C54.1282 34.2027 53.2492 36.202 53.0768 37.3223C53.1802 37.736 53.3957 37.9428 53.7231 37.9428C54.4815 37.9428 55.1968 37.3223 55.8689 36.0814C56.2481 35.3747 56.5928 34.4957 56.903 33.4444C56.9892 33.2376 57.0926 33.1342 57.2133 33.1342C57.4201 33.1342 57.4977 33.2462 57.446 33.4702C57.2219 34.5388 56.86 35.5298 56.3601 36.4433C55.619 37.7877 54.7831 38.4943 53.8524 38.5633H54.0075C54.266 38.5633 54.5332 38.4771 54.809 38.3047C55.0847 38.1151 55.326 37.9169 55.5328 37.7101C56.0327 37.1586 56.4549 36.6329 56.7996 36.1331C57.1616 35.616 57.4632 35.1679 57.7045 34.7887C57.963 34.3923 58.1784 34.0735 58.3508 33.8322C58.5404 33.5909 58.7127 33.453 58.8679 33.4185C58.954 33.4185 59.0057 33.4358 59.023 33.4702C59.0402 33.5047 59.0488 33.5564 59.0488 33.6254C59.0144 33.8494 58.842 34.1941 58.5318 34.6595C58.2215 35.1248 57.7907 35.7281 57.2391 36.4692C56.0844 37.9686 54.9555 38.8045 53.8524 38.9769C53.3353 38.9424 52.9476 38.7873 52.689 38.5115C52.4305 38.2358 52.2581 37.8911 52.172 37.4774C51.7928 36.7536 51.6032 35.909 51.6032 34.9439C51.6032 34.1683 51.6808 33.3668 51.8359 32.5395C51.991 31.7122 52.1806 30.9797 52.4046 30.342ZM67.4252 39.1837C66.8564 39.1837 66.3393 39.1148 65.874 38.9769C64.702 38.9597 63.8144 38.4943 63.2111 37.5808C62.6079 36.6674 62.3063 35.3575 62.3063 33.6512C62.5648 29.5148 64.0729 26.2831 66.8305 23.9564C69.6054 21.6296 72.0528 20.449 74.1727 20.4145C75.4309 20.4145 76.3702 20.8627 76.9907 21.7589C77.6112 22.6551 77.9214 23.9564 77.9214 25.6627C77.6801 29.8336 76.1893 33.0824 73.4489 35.4092C73.1731 35.6505 72.8973 35.8832 72.6216 36.1072C71.1738 38.1582 69.4417 39.1837 67.4252 39.1837ZM69.5192 36.5467C70.1225 35.5816 70.7343 34.2631 71.3548 32.5912C72.6302 29.2131 73.2679 26.9467 73.2679 25.7919C73.2679 25.2232 73.199 24.8268 73.0611 24.6027C72.7853 24.1029 72.2769 23.853 71.5358 23.853C70.1914 23.853 68.7609 25.6799 67.2442 29.3338C65.9171 32.5223 65.2535 34.7801 65.2535 36.1072C65.2535 36.8311 65.3914 37.4257 65.6672 37.8911C65.874 38.2185 66.167 38.4254 66.5462 38.5115C67.563 38.1841 68.5541 37.5291 69.5192 36.5467ZM74.2762 20.8023C72.8629 21.0953 71.5099 21.9571 70.2173 23.3876C70.6826 23.2842 71.1652 23.2325 71.665 23.2325C72.9577 23.2325 73.9228 23.6289 74.5605 24.4217C74.9742 24.9216 75.2586 25.5162 75.4137 26.2056C75.9997 24.7234 76.3272 23.5772 76.3961 22.7672C76.3789 22.1639 76.172 21.69 75.7756 21.3452C75.3965 20.9833 74.8966 20.8023 74.2762 20.8023ZM95.5014 24.4476C95.3807 26.4296 94.9843 28.2652 94.3121 29.9542C93.6572 31.6261 92.6231 33.1686 91.2098 34.5819C88.3832 37.3913 85.7548 38.8563 83.3247 38.9769C82.032 38.8907 81.0927 38.4857 80.5067 37.7618C79.9207 37.0207 79.6277 36.2193 79.6277 35.3575C79.6794 34.4613 79.9121 33.4013 80.3257 32.1776C80.7394 30.9539 81.265 29.6526 81.9028 28.2738C82.5577 26.8778 83.2988 25.4559 84.1261 24.0081C84.9534 22.5431 85.7893 21.1298 86.6338 19.7682C87.4956 18.3894 88.3401 17.1054 89.1674 15.9161C89.9947 14.7097 90.7444 13.6842 91.4166 12.8397C91.7785 12.3743 92.1836 11.909 92.6317 11.4436C93.097 10.9782 93.571 10.556 94.0536 10.1768C94.5362 9.7804 95.0102 9.43569 95.4755 9.14269C95.9581 8.83246 96.389 8.59978 96.7681 8.44467C97.9919 7.91038 99.1897 7.74664 100.362 7.95346C100.965 8.07411 101.439 8.28093 101.784 8.57393C102.128 8.86693 102.37 9.22025 102.507 9.6339C102.645 10.0475 102.688 10.5043 102.637 11.0041C102.602 11.4867 102.499 11.9693 102.327 12.4519C102.171 12.9172 101.956 13.3739 101.68 13.8221C101.422 14.2529 101.137 14.6235 100.827 14.9337C100.344 15.5025 99.7326 16.0626 98.9915 16.6142C98.2504 17.1485 97.492 17.6741 96.7164 18.1912C96.3028 18.4842 95.6996 18.8117 94.9067 19.1736C94.1312 19.5355 93.3211 19.932 92.4766 20.3628C93.3728 20.3111 94.1053 20.6127 94.6741 21.2677C95.2428 21.9054 95.5186 22.9654 95.5014 24.4476ZM81.3081 36.8828C81.3254 37.5205 81.4805 37.9773 81.7735 38.253C82.0837 38.5115 82.4629 38.6408 82.911 38.6408C85.3067 38.1065 87.7627 35.7022 90.2791 31.4279C91.5545 29.2735 92.4766 27.4551 93.0453 25.9729C93.6313 24.4907 93.976 23.3273 94.0795 22.4828C94.0795 21.7589 93.864 21.2591 93.4331 20.9833C93.0022 20.6903 92.4766 20.5783 91.8561 20.6472C91.2356 20.7162 90.5807 20.9488 89.8913 21.3452C89.2019 21.7244 88.5986 22.2242 88.0816 22.8447C87.0647 24.4993 86.1082 26.1022 85.2119 27.6533C84.3157 29.1873 83.5487 30.592 82.911 31.8674C82.2905 33.1255 81.8252 34.1941 81.515 35.0731C81.222 35.9521 81.153 36.5553 81.3081 36.8828ZM89.1416 21.1643C89.5207 21.0092 89.9516 20.8368 90.4342 20.6472C90.934 20.4576 91.4511 20.2422 91.9854 20.0009C92.5369 19.7596 93.097 19.5011 93.6658 19.2253C94.2346 18.9323 94.8033 18.6221 95.3721 18.2946C95.9926 17.9327 96.6044 17.4673 97.2076 16.8986C97.8109 16.3298 98.3624 15.7179 98.8622 15.063C99.3621 14.4081 99.7843 13.7359 100.129 13.0465C100.474 12.3571 100.706 11.7107 100.827 11.1075C100.948 10.5043 100.93 9.96999 100.775 9.50464C100.62 9.03928 100.293 8.7032 99.7929 8.49637C98.8795 8.32402 97.6902 8.91864 96.2252 10.2802C95.5014 10.9869 94.8033 11.7711 94.1312 12.6328C93.459 13.4946 92.8213 14.4684 92.218 15.5542L88.7021 21.3711C88.7021 21.3711 88.771 21.3366 88.9089 21.2677C88.9778 21.2332 89.0554 21.1987 89.1416 21.1643ZM82.9369 39.4164C81.1272 39.2096 79.9983 38.7184 79.5501 37.9428C79.102 37.1672 78.9641 36.0211 79.1365 34.5044C79.3433 32.7291 80.2999 30.1611 82.0062 26.8002C83.2643 24.3528 85.1602 21.0609 87.6938 16.9244C88.7969 15.1492 89.9258 13.5894 91.0805 12.245C92.5628 10.5043 93.9502 9.22025 95.2428 8.39296C97.1387 7.22097 98.1556 6.60911 98.2935 6.55741C99.9136 5.83353 101.577 5.575 103.283 5.78182C104.162 5.868 104.886 6.24717 105.455 6.91935C106.041 7.57429 106.291 8.29817 106.204 9.09099C105.998 10.8835 105.17 12.607 103.723 14.2616C102.499 15.6749 100.827 17.0537 98.7071 18.398C97.38 19.277 95.3635 20.3973 92.6575 21.7589C93.5538 21.8623 94.1656 22.4655 94.4931 23.5686C94.7516 24.4131 94.8119 25.43 94.6741 26.6192C94.3638 29.2735 92.985 32.0828 90.5376 35.0473C87.9006 38.253 85.367 39.7094 82.9369 39.4164ZM92.2956 15.4766L88.0557 22.612C93.6227 20.7506 97.785 18.3032 100.543 15.2698C102.49 13.0809 103.602 10.8059 103.878 8.44467C103.929 7.96208 103.826 7.52258 103.567 7.12617C103.326 6.71253 102.981 6.47985 102.533 6.42814C101.258 6.29026 99.6292 7.10032 97.6471 8.85831C95.6651 10.6163 93.8812 12.8224 92.2956 15.4766ZM82.7559 38.6667C83.8245 38.7873 84.962 38.072 86.1685 36.5209C86.8062 35.6936 87.6766 34.2803 88.7796 32.281C89.7276 30.6092 90.529 28.9977 91.1839 27.4465C91.8389 25.8953 92.218 24.732 92.3215 23.9564C92.3559 23.5255 92.2439 23.1463 91.9854 22.8189C91.7268 22.4914 91.3735 22.3018 90.9254 22.2501L87.4611 23.5944L83.1437 31.7898C82.0062 33.9959 81.3857 35.5212 81.2823 36.3658C81.2133 36.969 81.3168 37.4947 81.5925 37.9428C81.8855 38.3737 82.2733 38.615 82.7559 38.6667ZM102.818 30.5489L102.637 30.7815L102.714 30.885C102.8 30.7988 102.887 30.7212 102.973 30.6523C102.594 31.1521 102.223 31.6433 101.861 32.1259C101.499 32.6085 101.163 33.0738 100.853 33.5219C100.474 34.0562 100.138 34.5819 99.8447 35.099C99.431 35.8918 99.1639 36.564 99.0432 37.1155C98.9915 37.3568 98.9915 37.5808 99.0432 37.7877C98.733 37.443 98.5089 37.0552 98.371 36.6243C98.2332 36.1934 98.1642 35.7711 98.1642 35.3575C98.1642 34.6681 98.2762 33.9787 98.5003 33.2893C98.7244 32.5826 99.0174 31.8932 99.3793 31.221C99.7412 30.5316 100.146 29.8595 100.594 29.2045C101.06 28.5496 101.525 27.9119 101.99 27.2914C102.266 26.8433 102.447 26.4555 102.533 26.128C102.671 25.4386 102.37 25.0939 101.628 25.0939C100.974 25.0939 100.198 25.4386 99.3017 26.128C99.2845 26.1625 99.2673 26.1883 99.25 26.2056C99.2328 26.2056 99.2156 26.2142 99.1983 26.2314C99.026 26.3693 98.8536 26.5158 98.6813 26.6709C97.6989 27.5672 96.9922 28.4289 96.5613 29.2562C96.4752 29.4113 96.3373 29.4889 96.1477 29.4889C95.7513 29.4889 95.6479 29.351 95.8375 29.0753C96.7509 27.7481 97.5868 26.7485 98.3452 26.0763C98.5865 25.8695 98.8278 25.6799 99.0691 25.5076C99.2414 25.249 99.4655 24.9302 99.7412 24.551C100.034 24.1718 100.396 23.7323 100.827 23.2325C102.085 21.7158 103.309 20.854 104.498 20.6472C104.877 20.6645 105.196 20.7679 105.455 20.9575C105.713 21.147 105.92 21.397 106.075 21.7072C106.23 22.0002 106.342 22.3277 106.411 22.6896C106.48 23.0515 106.515 23.4049 106.515 23.7496C106.48 24.5596 106.265 25.3697 105.868 26.1797C105.489 26.9726 105.024 27.7826 104.472 28.6099C104.903 28.3514 105.386 28.1101 105.92 27.886C106.472 27.662 107.015 27.5241 107.549 27.4724C108.1 27.4034 108.617 27.4551 109.1 27.6275C109.583 27.7826 109.988 28.1187 110.315 28.6358C110.677 29.239 110.901 29.8336 110.987 30.4196C111.091 31.0056 111.073 31.5916 110.936 32.1776C110.936 32.3327 110.918 32.4964 110.884 32.6688C110.505 34.444 109.29 35.978 107.239 37.2706C105.188 38.546 102.964 39.1837 100.569 39.1837C99.1725 39.1837 98.2073 39.02 97.673 38.6925C96.8112 38.1927 96.5355 37.2017 96.8457 35.7194C96.9664 35.1851 97.2766 34.444 97.7764 33.4961C98.2935 32.5482 98.8709 31.6433 99.5086 30.7815L100.362 29.6182L101.784 27.6275C101.853 27.5068 101.921 27.3948 101.99 27.2914C102.318 26.8605 102.628 26.4469 102.921 26.0505C103.231 25.6541 103.516 25.2663 103.774 24.8871C103.981 25.0077 104.145 25.1456 104.265 25.3007C104.662 25.8178 104.774 26.4813 104.602 27.2914C104.446 27.8946 104.24 28.4375 103.981 28.9201C104.067 28.8684 104.145 28.8167 104.214 28.765C104.3 28.7133 104.386 28.6616 104.472 28.6099C104.334 28.8167 104.188 29.0235 104.033 29.2304C103.895 29.4372 103.748 29.644 103.593 29.8508C103.386 30.0404 103.214 30.1955 103.076 30.3162C102.956 30.4368 102.869 30.5144 102.818 30.5489ZM114.141 29.0235C114.469 28.2652 114.77 27.6016 115.046 27.0329C115.339 26.4469 115.632 25.8609 115.925 25.2749C116.235 24.6889 116.571 24.0684 116.933 23.4135C117.295 22.7413 117.726 21.9399 118.226 21.0092H118.485C118.554 21.2332 118.666 21.4228 118.821 21.5779C118.976 21.7158 119.217 21.7847 119.545 21.7847C119.906 21.7847 120.234 21.7072 120.527 21.5521C120.82 21.397 121.165 21.1987 121.561 20.9575H121.768C121.337 21.6296 120.923 22.2846 120.527 22.9223C120.131 23.56 119.743 24.1891 119.364 24.8095H121.018L113.676 35.1507C113.193 36.2365 112.943 37.0379 112.926 37.555C112.926 38.1755 113.193 38.5115 113.728 38.5633C114.245 38.4598 114.779 38.2013 115.331 37.7877L115.408 37.7101C115.908 37.1586 116.33 36.6329 116.675 36.1331C117.037 35.616 117.338 35.1679 117.58 34.7887C117.838 34.3923 118.054 34.0735 118.226 33.8322C118.416 33.5909 118.588 33.453 118.743 33.4185C118.829 33.4185 118.881 33.4358 118.898 33.4702C118.915 33.5047 118.924 33.5564 118.924 33.6254C118.89 33.7805 118.829 33.9356 118.743 34.0907C119.002 34.0907 119.079 34.1941 118.976 34.4009C118.476 35.4006 117.812 36.3313 116.985 37.1931C115.675 38.5202 114.374 39.1837 113.081 39.1837C112.237 39.1837 111.634 38.8476 111.272 38.1755C110.91 37.486 110.832 36.6932 111.039 35.797C111.177 35.0904 111.409 34.3751 111.737 33.6512C112.082 32.9101 112.487 32.2465 112.952 31.6605L113.211 31.2986C113.348 30.9022 113.495 30.5144 113.65 30.1352C113.822 29.756 113.986 29.3855 114.141 29.0235ZM100.956 38.253C101.318 38.4081 101.784 38.365 102.352 38.1238C102.766 37.9514 103.206 37.7015 103.671 37.374C104.136 37.0293 104.602 36.6329 105.067 36.1848C105.532 35.7367 105.989 35.2541 106.437 34.737C106.885 34.2027 107.299 33.6684 107.678 33.1342C107.833 32.7722 107.954 32.4017 108.04 32.0225C108.178 31.4192 108.118 30.9108 107.859 30.4972C107.601 30.0835 107.239 29.8767 106.773 29.8767C105.98 29.8767 105.076 30.1611 104.059 30.7298C103.042 31.2814 102.189 31.9535 101.499 32.7464C101.275 33.0049 101.06 33.2634 100.853 33.5219C100.37 34.2631 100.008 34.9697 99.7671 35.6419C99.543 36.2968 99.5258 36.9087 99.7154 37.4774C99.836 37.8049 100.008 37.9945 100.232 38.0462C100.474 38.0979 100.715 38.1668 100.956 38.253ZM105.144 22.0174C105.144 21.7417 105.067 21.5262 104.912 21.3711C104.774 21.1987 104.567 21.1126 104.291 21.1126C103.947 21.1126 103.567 21.2591 103.154 21.5521C102.757 21.8451 102.37 22.1984 101.99 22.612C101.611 23.0084 101.258 23.4221 100.93 23.853C100.62 24.2666 100.379 24.6113 100.207 24.8871C100.793 24.6458 101.396 24.5251 102.016 24.5251C102.775 24.5251 103.361 24.6458 103.774 24.8871C104.171 24.3356 104.49 23.8185 104.731 23.3359C104.989 22.8533 105.127 22.4138 105.144 22.0174ZM107.575 27.9636C107.127 27.9808 106.704 28.0584 106.308 28.1963C105.911 28.3169 105.541 28.472 105.196 28.6616C104.869 28.834 104.567 29.0322 104.291 29.2562C104.033 29.463 103.8 29.6613 103.593 29.8508C103.49 29.9887 103.386 30.1266 103.283 30.2645C103.18 30.3851 103.076 30.5144 102.973 30.6523C103.49 30.2386 104.085 29.9025 104.757 29.644C105.567 29.351 106.454 29.2045 107.42 29.2045C108.126 29.2045 108.747 29.3596 109.281 29.6699C109.367 29.1356 109.281 28.7133 109.022 28.4031C108.764 28.0756 108.281 27.9291 107.575 27.9636ZM103.826 29.2045L102.818 30.5489L103.025 29.7733C103.076 29.6871 103.188 29.5751 103.361 29.4372C103.533 29.2821 103.74 29.1097 103.981 28.9201C103.929 29.0235 103.878 29.1183 103.826 29.2045ZM100.388 38.615H100.517C100.207 38.546 99.9308 38.4426 99.6895 38.3047C99.4655 38.1668 99.2587 38.0031 99.0691 37.8135C99.1208 37.9342 99.1983 38.0548 99.3017 38.1755C99.5603 38.4685 99.9222 38.615 100.388 38.615ZM123.241 37.9945C123.414 37.9945 123.543 37.9859 123.629 37.9686C124.612 37.5033 125.775 36.2365 127.119 34.1683C128.602 31.9104 130.687 28.1704 133.376 22.9481C133.755 22.1725 134.574 21.5262 135.832 21.0092C137.09 20.4749 138.443 20.2077 139.891 20.2077L139.684 20.9316C139.477 20.9316 139.287 21.035 139.115 21.2418C139.201 21.2591 139.339 21.2677 139.529 21.2677C140.011 21.2505 140.391 21.1384 140.666 20.9316C140.942 20.7075 141.218 20.5007 141.494 20.3111H141.752C141.149 21.1901 140.528 22.1467 139.891 23.1808C139.253 24.1977 138.624 25.2404 138.003 26.309C137.383 27.3603 136.771 28.4117 136.168 29.463C135.582 30.5144 135.048 31.5054 134.565 32.4361C134.117 33.6254 133.781 34.6509 133.557 35.5126C133.298 36.4606 133.169 37.1069 133.169 37.4516C133.169 37.6067 133.186 37.736 133.221 37.8394C133.531 37.5464 133.936 37.081 134.436 36.4433C134.953 35.8056 135.522 35.0559 136.142 34.1941C136.78 33.3324 137.443 32.393 138.133 31.3762C138.839 30.3593 139.537 29.3338 140.227 28.2997L143.743 20.5697H144.751L144.829 20.4145H144.932V20.5697H147.026L146.768 21.1901C146.974 21.0867 147.155 20.9661 147.31 20.8282C147.483 20.6903 147.664 20.5524 147.853 20.4145H148.112C147.526 21.3452 146.957 22.2759 146.406 23.2067C145.854 24.1201 145.303 25.0422 144.751 25.9729L141.106 34.7112C140.968 35.0214 140.882 35.3403 140.847 35.6677C140.813 35.978 140.796 36.2537 140.796 36.495C140.796 37.4602 141.045 38.0031 141.545 38.1238C141.666 38.0548 141.778 37.9773 141.881 37.8911C141.985 37.7877 142.088 37.6843 142.192 37.5808C143.174 36.495 143.855 35.4781 144.234 34.5302C144.648 33.5823 144.984 33.0652 145.242 32.979C145.432 32.979 145.527 33.048 145.527 33.1859C145.475 33.5133 145.122 34.2027 144.467 35.2541C144.139 35.7539 143.829 36.2106 143.536 36.6243C143.243 37.0379 142.95 37.3913 142.657 37.6843C142.588 37.7704 142.51 37.848 142.424 37.9169C142.338 37.9686 142.252 38.0376 142.166 38.1238C143.045 37.9686 143.889 37.2361 144.699 35.9263C145.234 35.0817 145.716 34.0218 146.147 32.7464C146.251 32.5051 146.388 32.3844 146.561 32.3844C146.837 32.3844 146.94 32.5223 146.871 32.7981C146.561 34.0735 146.07 35.2541 145.397 36.3399C144.329 38.029 143.131 38.8735 141.804 38.8735C141.425 38.8735 141.097 38.8045 140.821 38.6667H140.796C140.244 38.6667 139.77 38.434 139.374 37.9686C138.977 37.5033 138.77 36.7708 138.753 35.7711C138.753 35.099 138.831 34.4009 138.986 33.6771C139.141 32.9532 139.348 32.2207 139.606 31.4796C137.935 34.4096 136.969 36.0469 136.711 36.3916C135.539 38.0462 134.462 38.8735 133.479 38.8735C133.152 38.8735 132.85 38.8045 132.574 38.6667C132.161 38.6494 131.825 38.3737 131.566 37.8394C131.308 37.2878 131.196 36.5984 131.23 35.7711C131.247 35.5471 131.299 35.3058 131.385 35.0473C131.42 34.2889 131.514 33.4616 131.67 32.5654C131.894 31.3072 132.161 30.2731 132.471 29.463L133.764 26.1022C133.264 26.895 132.781 27.6706 132.316 28.4289C131.868 29.17 131.445 29.8595 131.049 30.4972C130.67 31.1349 130.325 31.7036 130.015 32.2034C129.705 32.686 129.455 33.0652 129.265 33.341C126.99 36.6157 125.146 38.3909 123.733 38.6667C123.422 38.8045 123.138 38.8735 122.88 38.8735C121.966 38.8735 121.199 38.5202 120.579 37.8135C119.975 37.0896 119.674 36.1934 119.674 35.1248C119.674 34.1424 119.941 33.3237 120.475 32.6688C121.027 32.0139 121.708 31.6864 122.518 31.6864C123.155 31.6864 123.681 31.8846 124.095 32.281C124.525 32.6602 124.741 33.1514 124.741 33.7546C124.741 34.22 124.629 34.625 124.405 34.9697C124.353 35.2972 124.224 35.5471 124.017 35.7194C123.81 35.8746 123.56 35.9521 123.267 35.9521C122.923 35.9521 122.655 35.909 122.466 35.8228C122.276 35.7194 122.113 35.6246 121.975 35.5385C121.837 35.5385 121.708 35.5816 121.587 35.6677C121.466 35.7539 121.371 35.8746 121.303 36.0297C121.303 36.6329 121.44 37.1413 121.716 37.555C122.009 37.9514 122.38 38.1496 122.828 38.1496C123.069 38.1496 123.336 38.0893 123.629 37.9686C124.801 37.6929 126.215 36.4261 127.869 34.1683C126.232 36.6329 124.853 38.1324 123.733 38.6667C123.664 38.6667 123.595 38.6667 123.526 38.6667C123.474 38.6839 123.414 38.6925 123.345 38.6925C122.931 38.6925 122.483 38.615 122.001 38.4598C121.518 38.3047 121.13 38.0807 120.837 37.7877C120.286 37.15 120.01 36.383 120.01 35.4868C120.01 34.6422 120.225 33.9701 120.656 33.4702C121.104 32.9704 121.69 32.7205 122.414 32.7205C122.983 32.7205 123.457 32.9187 123.836 33.3151C124.232 33.6943 124.431 34.1338 124.431 34.6336C124.431 34.7026 124.422 34.7629 124.405 34.8146C124.405 34.8663 124.405 34.918 124.405 34.9697C124.37 35.0214 124.327 35.0731 124.276 35.1248C123.983 35.4868 123.646 35.6677 123.267 35.6677C122.871 35.6677 122.569 35.616 122.362 35.5126C122.156 35.392 121.975 35.2799 121.82 35.1765C121.475 35.1765 121.303 35.4609 121.303 36.0297C121.251 36.1331 121.225 36.2537 121.225 36.3916C121.225 36.6329 121.285 36.857 121.406 37.0638C121.544 37.2534 121.716 37.4171 121.923 37.555C122.13 37.6929 122.345 37.8049 122.569 37.8911C122.811 37.96 123.035 37.9945 123.241 37.9945ZM127.947 34.0649C128.722 33.0135 129.679 31.6002 130.816 29.825C131.971 28.0325 133.255 26.016 134.668 23.7754L135.289 22.1984C134.927 22.4569 134.574 22.7758 134.229 23.1549C133.901 23.5169 133.617 23.9219 133.376 24.37C130.877 29.0408 129.196 32.0656 128.334 33.4444C128.179 33.6857 128.024 33.927 127.869 34.1683C127.886 34.151 127.895 34.1338 127.895 34.1166C127.912 34.0993 127.929 34.0821 127.947 34.0649ZM133.686 38.0462C133.669 38.0807 133.652 38.1065 133.634 38.1238C133.617 38.1238 133.6 38.1324 133.583 38.1496C133.634 38.1496 133.686 38.1496 133.738 38.1496C134.203 38.1496 134.996 37.2792 136.116 35.5385C136.771 34.5561 137.504 33.3496 138.314 31.9191C137.9 32.5223 137.486 33.1169 137.073 33.7029C136.659 34.2889 136.245 34.8491 135.832 35.3834C135.435 35.9176 135.056 36.4175 134.694 36.8828C134.332 37.3309 133.996 37.7187 133.686 38.0462ZM140.098 38.072C140.029 37.9514 139.951 37.8221 139.865 37.6843C139.83 37.5981 139.787 37.5119 139.736 37.4257C139.822 37.7187 139.942 37.9342 140.098 38.072ZM166.261 39.1837C165.399 39.1837 164.658 38.8476 164.037 38.1755C163.417 37.486 163.107 36.6932 163.107 35.797C163.107 33.5736 164.477 31.4882 167.217 29.5406C167.958 28.6961 168.708 27.8515 169.466 27.007C170.242 26.1453 170.845 25.2404 171.276 24.2925C171.207 24.0339 171.095 23.7927 170.94 23.5686C170.681 23.1894 170.251 22.9998 169.647 22.9998C168.941 22.9998 168.372 23.1291 167.941 23.3876C167.527 23.6289 167.321 23.9822 167.321 24.4476C167.321 24.9646 167.45 25.2232 167.708 25.2232C168.019 25.2232 168.174 25.5851 168.174 26.309C168.174 26.7399 168.019 27.076 167.708 27.3173C167.415 27.5586 166.985 27.6792 166.416 27.6792C165.709 27.6792 165.356 27.1621 165.356 26.128C165.356 25.0939 165.769 24.2063 166.597 23.4652C167.424 22.7068 168.527 22.3277 169.906 22.3277C170.578 22.3277 171.19 22.4914 171.741 22.8189C171.759 22.681 171.776 22.5517 171.793 22.4311C171.81 22.2932 171.819 22.1553 171.819 22.0174C171.819 21.69 171.733 21.397 171.56 21.1384C171.388 20.8799 171.121 20.7506 170.759 20.7506C170.518 20.7506 170.121 20.8885 169.57 21.1643C169.036 21.4228 168.312 21.9226 167.398 22.6637C166.76 23.2325 166.235 23.7323 165.821 24.1632C165.408 24.5941 165.063 24.9646 164.787 25.2749C164.529 25.5679 164.322 25.8006 164.167 25.9729C164.029 26.128 163.908 26.2142 163.805 26.2314C163.718 26.2314 163.65 26.2056 163.598 26.1539C163.563 26.1022 163.546 26.0505 163.546 25.9988C163.718 25.5506 164.606 24.5338 166.209 22.9481C167.846 21.3108 169.475 20.3887 171.095 20.1819C171.56 20.0785 171.974 20.0698 172.336 20.156C172.698 20.225 173.008 20.3715 173.267 20.5955C173.525 20.8196 173.732 21.104 173.887 21.4487C174.042 21.7761 174.146 22.1381 174.197 22.5345C174.266 23.086 174.249 23.6634 174.146 24.2666C174.06 24.8526 173.87 25.4214 173.577 25.9729C173.474 26.1625 173.362 26.3607 173.241 26.5675C173.12 26.7571 172.991 26.9553 172.853 27.1621C172.491 28.0756 171.871 28.946 170.992 29.7733L170.707 30.006C170.156 30.6781 169.604 31.3589 169.053 32.0483C168.501 32.7205 167.993 33.3668 167.527 33.9873C167.079 34.6078 166.7 35.1851 166.39 35.7194C166.08 36.2537 165.899 36.7105 165.847 37.0896C165.813 37.4688 165.925 37.7532 166.183 37.9428C166.459 38.1324 166.941 38.2013 167.631 38.1496C167.803 38.1324 168.088 38.0462 168.484 37.8911C168.898 37.736 169.406 37.4343 170.009 36.9862C170.164 36.7622 170.242 36.5467 170.242 36.3399C170.242 35.978 170.095 35.797 169.802 35.797C169.578 35.797 169.363 35.6763 169.156 35.4351C168.949 35.1938 168.846 34.9008 168.846 34.5561C168.846 34.0218 169.018 33.5823 169.363 33.2376C169.725 32.8756 170.208 32.6947 170.811 32.6947C171.173 32.6947 171.483 32.8239 171.741 33.0824C172 33.341 172.129 33.6426 172.129 33.9873C172.129 34.4871 172.052 34.9611 171.897 35.4092C172.327 34.9956 172.689 34.625 172.982 34.2975C173.275 33.9701 173.517 33.6857 173.706 33.4444C173.913 33.2031 174.085 33.0221 174.223 32.9015C174.361 32.7636 174.482 32.686 174.585 32.6688C174.671 32.6688 174.732 32.6947 174.766 32.7464C174.818 32.7981 174.844 32.8498 174.844 32.9015C174.671 33.3496 173.784 34.3665 172.181 35.9521C171.957 36.1762 171.741 36.383 171.535 36.5726C171.328 36.7622 171.112 36.9345 170.888 37.0896C170.681 37.3309 170.44 37.555 170.164 37.7618C168.958 38.7098 167.657 39.1837 166.261 39.1837ZM182.005 39.1837C181.436 39.1837 180.919 39.1148 180.454 38.9769C179.282 38.9597 178.394 38.4943 177.791 37.5808C177.188 36.6674 176.886 35.3575 176.886 33.6512C177.145 29.5148 178.653 26.2831 181.41 23.9564C184.185 21.6296 186.633 20.449 188.753 20.4145C190.011 20.4145 190.95 20.8627 191.571 21.7589C192.191 22.6551 192.501 23.9564 192.501 25.6627C192.26 29.8336 190.769 33.0824 188.029 35.4092C187.753 35.6505 187.477 35.8832 187.201 36.1072C185.754 38.1582 184.022 39.1837 182.005 39.1837ZM184.099 36.5467C184.702 35.5816 185.314 34.2631 185.935 32.5912C187.21 29.2131 187.848 26.9467 187.848 25.7919C187.848 25.2232 187.779 24.8268 187.641 24.6027C187.365 24.1029 186.857 23.853 186.116 23.853C184.771 23.853 183.341 25.6799 181.824 29.3338C180.497 32.5223 179.833 34.7801 179.833 36.1072C179.833 36.8311 179.971 37.4257 180.247 37.8911C180.454 38.2185 180.747 38.4254 181.126 38.5115C182.143 38.1841 183.134 37.5291 184.099 36.5467ZM188.856 20.8023C187.443 21.0953 186.09 21.9571 184.797 23.3876C185.263 23.2842 185.745 23.2325 186.245 23.2325C187.538 23.2325 188.503 23.6289 189.14 24.4217C189.554 24.9216 189.838 25.5162 189.994 26.2056C190.58 24.7234 190.907 23.5772 190.976 22.7672C190.959 22.1639 190.752 21.69 190.356 21.3452C189.976 20.9833 189.477 20.8023 188.856 20.8023ZM209.332 24.0856L211.684 20.6472C211.856 20.6989 212.063 20.7679 212.305 20.854C212.546 20.9402 212.83 20.9919 213.158 21.0092C213.709 20.9919 214.209 20.9402 214.657 20.854C215.123 20.7679 215.467 20.7162 215.691 20.6989C215.846 20.6989 215.967 20.7248 216.053 20.7765C216.139 20.811 216.183 20.8885 216.183 21.0092C216.183 21.1815 216.105 21.2849 215.95 21.3194C215.812 21.3539 215.64 21.3711 215.433 21.3711C215.054 21.3711 214.726 21.4573 214.45 21.6296C214.192 21.7847 213.899 22.0347 213.571 22.3794C212.727 23.2584 211.701 24.8354 210.495 27.1104C209.306 29.3683 207.996 31.8932 206.565 34.6853C205.324 37.0983 204.075 39.4078 202.817 41.6139L201.963 43.8114C200.981 46.276 199.731 48.1633 198.215 49.4732C196.715 50.7486 194.88 51.5586 192.708 51.9033C191.502 52.2825 190.226 52.4807 188.882 52.4979C186.71 52.429 185.133 52.024 184.151 51.2829C183.168 50.5417 182.677 49.7403 182.677 48.8785C182.712 48.2753 182.893 47.8013 183.22 47.4566C183.548 47.1292 183.953 46.9741 184.435 46.9913H184.668C184.771 46.75 184.918 46.5087 185.107 46.2674C185.693 45.5435 186.366 45.1816 187.124 45.1816C187.589 45.1816 188.029 45.3367 188.442 45.6469C188.856 45.9744 189.063 46.4398 189.063 47.043C189.063 48.1805 188.632 48.7493 187.77 48.7493C187.529 48.7493 187.288 48.689 187.046 48.5683C186.788 48.4649 186.555 48.3787 186.348 48.3098C186.141 48.3098 186.038 48.4908 186.038 48.8527C186.038 49.4559 186.322 49.9902 186.891 50.4556C187.667 51.1277 188.735 51.4638 190.097 51.4638C190.786 51.4638 191.441 51.3777 192.062 51.2053C192.992 50.7572 193.932 50.0764 194.88 49.1629C195.69 48.3012 196.534 47.2326 197.413 45.9572C198.154 44.9058 198.913 43.6994 199.688 42.3378L203.618 33.2117C201.86 35.9004 200.929 37.2965 200.826 37.3999C199.206 39.4853 197.818 40.5281 196.664 40.5281C195.871 40.5281 195.25 40.1317 194.802 39.3388C194.354 38.546 194.13 37.5981 194.13 36.495C194.13 35.9952 194.173 35.4954 194.259 34.9956V34.7629C194.483 30.9711 196 27.7309 198.809 25.0422C201.619 22.3363 204.368 20.923 207.056 20.8023C208.056 20.8368 208.72 21.0781 209.047 21.5262C209.392 21.9743 209.547 22.4397 209.512 22.9223L209.332 24.0856ZM205.273 26.5158C205.273 25.7575 205.169 25.2232 204.962 24.9129C204.756 24.5855 204.497 24.4217 204.187 24.4217C203.721 24.4217 203.204 24.7923 202.636 25.5334C201.981 26.3952 200.774 28.4117 199.016 31.583C198.43 32.7033 197.793 34.0821 197.103 35.7194C196.655 36.8053 196.353 37.6239 196.198 38.1755C196.44 38.3823 196.741 38.4857 197.103 38.4857C198.361 38.1582 199.852 37.0121 201.576 35.0473C201.817 34.6853 202.067 34.3148 202.325 33.9356C203.187 32.4534 203.911 30.928 204.497 29.3596C205.014 28.0325 205.273 27.0846 205.273 26.5158ZM206.022 26.0505L206.514 24.7837C206.686 24.3356 206.953 24.1115 207.315 24.1115H208.582C208.771 23.5944 208.901 23.1291 208.97 22.7154C208.97 22.2673 208.849 21.9226 208.608 21.6813C208.366 21.44 208.03 21.3194 207.599 21.3194C206.324 21.5779 204.971 22.4052 203.54 23.8013C203.696 23.784 203.851 23.7754 204.006 23.7754C204.712 23.7754 205.221 23.9995 205.531 24.4476C205.859 24.8785 206.022 25.4128 206.022 26.0505ZM196.948 38.8218C196.638 38.8045 196.353 38.7528 196.095 38.6667C196.095 38.7184 196.095 38.7701 196.095 38.8218C196.095 39.0114 196.155 39.2354 196.276 39.494C196.414 39.7525 196.577 39.8817 196.767 39.8817C197.301 39.8817 198.068 39.3388 199.068 38.253C199.206 38.0979 199.352 37.9342 199.507 37.7618C198.628 38.434 197.775 38.7873 196.948 38.8218ZM185.004 50.1453C185.021 50.5762 185.306 50.9812 185.857 51.3604C186.391 51.7568 187.201 51.9723 188.287 52.0067H188.623C187.434 51.7999 186.469 51.3604 185.728 50.6882C185.469 50.447 185.245 50.1884 185.056 49.9127C185.038 49.9816 185.021 50.0592 185.004 50.1453ZM219.492 39.1837C218.923 39.1837 218.406 39.1148 217.941 38.9769C216.769 38.9597 215.881 38.4943 215.278 37.5808C214.674 36.6674 214.373 35.3575 214.373 33.6512C214.631 29.5148 216.139 26.2831 218.897 23.9564C221.672 21.6296 224.119 20.449 226.239 20.4145C227.497 20.4145 228.437 20.8627 229.057 21.7589C229.678 22.6551 229.988 23.9564 229.988 25.6627C229.747 29.8336 228.256 33.0824 225.515 35.4092C225.24 35.6505 224.964 35.8832 224.688 36.1072C223.24 38.1582 221.508 39.1837 219.492 39.1837ZM221.586 36.5467C222.189 35.5816 222.801 34.2631 223.421 32.5912C224.697 29.2131 225.334 26.9467 225.334 25.7919C225.334 25.2232 225.265 24.8268 225.128 24.6027C224.852 24.1029 224.343 23.853 223.602 23.853C222.258 23.853 220.827 25.6799 219.311 29.3338C217.984 32.5223 217.32 34.7801 217.32 36.1072C217.32 36.8311 217.458 37.4257 217.734 37.8911C217.941 38.2185 218.234 38.4254 218.613 38.5115C219.63 38.1841 220.621 37.5291 221.586 36.5467ZM226.343 20.8023C224.929 21.0953 223.576 21.9571 222.284 23.3876C222.749 23.2842 223.232 23.2325 223.732 23.2325C225.024 23.2325 225.989 23.6289 226.627 24.4217C227.041 24.9216 227.325 25.5162 227.48 26.2056C228.066 24.7234 228.394 23.5772 228.463 22.7672C228.445 22.1639 228.239 21.69 227.842 21.3452C227.463 20.9833 226.963 20.8023 226.343 20.8023ZM233.22 37.9945C233.392 37.9945 233.521 37.9859 233.607 37.9686C234.59 37.5033 235.753 36.2365 237.097 34.1683C238.58 31.9104 240.665 28.1704 243.354 22.9481C243.733 22.1725 244.552 21.5262 245.81 21.0092C247.068 20.4749 248.421 20.2077 249.869 20.2077L249.662 20.9316C249.455 20.9316 249.266 21.035 249.093 21.2418C249.179 21.2591 249.317 21.2677 249.507 21.2677C249.989 21.2505 250.369 21.1384 250.644 20.9316C250.92 20.7075 251.196 20.5007 251.472 20.3111H251.73C251.127 21.1901 250.506 22.1467 249.869 23.1808C249.231 24.1977 248.602 25.2404 247.982 26.309C247.361 27.3603 246.749 28.4117 246.146 29.463C245.56 30.5144 245.026 31.5054 244.543 32.4361C244.095 33.6254 243.759 34.6509 243.535 35.5126C243.276 36.4606 243.147 37.1069 243.147 37.4516C243.147 37.6067 243.164 37.736 243.199 37.8394C243.509 37.5464 243.914 37.081 244.414 36.4433C244.931 35.8056 245.5 35.0559 246.12 34.1941C246.758 33.3324 247.421 32.393 248.111 31.3762C248.817 30.3593 249.515 29.3338 250.205 28.2997L253.721 20.5697H254.729L254.807 20.4145H254.91V20.5697H257.004L256.746 21.1901C256.952 21.0867 257.133 20.9661 257.289 20.8282C257.461 20.6903 257.642 20.5524 257.831 20.4145H258.09C257.504 21.3452 256.935 22.2759 256.384 23.2067C255.832 24.1201 255.281 25.0422 254.729 25.9729L251.084 34.7112C250.946 35.0214 250.86 35.3403 250.825 35.6677C250.791 35.978 250.774 36.2537 250.774 36.495C250.774 37.4602 251.024 38.0031 251.523 38.1238C251.644 38.0548 251.756 37.9773 251.859 37.8911C251.963 37.7877 252.066 37.6843 252.17 37.5808C253.152 36.495 253.833 35.4781 254.212 34.5302C254.626 33.5823 254.962 33.0652 255.22 32.979C255.41 32.979 255.505 33.048 255.505 33.1859C255.453 33.5133 255.1 34.2027 254.445 35.2541C254.117 35.7539 253.807 36.2106 253.514 36.6243C253.221 37.0379 252.928 37.3913 252.635 37.6843C252.566 37.7704 252.489 37.848 252.402 37.9169C252.316 37.9686 252.23 38.0376 252.144 38.1238C253.023 37.9686 253.867 37.2361 254.677 35.9263C255.212 35.0817 255.694 34.0218 256.125 32.7464C256.229 32.5051 256.366 32.3844 256.539 32.3844C256.815 32.3844 256.918 32.5223 256.849 32.7981C256.539 34.0735 256.048 35.2541 255.375 36.3399C254.307 38.029 253.109 38.8735 251.782 38.8735C251.403 38.8735 251.075 38.8045 250.799 38.6667H250.774C250.222 38.6667 249.748 38.434 249.352 37.9686C248.955 37.5033 248.749 36.7708 248.731 35.7711C248.731 35.099 248.809 34.4009 248.964 33.6771C249.119 32.9532 249.326 32.2207 249.584 31.4796C247.913 34.4096 246.947 36.0469 246.689 36.3916C245.517 38.0462 244.44 38.8735 243.457 38.8735C243.13 38.8735 242.828 38.8045 242.552 38.6667C242.139 38.6494 241.803 38.3737 241.544 37.8394C241.286 37.2878 241.174 36.5984 241.208 35.7711C241.225 35.5471 241.277 35.3058 241.363 35.0473C241.398 34.2889 241.492 33.4616 241.648 32.5654C241.872 31.3072 242.139 30.2731 242.449 29.463L243.742 26.1022C243.242 26.895 242.759 27.6706 242.294 28.4289C241.846 29.17 241.424 29.8595 241.027 30.4972C240.648 31.1349 240.303 31.7036 239.993 32.2034C239.683 32.686 239.433 33.0652 239.243 33.341C236.968 36.6157 235.124 38.3909 233.711 38.6667C233.401 38.8045 233.116 38.8735 232.858 38.8735C231.944 38.8735 231.177 38.5202 230.557 37.8135C229.953 37.0896 229.652 36.1934 229.652 35.1248C229.652 34.1424 229.919 33.3237 230.453 32.6688C231.005 32.0139 231.686 31.6864 232.496 31.6864C233.133 31.6864 233.659 31.8846 234.073 32.281C234.504 32.6602 234.719 33.1514 234.719 33.7546C234.719 34.22 234.607 34.625 234.383 34.9697C234.331 35.2972 234.202 35.5471 233.995 35.7194C233.788 35.8746 233.538 35.9521 233.245 35.9521C232.901 35.9521 232.634 35.909 232.444 35.8228C232.254 35.7194 232.091 35.6246 231.953 35.5385C231.815 35.5385 231.686 35.5816 231.565 35.6677C231.444 35.7539 231.35 35.8746 231.281 36.0297C231.281 36.6329 231.418 37.1413 231.694 37.555C231.987 37.9514 232.358 38.1496 232.806 38.1496C233.047 38.1496 233.314 38.0893 233.607 37.9686C234.779 37.6929 236.193 36.4261 237.847 34.1683C236.21 36.6329 234.831 38.1324 233.711 38.6667C233.642 38.6667 233.573 38.6667 233.504 38.6667C233.452 38.6839 233.392 38.6925 233.323 38.6925C232.909 38.6925 232.461 38.615 231.979 38.4598C231.496 38.3047 231.108 38.0807 230.815 37.7877C230.264 37.15 229.988 36.383 229.988 35.4868C229.988 34.6422 230.203 33.9701 230.634 33.4702C231.082 32.9704 231.668 32.7205 232.392 32.7205C232.961 32.7205 233.435 32.9187 233.814 33.3151C234.211 33.6943 234.409 34.1338 234.409 34.6336C234.409 34.7026 234.4 34.7629 234.383 34.8146C234.383 34.8663 234.383 34.918 234.383 34.9697C234.348 35.0214 234.305 35.0731 234.254 35.1248C233.961 35.4868 233.625 35.6677 233.245 35.6677C232.849 35.6677 232.547 35.616 232.341 35.5126C232.134 35.392 231.953 35.2799 231.798 35.1765C231.453 35.1765 231.281 35.4609 231.281 36.0297C231.229 36.1331 231.203 36.2537 231.203 36.3916C231.203 36.6329 231.263 36.857 231.384 37.0638C231.522 37.2534 231.694 37.4171 231.901 37.555C232.108 37.6929 232.323 37.8049 232.547 37.8911C232.789 37.96 233.013 37.9945 233.22 37.9945ZM237.925 34.0649C238.7 33.0135 239.657 31.6002 240.794 29.825C241.949 28.0325 243.233 26.016 244.647 23.7754L245.267 22.1984C244.905 22.4569 244.552 22.7758 244.207 23.1549C243.88 23.5169 243.595 23.9219 243.354 24.37C240.855 29.0408 239.174 32.0656 238.313 33.4444C238.157 33.6857 238.002 33.927 237.847 34.1683C237.864 34.151 237.873 34.1338 237.873 34.1166C237.89 34.0993 237.908 34.0821 237.925 34.0649ZM243.664 38.0462C243.647 38.0807 243.63 38.1065 243.612 38.1238C243.595 38.1238 243.578 38.1324 243.561 38.1496C243.612 38.1496 243.664 38.1496 243.716 38.1496C244.181 38.1496 244.974 37.2792 246.094 35.5385C246.749 34.5561 247.482 33.3496 248.292 31.9191C247.878 32.5223 247.464 33.1169 247.051 33.7029C246.637 34.2889 246.224 34.8491 245.81 35.3834C245.413 35.9176 245.034 36.4175 244.672 36.8828C244.31 37.3309 243.974 37.7187 243.664 38.0462ZM250.076 38.072C250.007 37.9514 249.929 37.8221 249.843 37.6843C249.808 37.5981 249.765 37.5119 249.714 37.4257C249.8 37.7187 249.92 37.9342 250.076 38.072Z" fill="white"/>
</svg>
