<svg width="20" height="20" viewBox="0 0 20 20" fill="none" xmlns="http://www.w3.org/2000/svg">
<path d="M19.2738 0.96136L15.2113 0.0238599C14.7699 -0.0777026 14.3168 0.152766 14.1371 0.566829L12.2621 4.94183C12.0981 5.32464 12.2074 5.77386 12.5317 6.03558L14.8988 7.97308C13.4926 10.9692 11.0356 13.4614 7.97697 14.895L6.03947 12.5278C5.77384 12.2035 5.32853 12.0942 4.94572 12.2582L0.570719 14.1332C0.152751 14.3168 -0.0777181 14.77 0.0238444 15.2114L0.961344 19.2739C1.059 19.6957 1.434 20.0004 1.87541 20.0004C11.8793 20.0004 20.0004 11.895 20.0004 1.87542C20.0004 1.43792 19.6996 1.05902 19.2738 0.96136Z" fill="#9D9D9D"/>
</svg>
