<svg xmlns="http://www.w3.org/2000/svg" xmlns:xlink="http://www.w3.org/1999/xlink"><defs>
<clipPath id="clip0">
<rect width="28" height="28" fill="white"/>
</clipPath>
</defs><symbol id="Shooting Stars" viewBox="0 0 59 35">
<path d="M16.8958 0.111999C21.1838 0.111999 24.6878 1.504 27.4078 4.288L23.8558 7.744C22.8318 6.784 21.7758 6.08 20.6878 5.632C19.5998 5.184 18.3838 4.96 17.0398 4.96C15.3118 4.96 13.9038 5.36 12.8158 6.16C11.7598 6.96 11.2318 8.048 11.2318 9.424C11.2318 10.192 11.4078 10.832 11.7598 11.344C12.1118 11.856 12.6878 12.336 13.4878 12.784C14.3198 13.232 15.5198 13.712 17.0878 14.224C19.8718 15.088 21.9998 16.224 23.4718 17.632C24.9438 19.04 25.6798 20.992 25.6798 23.488C25.6798 25.376 25.1998 27.184 24.2398 28.912C23.2798 30.608 21.7758 32 19.7278 33.088C17.6798 34.176 15.1038 34.72 11.9998 34.72C7.19981 34.72 3.39181 33.168 0.575812 30.064L4.31981 26.416C5.37581 27.504 6.52781 28.336 7.77581 28.912C9.05581 29.456 10.5118 29.728 12.1438 29.728C14.2878 29.728 15.9678 29.248 17.1838 28.288C18.4318 27.296 19.0558 25.952 19.0558 24.256C19.0558 23.04 18.6398 22.064 17.8078 21.328C17.0078 20.56 15.5518 19.808 13.4398 19.072C10.3998 18.048 8.17581 16.848 6.76781 15.472C5.39181 14.064 4.70381 12.256 4.70381 10.048C4.70381 8.384 5.16781 6.8 6.09581 5.296C7.02381 3.76 8.39981 2.512 10.2238 1.552C12.0798 0.591998 14.3038 0.111999 16.8958 0.111999ZM57.5082 12.736H54.0522L51.4122 22.48H54.3882L53.7642 26.704H50.2602L48.2922 34H43.2522L45.2202 26.704H39.3162L37.3482 34H32.3082L34.2762 26.704H31.3962L32.0202 22.48H35.4282L38.0202 12.736H35.1402L35.7642 8.464H39.1722L40.9962 1.696H46.0842L44.2602 8.464H50.1642L51.9882 1.696H57.0282L55.2042 8.464H58.1322L57.5082 12.736ZM46.3722 22.48L49.0122 12.736H43.1082L40.4682 22.48H46.3722Z" fill="#2D9CDB"/>
</symbol><symbol id="arrow-left" viewBox="0 0 27 51">
<path d="M0.0433142 26.5182L24.7354 51L26.8783 48.9637L3.46645 25.5L26.9561 2.03631L24.7225 -1.95268e-07L0.0433144 24.4818L0.0433142 26.5182Z" fill="white"/>
</symbol><symbol id="arrow-right" viewBox="0 0 27 51">
<path d="M26.9127 24.4818L2.22065 0L0.0777657 2.03631L23.4896 25.5L0 48.9637L2.23361 51L26.9127 26.5182V24.4818Z" fill="white"/>
</symbol><symbol id="cms" viewBox="0 0 30 30">
<path d="M23.7891 27.3047H20.9065L20.3206 25.5469H9.67941L9.09348 27.3047H6.21094C5.72525 27.3047 5.33203 27.6979 5.33203 28.1836C5.33203 28.6693 5.72525 29.0625 6.21094 29.0625H23.7891C24.2747 29.0625 24.668 28.6693 24.668 28.1836C24.668 27.6979 24.2747 27.3047 23.7891 27.3047Z" fill="white"/>
<path d="M23.7891 6.21094C23.3041 6.21094 22.9102 6.60484 22.9102 7.08984C22.9102 7.57484 23.3041 7.96875 23.7891 7.96875C24.2741 7.96875 24.668 7.57484 24.668 7.08984C24.668 6.60484 24.2741 6.21094 23.7891 6.21094Z" fill="white"/>
<path d="M27.3047 0.9375H2.63672C1.18286 0.9375 0 2.12036 0 3.57422V18.5156H5.33203V15.8789C5.33203 15.3932 5.72525 15 6.21094 15H7.56889C7.65976 14.7443 7.76367 14.4935 7.88132 14.2472L6.9207 13.2859C6.57738 12.9426 6.57738 12.3864 6.9207 12.0431L9.40636 9.55742C9.74968 9.2141 10.3059 9.2141 10.6492 9.55742L11.6105 10.5187C11.8568 10.4011 12.1074 10.2965 12.3633 10.2054V8.84766C12.3633 8.36197 12.7565 7.96875 13.2422 7.96875H16.7578C17.2435 7.96875 17.6367 8.36197 17.6367 8.84766V10.2056C17.8924 10.2965 18.1432 10.4013 18.3895 10.5187L19.3508 9.55742C19.6941 9.21432 20.2503 9.21432 20.5936 9.55742L23.0793 12.0431C23.4226 12.3864 23.4226 12.9428 23.0793 13.2859L22.1187 14.2472C22.2363 14.4937 22.3402 14.7443 22.4311 15H23.7891C24.2747 15 24.668 15.3932 24.668 15.8789V18.5156H30V3.57422C30 2.12036 28.7585 0.9375 27.3047 0.9375ZM23.7891 9.72656C22.3352 9.72656 21.1523 8.5437 21.1523 7.08984C21.1523 5.63599 22.3352 4.45312 23.7891 4.45312C25.2429 4.45312 26.4258 5.63599 26.4258 7.08984C26.4258 8.5437 25.2429 9.72656 23.7891 9.72656Z" fill="white"/>
<path d="M12.3633 17.6367C12.3633 17.9404 12.4333 18.2334 12.5338 18.5156H17.4662C17.5667 18.2334 17.6367 17.9404 17.6367 17.6367C17.6367 16.1829 16.4539 15 15 15C13.5459 15 12.3633 16.1829 12.3633 17.6367Z" fill="white"/>
<path d="M9.06898 16.0986C8.96873 16.4866 8.61855 16.7578 8.21754 16.7578H7.08984V18.5156H10.7211C10.662 18.2261 10.6055 17.9352 10.6055 17.6367C10.6055 15.2138 12.5771 13.2422 15 13.2422C17.4229 13.2422 19.3945 15.2138 19.3945 17.6367C19.3945 17.9352 19.338 18.2261 19.2789 18.5156H22.9102V16.7578H21.7825C21.3815 16.7578 21.0313 16.4866 20.931 16.0986C20.7909 15.5537 20.5721 15.0266 20.2803 14.5322C20.0768 14.1872 20.1327 13.7478 20.4158 13.4644L21.2151 12.6645L19.9722 11.4217L19.1723 12.2216C18.8889 12.5059 18.4486 12.5624 18.1036 12.3564C17.6102 12.0655 17.084 11.8458 16.5381 11.7057C16.1501 11.6055 15.8789 11.2553 15.8789 10.8543V9.72656H14.1211V10.8543C14.1211 11.2553 13.8499 11.6055 13.4619 11.7057C12.916 11.8458 12.3898 12.0655 11.8964 12.3564C11.553 12.5624 11.1118 12.5059 10.8277 12.2216L10.0278 11.4217L8.78494 12.6645L9.5842 13.4644C9.86732 13.7478 9.92317 14.1872 9.7197 14.5322C9.42787 15.0266 9.20906 15.5537 9.06898 16.0986Z" fill="white"/>
<path d="M0 21.1523C0 22.6062 1.18286 23.7891 2.63672 23.7891H27.3047C28.7585 23.7891 30 22.6062 30 21.1523V20.2734H0V21.1523Z" fill="white"/>
</symbol><symbol id="login" viewBox="0 0 28 28">
<g clip-path="url(#clip0)">
<path d="M11.9584 13.125H0.875C0.391998 13.125 0 12.733 0 12.25C0 11.767 0.391998 11.375 0.875 11.375H11.9584C12.4414 11.375 12.8334 11.767 12.8334 12.25C12.8334 12.733 12.4414 13.125 11.9584 13.125Z" fill="black"/>
<path d="M7.58377 17.5009C7.35968 17.5009 7.1358 17.4156 6.96533 17.2443C6.62354 16.9023 6.62354 16.3481 6.96533 16.0063L10.7221 12.2498L6.96533 8.49429C6.62354 8.15228 6.62354 7.59814 6.96533 7.25635C7.30713 6.91455 7.86127 6.91455 8.20328 7.25635L12.5783 11.6313C12.9201 11.9731 12.9201 12.5273 12.5783 12.8693L8.20328 17.2443C8.03174 17.4156 7.80765 17.5009 7.58377 17.5009Z" fill="black"/>
<path d="M18.6662 27.9994C17.3793 27.9994 16.333 26.9528 16.333 25.666V4.66597C16.333 3.66856 16.9677 2.7784 17.9125 2.45049L24.9219 0.113663C26.4899 -0.366989 27.9996 0.796188 27.9996 2.33278V23.3328C27.9996 24.3291 27.3649 25.218 26.4211 25.547L19.4094 27.8851C19.1539 27.9643 18.9172 27.9994 18.6662 27.9994ZM25.6662 1.74937C25.5904 1.74937 25.5263 1.75877 25.4575 1.77971L18.4774 4.10713C18.2486 4.1866 18.083 4.41753 18.083 4.66597V25.666C18.083 26.0639 18.5145 26.3323 18.8751 26.219L25.8553 23.8916C26.0828 23.8121 26.2496 23.5812 26.2496 23.3328V2.33278C26.2496 2.01192 25.9883 1.74937 25.6662 1.74937Z" fill="black"/>
<path d="M10.208 5.8334C9.72501 5.8334 9.33301 5.44141 9.33301 4.9584V3.2084C9.33301 1.43854 10.7713 0 12.5412 0H25.6662C26.1492 0 26.5412 0.391998 26.5412 0.875C26.5412 1.358 26.1492 1.75 25.6662 1.75H12.5412C11.7373 1.75 11.083 2.40454 11.083 3.2084V4.9584C11.083 5.44141 10.691 5.8334 10.208 5.8334Z" fill="black"/>
<path d="M17.208 24.4994H12.5412C10.7713 24.4994 9.33301 23.0609 9.33301 21.291V19.541C9.33301 19.058 9.72501 18.666 10.208 18.666C10.691 18.666 11.083 19.058 11.083 19.541V21.291C11.083 22.0949 11.7373 22.7494 12.5412 22.7494H17.208C17.691 22.7494 18.083 23.1414 18.083 23.6244C18.083 24.1074 17.691 24.4994 17.208 24.4994Z" fill="black"/>
</g>

</symbol><symbol id="user" viewBox="0 0 25 25">
<path d="M21.3389 16.1611C19.9774 14.7997 18.3569 13.7918 16.5888 13.1817C18.4825 11.8775 19.7266 9.69473 19.7266 7.22656C19.7266 3.24185 16.4847 0 12.5 0C8.51528 0 5.27344 3.24185 5.27344 7.22656C5.27344 9.69473 6.51753 11.8775 8.41123 13.1817C6.64316 13.7918 5.02266 14.7997 3.66118 16.1611C1.30024 18.5221 0 21.6611 0 25H1.95312C1.95312 19.1844 6.68442 14.4531 12.5 14.4531C18.3156 14.4531 23.0469 19.1844 23.0469 25H25C25 21.6611 23.6998 18.5221 21.3389 16.1611ZM12.5 12.5C9.59224 12.5 7.22656 10.1344 7.22656 7.22656C7.22656 4.31875 9.59224 1.95312 12.5 1.95312C15.4078 1.95312 17.7734 4.31875 17.7734 7.22656C17.7734 10.1344 15.4078 12.5 12.5 12.5Z" fill="black"/>
</symbol></svg>