<svg width="160" height="124" viewBox="0 0 160 124" fill="none" xmlns="http://www.w3.org/2000/svg">
<path opacity="0.06" d="M43.8328 0.0879936C58.1474 0.0879936 69.0008 5.42666 76.3928 16.104C83.7848 26.664 87.4808 41.9173 87.4808 61.864C87.4808 81.8107 83.7261 97.1227 76.2168 107.8C68.8248 118.477 58.0301 123.816 43.8328 123.816C29.6354 123.816 18.8408 118.477 11.4488 107.8C4.05675 97.1227 0.360751 81.8107 0.360751 61.864C0.360751 41.9173 4.05675 26.664 11.4488 16.104C18.8408 5.42666 29.6354 0.0879936 43.8328 0.0879936ZM43.8328 18.744C39.6088 18.744 36.2061 20.152 33.6248 22.968C31.0434 25.6667 29.1074 30.184 27.8168 36.52C26.6434 42.7387 26.0568 51.1867 26.0568 61.864C26.0568 72.5413 26.6434 81.048 27.8168 87.384C29.1074 93.6027 31.0434 98.12 33.6248 100.936C36.2061 103.635 39.6088 104.984 43.8328 104.984C48.0568 104.984 51.4594 103.635 54.0408 100.936C56.6221 98.2373 58.5581 93.7787 59.8488 87.56C61.1394 81.224 61.7848 72.6587 61.7848 61.864C61.7848 50.952 61.1394 42.3867 59.8488 36.168C58.5581 29.832 56.6221 25.3733 54.0408 22.792C51.4594 20.0933 48.0568 18.744 43.8328 18.744ZM159.358 2.376V121H134.894V27.016L108.846 43.032L97.9336 26.136L137.358 2.376H159.358Z" fill="#001B34"/>
</svg>
