<svg width="181" height="124" viewBox="0 0 181 124" fill="none" xmlns="http://www.w3.org/2000/svg">
<path opacity="0.06" d="M43.8171 0.0879936C58.1318 0.0879936 68.9851 5.42666 76.3771 16.104C83.7691 26.664 87.4651 41.9173 87.4651 61.864C87.4651 81.8107 83.7105 97.1227 76.2011 107.8C68.8091 118.477 58.0145 123.816 43.8171 123.816C29.6198 123.816 18.8251 118.477 11.4331 107.8C4.04113 97.1227 0.345126 81.8107 0.345126 61.864C0.345126 41.9173 4.04113 26.664 11.4331 16.104C18.8251 5.42666 29.6198 0.0879936 43.8171 0.0879936ZM43.8171 18.744C39.5931 18.744 36.1905 20.152 33.6091 22.968C31.0278 25.6667 29.0918 30.184 27.8011 36.52C26.6278 42.7387 26.0411 51.1867 26.0411 61.864C26.0411 72.5413 26.6278 81.048 27.8011 87.384C29.0918 93.6027 31.0278 98.12 33.6091 100.936C36.1905 103.635 39.5931 104.984 43.8171 104.984C48.0411 104.984 51.4438 103.635 54.0251 100.936C56.6065 98.2373 58.5425 93.7787 59.8331 87.56C61.1238 81.224 61.7691 72.6587 61.7691 61.864C61.7691 50.952 61.1238 42.3867 59.8331 36.168C58.5425 29.832 56.6065 25.3733 54.0251 22.792C51.4438 20.0933 48.0411 18.744 43.8171 18.744ZM138.52 0.0879936C146.734 0.0879936 153.832 1.61333 159.816 4.664C165.8 7.59733 170.318 11.6453 173.368 16.808C176.536 21.8533 178.12 27.4853 178.12 33.704C178.12 40.1573 176.712 46.376 173.896 52.36C171.198 58.344 166.504 65.0907 159.816 72.6C153.246 80.1093 143.624 89.7893 130.952 101.64H180.76L177.944 121H102.44V102.872C117.224 88.088 127.902 77.0587 134.472 69.784C141.043 62.5093 145.678 56.3493 148.376 51.304C151.075 46.2587 152.424 41.096 152.424 35.816C152.424 30.7707 150.958 26.7813 148.024 23.848C145.091 20.9147 141.16 19.448 136.232 19.448C131.891 19.448 128.019 20.4453 124.616 22.44C121.214 24.3173 117.635 27.4853 113.88 31.944L98.9204 19.976C109.011 6.71733 122.211 0.0879936 138.52 0.0879936Z" fill="#001B34"/>
</svg>
