<svg width="181" height="124" viewBox="0 0 181 124" fill="none" xmlns="http://www.w3.org/2000/svg">
<path opacity="0.06" d="M43.4734 0.0879936C57.788 0.0879936 68.6414 5.42666 76.0334 16.104C83.4254 26.664 87.1214 41.9173 87.1214 61.864C87.1214 81.8107 83.3667 97.1227 75.8574 107.8C68.4654 118.477 57.6707 123.816 43.4734 123.816C29.276 123.816 18.4814 118.477 11.0894 107.8C3.69738 97.1227 0.00137556 81.8107 0.00137556 61.864C0.00137556 41.9173 3.69738 26.664 11.0894 16.104C18.4814 5.42666 29.276 0.0879936 43.4734 0.0879936ZM43.4734 18.744C39.2494 18.744 35.8467 20.152 33.2654 22.968C30.684 25.6667 28.748 30.184 27.4574 36.52C26.284 42.7387 25.6974 51.1867 25.6974 61.864C25.6974 72.5413 26.284 81.048 27.4574 87.384C28.748 93.6027 30.684 98.12 33.2654 100.936C35.8467 103.635 39.2494 104.984 43.4734 104.984C47.6974 104.984 51.1 103.635 53.6814 100.936C56.2627 98.2373 58.1987 93.7787 59.4894 87.56C60.78 81.224 61.4254 72.6587 61.4254 61.864C61.4254 50.952 60.78 42.3867 59.4894 36.168C58.1987 29.832 56.2627 25.3733 53.6814 22.792C51.1 20.0933 47.6974 18.744 43.4734 18.744ZM138.173 0.0879936C146.269 0.0879936 153.191 1.43733 158.941 4.13599C164.807 6.71733 169.207 10.296 172.141 14.872C175.191 19.448 176.717 24.552 176.717 30.184C176.717 37.3413 174.663 43.3253 170.557 48.136C166.45 52.8293 160.759 56.1733 153.485 58.168C161.463 58.9893 167.975 61.864 173.021 66.792C178.066 71.72 180.589 78.584 180.589 87.384C180.589 94.1893 178.829 100.349 175.309 105.864C171.906 111.379 166.861 115.779 160.173 119.064C153.485 122.232 145.565 123.816 136.413 123.816C119.634 123.816 106.493 117.949 96.9885 106.216L110.541 93.192C114.53 97.1813 118.461 100.056 122.333 101.816C126.205 103.576 130.429 104.456 135.005 104.456C141.106 104.456 145.917 102.813 149.437 99.528C153.074 96.2427 154.893 91.6667 154.893 85.8C154.893 79.464 153.191 74.888 149.789 72.072C146.386 69.256 141.282 67.848 134.477 67.848H124.797L127.789 50.248H134.301C139.815 50.248 144.215 48.7813 147.501 45.848C150.786 42.9147 152.429 38.808 152.429 33.528C152.429 28.952 150.903 25.3733 147.853 22.792C144.919 20.2107 140.871 18.92 135.709 18.92C131.25 18.92 127.143 19.7413 123.389 21.384C119.634 23.0267 115.938 25.608 112.301 29.128L99.8045 15.576C110.717 5.25066 123.506 0.0879936 138.173 0.0879936Z" fill="#001B34"/>
</svg>
