<svg width="193" height="125" viewBox="0 0 193 125" fill="none" xmlns="http://www.w3.org/2000/svg">
<path opacity="0.06" d="M43.9187 1.08799C58.2334 1.08799 69.0867 6.42666 76.4787 17.104C83.8707 27.664 87.5667 42.9173 87.5667 62.864C87.5667 82.8107 83.812 98.1227 76.3027 108.8C68.9107 119.477 58.116 124.816 43.9187 124.816C29.7214 124.816 18.9267 119.477 11.5347 108.8C4.14269 98.1227 0.446688 82.8107 0.446688 62.864C0.446688 42.9173 4.14269 27.664 11.5347 17.104C18.9267 6.42666 29.7214 1.08799 43.9187 1.08799ZM43.9187 19.744C39.6947 19.744 36.292 21.152 33.7107 23.968C31.1294 26.6667 29.1934 31.184 27.9027 37.52C26.7294 43.7387 26.1427 52.1867 26.1427 62.864C26.1427 73.5413 26.7294 82.048 27.9027 88.384C29.1934 94.6027 31.1294 99.12 33.7107 101.936C36.292 104.635 39.6947 105.984 43.9187 105.984C48.1427 105.984 51.5454 104.635 54.1267 101.936C56.708 99.2373 58.644 94.7787 59.9347 88.56C61.2254 82.224 61.8707 73.6587 61.8707 62.864C61.8707 51.952 61.2254 43.3867 59.9347 37.168C58.644 30.832 56.708 26.3733 54.1267 23.792C51.5454 21.0933 48.1427 19.744 43.9187 19.744ZM192.961 76.592V95.6H179.057V122H154.769L154.593 95.6H104.433V78.704L138.577 0.735998L159.697 8.65599L130.305 76.592H154.945L157.585 47.552H179.057V76.592H192.961Z" fill="#001B34"/>
</svg>
