<svg width="81" height="82" viewBox="0 0 81 82" fill="none" xmlns="http://www.w3.org/2000/svg">
<path d="M40.5 82C62.8675 82 81 63.6437 81 41C81 18.3563 62.8675 0 40.5 0C18.1325 0 0 18.3563 0 41C0 63.6437 18.1325 82 40.5 82Z" fill="#FD8469"/>
<path d="M52.2264 13.9805V22.6838H60.8076V68.0193H20.1953V13.9805H52.2264Z" fill="white"/>
<path d="M52.2266 13.9805L60.8078 22.6838H52.2266V13.9805Z" fill="#E6E9EE"/>
<path d="M39.0881 35.9986C38.8957 35.138 38.5588 34.3261 38.1097 33.6116L38.7834 32.199L37.1794 30.5752L35.784 31.2572C35.0622 30.8025 34.2763 30.4615 33.4262 30.2667L32.9129 28.7891H30.6353L30.122 30.2667C29.2719 30.4615 28.4699 30.8025 27.7481 31.2572L26.3527 30.5752L24.7487 32.199L25.4224 33.6116C24.9733 34.3423 24.6365 35.138 24.444 35.9986L22.9844 36.5182V38.8239L24.444 39.3435C24.6365 40.2041 24.9733 41.016 25.4224 41.7467L24.7487 43.1594L26.3527 44.7831L27.7481 44.1011C28.4699 44.5558 29.2559 44.8968 30.122 45.0916L30.6353 46.5693H32.9129L33.4262 45.0916C34.2763 44.8968 35.0782 44.5558 35.784 44.1011L37.1794 44.7831L38.7834 43.1594L38.1097 41.7467C38.5588 41.016 38.8957 40.2204 39.0881 39.3435L40.5477 38.8239V36.5182L39.0881 35.9986ZM31.758 41.0485C29.9135 41.0485 28.4378 39.5384 28.4378 37.6873C28.4378 35.82 29.9295 34.3261 31.758 34.3261C33.6026 34.3261 35.0782 35.8362 35.0782 37.6873C35.0943 39.5384 33.6026 41.0485 31.758 41.0485Z" fill="#4CDBC4"/>
<path d="M56.8113 58.1637L58.0303 54.9487L55.8168 53.8283C56.0093 52.5942 55.9772 51.3602 55.7045 50.1748L57.8699 48.9245L56.4905 45.7907L54.1327 46.5863C53.443 45.6121 52.5608 44.7515 51.5182 44.0695L52.1758 41.6501L49 40.416L47.8932 42.6568C46.6742 42.462 45.4552 42.4944 44.2843 42.7705L43.0493 40.5784L39.9536 41.9748L40.7396 44.3618C39.7772 45.06 38.9271 45.953 38.2534 47.0085L35.8635 46.3427L34.6445 49.5578L36.858 50.6782C36.6655 51.9123 36.6976 53.1463 36.9703 54.3317L34.8049 55.582L36.1843 58.7158L38.5422 57.9202C39.2319 58.8944 40.114 59.755 41.1566 60.437L40.499 62.8564L43.6748 64.0905L44.7816 61.8497C46.0006 62.0445 47.2196 62.0121 48.3905 61.736L49.6255 63.9281L52.7212 62.5317L51.9352 60.1447C52.8976 59.4465 53.7477 58.5534 54.4214 57.498L56.8113 58.1637ZM44.5249 57.0921C41.8944 56.0691 40.5792 53.0976 41.5897 50.4346C42.6002 47.7717 45.5354 46.4402 48.1659 47.4631C50.7964 48.4861 52.1117 51.4576 51.1012 54.1206C50.0907 56.7673 47.1554 58.0988 44.5249 57.0921Z" fill="#84DBFF"/>
</svg>
