<svg width="82" height="82" viewBox="0 0 82 82" fill="none" xmlns="http://www.w3.org/2000/svg">
<path d="M41 82C63.6437 82 82 63.6437 82 41C82 18.3563 63.6437 0 41 0C18.3563 0 0 18.3563 0 41C0 63.6437 18.3563 82 41 82Z" fill="#324A5E"/>
<path d="M23.2211 38.1586L21.1914 36.5998L34.49 19.3555L47.4476 31.8909L59.7395 22.0672L61.3308 24.0644L47.2853 35.3008L34.7661 23.1875L23.2211 38.1586Z" fill="#CED5E0"/>
<path d="M7.04688 63.9922C14.4188 74.8551 26.873 81.9997 40.9997 81.9997C55.1265 81.9997 67.5807 74.8551 74.9526 63.9922H7.04688Z" fill="#2B3B4E"/>
<path d="M64.1079 62.5795H56.1027C55.9079 62.5795 55.7617 62.4333 55.7617 62.2385V33.2219C55.7617 33.027 55.9079 32.8809 56.1027 32.8809H64.1079C64.3027 32.8809 64.4489 33.027 64.4489 33.2219V62.2385C64.4489 62.4171 64.3027 62.5795 64.1079 62.5795Z" fill="#54C0EB"/>
<path d="M51.3774 62.5782H43.3722C43.1774 62.5782 43.0312 62.432 43.0312 62.2372V41.7453C43.0312 41.5504 43.1774 41.4043 43.3722 41.4043H51.3774C51.5722 41.4043 51.7184 41.5504 51.7184 41.7453V62.2372C51.7021 62.4158 51.556 62.5782 51.3774 62.5782Z" fill="#54C0EB"/>
<path d="M38.6313 62.579H30.6261C30.4313 62.579 30.2852 62.4329 30.2852 62.238V31.3703C30.2852 31.1754 30.4313 31.0293 30.6261 31.0293H38.6313C38.8261 31.0293 38.9723 31.1754 38.9723 31.3703V62.238C38.9723 62.4166 38.8261 62.579 38.6313 62.579Z" fill="#54C0EB"/>
<path d="M25.9008 62.5783H17.8957C17.7008 62.5783 17.5547 62.4321 17.5547 62.2373V47.0226C17.5547 46.8278 17.7008 46.6816 17.8957 46.6816H25.9008C26.0957 46.6816 26.2418 46.8278 26.2418 47.0226V62.2373C26.2418 62.4159 26.0794 62.5783 25.9008 62.5783Z" fill="#54C0EB"/>
<path d="M70.098 61.2168H11.9023V63.9934H70.098V61.2168Z" fill="#CED5E0"/>
<path d="M60.5356 27.8485C63.1721 27.8485 65.3095 25.7112 65.3095 23.0746C65.3095 20.4381 63.1721 18.3008 60.5356 18.3008C57.8991 18.3008 55.7617 20.4381 55.7617 23.0746C55.7617 25.7112 57.8991 27.8485 60.5356 27.8485Z" fill="#E6E9EE"/>
<path d="M60.5344 25.8501C62.0679 25.8501 63.3111 24.607 63.3111 23.0735C63.3111 21.54 62.0679 20.2969 60.5344 20.2969C59.0009 20.2969 57.7578 21.54 57.7578 23.0735C57.7578 24.607 59.0009 25.8501 60.5344 25.8501Z" fill="#FF7058"/>
<path d="M47.3637 37.8993C50.0002 37.8993 52.1376 35.762 52.1376 33.1254C52.1376 30.4889 50.0002 28.3516 47.3637 28.3516C44.7272 28.3516 42.5898 30.4889 42.5898 33.1254C42.5898 35.762 44.7272 37.8993 47.3637 37.8993Z" fill="#E6E9EE"/>
<path d="M47.3665 35.9009C48.9 35.9009 50.1431 34.6578 50.1431 33.1243C50.1431 31.5908 48.9 30.3477 47.3665 30.3477C45.833 30.3477 44.5898 31.5908 44.5898 33.1243C44.5898 34.6578 45.833 35.9009 47.3665 35.9009Z" fill="#FF7058"/>
<path d="M34.6332 26.0458C37.2698 26.0458 39.4071 23.9084 39.4071 21.2719C39.4071 18.6354 37.2698 16.498 34.6332 16.498C31.9967 16.498 29.8594 18.6354 29.8594 21.2719C29.8594 23.9084 31.9967 26.0458 34.6332 26.0458Z" fill="#E6E9EE"/>
<path d="M34.636 24.0474C36.1695 24.0474 37.4126 22.8043 37.4126 21.2708C37.4126 19.7373 36.1695 18.4941 34.636 18.4941C33.1025 18.4941 31.8594 19.7373 31.8594 21.2708C31.8594 22.8043 33.1025 24.0474 34.636 24.0474Z" fill="#FF7058"/>
<path d="M21.8871 42.1532C24.5237 42.1532 26.661 40.0159 26.661 37.3793C26.661 34.7428 24.5237 32.6055 21.8871 32.6055C19.2506 32.6055 17.1133 34.7428 17.1133 37.3793C17.1133 40.0159 19.2506 42.1532 21.8871 42.1532Z" fill="#E6E9EE"/>
<path d="M21.8899 40.1548C23.4234 40.1548 24.6665 38.9117 24.6665 37.3782C24.6665 35.8447 23.4234 34.6016 21.8899 34.6016C20.3564 34.6016 19.1133 35.8447 19.1133 37.3782C19.1133 38.9117 20.3564 40.1548 21.8899 40.1548Z" fill="#FF7058"/>
</svg>
