<svg width="1357" height="611" viewBox="0 0 1357 611" fill="none" xmlns="http://www.w3.org/2000/svg">
<g opacity="0.15">
<path d="M709.158 262.85V234.403C713.938 238.945 717.288 244.046 717.288 250.777C717.288 255.511 715.665 260.918 709.158 262.85ZM691.849 192.892C691.849 188.191 693.362 182.832 699.386 180.781V208.682C694.936 204.283 691.849 199.338 691.849 192.892ZM733.922 249.71C733.922 234.393 722.433 226.165 711.325 218.212C710.595 217.689 709.879 217.17 709.158 216.65V180.314C716.533 181.891 718.263 187.796 718.263 192.892V194.891H733.724V193.964C733.724 176.038 721.271 170.661 709.158 169.659V158.927H699.386V169.677C687.395 170.765 675.206 176.236 675.206 193.964C675.206 209.275 686.695 217.503 697.803 225.456C698.338 225.838 698.857 226.217 699.386 226.599V263.183C691.864 261.594 690.094 255.789 690.094 250.777V245.562H674.625V249.71C674.625 267.56 687.151 272.967 699.386 274.003V282.296H709.158V274.003C721.393 272.973 733.922 267.569 733.922 249.71Z" fill="#9BC9FF"/>
<path d="M1312.07 157.398V128.951C1316.84 133.493 1320.2 138.595 1320.2 145.325C1320.2 150.06 1318.57 155.467 1312.07 157.398ZM1294.75 87.4399C1294.75 82.7389 1296.27 77.3808 1302.3 75.3299V103.23C1297.84 98.8318 1294.75 93.8832 1294.75 87.4399ZM1336.83 144.255C1336.83 128.939 1325.34 120.714 1314.23 112.76C1313.5 112.238 1312.79 111.718 1312.07 111.196V74.8592C1319.44 76.4394 1321.17 82.3447 1321.17 87.4399V89.4389H1336.63V88.5128C1336.63 70.5861 1324.18 65.2096 1312.07 64.207V53.4755H1302.3V64.2223C1290.3 65.3135 1278.12 70.7817 1278.12 88.5128C1278.12 103.823 1289.6 112.051 1300.71 120.005C1301.25 120.387 1301.77 120.766 1302.3 121.145V157.732C1294.77 156.142 1293 150.338 1293 145.325V140.111H1277.53V144.255C1277.53 162.109 1290.06 167.516 1302.3 168.549V176.844H1312.07V168.552C1324.3 167.519 1336.83 162.115 1336.83 144.255Z" fill="#9BC9FF"/>
<path d="M969.498 128.155V111.158C972.353 113.872 974.355 116.92 974.355 120.942C974.355 123.769 973.383 127 969.498 128.155ZM959.155 86.357C959.155 83.5481 960.059 80.3478 963.66 79.1221V95.7926C960.998 93.164 959.155 90.2083 959.155 86.357ZM984.292 120.303C984.292 111.152 977.427 106.237 970.791 101.484C970.354 101.172 969.929 100.863 969.498 100.552V78.844C973.903 79.7854 974.936 83.3127 974.936 86.357V87.5521H984.173V86.9989C984.173 76.2887 976.733 73.0762 969.498 72.4772V66.0676H963.66V72.4863C956.495 73.1404 949.212 76.4079 949.212 86.9989C949.212 96.1471 956.077 101.062 962.713 105.812C963.03 106.041 963.342 106.267 963.66 106.497V128.354C959.164 127.404 958.106 123.937 958.106 120.942V117.827H948.863V120.303C948.863 130.97 956.349 134.201 963.66 134.816V139.773H969.498V134.819C976.806 134.201 984.292 130.974 984.292 120.303Z" fill="#9BC9FF"/>
<path d="M1243.8 569.185V547.872C1247.38 551.273 1249.89 555.097 1249.89 560.138C1249.89 563.686 1248.68 567.736 1243.8 569.185ZM1230.83 516.771C1230.83 513.25 1231.97 509.234 1236.48 507.696V528.6C1233.15 525.305 1230.83 521.6 1230.83 516.771ZM1262.35 559.34C1262.35 547.862 1253.75 541.7 1245.42 535.74C1244.88 535.349 1244.34 534.961 1243.8 534.569V507.348C1249.33 508.531 1250.62 512.953 1250.62 516.771V518.269H1262.2V517.575C1262.2 504.144 1252.88 500.116 1243.8 499.364V491.325H1236.48V499.379C1227.5 500.195 1218.36 504.291 1218.36 517.575C1218.36 529.046 1226.97 535.208 1235.29 541.169C1235.69 541.456 1236.08 541.74 1236.48 542.024V569.433C1230.84 568.244 1229.52 563.894 1229.52 560.138V556.231H1217.93V559.34C1217.93 572.712 1227.31 576.765 1236.48 577.539V583.752H1243.8V577.542C1252.97 576.768 1262.35 572.718 1262.35 559.34Z" fill="#9BC9FF"/>
<path d="M311.616 317.169V298.952C314.676 301.861 316.823 305.126 316.823 309.439C316.823 312.468 315.782 315.931 311.616 317.169ZM300.53 272.369C300.53 269.358 301.499 265.925 305.358 264.614V282.48C302.507 279.665 300.53 276.498 300.53 272.369ZM327.474 308.754C327.474 298.945 320.116 293.679 313.003 288.584C312.535 288.248 312.078 287.914 311.616 287.584V264.315C316.338 265.323 317.446 269.107 317.446 272.369V273.649H327.345V273.056C327.345 261.576 319.372 258.134 311.616 257.492V250.621H305.358V257.502C297.678 258.202 289.872 261.704 289.872 273.056C289.872 282.862 297.231 288.128 304.344 293.221C304.686 293.468 305.019 293.71 305.358 293.954V317.383C300.541 316.365 299.406 312.648 299.406 309.439V306.098H289.5V308.754C289.5 320.185 297.521 323.649 305.358 324.312V329.621H311.616V324.312C319.451 323.652 327.474 320.189 327.474 308.754Z" fill="#9BC9FF"/>
<path d="M414.711 114.139C419.782 114.139 424.624 116.184 428.707 120.051L429.459 120.76L430.309 120.176C432.775 118.486 435.208 116.884 437.586 115.319L439.326 114.173L438.403 113.076C432.005 105.456 423.591 101.259 414.711 101.259C399.438 101.259 386.478 113.681 382.107 130.764H371.791V140.093H380.661C380.591 141.196 380.527 142.306 380.527 143.434C380.527 144.561 380.591 145.668 380.661 146.774H371.791V156.103H382.107C386.478 173.183 399.438 185.608 414.711 185.608C422.166 185.608 429.27 182.661 435.257 177.089L436.266 176.154L435.257 175.219C432.586 172.743 430.171 170.649 427.87 168.815L427.109 168.21L426.32 168.782C422.765 171.364 418.752 172.728 414.711 172.728C405.468 172.728 397.484 165.921 393.716 156.103H422.487V146.774H391.552C391.451 145.677 391.387 144.564 391.387 143.434C391.387 142.303 391.451 141.19 391.552 140.093H422.487V130.764H393.716C397.484 120.946 405.468 114.139 414.711 114.139Z" fill="#9BC9FF"/>
<path d="M808.142 17.2052C811.825 17.2052 815.343 18.6906 818.314 21.5026L818.858 22.0162L819.475 21.5944C821.27 20.3656 823.036 19.2011 824.766 18.061L826.032 17.2296L825.359 16.4319C820.71 10.8934 814.594 7.84291 808.142 7.84291C797.037 7.84291 787.62 16.872 784.441 29.2878H776.943V36.0672H783.393C783.341 36.8711 783.292 37.678 783.292 38.4971C783.292 39.3163 783.341 40.1202 783.393 40.9271H776.943V47.7035H784.441C787.62 60.1193 797.037 69.1514 808.142 69.1514C813.558 69.1514 818.72 67.0118 823.073 62.9618L823.807 62.2772L823.073 61.5986C821.132 59.8014 819.375 58.2762 817.703 56.9435L817.149 56.5033L816.578 56.919C813.995 58.7957 811.076 59.7891 808.142 59.7891C801.42 59.7891 795.619 54.8406 792.877 47.7035H813.79V40.9271H791.306C791.233 40.1263 791.187 39.3194 791.187 38.4971C791.187 37.6749 791.233 36.8649 791.306 36.0672H813.79V29.2878H792.877C795.619 22.1538 801.42 17.2052 808.142 17.2052Z" fill="#9BC9FF"/>
<path d="M1227.63 275.316C1232.84 275.316 1237.81 277.416 1242.01 281.393L1242.78 282.12L1243.66 281.521C1246.19 279.785 1248.69 278.137 1251.13 276.53L1252.92 275.353L1251.97 274.225C1245.4 266.394 1236.76 262.084 1227.63 262.084C1211.94 262.084 1198.63 274.849 1194.14 292.396H1183.54V301.979H1192.65C1192.58 303.116 1192.51 304.253 1192.51 305.411C1192.51 306.57 1192.58 307.71 1192.65 308.847H1183.54V318.426H1194.14C1198.63 335.974 1211.94 348.738 1227.63 348.738C1235.29 348.738 1242.59 345.712 1248.74 339.99L1249.78 339.024L1248.74 338.067C1246 335.521 1243.51 333.369 1241.15 331.487L1240.37 330.866L1239.56 331.453C1235.91 334.103 1231.78 335.506 1227.63 335.506C1218.14 335.506 1209.94 328.513 1206.06 318.426H1235.62V308.847H1203.84C1203.74 307.716 1203.67 306.576 1203.67 305.411C1203.67 304.25 1203.74 303.106 1203.84 301.979H1235.62V292.396H1206.06C1209.94 282.313 1218.14 275.316 1227.63 275.316Z" fill="#9BC9FF"/>
<path d="M591.231 409.467C591.231 410.298 590.861 411.004 590.118 411.576C589.376 412.147 588.462 412.435 587.383 412.435C586.304 412.435 585.39 412.147 584.647 411.576C583.904 411.004 583.535 410.298 583.535 409.467V390.819C583.535 389.984 583.904 389.281 584.647 388.71C585.39 388.135 586.304 387.848 587.383 387.848C588.462 387.848 589.376 388.135 590.118 388.71C590.861 389.281 591.231 389.984 591.231 390.819V409.467ZM595.046 385.167C592.998 383.553 590.51 382.743 587.584 382.743C584.659 382.743 582.162 383.544 580.09 385.139C578.021 386.738 576.984 388.664 576.984 390.923V409.571C576.984 411.793 578.021 413.694 580.09 415.274C582.162 416.854 584.659 417.646 587.584 417.646C590.467 417.646 592.943 416.864 595.012 415.299C597.081 413.737 598.117 411.829 598.117 409.571V390.923C598.117 388.697 597.093 386.781 595.046 385.167Z" fill="#9BC9FF"/>
<path d="M547.036 378.029C546.293 377.454 545.92 376.754 545.92 375.92V357.272C545.92 356.437 546.293 355.734 547.036 355.159C547.779 354.588 548.689 354.301 549.771 354.301C550.85 354.301 551.761 354.588 552.504 355.159C553.247 355.734 553.62 356.437 553.62 357.272V375.92C553.62 376.754 553.247 377.454 552.504 378.029C551.761 378.6 550.85 378.887 549.771 378.887C548.689 378.887 547.779 378.6 547.036 378.029ZM557.431 381.752C559.525 380.156 560.573 378.246 560.573 376.024V357.375C560.573 355.153 559.537 353.234 557.468 351.62C555.396 350.006 552.898 349.196 549.973 349.196C547.045 349.196 544.548 349.997 542.479 351.592C540.409 353.191 539.373 355.117 539.373 357.375V376.024C539.373 378.246 540.409 380.156 542.479 381.752C544.548 383.35 547.045 384.151 549.973 384.151C552.852 384.151 555.34 383.35 557.431 381.752Z" fill="#9BC9FF"/>
<path d="M586.64 349.356L543.42 418.425H550.915L594.058 349.356H586.64Z" fill="#9BC9FF"/>
<path d="M137.331 331.524C137.331 332.356 136.961 333.062 136.218 333.633C135.475 334.205 134.561 334.492 133.482 334.492C132.403 334.492 131.49 334.205 130.747 333.633C130.004 333.062 129.634 332.356 129.634 331.524V312.876C129.634 312.042 130.004 311.339 130.747 310.767C131.49 310.193 132.403 309.905 133.482 309.905C134.561 309.905 135.475 310.193 136.218 310.767C136.961 311.339 137.331 312.042 137.331 312.876V331.524ZM141.145 307.225C139.097 305.611 136.609 304.801 133.684 304.801C130.759 304.801 128.262 305.602 126.189 307.197C124.12 308.796 123.084 310.721 123.084 312.98V331.628C123.084 333.85 124.12 335.751 126.189 337.332C128.262 338.912 130.759 339.704 133.684 339.704C136.566 339.704 139.042 338.921 141.112 337.356C143.181 335.794 144.217 333.887 144.217 331.628V312.98C144.217 310.755 143.193 308.838 141.145 307.225Z" fill="#9BC9FF"/>
<path d="M93.1354 300.086C92.3927 299.512 92.0198 298.812 92.0198 297.977V279.329C92.0198 278.495 92.3927 277.792 93.1354 277.217C93.8782 276.646 94.7891 276.358 95.8711 276.358C96.95 276.358 97.8609 276.646 98.6036 277.217C99.3464 277.792 99.7193 278.495 99.7193 279.329V297.977C99.7193 298.812 99.3464 299.512 98.6036 300.086C97.8609 300.658 96.95 300.945 95.8711 300.945C94.7891 300.945 93.8782 300.658 93.1354 300.086ZM103.531 303.809C105.625 302.214 106.673 300.303 106.673 298.081V279.433C106.673 277.211 105.637 275.291 103.567 273.678C101.495 272.064 98.9979 271.254 96.0728 271.254C93.1446 271.254 90.6474 272.055 88.5781 273.65C86.5088 275.249 85.4727 277.174 85.4727 279.433V298.081C85.4727 300.303 86.5088 302.214 88.5781 303.809C90.6474 305.408 93.1446 306.208 96.0728 306.208C98.9521 306.208 101.44 305.408 103.531 303.809Z" fill="#9BC9FF"/>
<path d="M132.741 271.413L89.5215 340.482H97.0162L140.159 271.413H132.741Z" fill="#9BC9FF"/>
<path d="M584.68 77.1464C584.68 77.8861 584.35 78.5097 583.69 79.0171C583.033 79.5245 582.223 79.7812 581.263 79.7812C580.303 79.7812 579.493 79.5245 578.833 79.0171C578.173 78.5097 577.846 77.8861 577.846 77.1464V60.5891C577.846 59.8463 578.173 59.2228 578.833 58.7154C579.493 58.2049 580.303 57.9482 581.263 57.9482C582.223 57.9482 583.033 58.2049 583.69 58.7154C584.35 59.2228 584.68 59.8463 584.68 60.5891V77.1464ZM588.067 55.5702C586.248 54.1367 584.039 53.4184 581.444 53.4184C578.845 53.4184 576.626 54.1275 574.786 55.5458C572.949 56.9671 572.029 58.6757 572.029 60.6808V77.2381C572.029 79.2127 572.949 80.8969 574.786 82.3029C576.626 83.7058 578.845 84.4058 581.444 84.4058C583.999 84.4058 586.199 83.7119 588.036 82.3242C589.873 80.9396 590.794 79.2433 590.794 77.2381V60.6808C590.794 58.7063 589.886 57.0038 588.067 55.5702Z" fill="#9BC9FF"/>
<path d="M545.443 49.2319C544.782 48.7245 544.452 48.1009 544.452 47.3612V30.8039C544.452 30.0611 544.782 29.4376 545.443 28.9302C546.103 28.4197 546.913 28.166 547.869 28.166C548.829 28.166 549.639 28.4197 550.299 28.9302C550.957 29.4376 551.287 30.0611 551.287 30.8039V47.3612C551.287 48.1009 550.957 48.7245 550.299 49.2319C549.639 49.7423 548.829 49.996 547.869 49.996C546.913 49.996 546.103 49.7423 545.443 49.2319ZM554.673 52.5421C556.532 51.1238 557.461 49.4244 557.461 47.4529V30.8955C557.461 28.921 556.541 27.2185 554.704 25.785C552.867 24.3514 550.648 23.6332 548.05 23.6332C545.452 23.6332 543.236 24.3423 541.396 25.7606C539.559 27.1819 538.639 28.8904 538.639 30.8955V47.4529C538.639 49.4244 539.559 51.1238 541.396 52.5421C543.236 53.9603 545.452 54.6694 548.05 54.6694C550.608 54.6694 552.818 53.9603 554.673 52.5421Z" fill="#9BC9FF"/>
<path d="M580.604 23.7729L542.229 85.0996H548.883L587.194 23.7729H580.604Z" fill="#9BC9FF"/>
<path d="M556.158 603.958C556.158 604.594 555.874 605.135 555.305 605.572C554.737 606.009 554.037 606.229 553.212 606.229C552.383 606.229 551.683 606.009 551.115 605.572C550.546 605.135 550.262 604.594 550.262 603.958V589.678C550.262 589.036 550.546 588.498 551.115 588.061C551.683 587.621 552.383 587.4 553.212 587.4C554.037 587.4 554.737 587.621 555.305 588.061C555.874 588.498 556.158 589.036 556.158 589.678V603.958ZM559.077 585.346C557.509 584.112 555.605 583.491 553.364 583.491C551.124 583.491 549.21 584.105 547.624 585.328C546.041 586.551 545.246 588.027 545.246 589.757V604.037C545.246 605.74 546.041 607.195 547.624 608.402C549.21 609.615 551.124 610.221 553.364 610.221C555.571 610.221 557.466 609.622 559.053 608.423C560.636 607.228 561.43 605.764 561.43 604.037V589.757C561.43 588.052 560.645 586.584 559.077 585.346Z" fill="#9BC9FF"/>
<path d="M522.318 579.883C521.749 579.443 521.465 578.908 521.465 578.27V563.989C521.465 563.351 521.749 562.813 522.318 562.372C522.886 561.932 523.586 561.712 524.412 561.712C525.24 561.712 525.937 561.932 526.505 562.372C527.077 562.813 527.358 563.351 527.358 563.989V578.27C527.358 578.908 527.077 579.443 526.505 579.883C525.937 580.324 525.24 580.544 524.412 580.544C523.586 580.544 522.886 580.324 522.318 579.883ZM530.28 582.735C531.885 581.513 532.686 580.052 532.686 578.349V564.069C532.686 562.366 531.891 560.896 530.308 559.661C528.721 558.423 526.808 557.806 524.567 557.806C522.327 557.806 520.414 558.417 518.827 559.64C517.241 560.866 516.449 562.339 516.449 564.069V578.349C516.449 580.052 517.241 581.513 518.827 582.735C520.414 583.961 522.327 584.572 524.567 584.572C526.774 584.572 528.679 583.961 530.28 582.735Z" fill="#9BC9FF"/>
<path d="M552.651 557.925L519.555 610.818H525.292L558.333 557.925H552.651Z" fill="#9BC9FF"/>
<path d="M1123.16 469.837C1123.16 470.476 1122.88 471.014 1122.31 471.451C1121.74 471.891 1121.04 472.111 1120.21 472.111C1119.39 472.111 1118.69 471.891 1118.12 471.451C1117.55 471.014 1117.26 470.476 1117.26 469.837V455.557C1117.26 454.915 1117.55 454.38 1118.12 453.94C1118.69 453.5 1119.39 453.28 1120.21 453.28C1121.04 453.28 1121.74 453.5 1122.31 453.94C1122.88 454.38 1123.16 454.915 1123.16 455.557V469.837ZM1126.08 451.229C1124.51 449.991 1122.61 449.371 1120.37 449.371C1118.13 449.371 1116.21 449.985 1114.63 451.208C1113.04 452.433 1112.25 453.906 1112.25 455.636V469.917C1112.25 471.619 1113.04 473.074 1114.63 474.285C1116.21 475.495 1118.13 476.1 1120.37 476.1C1122.57 476.1 1124.47 475.501 1126.06 474.303C1127.64 473.108 1128.43 471.647 1128.43 469.917V455.636C1128.43 453.934 1127.65 452.464 1126.08 451.229Z" fill="#9BC9FF"/>
<path d="M1089.32 445.764C1088.76 445.324 1088.47 444.786 1088.47 444.148V429.867C1088.47 429.228 1088.76 428.691 1089.32 428.25C1089.9 427.813 1090.59 427.593 1091.42 427.593C1092.25 427.593 1092.94 427.813 1093.51 428.25C1094.08 428.691 1094.37 429.228 1094.37 429.867V444.148C1094.37 444.786 1094.08 445.324 1093.51 445.764C1092.94 446.202 1092.25 446.422 1091.42 446.422C1090.59 446.422 1089.9 446.202 1089.32 445.764ZM1097.29 448.616C1098.89 447.394 1099.69 445.93 1099.69 444.227V429.947C1099.69 428.244 1098.9 426.774 1097.31 425.539C1095.73 424.301 1093.81 423.684 1091.57 423.684C1089.33 423.684 1087.42 424.295 1085.83 425.518C1084.25 426.744 1083.46 428.217 1083.46 429.947V444.227C1083.46 445.93 1084.25 447.394 1085.83 448.616C1087.42 449.839 1089.33 450.45 1091.57 450.45C1093.78 450.45 1095.68 449.839 1097.29 448.616Z" fill="#9BC9FF"/>
<path d="M1119.65 423.802L1086.55 476.696H1092.29L1125.33 423.802H1119.65Z" fill="#9BC9FF"/>
<path d="M830.714 465.664C830.714 466.733 830.237 467.641 829.28 468.375C828.326 469.111 827.153 469.481 825.765 469.481C824.374 469.481 823.201 469.111 822.247 468.375C821.29 467.641 820.813 466.733 820.813 465.664V441.685C820.813 440.612 821.29 439.707 822.247 438.974C823.201 438.234 824.374 437.864 825.765 437.864C827.153 437.864 828.326 438.234 829.28 438.974C830.237 439.707 830.714 440.612 830.714 441.685V465.664ZM835.616 434.416C832.982 432.341 829.784 431.302 826.025 431.302C822.262 431.302 819.047 432.332 816.388 434.383C813.725 436.44 812.393 438.916 812.393 441.819V465.798C812.393 468.656 813.725 471.098 816.388 473.131C819.047 475.166 822.262 476.181 826.025 476.181C829.726 476.181 832.911 475.176 835.573 473.164C838.236 471.156 839.565 468.702 839.565 465.798V441.819C839.565 438.958 838.251 436.495 835.616 434.416Z" fill="#9BC9FF"/>
<path d="M773.884 425.24C772.93 424.5 772.453 423.598 772.453 422.529V398.55C772.453 397.474 772.93 396.572 773.884 395.833C774.84 395.099 776.011 394.729 777.402 394.729C778.789 394.729 779.963 395.099 780.917 395.833C781.873 396.572 782.35 397.474 782.35 398.55V422.529C782.35 423.598 781.873 424.5 780.917 425.24C779.963 425.976 778.789 426.343 777.402 426.343C776.011 426.343 774.84 425.976 773.884 425.24ZM787.253 430.029C789.946 427.975 791.291 425.518 791.291 422.66V398.681C791.291 395.823 789.958 393.357 787.299 391.281C784.637 389.206 781.421 388.167 777.662 388.167C773.899 388.167 770.686 389.194 768.024 391.248C765.362 393.302 764.029 395.781 764.029 398.681V422.66C764.029 425.518 765.362 427.975 768.024 430.029C770.686 432.083 773.899 433.11 777.662 433.11C781.363 433.11 784.563 432.083 787.253 430.029Z" fill="#9BC9FF"/>
<path d="M824.817 388.371L769.242 477.186H778.88L834.356 388.371H824.817Z" fill="#9BC9FF"/>
<path d="M1332.06 379.034C1324.53 379.034 1318.42 372.924 1318.42 365.39C1318.42 357.852 1324.53 351.745 1332.06 351.745C1339.6 351.745 1345.71 357.852 1345.71 365.39C1345.71 372.924 1339.6 379.034 1332.06 379.034ZM1352.1 362.902L1357 358.479L1354.58 352.644L1347.99 352.98L1344.47 349.462L1344.81 342.869L1338.97 340.451L1334.55 345.351H1329.58L1325.15 340.451L1319.32 342.869L1319.65 349.462L1316.14 352.98L1309.54 352.644L1307.12 358.479L1312.03 362.902V367.878L1307.12 372.301L1309.54 378.136L1316.14 377.799L1319.65 381.318L1319.32 387.907L1325.15 390.325L1329.58 385.426H1334.55L1338.97 390.325L1344.81 387.907L1344.47 381.318L1347.99 377.799L1354.58 378.136L1357 372.301L1352.1 367.878V362.902Z" fill="#9BC9FF"/>
<path d="M887.138 584.536C879.6 584.536 873.493 578.426 873.493 570.891C873.493 563.354 879.6 557.247 887.138 557.247C894.672 557.247 900.782 563.354 900.782 570.891C900.782 578.426 894.672 584.536 887.138 584.536ZM907.173 568.403L912.073 563.98L909.658 558.145L903.065 558.482L899.547 554.964L899.884 548.371L894.049 545.953L889.626 550.856H884.65L880.227 545.953L874.392 548.371L874.728 554.964L871.21 558.482L864.617 558.145L862.199 563.98L867.102 568.403V573.379L862.199 577.802L864.617 583.637L871.21 583.301L874.728 586.819L874.392 593.412L880.227 595.827L884.65 590.927H889.626L894.049 595.827L899.884 593.412L899.547 586.819L903.065 583.301L909.658 583.637L912.073 577.802L907.173 573.379V568.403Z" fill="#9BC9FF"/>
<path d="M992.929 287.842C983.959 292.528 972.888 289.053 968.203 280.085C963.518 271.114 966.991 260.043 975.962 255.357C984.932 250.672 996.002 254.147 1000.69 263.115C1005.37 272.086 1001.9 283.157 992.929 287.842ZM1006.75 256.183L1009.83 247.869L1003.33 242.425L995.689 246.927L989.314 244.925L985.616 236.868L977.168 237.62L974.948 246.203L969.027 249.296L960.715 246.215L955.273 252.72L959.772 260.358L957.772 266.731L949.715 270.429L950.466 278.878L959.049 281.097L962.142 287.017L959.06 295.331L965.565 300.775L973.203 296.272L979.577 298.274L983.276 306.332L991.723 305.58L993.943 296.997L999.864 293.904L1008.18 296.985L1013.62 290.48L1009.12 282.842L1011.12 276.469L1019.18 272.771L1018.43 264.322L1009.84 262.103L1006.75 256.183Z" fill="#9BC9FF"/>
<path d="M1010.91 472.078C1001.94 476.764 990.87 473.289 986.184 464.321C981.499 455.35 984.974 444.279 993.942 439.593C1002.91 434.907 1013.98 438.383 1018.67 447.351C1023.36 456.322 1019.88 467.393 1010.91 472.078ZM1024.73 440.418L1027.81 432.105L1021.31 426.661L1013.67 431.163L1007.3 429.161L1003.6 421.104L995.149 421.856L992.93 430.439L987.01 433.532L978.696 430.451L973.255 436.955L977.754 444.594L975.752 450.967L967.695 454.665L968.447 463.113L977.03 465.332L980.123 471.256L977.042 479.567L983.547 485.011L991.185 480.508L997.558 482.51L1001.26 490.567L1009.7 489.815L1011.92 481.233L1017.85 478.139L1026.16 481.22L1031.6 474.716L1027.1 467.078L1029.1 460.705L1037.16 457.006L1036.41 448.558L1027.82 446.339L1024.73 440.418Z" fill="#9BC9FF"/>
<path d="M71.0471 564.691C55.393 572.867 36.0734 566.806 27.8971 551.151C19.7208 535.498 25.7826 516.178 41.4367 508.001C57.0909 499.825 76.4105 505.886 84.5868 521.539C92.7631 537.194 86.7013 556.515 71.0471 564.691ZM109.779 516.254L103.319 503.884L88.8718 505.914L80.4399 498.859L79.8919 484.282L66.5757 480.104L57.7964 491.756L46.8465 492.728L36.1498 482.809L23.7802 489.271L25.8113 503.716L18.7562 512.146L4.1777 512.696L0 526.01L11.6507 534.792L12.6238 545.741L2.70432 556.438L9.1649 568.808L23.6118 566.776L32.0436 573.833L32.5917 588.41L45.9082 592.588L54.6872 580.937L65.6383 579.962L76.3341 589.883L88.7033 583.422L86.6726 568.976L93.7289 560.543L108.306 559.996L112.484 546.679L100.833 537.9L99.8586 526.949L109.779 516.254Z" fill="#9BC9FF"/>
<path d="M232.813 146.64L216.226 142.195V144.726H65.242L96.1047 113.247C96.709 113.537 97.3753 113.711 98.0893 113.711C100.522 113.711 102.495 111.825 102.675 109.438L130.699 102.686C131.545 103.762 132.845 104.468 134.32 104.468C136.873 104.468 138.942 102.399 138.942 99.8467C138.942 99.3088 138.832 98.7983 138.663 98.3185L166.412 71.5797C166.938 71.7876 167.506 71.9129 168.107 71.9129C169.976 71.9129 171.575 70.7972 172.304 69.2017H203.754C204.483 70.7972 206.082 71.9129 207.951 71.9129C210.504 71.9129 212.573 69.8405 212.573 67.2883C212.573 64.7391 210.504 62.6668 207.951 62.6668C206.082 62.6668 204.483 63.7824 203.753 65.3779H172.305C171.575 63.7824 169.976 62.6668 168.107 62.6668C165.554 62.6668 163.485 64.7391 163.485 67.2883C163.485 67.8262 163.595 68.3367 163.765 68.8166L136.016 95.5553C135.489 95.3475 134.921 95.2253 134.32 95.2253C132.067 95.2253 130.196 96.8361 129.787 98.9726L101.357 105.822C100.52 104.985 99.3654 104.468 98.0893 104.468C95.5365 104.468 93.4672 106.538 93.4672 109.09C93.4672 109.509 93.5415 109.909 93.6463 110.294L67.9309 136.522L85.3722 101.922L85.5526 101.941C88.1042 101.941 90.1732 99.8712 90.1732 97.319L90.1612 97.1998L121.801 81.7886C122.6 82.4488 123.61 82.8584 124.725 82.8584C127.278 82.8584 129.347 80.7891 129.347 78.2369C129.347 77.5981 129.216 76.9868 128.978 76.4305L153.646 49.5206C154.093 49.6642 154.564 49.762 155.059 49.762C157.26 49.762 159.093 48.2215 159.559 46.1645L204.248 36.6585C205.091 37.7925 206.43 38.5383 207.951 38.5383C210.504 38.5383 212.573 36.469 212.573 33.9168C212.573 31.3615 210.504 29.2922 207.951 29.2922C205.741 29.2922 203.898 30.848 203.442 32.9204L158.778 42.4202C157.938 41.274 156.591 40.519 155.059 40.519C152.508 40.519 150.437 42.5883 150.437 45.1405C150.437 45.7854 150.571 46.3998 150.809 46.9561L126.143 73.8599C125.692 73.7162 125.223 73.6153 124.725 73.6153C122.173 73.6153 120.104 75.6847 120.104 78.2369L120.115 78.3561L88.4765 93.7673C87.6778 93.1101 86.6676 92.6975 85.5526 92.6975C82.9985 92.6975 80.9295 94.7667 80.9295 97.319C80.9295 98.4102 81.3259 99.4036 81.9611 100.195L62.6021 138.598V43.5603H65.1344L60.6893 26.9754L56.2441 43.5603H58.7765V148.553H216.226V151.087L232.813 146.64Z" fill="#9BC9FF"/>
<path d="M1190.6 103.012L1176.33 99.1849V101.364H1046.36L1072.92 74.2648C1073.44 74.5154 1074.02 74.6652 1074.63 74.6652C1076.73 74.6652 1078.42 73.0421 1078.58 70.9851L1102.7 65.1746C1103.43 66.1007 1104.55 66.7059 1105.82 66.7059C1108.02 66.7059 1109.8 64.927 1109.8 62.7293C1109.8 62.2647 1109.7 61.8276 1109.56 61.415L1133.44 38.3991C1133.9 38.5764 1134.39 38.6834 1134.91 38.6834C1136.51 38.6834 1137.89 37.7236 1138.52 36.3512H1165.59C1166.22 37.7236 1167.6 38.6834 1169.2 38.6834C1171.4 38.6834 1173.18 36.9014 1173.18 34.7037C1173.18 32.5061 1171.4 30.7241 1169.2 30.7241C1167.6 30.7241 1166.22 31.6838 1165.59 33.0562H1138.52C1137.89 31.6838 1136.51 30.7241 1134.91 30.7241C1132.71 30.7241 1130.93 32.5061 1130.93 34.7037C1130.93 35.1683 1131.02 35.6054 1131.17 36.018L1107.28 59.037C1106.83 58.8566 1106.34 58.7497 1105.82 58.7497C1103.88 58.7497 1102.27 60.1374 1101.92 61.9743L1077.44 67.8735C1076.72 67.1522 1075.73 66.7059 1074.63 66.7059C1072.44 66.7059 1070.65 68.4879 1070.65 70.6855C1070.65 71.0462 1070.72 71.3885 1070.81 71.7217L1048.67 94.3005L1063.68 64.5144L1063.84 64.5326C1066.04 64.5326 1067.82 62.7507 1067.82 60.553L1067.81 60.4522L1095.04 47.1867C1095.73 47.7521 1096.6 48.1067 1097.56 48.1067C1099.76 48.1067 1101.54 46.3247 1101.54 44.1301C1101.54 43.5769 1101.43 43.0481 1101.22 42.5713L1122.46 19.4057C1122.84 19.531 1123.25 19.6165 1123.67 19.6165C1125.57 19.6165 1127.14 18.29 1127.55 16.5172L1166.02 8.33481C1166.74 9.31291 1167.89 9.95175 1169.2 9.95175C1171.4 9.95175 1173.18 8.17282 1173.18 5.97516C1173.18 3.7775 1171.4 1.99551 1169.2 1.99551C1167.3 1.99551 1165.72 3.33428 1165.32 5.11625L1126.88 13.2956C1126.15 12.3083 1124.99 11.6603 1123.67 11.6603C1121.48 11.6603 1119.7 13.4392 1119.7 15.6369C1119.7 16.1932 1119.81 16.719 1120.01 17.1988L1098.78 40.3614C1098.39 40.2361 1097.99 40.1505 1097.56 40.1505C1095.37 40.1505 1093.58 41.9294 1093.58 44.1301L1093.59 44.228L1066.36 57.4964C1065.67 56.9279 1064.8 56.5734 1063.84 56.5734C1061.64 56.5734 1059.86 58.3553 1059.86 60.553C1059.86 61.4944 1060.2 62.3472 1060.75 63.0288L1044.08 96.0855V14.2767H1046.26L1042.44 -0.000498189L1038.61 14.2767H1040.79V104.656H1176.33V106.835L1190.6 103.012Z" fill="#9BC9FF"/>
<path d="M386.196 555.939L375.299 553.02V554.683H276.111L296.385 534.002C296.783 534.191 297.223 534.308 297.69 534.308C299.289 534.308 300.585 533.07 300.704 531.499L319.114 527.063C319.667 527.773 320.523 528.234 321.492 528.234C323.167 528.234 324.527 526.877 324.527 525.199C324.527 524.844 324.457 524.511 324.344 524.196L342.573 506.63C342.918 506.768 343.294 506.847 343.688 506.847C344.914 506.847 345.966 506.117 346.445 505.068H367.105C367.585 506.117 368.633 506.847 369.862 506.847C371.54 506.847 372.897 505.487 372.897 503.812C372.897 502.134 371.54 500.774 369.862 500.774C368.633 500.774 367.585 501.508 367.105 502.556H346.445C345.966 501.508 344.914 500.774 343.688 500.774C342.01 500.774 340.65 502.134 340.65 503.812C340.65 504.164 340.724 504.5 340.834 504.815L322.604 522.381C322.259 522.243 321.886 522.164 321.492 522.164C320.012 522.164 318.784 523.221 318.515 524.624L299.836 529.124C299.286 528.576 298.528 528.234 297.69 528.234C296.012 528.234 294.655 529.594 294.655 531.272C294.655 531.547 294.701 531.807 294.771 532.061L277.878 549.294L289.336 526.562L289.454 526.574C291.13 526.574 292.49 525.214 292.49 523.539L292.482 523.46L313.267 513.336C313.792 513.771 314.456 514.04 315.189 514.04C316.864 514.04 318.224 512.682 318.224 511.004C318.224 510.582 318.139 510.182 317.983 509.815L334.186 492.139C334.482 492.234 334.791 492.298 335.115 492.298C336.561 492.298 337.765 491.286 338.074 489.932L367.429 483.688C367.982 484.434 368.862 484.923 369.862 484.923C371.54 484.923 372.897 483.563 372.897 481.888C372.897 480.21 371.54 478.849 369.862 478.849C368.41 478.849 367.2 479.87 366.9 481.233L337.56 487.475C337.007 486.72 336.123 486.225 335.115 486.225C333.44 486.225 332.08 487.585 332.08 489.263C332.08 489.685 332.168 490.088 332.324 490.452L316.118 508.128C315.825 508.033 315.516 507.966 315.189 507.966C313.511 507.966 312.154 509.326 312.154 511.004L312.16 511.081L291.375 521.204C290.851 520.773 290.187 520.501 289.454 520.501C287.778 520.501 286.418 521.861 286.418 523.539C286.418 524.258 286.678 524.909 287.095 525.428L274.378 550.654V488.224H276.041L273.122 477.327L270.201 488.224H271.864V557.195H375.299V558.861L386.196 555.939Z" fill="#9BC9FF"/>
<path d="M386.196 555.939L375.299 553.02V554.683H276.111L296.385 534.002C296.783 534.191 297.223 534.308 297.69 534.308C299.289 534.308 300.585 533.07 300.704 531.499L319.114 527.063C319.667 527.773 320.523 528.234 321.492 528.234C323.167 528.234 324.527 526.877 324.527 525.199C324.527 524.844 324.457 524.511 324.344 524.196L342.573 506.63C342.918 506.768 343.294 506.847 343.688 506.847C344.914 506.847 345.966 506.117 346.445 505.068H367.105C367.585 506.117 368.633 506.847 369.862 506.847C371.54 506.847 372.897 505.487 372.897 503.812C372.897 502.134 371.54 500.774 369.862 500.774C368.633 500.774 367.585 501.508 367.105 502.556H346.445C345.966 501.508 344.914 500.774 343.688 500.774C342.01 500.774 340.65 502.134 340.65 503.812C340.65 504.164 340.724 504.5 340.834 504.815L322.604 522.381C322.259 522.243 321.886 522.164 321.492 522.164C320.012 522.164 318.784 523.221 318.515 524.624L299.836 529.124C299.286 528.576 298.528 528.234 297.69 528.234C296.012 528.234 294.655 529.594 294.655 531.272C294.655 531.547 294.701 531.807 294.771 532.061L277.878 549.294L289.336 526.562L289.454 526.574C291.13 526.574 292.49 525.214 292.49 523.539L292.482 523.46L313.267 513.336C313.792 513.771 314.456 514.04 315.189 514.04C316.864 514.04 318.224 512.682 318.224 511.004C318.224 510.582 318.139 510.182 317.983 509.815L334.186 492.139C334.482 492.234 334.791 492.298 335.115 492.298C336.561 492.298 337.765 491.286 338.074 489.932L367.429 483.688C367.982 484.434 368.862 484.923 369.862 484.923C371.54 484.923 372.897 483.563 372.897 481.888C372.897 480.21 371.54 478.849 369.862 478.849C368.41 478.849 367.2 479.87 366.9 481.233L337.56 487.475C337.007 486.72 336.123 486.225 335.115 486.225C333.44 486.225 332.08 487.585 332.08 489.263C332.08 489.685 332.168 490.088 332.324 490.452L316.118 508.128C315.825 508.033 315.516 507.966 315.189 507.966C313.511 507.966 312.154 509.326 312.154 511.004L312.16 511.081L291.375 521.204C290.851 520.773 290.187 520.501 289.454 520.501C287.778 520.501 286.418 521.861 286.418 523.539C286.418 524.258 286.678 524.909 287.095 525.428L274.378 550.654V488.224H276.041L273.122 477.327L270.201 488.224H271.864V557.195H375.299V558.861L386.196 555.939Z" fill="#9BC9FF"/>
</g>
</svg>
