<svg width="239" height="34" viewBox="0 0 239 34" fill="none" xmlns="http://www.w3.org/2000/svg">
<path d="M10.7407 26.3184C7.46009 26.3184 4.95138 25.3439 3.21458 23.3948C1.47778 21.4264 0.609384 18.744 0.609384 15.3476C0.609384 13.1091 1.06288 11.16 1.96988 9.5004C2.89617 7.82149 4.16017 6.52854 5.76189 5.62155C7.36361 4.71455 9.1776 4.26105 11.2039 4.26105C12.053 4.26105 12.8731 4.31895 13.6643 4.43473C14.4555 4.53122 15.3915 4.66631 16.4722 4.83999C17.2827 4.97507 17.7265 5.04261 17.8037 5.04261L17.4853 11.0056H14.8222L13.9248 6.86625C13.7126 6.65398 13.3459 6.4803 12.8249 6.34521C12.3038 6.21013 11.6381 6.14259 10.8276 6.14259C9.18725 6.14259 7.86535 6.90485 6.86186 8.42937C5.87768 9.9346 5.38558 12.1249 5.38558 15.0003C5.38558 17.7791 5.85838 20.0466 6.80397 21.8027C7.74956 23.5588 9.12935 24.4369 10.9433 24.4369C11.8117 24.4369 12.4775 24.3597 12.9407 24.2053C13.4231 24.0316 13.8284 23.7904 14.1564 23.4816L15.4301 20.5001L17.8616 20.7317L17.2827 25.2184C16.8774 25.257 16.4722 25.3342 16.0669 25.45C15.6809 25.5465 15.4397 25.6044 15.3432 25.6237C14.5713 25.836 13.8477 26 13.1722 26.1158C12.5161 26.2509 11.7056 26.3184 10.7407 26.3184ZM43.8704 25.479C43.6388 28.8175 43.4555 30.892 43.3204 31.7025H41.1205C41.0433 31.0657 40.8889 30.0139 40.6573 28.5473C40.4257 27.0807 40.2521 26.2316 40.1363 26H29.6286C29.5129 26.2509 29.2909 27.1386 28.9629 28.6631C28.6348 30.1876 28.4322 31.2007 28.355 31.7025H25.8945L26.1261 24.0895H27.805C28.6348 23.7422 29.3102 22.6036 29.8313 20.6738C30.3716 18.7247 30.6418 15.8301 30.6418 11.9898L27.9208 11.6135V9.90565H43.9283V11.6135L41.4099 11.9898V24.1474H43.9572L43.8704 25.479ZM32.8128 13.495C32.8128 15.9073 32.6294 18.0976 32.2628 20.0659C31.8961 22.015 31.4619 23.3755 30.9602 24.1474H37.2995V11.903H32.8128V13.495ZM54.1261 9.90565V11.6135L52.013 11.9898V16.7081H58.8444V11.9898L56.7313 11.6135V9.90565H64.9522V11.6135L62.9548 11.9898V24.0027L64.9811 24.2632V26H56.6734V24.2632L58.8444 24.0027V18.6186H52.013V24.0027L54.1551 24.2632V26H45.8763V24.2632L47.9315 24.0027V11.9898L45.8763 11.6135V9.90565H54.1261ZM74.854 26.3184C72.3067 26.3184 70.4058 25.5754 69.1515 24.0895C67.9164 22.5843 67.2989 20.5387 67.2989 17.9528C67.2989 16.216 67.6173 14.7108 68.2541 13.4371C68.9102 12.1635 69.8269 11.189 71.0041 10.5135C72.1812 9.83811 73.5417 9.5004 75.0855 9.5004C77.0153 9.5004 78.5012 10.0118 79.5433 11.0346C80.5854 12.0381 81.1257 13.4757 81.1643 15.3476C81.1643 16.6213 81.0871 17.5669 80.9328 18.1844H71.5251C71.6023 19.9405 72.0172 21.3106 72.7698 22.2948C73.5224 23.2597 74.5934 23.7422 75.9829 23.7422C76.7355 23.7422 77.5074 23.6167 78.2986 23.3659C79.1091 23.115 79.746 22.8159 80.2091 22.4685L80.9328 24.0606C80.4117 24.6202 79.5626 25.1412 78.3855 25.6237C77.2276 26.0868 76.0504 26.3184 74.854 26.3184ZM77.1118 16.4476C77.1504 15.9073 77.1697 15.4924 77.1697 15.2029C77.1697 12.6363 76.3109 11.353 74.5934 11.353C73.6479 11.353 72.9145 11.7293 72.3935 12.4819C71.8725 13.2345 71.583 14.5564 71.5251 16.4476H77.1118ZM91.7242 9.90565L94.7347 18.5607L95.5741 21.2527L96.3267 18.5607L99.1924 9.90565H107.298V11.6135L104.605 11.9898L106.574 24.0027L108.687 24.2632V26H100.177V24.2632L102.377 24.0027L101.421 15.6371L100.9 11.5556L99.6556 15.5792L96.3846 24.9579H93.3452L89.8427 15.5213L88.5111 11.5556L88.1059 15.5503L87.0059 24.0316L89.4664 24.2632V26H82.2297V24.2632L84.4296 24.0027L86.3691 11.9898L83.6481 11.6135V9.90565H91.7242ZM130.551 3.79791C130.474 4.33824 130.3 4.7435 130.03 5.01367C129.779 5.28384 129.393 5.42857 128.872 5.44787C127.328 5.50576 125.891 5.66979 124.559 5.93996C123.247 6.21013 122.282 6.58644 121.664 7.06888C120.603 7.91798 119.995 9.57759 119.841 12.0477C120.4 11.3916 121.163 10.8126 122.127 10.3109C123.112 9.80916 124.154 9.55829 125.254 9.55829C127.492 9.55829 129.113 10.2048 130.117 11.4977C131.12 12.7714 131.622 14.7108 131.622 17.316C131.622 20.0949 130.966 22.2755 129.654 23.8579C128.361 25.4404 126.518 26.2316 124.125 26.2316C121.635 26.2316 119.715 25.3053 118.364 23.4527C117.033 21.5808 116.367 18.7923 116.367 15.0871C116.367 12.6363 116.753 10.61 117.525 9.00831C118.316 7.38729 119.3 6.09434 120.478 5.12945C121.249 4.51192 122.195 4.01018 123.314 3.62423C124.434 3.21897 125.514 2.9681 126.556 2.87161C127.174 2.83302 127.627 2.75583 127.917 2.64004C128.206 2.50496 128.409 2.27338 128.525 1.94532L128.93 0.758506H131.014L130.551 3.79791ZM124.183 11.7582C123.334 11.7582 122.6 11.9609 121.983 12.3661C121.365 12.7521 120.941 13.1573 120.709 13.5819C120.709 16.3029 120.815 18.4546 121.028 20.037C121.24 21.6001 121.587 22.7483 122.07 23.4816C122.552 24.1957 123.218 24.5527 124.067 24.5527C125.302 24.5527 126.161 23.9351 126.643 22.7001C127.126 21.465 127.367 19.6414 127.367 17.2292C127.367 15.8011 127.251 14.6915 127.019 13.9003C126.807 13.1091 126.469 12.5591 126.006 12.2503C125.562 11.9223 124.955 11.7582 124.183 11.7582ZM149.799 17.4318C149.799 19.0528 149.462 20.5387 148.786 21.8896C148.13 23.2404 147.156 24.3211 145.863 25.1316C144.589 25.9228 143.064 26.3184 141.289 26.3184C140.903 26.3184 140.498 26.2798 140.073 26.2026C139.668 26.1447 139.34 26.0675 139.089 25.9711L139.176 28.3736V31.0078L141.868 31.3551V33.0051H133.271V31.3551L135.152 31.0078V12.6556L133.271 12.1345V10.1372L138.047 9.52935H138.105L138.829 10.1083V11.7293C139.311 11.1311 139.967 10.61 140.797 10.1662C141.627 9.72232 142.534 9.5004 143.518 9.5004C145.351 9.5004 146.856 10.1565 148.034 11.4688C149.211 12.7617 149.799 14.7494 149.799 17.4318ZM142.013 11.903C141.434 11.903 140.884 12.0284 140.363 12.2793C139.842 12.5301 139.446 12.81 139.176 13.1187V23.8579C139.311 24.0509 139.581 24.215 139.986 24.35C140.411 24.4851 140.874 24.5527 141.376 24.5527C142.63 24.5527 143.624 24.0123 144.357 22.9317C145.11 21.8317 145.486 20.1142 145.486 17.7791C145.486 15.8108 145.168 14.3441 144.531 13.3793C143.894 12.3951 143.055 11.903 142.013 11.903ZM152.166 17.9818C152.166 16.1678 152.523 14.624 153.237 13.3503C153.971 12.0767 154.945 11.1214 156.161 10.4846C157.377 9.82846 158.698 9.5004 160.127 9.5004C162.558 9.5004 164.43 10.253 165.742 11.7582C167.074 13.2442 167.739 15.2704 167.739 17.837C167.739 19.6703 167.373 21.2334 166.64 22.5264C165.926 23.8001 164.961 24.7553 163.745 25.3921C162.548 26.0096 161.226 26.3184 159.779 26.3184C157.367 26.3184 155.495 25.5754 154.164 24.0895C152.832 22.5843 152.166 20.5484 152.166 17.9818ZM160.011 24.4369C162.191 24.4369 163.282 22.3334 163.282 18.1265C163.282 15.9266 163.021 14.2573 162.5 13.1187C161.979 11.9609 161.13 11.3819 159.953 11.3819C157.714 11.3819 156.595 13.4854 156.595 17.6923C156.595 19.8923 156.865 21.5712 157.406 22.729C157.965 23.8676 158.834 24.4369 160.011 24.4369ZM181.66 17.0265C182.432 17.3546 183.107 17.9046 183.686 18.6765C184.265 19.4291 184.893 20.4036 185.568 21.6001C185.973 22.3334 186.311 22.8931 186.581 23.279C186.851 23.6457 187.112 23.8772 187.363 23.9737L188.607 24.2343V26H184.41C183.87 26 183.387 25.7009 182.963 25.1027C182.538 24.4851 182.027 23.5588 181.429 22.3238C180.83 21.0501 180.3 20.0852 179.837 19.4291C179.373 18.773 178.843 18.4449 178.244 18.4449H176.421V24.0027L178.794 24.2632V26H170.313V24.2632L172.339 24.0027V11.9898L170.371 11.6135V9.90565H178.389V11.6135L176.421 11.9898V16.7371H179.258L182.471 11.9898L180.329 11.6135V9.90565H187.797V11.6135L185.568 11.9898L181.66 17.0265ZM197.142 26.3184C194.595 26.3184 192.694 25.5754 191.44 24.0895C190.205 22.5843 189.587 20.5387 189.587 17.9528C189.587 16.216 189.906 14.7108 190.542 13.4371C191.199 12.1635 192.115 11.189 193.292 10.5135C194.47 9.83811 195.83 9.5004 197.374 9.5004C199.304 9.5004 200.79 10.0118 201.832 11.0346C202.874 12.0381 203.414 13.4757 203.453 15.3476C203.453 16.6213 203.375 17.5669 203.221 18.1844H193.813C193.891 19.9405 194.306 21.3106 195.058 22.2948C195.811 23.2597 196.882 23.7422 198.271 23.7422C199.024 23.7422 199.796 23.6167 200.587 23.3659C201.397 23.115 202.034 22.8159 202.497 22.4685L203.221 24.0606C202.7 24.6202 201.851 25.1412 200.674 25.6237C199.516 26.0868 198.339 26.3184 197.142 26.3184ZM199.4 16.4476C199.439 15.9073 199.458 15.4924 199.458 15.2029C199.458 12.6363 198.599 11.353 196.882 11.353C195.936 11.353 195.203 11.7293 194.682 12.4819C194.161 13.2345 193.871 14.5564 193.813 16.4476H199.4ZM221.77 17.4318C221.77 19.0528 221.433 20.5387 220.757 21.8896C220.101 23.2404 219.126 24.3211 217.834 25.1316C216.56 25.9228 215.035 26.3184 213.26 26.3184C212.874 26.3184 212.469 26.2798 212.044 26.2026C211.639 26.1447 211.311 26.0675 211.06 25.9711L211.147 28.3736V31.0078L213.839 31.3551V33.0051H205.242V31.3551L207.123 31.0078V12.6556L205.242 12.1345V10.1372L210.018 9.52935H210.076L210.799 10.1083V11.7293C211.282 11.1311 211.938 10.61 212.768 10.1662C213.598 9.72232 214.505 9.5004 215.489 9.5004C217.322 9.5004 218.827 10.1565 220.005 11.4688C221.182 12.7617 221.77 14.7494 221.77 17.4318ZM213.984 11.903C213.405 11.903 212.855 12.0284 212.334 12.2793C211.813 12.5301 211.417 12.81 211.147 13.1187V23.8579C211.282 24.0509 211.552 24.215 211.957 24.35C212.382 24.4851 212.845 24.5527 213.347 24.5527C214.601 24.5527 215.595 24.0123 216.328 22.9317C217.081 21.8317 217.457 20.1142 217.457 17.7791C217.457 15.8108 217.139 14.3441 216.502 13.3793C215.865 12.3951 215.026 11.903 213.984 11.903ZM223.819 21.4843C223.819 19.7282 224.697 18.4063 226.453 17.5186C228.228 16.6309 230.515 16.1774 233.313 16.1581V15.4924C233.313 14.7012 233.226 14.0836 233.053 13.6398C232.898 13.1959 232.599 12.8679 232.155 12.6556C231.731 12.424 231.104 12.3082 230.274 12.3082C229.328 12.3082 228.479 12.4337 227.726 12.6845C226.974 12.9161 226.192 13.2249 225.382 13.6108L224.484 11.7582C224.774 11.5074 225.256 11.2083 225.932 10.8609C226.627 10.5135 227.447 10.2144 228.392 9.96355C229.338 9.69338 230.312 9.55829 231.316 9.55829C232.802 9.55829 233.96 9.75127 234.789 10.1372C235.639 10.5232 236.246 11.1407 236.613 11.9898C236.98 12.8389 237.163 13.9775 237.163 15.4055V24.2632H238.726V25.8842C238.34 25.9807 237.79 26.0772 237.076 26.1737C236.362 26.2702 235.735 26.3184 235.195 26.3184C234.539 26.3184 234.095 26.2219 233.863 26.0289C233.651 25.836 233.545 25.4404 233.545 24.8421V24.0606C233.024 24.6395 232.348 25.1605 231.518 25.6237C230.689 26.0868 229.753 26.3184 228.711 26.3184C227.823 26.3184 227.003 26.1351 226.25 25.7684C225.517 25.3825 224.928 24.8325 224.484 24.1185C224.041 23.3851 223.819 22.5071 223.819 21.4843ZM230.563 23.9158C230.969 23.9158 231.432 23.8001 231.953 23.5685C232.474 23.3176 232.927 23.0185 233.313 22.6711V17.9239C231.576 17.9239 230.274 18.223 229.405 18.8212C228.556 19.4002 228.132 20.1528 228.132 21.0791C228.132 22.0054 228.344 22.7097 228.769 23.1922C229.212 23.6746 229.811 23.9158 230.563 23.9158Z" fill="white"/>
</svg>
