<svg width="42" height="42" viewBox="0 0 42 42" fill="none" xmlns="http://www.w3.org/2000/svg">
<g clip-path="url(#clip0)">
<path d="M32.8416 38.4114C37.6257 33.6278 37.6257 25.8706 32.8416 21.0865L13.0379 1.28146C11.3293 -0.427151 8.55823 -0.427151 6.84954 1.28146C5.14101 2.99064 5.14101 5.7606 6.84954 7.46978L26.654 27.2741C28.021 28.6405 28.021 30.8567 26.654 32.2244C25.287 33.5906 23.0708 33.5906 21.7032 32.2244L21.0848 31.6053C19.3761 29.8967 16.6063 29.8967 14.8977 31.6053C13.1891 33.3137 13.1878 36.0837 14.8977 37.7936L15.5155 38.4114C20.3003 43.1961 28.0575 43.1961 32.8416 38.4114Z" fill="#ED5564"/>
<path d="M17.8834 6.12598L5.93483 6.12598C6.14763 6.61367 6.45263 7.0706 6.85132 7.46986L12.9332 13.5511L25.3086 13.5511L17.8834 6.12598Z" fill="#E6E9ED"/>
<path d="M27.4564 28.5112L36.3711 28.5112C36.0974 25.8002 34.9227 23.1625 32.8456 21.0866L32.8456 21.0859L20.4696 21.0859L26.6579 27.2743C27.0206 27.6369 27.2866 28.06 27.4564 28.5112Z" fill="#E6E9ED"/>
<path d="M21.7072 32.2243L21.0887 31.6052C19.3801 29.8966 16.6102 29.8966 14.9017 31.6052C13.1931 33.3136 13.1918 36.0836 14.9017 37.7935L15.5195 38.4113C17.5972 40.4889 20.2338 41.6631 22.9453 41.9373L22.9453 33.0227C22.4941 32.8522 22.0706 32.5871 21.7072 32.2243Z" fill="#E6E9ED"/>
</g>
<defs>
<clipPath id="clip0">
<rect x="42" width="42" height="42" transform="rotate(90 42 0)" fill="white"/>
</clipPath>
</defs>
</svg>
