<svg width="246" height="115" viewBox="0 0 246 115" fill="none" xmlns="http://www.w3.org/2000/svg">
<path d="M245.812 25.8125C245.812 25.8125 239.485 19.3618 219.823 23.3191C210.939 25.1058 203.411 18.4565 196.841 11.8071C188.872 3.73913 182.313 -4.32887 176.457 2.67247C165.775 15.4431 162.279 8.03248 148.948 7.87914C148.948 7.87914 140.056 -2.59819 125.907 2.20847C111.756 7.0138 117.323 17.3138 117.323 17.3138C117.323 17.3138 93.2853 19.9258 84.3053 11.1111C75.3253 2.29781 73.7813 -0.00752896 62.1653 9.37914C55.236 14.9791 48.2787 13.6538 40.572 12.3272C35.3613 11.4312 29.808 10.5351 23.6894 11.7791C8.52002 14.8631 0 18.3005 0 18.3005C0 18.3005 20.8293 13.2951 32.58 22.2565C44.332 31.2178 55.652 27.3738 70.5267 29.8311C85.4027 32.2898 75.2493 35.0845 85.4027 32.2898C89.172 31.2525 91.9573 35.7551 94.424 40.2592C98.5987 47.8845 101.856 55.5098 107.424 36.2391C112.067 20.1658 112.055 39.9098 111.936 59.6538C111.829 77.5618 111.635 95.4711 114.748 86.6485C121.292 68.1005 114.457 29.3885 126.444 33.9165C138.431 38.4431 132.14 73.1231 136.851 47.2525C141.56 21.3805 137.393 68.4005 142.988 78.1471C148.584 87.8925 141.881 130.331 146.911 108.923C151.939 87.5152 151.343 56.9151 161.353 46.3325C171.364 35.7485 166.848 26.6151 177.053 33.2725C182.513 36.8325 187.967 34.5085 193.699 32.1858C198.681 30.1645 203.875 28.1445 209.464 29.9925C215.952 32.1378 224.763 30.1951 232.181 28.2511C238.503 26.5951 243.813 24.9391 245.812 25.8125Z" fill="#D0ECF5"/>
</svg>
