<svg width="264" height="103" viewBox="0 0 264 103" fill="none" xmlns="http://www.w3.org/2000/svg">
<path d="M0 10.6228C0 10.6228 4.22547 7.24283 10.7744 18.6522C14.6333 25.3735 18.4187 24.1002 21.7421 22.8282C24.0593 21.9415 26.1515 21.0548 27.8875 22.8775C32.1129 27.3135 34.4369 29.6375 33.5916 34.4962C32.7468 39.3562 34.0145 50.1308 35.4932 45.0602C36.9724 39.9895 34.8593 24.9895 39.2957 23.5108C43.7328 22.0321 44.3667 22.8775 49.226 29.0042C52.0353 32.5468 55.4104 30.0855 58.5333 27.6228C60.8113 25.8282 62.9552 24.0322 64.6484 24.5668C66.3156 25.0935 67.8375 24.6362 69.3343 24.1788C71.4411 23.5335 73.4989 22.8895 75.8457 24.9895C79.8599 28.5815 77.9583 53.3002 81.3385 48.4402C84.7187 43.5815 83.24 27.9468 85.564 30.6935C87.888 33.4402 90.8457 39.3562 92.7467 28.1588C94.648 16.9615 97.8173 21.6095 102.677 25.6228C107.536 29.6375 111.339 29.0042 114.297 24.5668C117.255 20.1308 124.227 28.3695 126.761 45.4828C129.297 62.5948 130.141 48.2295 131.409 40.4122C132.677 32.5948 135.212 26.8908 139.227 31.3282C143.241 35.7642 141.551 41.6802 144.508 44.0042C147.467 46.3282 147.044 65.7642 149.156 61.9615C151.269 58.1588 149.791 38.3002 152.748 36.3975C155.705 34.4962 154.437 26.2575 160.353 27.7362C166.269 29.2148 167.325 42.3135 171.128 38.9335C173.113 37.1682 174.524 41.5095 175.989 45.8495C177.329 49.8228 178.717 53.7948 180.636 53.0882C184.649 51.6095 180.847 98.9335 185.917 101.892C190.988 104.849 186.763 52.8775 190.565 49.0748C194.368 45.2708 200.705 42.7362 201.973 34.4962C203.241 26.2575 212.96 11.4682 215.284 21.8202C217.608 32.1722 224.157 32.5948 223.945 41.4682C223.735 50.3415 225.636 58.5815 227.115 52.2428C228.593 45.9055 226.269 34.9188 232.608 31.1162C238.945 27.3135 236.621 17.8068 243.805 16.9615C250.988 16.1162 260.707 9.98949 263.241 11.6802C263.241 11.6802 259.651 5.97482 249.72 5.97482C239.791 5.97482 232.819 -4.37715 218.031 2.17218C210.453 5.52818 197.773 4.28017 185.988 3.03351C174.769 1.84551 164.361 0.65882 159.931 3.44015C155.513 6.21348 153.843 4.54151 149.915 2.86818C145.767 1.10018 139.1 -0.666514 124.015 2.80682C109.824 6.07348 102.54 4.35748 96.4173 2.64149C89.8697 0.805483 84.65 -1.02916 73.7328 3.22817C62.3567 7.6655 53.2473 6.52817 45.3156 5.39083C38.5171 4.41483 32.5843 3.44015 26.8312 5.97482C21.2995 8.41348 16.1004 7.72949 11.7145 7.04682C6.2176 6.19083 1.99733 5.33484 0 10.6228Z" fill="#D0ECF5"/>
</svg>
