<svg width="316" height="316" viewBox="0 0 316 316" fill="none" xmlns="http://www.w3.org/2000/svg">
<g clip-path="url(#clip0)">
<path d="M54.5957 283.213H250.666V304.999H54.5957V283.213Z" fill="#898890"/>
<path d="M272.452 92.5881V179.73H119.953V81.6953H272.452V92.5881Z" fill="#A78966"/>
<path d="M250.666 272.32C260.559 272.296 269.231 278.924 271.808 288.476C274.383 298.029 270.215 308.118 261.649 313.07C253.084 318.019 242.263 316.596 235.268 309.597C228.277 302.597 226.862 291.774 231.822 283.213C235.71 276.48 242.89 272.328 250.666 272.32Z" fill="#E0E0E2"/>
<path d="M179.862 304.998V310.444H125.398V277.766H179.862V304.998Z" fill="#D8D7DA"/>
<path d="M136.291 261.428H168.969V277.767H136.291V261.428Z" fill="#E0E0E2"/>
<path d="M136.291 239.641H168.969V261.426H136.291V239.641Z" fill="#898890"/>
<path d="M136.291 217.855H168.969V239.641H136.291V217.855Z" fill="#E0E0E2"/>
<path d="M73.4397 283.213C78.3702 291.755 76.9501 302.541 69.9746 309.514C62.999 316.487 52.2099 317.902 43.6707 312.966C35.1314 308.03 30.9748 297.975 33.5332 288.452C36.0941 278.926 44.7318 272.31 54.5954 272.32C62.3741 272.315 69.5597 276.472 73.4397 283.213Z" fill="#E0E0E2"/>
<path d="M81.8271 38.1248V179.731H245.219V217.856H70.9343C52.8851 217.856 38.2559 203.224 38.2559 185.178V32.6784C38.2559 14.6319 52.8851 0 70.9343 0H245.219V38.1248H81.8271Z" fill="#898890"/>
<path d="M283.343 179.732V196.072H109.059V179.732H283.343Z" fill="#E0E0E2"/>
<path d="M125.398 234.195H179.862V245.088H125.398V234.195Z" fill="#57565C"/>
<path d="M125.398 255.98H179.862V266.873H125.398V255.98Z" fill="#57565C"/>
<path d="M136.291 98.0352H158.077V108.928H136.291V98.0352Z" fill="#FFCD00"/>
<path d="M136.291 119.82H201.648V130.713H136.291V119.82Z" fill="#FFCD00"/>
<path d="M283.343 21.7852V38.1244H109.059V21.7852H283.343Z" fill="#E0E0E2"/>
<path d="M136.291 217.855H168.969V223.302H136.291V217.855Z" fill="#C6C5CA"/>
<path d="M114.506 196.07H245.219V201.517H114.506V196.07Z" fill="#787680"/>
<path d="M57.318 16.3398C61.8283 16.3398 65.4876 19.9965 65.4876 24.5094V68.0806C65.4876 72.5936 61.8283 76.2502 57.318 76.2502C52.8051 76.2502 49.1484 72.5936 49.1484 68.0806V24.5094C49.1484 19.9965 52.8051 16.3398 57.318 16.3398Z" fill="#C6C5CA"/>
<path d="M272.452 38.125V81.6962H119.953V59.9106H196.203L205.734 38.125H272.452Z" fill="#C0AB91"/>
<path d="M272.451 43.5714V38.125H205.733L203.348 43.5714H272.451Z" fill="#B39A7C"/>
</g>
<defs>
<clipPath id="clip0">
<rect width="316" height="316" fill="white"/>
</clipPath>
</defs>
</svg>
