<svg width="17" height="17" viewBox="0 0 17 17" fill="none" xmlns="http://www.w3.org/2000/svg">
<g opacity="0.7">
<path fill-rule="evenodd" clip-rule="evenodd" d="M1.51636 8.5C1.59377 8.63378 1.6964 8.80427 1.82354 9.00113C2.1501 9.50676 2.6337 10.1792 3.26155 10.8489C4.53016 12.2021 6.30382 13.4583 8.5 13.4583C10.6962 13.4583 12.4698 12.2021 13.7385 10.8489C14.3663 10.1792 14.8499 9.50676 15.1765 9.00113C15.3036 8.80427 15.4062 8.63378 15.4836 8.5C15.4062 8.36622 15.3036 8.19573 15.1765 7.99887C14.8499 7.49324 14.3663 6.82083 13.7385 6.15112C12.4698 4.79794 10.6962 3.54167 8.5 3.54167C6.30382 3.54167 4.53016 4.79794 3.26155 6.15112C2.6337 6.82083 2.1501 7.49324 1.82354 7.99887C1.6964 8.19573 1.59377 8.36622 1.51636 8.5ZM16.2917 8.5C16.9252 8.18322 16.9251 8.18298 16.925 8.18272L16.9238 8.18045L16.9214 8.17561L16.9133 8.15988C16.9066 8.14674 16.897 8.12835 16.8847 8.10506C16.8601 8.0585 16.8243 7.99229 16.7776 7.90924C16.6842 7.74325 16.5468 7.50941 16.3665 7.23029C16.0069 6.67343 15.4722 5.92917 14.772 5.18221C13.3843 3.70206 11.2622 2.125 8.5 2.125C5.73785 2.125 3.61567 3.70206 2.22804 5.18221C1.52776 5.92917 0.99313 6.67343 0.633488 7.23029C0.453227 7.50941 0.315769 7.74325 0.222396 7.90924C0.175683 7.99229 0.139924 8.0585 0.115284 8.10506C0.102961 8.12835 0.0934116 8.14674 0.086656 8.15988L0.0786179 8.17561L0.0761734 8.18045L0.0753455 8.1821C0.0752153 8.18236 0.0747808 8.18322 0.708333 8.5L0.0747808 8.18322C-0.0249269 8.38264 -0.0249269 8.61736 0.0747808 8.81678L0.708333 8.5C0.0747808 8.81678 0.0746506 8.81652 0.0747808 8.81678L0.0761734 8.81955L0.0786179 8.82439L0.086656 8.84012C0.0934116 8.85326 0.102961 8.87165 0.115284 8.89494C0.139924 8.9415 0.175683 9.00771 0.222396 9.09076C0.315769 9.25675 0.453227 9.49059 0.633488 9.76971C0.99313 10.3266 1.52776 11.0708 2.22804 11.8178C3.61567 13.2979 5.73785 14.875 8.5 14.875C11.2622 14.875 13.3843 13.2979 14.772 11.8178C15.4722 11.0708 16.0069 10.3266 16.3665 9.76971C16.5468 9.49059 16.6842 9.25675 16.7776 9.09076C16.8243 9.00771 16.8601 8.9415 16.8847 8.89494C16.897 8.87165 16.9066 8.85326 16.9133 8.84012L16.9214 8.82439L16.9238 8.81955L16.9247 8.8179C16.9248 8.81764 16.9252 8.81678 16.2917 8.5ZM16.2917 8.5L16.9252 8.81678C17.0249 8.61736 17.0247 8.38214 16.925 8.18272L16.2917 8.5Z" fill="black"/>
<path fill-rule="evenodd" clip-rule="evenodd" d="M8.5013 7.08268C7.7189 7.08268 7.08464 7.71695 7.08464 8.49935C7.08464 9.28175 7.7189 9.91602 8.5013 9.91602C9.28371 9.91602 9.91797 9.28175 9.91797 8.49935C9.91797 7.71695 9.28371 7.08268 8.5013 7.08268ZM5.66797 8.49935C5.66797 6.93454 6.9365 5.66602 8.5013 5.66602C10.0661 5.66602 11.3346 6.93454 11.3346 8.49935C11.3346 10.0642 10.0661 11.3327 8.5013 11.3327C6.9365 11.3327 5.66797 10.0642 5.66797 8.49935Z" fill="black"/>
</g>
</svg>
