<svg width="1360" height="362" viewBox="0 0 1360 362" fill="none" xmlns="http://www.w3.org/2000/svg">
<path opacity="0.3" d="M56.6103 93.554C54.6697 96.0999 52.5985 99.2441 50.2786 102.37C48.1738 97.601 46.5748 92.5651 45.4363 87.4633C48.7641 90.2965 52.3248 92.2084 56.6103 93.554ZM123.246 80.3785C122.413 81.8611 120.63 85.0932 118.711 87.9755C118.463 88.3017 118.209 88.6331 117.953 88.9661C117.367 88.4031 116.786 87.8436 116.251 87.3297C115.539 86.613 114.84 85.8793 114.153 85.1321C117.887 84.4762 120.904 82.5829 123.246 80.3785ZM138.148 108.542L138.048 108.122L138.399 108.432L138.148 108.542ZM148.489 104.752C148.269 106.023 147.482 107.326 146.517 108.526C146.147 108.139 145.779 107.737 145.407 107.325C146.713 106.709 147.82 105.886 148.489 104.752ZM165.325 111.781C164.226 113.267 163.116 114.729 162.012 116.118C161.014 113.917 160.254 111.662 159.782 109.384C161.201 110.604 163.054 111.537 165.325 111.781ZM167.586 108.667C166.91 109.613 166.222 110.562 165.527 111.507C162.736 109.776 162.274 108.246 160.718 105.796C162.47 107.789 164.892 108.616 167.586 108.667ZM192.359 158.573C192.039 158.999 191.713 159.42 191.38 159.841C191.218 158.965 191.066 158.059 190.921 157.112C191.287 157.511 191.783 158.011 192.359 158.573ZM196.665 152.572C196.183 153.222 195.69 153.914 195.181 154.637C194.078 152.066 193.308 149.61 192.964 147.6C193.495 149.206 195.021 150.993 196.665 152.572ZM203.011 143.445C201.589 145.761 200.157 148.029 198.563 150.1C197.767 148.749 197.043 147.37 196.389 146.053C198.645 145.308 200.92 144.478 203.011 143.445ZM240.683 132.392C240.543 132.849 240.384 133.285 240.18 133.652L240.067 133.897C237.789 136.182 235.084 137.961 232.061 139.472C231.53 138.678 231.018 137.873 230.536 137.056C234.073 136.663 238.09 134.347 240.683 132.392ZM266.86 138.794C266.433 137.3 266.058 135.794 265.721 134.281C266.795 135.195 267.901 136.01 269.044 136.73C268.389 137.46 267.661 138.148 266.86 138.794ZM312.7 117.077C312.535 117.608 312.342 118.12 312.067 118.554L311.922 118.843C309.049 121.32 305.62 123.376 301.763 125.188C301.091 124.429 300.456 123.632 299.845 122.814C304.586 121.697 309.444 119.193 312.7 117.077ZM368.072 148.325C367.481 149.328 366.839 150.298 366.154 151.248C363.798 148.293 362.074 145.411 361.238 143.071C362.304 144.831 365.127 146.719 368.072 148.325ZM374.308 134.999C372.876 138.253 371.544 141.57 369.978 144.758C368.16 142.934 366.522 141.071 365.115 139.391C368.278 138.637 371.5 137.018 374.308 134.999ZM411.129 143.8C409.371 141.237 407.897 138.383 406.416 135.496C409.018 137.038 411.926 138.297 414.759 139.454C413.67 141.085 412.461 142.523 411.129 143.8ZM441.668 132.418C440.634 133.265 439.553 134.151 438.593 134.935C440.396 134.712 442.247 134.196 444.077 133.486C445.058 133.853 446.088 134.181 447.211 134.455C446.723 134.036 446.144 133.505 445.514 132.883C447.674 131.909 449.771 130.668 451.707 129.263C449 135.479 446.617 141.901 442.863 147.537C442.183 146.051 441.597 144.621 441.122 143.468C439.182 138.864 437.792 133.809 436.874 128.682C438.361 130.262 439.917 131.481 441.668 132.418ZM490.305 131.169C490.081 130.731 489.858 130.293 489.633 129.853C490.136 130.154 490.645 130.447 491.165 130.731C490.869 130.9 490.582 131.045 490.305 131.169ZM503.696 126.932C503.546 127.419 503.377 127.886 503.159 128.276L503.039 128.538C501.528 130.055 499.833 131.355 497.999 132.516C497.524 132.005 497.063 131.476 496.606 130.945C499.248 129.933 501.818 128.347 503.696 126.932ZM536.403 132.928C537.709 133.586 539.075 134.164 540.525 134.666C540.388 134.879 540.252 135.084 540.111 135.293C538.438 137.488 536.557 139.913 534.625 142.273C532.845 137.979 531.462 133.491 530.447 128.949C531.981 130.256 533.566 131.37 535.247 132.313C534.596 132.722 534.046 133.011 533.666 133.138C534.63 133.167 535.537 133.082 536.403 132.928ZM543.858 129.027C543.455 129.745 542.778 130.967 541.967 132.333C541.597 132.004 541.221 131.654 540.841 131.295C541.964 130.641 542.972 129.862 543.858 129.027ZM556.206 130.002C555.941 130.234 555.679 130.459 555.416 130.675C554.992 129.434 554.62 128.244 554.23 127.162C554.58 128.276 555.301 129.194 556.206 130.002ZM596.145 134.277C595.407 135.226 594.634 136.201 593.847 137.158C590.676 135.456 587.905 133.5 585.71 130.956L585.622 130.729C585.468 130.403 585.363 130.014 585.271 129.615C587.974 131.98 592.652 134.992 596.145 134.277ZM647.951 147.757C647.125 146.242 646.331 144.692 645.538 143.13C647.117 144.074 648.799 144.922 650.513 145.712C649.688 146.413 648.837 147.096 647.951 147.757ZM655.842 146.041C655.583 146.476 655.296 146.887 655.016 147.306L654.756 147.037C655.117 146.709 655.479 146.378 655.842 146.041ZM702.38 121.475C701.033 124.348 699.447 127.096 697.683 129.667C695.344 125.757 693.348 121.612 691.7 117.361C695.052 119.438 698.48 120.742 702.38 121.475ZM720.795 105.992C720.283 106.417 719.787 106.807 719.294 107.193C718.374 105.725 717.624 104.13 717.413 102.574C718.129 104.126 719.353 105.217 720.795 105.992ZM734.822 102.978C732.43 111.441 729.079 119.702 724.738 127.127L724.684 127.221C722.764 123.294 721.096 119.2 719.593 115.266C718.948 113.687 718.34 112.071 717.766 110.443C718.781 110.251 719.757 110.029 720.712 109.789C720.962 109.909 721.214 110.043 721.457 110.149L721.091 109.696C723.201 109.147 725.179 108.469 727.067 107.639C727.452 107.669 727.835 107.7 728.198 107.712C728.014 107.617 727.815 107.494 727.626 107.39C730.145 106.232 732.512 104.78 734.822 102.978ZM818.599 143.162C816.934 139.9 815.532 136.272 814.124 132.602C816.733 134.668 819.658 136.338 822.491 137.878C821.316 139.76 820.016 141.514 818.599 143.162ZM876.732 118.196C875.131 117.3 872.998 115.976 870.641 114.2C875.764 113.85 879.515 111.238 882.172 108.248C881.489 109.769 880.03 113.074 878.407 116.056C875.198 121.141 871.247 127.225 867.505 132.036C863.841 126.006 860.828 119.335 858.494 112.425C863.873 116.252 869.41 117.843 876.732 118.196ZM911.794 163.172C911.317 164.129 910.832 165.172 910.33 166.281C908.368 163.259 906.907 160.253 906.23 157.851C907.087 159.673 909.484 161.617 911.794 163.172ZM916.546 152.46C915.469 155.222 914.381 157.935 913.15 160.459C912.085 159.154 911.089 157.792 910.189 156.471C912.363 155.29 914.56 153.998 916.546 152.46ZM952.951 156.761L952.921 156.777L953 156.771L953.362 156.845L953.267 156.749C956.79 156.526 959.51 155.893 961.761 154.838C961.411 155.657 961.059 156.463 960.702 157.247C958.385 162.378 955.164 166.454 951.18 169.87C947.963 164.393 946.057 157.939 943.873 151.711C946.644 154.237 949.878 156.181 952.951 156.761ZM999.938 150.433C998.862 152.384 997.69 154.247 996.397 155.973C998.761 154.566 1001.21 153.058 1003.38 151.287L1003.61 151.331C1002.55 154.5 1001.5 157.629 1000.11 160.427C999.732 161.247 999.348 162.158 998.957 163.125C995.724 157.868 993.166 152.105 991.28 146.182C993.995 148.107 996.805 149.483 999.938 150.433ZM1080.04 130.454C1077.78 134.372 1075.23 138.177 1072.34 141.646C1069.49 136.179 1067.19 130.293 1065.46 124.241C1069.78 127.646 1074.32 129.497 1080.04 130.454ZM1124.27 144.658C1122.83 146.427 1121.24 148.031 1119.48 149.497C1118.04 146.405 1116.73 143.235 1115.34 140.116C1118.09 142.077 1121.17 143.7 1124.27 144.658ZM1168.89 131.919C1166.92 134.289 1164.6 136.431 1161.8 138.27C1159.97 134.681 1158.45 130.923 1157.22 127.086C1160.74 129.581 1164.44 131.065 1168.89 131.919ZM1165.53 144.775C1165.37 144.51 1165.2 144.248 1165.05 144.001C1164.42 143.026 1163.84 142.006 1163.27 140.99C1167.78 139.726 1171.08 137.298 1173.37 134.839C1171.57 137.751 1168.78 141.649 1165.53 144.775ZM1280.36 75.7653C1278.47 79.4065 1278.16 81.5162 1274 84.3833C1277.44 83.9471 1280.1 82.3648 1282.01 80.392C1281.61 83.8389 1280.73 87.2875 1279.46 90.6718C1276.02 88.0904 1272.2 84.701 1268.74 80.4613C1273.47 80.6033 1277.73 79.349 1280.36 75.7653ZM1316.43 109.094C1315.58 110.423 1314.67 111.721 1313.71 112.977C1312.18 110.858 1310.75 108.589 1309.33 106.302C1311.58 107.39 1314 108.288 1316.43 109.094ZM1188.94 166.187C1188.9 166.731 1188.94 167.289 1189 167.852L1188.47 167.995C1188.63 167.39 1188.79 166.775 1188.94 166.187ZM1166.23 167.899C1168.32 166.709 1170.2 165.485 1171.7 164.374C1172.32 164.724 1172.9 165.034 1173.44 165.299C1173.67 167.492 1173.28 169.231 1172.28 172.561L1169.8 173.474C1168.35 171.676 1167.22 169.836 1166.23 167.899ZM51.4389 113.841C51.3347 114.029 51.2225 114.213 51.1196 114.399C51.0728 114.242 51.051 114.105 51.0081 113.949L51.4389 113.841ZM111.246 97.4303C109.516 93.0317 108.137 88.4691 106.603 83.9876C109.708 86.6485 113.288 88.9272 116.923 90.3066C115.13 92.626 113.202 95.067 111.246 97.4303ZM147.038 113.441C146.769 113.983 146.504 114.526 146.225 115.06C145.086 117.39 143.852 119.79 142.498 122.158C140.68 117.887 139.283 113.407 138.229 108.875C138.45 108.861 138.665 108.854 138.893 108.838C141.386 110.82 144.046 112.293 147.038 113.441ZM148.446 110.437C148.136 110.144 147.826 109.853 147.511 109.542C148.093 109.25 148.659 108.929 149.211 108.591C148.964 109.208 148.715 109.825 148.446 110.437ZM193.2 166.662L193.093 166.329L193.44 166.244L193.2 166.662ZM235.862 142.177C235.602 142.642 235.317 143.069 235.04 143.511C234.351 142.662 233.681 141.798 233.045 140.909C234.539 140.732 235.866 140.422 237.068 139.984C236.669 140.73 236.266 141.464 235.862 142.177ZM272.089 138.383C271.099 139.981 269.792 141.8 268.308 143.335C268.012 142.505 267.755 141.663 267.489 140.821C269.24 140.17 270.64 139.234 271.744 138.218L272.089 138.383ZM298.71 126.538C298.299 125.768 297.898 124.987 297.497 124.2C298.448 124.768 299.449 125.291 300.481 125.768C299.897 126.03 299.311 126.288 298.71 126.538ZM306.405 128.619C305.339 130.298 304.135 131.851 302.842 133.331C302.195 132.23 301.587 131.194 300.994 130.327C300.407 129.503 299.877 128.619 299.365 127.713C302.739 127.401 305.562 126.841 308.006 126.028C307.477 126.907 306.94 127.776 306.405 128.619ZM360.33 157.317C359.845 156.132 359.398 154.859 358.958 153.525C359.793 154.052 361.002 154.752 362.427 155.538C361.77 156.155 361.071 156.749 360.33 157.317ZM367.383 158.143C366.22 159.841 364.859 161.602 363.367 163.191C362.748 162.155 362.16 161.09 361.589 159.994C363.376 159.349 364.906 158.502 366.233 157.558C366.613 157.753 366.996 157.947 367.383 158.143ZM369.68 154.483L369.409 154.938L369.317 154.844L369.708 154.431L369.68 154.483ZM446.24 152.512C446.146 152.681 446.041 152.861 445.94 153.036L445.855 152.921C445.997 152.766 446.141 152.609 446.274 152.452L446.24 152.512ZM562.459 133.15C561.883 132.69 561.255 132.168 560.579 131.564C561.609 131.016 562.612 130.384 563.595 129.664C563.242 130.832 562.874 131.997 562.459 133.15ZM590.313 141.112C589.776 140.226 589.264 139.313 588.805 138.338C588.508 137.712 588.224 137.041 587.932 136.39C589.445 137.065 591.211 137.508 593.373 137.724C592.336 138.958 591.299 140.125 590.313 141.112ZM609.269 144.211C608.901 145.078 608.531 145.947 608.165 146.814C607.883 145.975 607.626 145.128 607.398 144.276C607.729 144.077 608.057 143.878 608.381 143.668C608.67 143.862 608.97 144.038 609.269 144.211ZM650.759 152.419C650.438 151.946 650.124 151.464 649.818 150.974C651.392 149.977 652.882 148.729 654.366 147.389C654.523 147.455 654.678 147.517 654.835 147.583C653.63 149.328 652.247 150.92 650.759 152.419ZM716.72 107.303C717.126 107.62 717.539 107.92 717.961 108.204C717.703 108.393 717.44 108.594 717.193 108.773C717.029 108.283 716.874 107.794 716.72 107.303ZM726.07 135.506C725.937 135.969 725.785 136.444 725.618 136.935C725.523 136.705 725.432 136.475 725.341 136.247C725.547 135.963 725.736 135.68 725.901 135.398L726.07 135.506ZM820.738 147.585L820.61 147.297C820.853 147.039 821.1 146.78 821.345 146.52C821.155 146.885 820.939 147.23 820.738 147.585ZM872.194 135.78L872.1 136.049C871.705 136.524 871.279 136.972 870.854 137.417C870.626 137.068 870.406 136.729 870.19 136.39C871.085 135.729 871.897 135.053 872.603 134.416C872.498 134.905 872.375 135.38 872.194 135.78ZM906.815 173.692C906.62 173.217 906.428 172.737 906.237 172.249C905.72 170.834 905.268 169.223 904.822 167.517C905.641 168.188 906.977 169.175 908.522 170.244C907.983 171.397 907.416 172.556 906.815 173.692ZM950.858 176.323C950.581 176.603 950.307 176.886 950.023 177.156C949.799 176.742 949.579 176.328 949.37 175.924C949.583 175.787 949.795 175.648 950.007 175.504C950.275 175.785 950.564 176.052 950.858 176.323ZM953.49 173.283L953.291 173.024C953.62 172.759 953.951 172.49 954.284 172.22C954.032 172.588 953.757 172.932 953.49 173.283ZM1075.43 147.269C1074.9 146.342 1074.4 145.465 1073.96 144.687C1073.78 144.38 1073.63 144.05 1073.45 143.737C1075.27 142.889 1077.05 141.976 1078.72 140.96C1077.65 143.105 1076.58 145.232 1075.43 147.269ZM1121.34 153.226C1121.25 153.055 1121.15 152.886 1121.06 152.715C1121.63 152.267 1122.19 151.807 1122.76 151.341C1122.32 151.997 1121.84 152.621 1121.34 153.226ZM1216.21 117.018C1215.92 116.399 1215.63 115.777 1215.35 115.155C1215.92 115.528 1216.5 115.887 1217.1 116.238C1216.81 116.505 1216.5 116.759 1216.21 117.018ZM1272.1 104.133C1269.4 99.0125 1267.17 93.5895 1265.41 88.0634C1269.34 90.856 1273.42 92.6919 1278.13 93.8803C1276.5 97.437 1274.45 100.884 1272.1 104.133ZM1218.53 121.773L1218.31 121.359C1218.75 121.005 1219.19 120.649 1219.63 120.289C1219.28 120.801 1218.9 121.284 1218.53 121.773ZM1179.4 170.423C1180.29 169.349 1181.05 168.293 1181.6 167.375C1181.79 168.129 1181.94 168.913 1182.07 169.708L1179.4 170.423ZM1173.11 163.294C1173.15 163.494 1173.19 163.681 1173.22 163.869L1172.86 163.49L1173.11 163.294ZM1163.92 149.25C1164.05 149.527 1164.24 149.809 1164.44 150.092L1164.28 150.294C1164.16 149.943 1164.02 149.578 1163.92 149.25ZM1138.45 183.14C1138.58 182.86 1138.71 182.579 1138.83 182.307C1138.89 182.584 1138.91 182.868 1138.95 183.15L1138.45 183.14ZM1120.76 162.461L1121.04 162.775L1121 162.887L1120.78 162.508L1120.76 162.461ZM997.612 181.642C997.428 180.992 997.244 180.329 997.065 179.641C997.317 179.847 997.626 180.089 997.967 180.348C997.849 180.782 997.729 181.211 997.612 181.642ZM1072.73 151.028L1072.9 151.336L1072.88 151.373L1072.85 151.414L1072.73 151.028ZM653.135 156.13C654.038 155.56 654.83 155.009 655.455 154.548C655.403 155.876 655.119 157.308 654.689 158.765C654.155 157.858 653.64 156.972 653.135 156.13ZM853.174 184.06L853.3 184.354L853.177 184.342L853.174 184.06ZM869.232 142.84L869.388 143.019C869.239 143.369 869.086 143.707 868.934 144.053C868.798 143.752 868.641 143.441 868.52 143.149C868.766 143.054 868.996 142.944 869.232 142.84ZM953.125 182.148C952.892 181.822 952.663 181.492 952.436 181.157C952.788 180.944 953.103 180.747 953.391 180.559C953.336 181.076 953.247 181.607 953.125 182.148ZM781.218 136.585C781.387 136.725 781.554 136.864 781.719 137.004L781.658 137.192C781.515 136.985 781.358 136.794 781.218 136.585ZM498.546 137.384C497.796 138.715 496.97 139.939 496.109 141.114C495.991 140.938 495.874 140.748 495.758 140.579C494.77 139.197 493.867 137.724 493 136.211C495.687 136.137 497.906 135.746 499.833 135.045C499.405 135.839 498.975 136.624 498.546 137.384ZM593.413 142.273L593.349 142.408C592.925 142.833 592.467 143.218 591.991 143.582C591.838 143.379 591.682 143.174 591.532 142.966C592.337 142.54 593.079 142.055 593.68 141.602C593.604 141.846 593.521 142.079 593.413 142.273ZM556.376 153.356C556.248 152.832 556.118 152.31 556 151.785C556.268 152.014 556.538 152.244 556.809 152.457C556.674 152.752 556.528 153.052 556.376 153.356ZM558.457 160.221C558.229 159.595 558.013 158.97 557.803 158.338C558.401 157.885 558.913 157.482 559.288 157.163C559.022 158.245 558.751 159.271 558.457 160.221ZM442.078 158.934C441.396 159.854 440.668 160.765 439.91 161.653C439.682 160.811 439.467 159.947 439.258 159.056C439.192 158.747 439.133 158.419 439.072 158.089C439.564 157.846 440.031 157.585 440.486 157.317C440.98 157.837 441.522 158.388 442.078 158.934ZM444.911 153.914L445.249 154.21C444.672 155.16 444.023 156.165 443.319 157.19C443.091 156.745 442.883 156.296 442.676 155.846C443.491 155.226 444.238 154.576 444.911 153.914ZM232.583 146.988C232.401 146.442 232.219 145.896 232.033 145.355C232.396 145.666 232.767 145.969 233.147 146.261C232.96 146.506 232.775 146.751 232.583 146.988ZM292.301 159.722L292.546 160.109L292.437 160.289C292.391 160.099 292.345 159.91 292.301 159.722ZM273.169 170.551L273.188 170.567C272.276 171.66 271.204 172.578 270.059 173.398C269.961 173.099 269.863 172.801 269.768 172.499C270.927 172.037 272.034 171.317 273.169 170.551ZM273.423 154.118C273.51 154.445 273.578 154.744 273.63 155.029C273.495 154.776 273.362 154.524 273.233 154.281L273.423 154.118ZM272.441 174.632H272.17L272.468 174.478L272.441 174.632ZM279.162 158.762L279.235 159.124L279.209 159.181L279.147 159.311C278.549 159.91 277.884 160.432 277.178 160.912C277.009 160.674 276.844 160.434 276.68 160.19C277.59 159.778 278.456 159.266 279.162 158.762ZM270.528 157.4C270.908 158.437 271.773 159.558 272.83 160.64L272.57 160.74L272.879 160.802C272.754 161.281 272.617 161.805 272.468 162.39C272.936 162.221 273.407 161.95 273.872 161.641C274.132 161.878 274.395 162.101 274.66 162.327C274.203 162.545 273.753 162.77 273.269 162.97C274.034 162.995 274.704 162.959 275.336 162.895C275.814 163.284 276.278 163.641 276.731 163.98C276.048 165.113 275.278 166.124 274.417 167.023C272.425 163.558 271.033 160.064 270.528 157.4ZM269.274 170.81C268.929 169.478 268.649 167.995 268.382 166.422C269.106 167.133 270.3 168.193 271.69 169.348C270.93 169.877 270.125 170.364 269.274 170.81ZM559.489 138.637C558.104 136.899 557.157 135.082 556.41 133.304C557.455 132.974 558.462 132.592 559.426 132.146C560.363 132.629 561.346 133.077 562.317 133.51C560.929 137.293 559.206 140.956 557.126 144.344C555.441 141.35 554.105 137.922 553.465 134.064L553.545 134.049C555.213 135.892 557.236 137.428 559.489 138.637ZM493.33 131.843C494.409 132.372 495.505 132.874 496.607 133.356C495.315 134.096 493.963 134.781 492.546 135.417C491.904 134.262 491.285 133.082 490.672 131.889C491.514 132.01 492.408 131.985 493.33 131.843ZM440.055 147.791C440.253 148.467 440.661 149.186 441.163 149.897C441.006 150.1 440.833 150.293 440.673 150.492C440.401 149.529 440.178 148.604 440.055 147.791ZM1435 165.477C1422.45 163.198 1414.84 159.878 1409.08 155.329C1412.36 156.585 1422.3 157.552 1425.05 157.607C1403.59 149.104 1396.56 139.971 1389.29 127.358C1388.14 125.255 1387.04 122.828 1385.93 120.248C1390.85 123.171 1405.98 130.408 1410.16 130.227C1399.21 123.971 1389.4 112.531 1385.85 104.698C1388.61 108.829 1397.28 112.557 1401.82 114.271C1405.64 115.858 1409.67 115.736 1413.71 115.616C1403.43 115.464 1392.45 102.529 1386.4 95.5471C1379.44 87.6425 1373.56 78.5342 1368.85 68.9831C1377.42 73.309 1385.97 74.6597 1397.08 74.139C1387.49 70.4842 1365.65 59.8444 1356.09 37.1009L1356.24 37.2108C1360.18 39.9122 1364.66 41.8579 1369.41 43.0953C1361.97 37.3274 1358.24 29.8488 1354.53 24.25C1358.23 30.3678 1367.67 31.404 1375.61 32.9592C1370.92 31.2671 1359.22 25.178 1353.25 18.9013C1348.05 13.4394 1344.75 6.73335 1342.62 -0.36492C1341.69 -3.21674 1340.92 -6.10405 1340.3 -9.02856L1338.35 -16C1339.75 -9.39197 1339.44 -2.76026 1339.67 3.9509C1340.24 20.323 1323.88 41.6381 1319.21 44.5542C1327.34 42.8316 1332.69 37.7686 1336.2 32.3642C1335.49 34.9287 1333.97 40.5004 1332.12 45.5871C1324.93 61.9846 1314.5 84.5117 1307.07 88.2037C1314.2 89.2129 1322.74 81.4706 1327.37 75.8244C1327.32 76.6206 1327.23 77.3948 1327.05 78.0694L1326.96 78.5173C1323.1 84.8735 1317.59 90.0125 1311.03 94.7779C1316.8 93.5743 1321.08 91.8872 1324.48 89.6203C1324.13 90.9896 1323.76 92.3436 1323.39 93.6622C1321.91 98.9077 1319.79 103.604 1317.16 107.921C1310.41 101.763 1305.09 93.7636 1300.58 86.3002C1298.88 83.658 1297.3 80.9127 1295.89 78.1251C1298.08 79.2104 1300.46 80.0421 1302.65 80.5831C1300.1 78.5934 1297.14 75.8041 1296.38 72.9506C1299.28 76.9976 1306.45 77.4675 1311.67 77.1413C1304.88 75.111 1296.16 70.4673 1292 65.7053C1288.6 61.704 1287.75 55.9496 1285.83 51.5375L1285.88 52.0919C1286.22 55.9479 1285.57 60.032 1284.36 63.6091C1281.75 70.5028 1276.88 74.8236 1270.32 79.2966C1269.79 79.6922 1269.14 79.9103 1268.57 80.245C1264.6 75.3392 1261.16 69.2975 1259.32 62.0809L1259.4 62.1604C1262.12 64.6927 1265.34 66.7128 1268.85 68.2173C1263.79 62.916 1261.79 56.7272 1259.6 51.9939C1261.73 57.1295 1268.87 59.0229 1274.79 61.1444C1271.39 59.2967 1263.09 53.2516 1259.23 47.7289C1255.86 42.9229 1254.1 37.3815 1253.29 31.6745C1252.91 29.3738 1252.65 27.0646 1252.52 24.7419L1251.83 19.1566C1252.13 24.3987 1251.13 29.4634 1250.52 34.6531C1249.06 47.3096 1234 61.7986 1230.07 63.4975C1236.52 63.1189 1241.23 59.8461 1244.56 56.1001C1243.71 57.9866 1241.9 62.0809 1239.89 65.7729C1232.46 77.5487 1221.81 93.6757 1215.67 95.6536C1221.03 97.2595 1228.5 92.2997 1232.71 88.4961C1232.58 89.103 1232.43 89.6879 1232.2 90.1866L1232.09 90.5213C1228.38 94.9605 1223.55 98.2704 1217.95 101.171C1222.53 100.918 1226.02 100.118 1228.89 98.7725C1228.46 99.7834 1228.02 100.782 1227.58 101.754C1225.53 106.305 1222.9 110.192 1219.77 113.589C1215.44 107.424 1212.08 100.47 1209.22 93.9361C1207.86 91.0623 1206.64 88.1006 1205.59 85.122C1207.64 86.4997 1209.92 87.6458 1212.05 88.4776C1209.75 86.143 1207.15 82.9514 1206.76 79.9914C1209.14 84.4357 1216.26 85.8505 1221.55 86.2174C1215.01 83.2827 1206.87 77.476 1203.33 72.1476C1200.44 67.6831 1200.34 61.7986 1199 57.1211L1198.98 57.6857C1198.81 61.5974 1197.62 65.6022 1195.94 69.0372C1192.41 75.6063 1186.96 79.3017 1179.79 82.921C1179.09 83.3132 1178.23 83.4146 1177.53 83.8068C1182.45 84.7112 1187.1 84.0671 1190.32 80.7031C1187.94 84.1026 1187.35 86.1802 1182.81 88.5063C1186.32 88.5232 1189.18 87.2875 1191.37 85.5649C1188.56 96.727 1180.54 107.292 1170.79 114.93C1169.54 115.868 1168.04 116.999 1166.79 117.936C1171 117.591 1175.54 115.67 1179.43 113.089C1176.52 119.072 1173.92 125.269 1169.92 130.579C1164.1 126.669 1155.58 119.154 1152.63 107.551L1152.68 107.605C1154.73 109.51 1157.15 111.03 1159.8 112.161C1155.99 108.175 1154.48 103.518 1152.83 99.9575C1154.44 103.82 1159.81 105.244 1164.27 106.843C1161.7 105.451 1155.46 100.904 1152.56 96.749C1150.03 93.1365 1148.7 88.9644 1148.09 84.6706C1147.8 82.9379 1147.61 81.1984 1147.51 79.4555L1146.99 75.2497C1147.21 79.1952 1146.46 83.0072 1146 86.9122C1144.9 96.4346 1133.58 107.336 1130.62 108.614C1135.48 108.327 1139.02 105.866 1141.52 103.049C1140.88 104.474 1139.5 107.58 1137.97 110.374C1132.38 119.229 1124.39 131.322 1119.78 132.807C1123.82 134.015 1129.43 130.284 1132.6 127.422C1132.5 127.879 1132.39 128.32 1132.22 128.695L1132.13 128.942C1129.35 132.283 1125.71 134.771 1121.5 136.957C1124.95 136.766 1127.57 136.164 1129.73 135.15C1129.41 135.912 1129.08 136.664 1128.75 137.396C1127.77 139.555 1126.61 141.494 1125.31 143.289C1124.89 142.951 1124.46 142.605 1124.08 142.297C1114.42 134.181 1106.62 123.144 1104.15 111.683C1106.32 113.513 1109.19 114.871 1112.77 114.976C1108.22 112.45 1107.69 110.317 1105.39 106.779C1108.56 110.313 1113.26 111.13 1118.3 110.383C1117.6 109.955 1116.73 109.826 1116.03 109.4C1108.87 105.465 1103.44 101.516 1100.09 94.7086C1098.49 91.1586 1097.42 87.0305 1097.39 83.046L1097.38 82.4747C1095.85 87.1877 1095.55 93.1703 1092.45 97.6145C1088.66 102.911 1080.18 108.538 1073.42 111.29C1078.81 111.111 1086.11 109.914 1088.68 105.477C1088.18 108.476 1085.42 111.627 1083.01 113.928C1085.2 113.155 1087.56 112.07 1089.7 110.741C1088.52 113.736 1087.17 116.707 1085.7 119.586C1084.15 122.821 1082.46 126.158 1080.61 129.446C1074.36 125.064 1063.9 115.689 1060.46 100.608L1060.53 100.676C1062.75 102.983 1065.37 104.824 1068.24 106.194C1064.11 101.371 1062.48 95.733 1060.68 91.4325C1062.42 96.1032 1068.26 97.8224 1073.11 99.7563C1070.32 98.0726 1063.54 92.5786 1060.38 87.5512C1057.63 83.1779 1056.19 78.1403 1055.52 72.9489C1055.21 70.851 1055 68.7515 1054.89 66.6401L1054.33 61.5603C1054.58 66.3274 1053.76 70.9373 1053.26 75.6621C1052.07 87.1725 1039.76 100.353 1036.54 101.902C1041.82 101.553 1045.67 98.5764 1048.39 95.1718C1047.7 96.8876 1046.21 100.632 1044.56 103.999C1038.48 114.712 1029.78 129.356 1024.76 131.153C1029.15 132.611 1035.26 128.1 1038.7 124.643C1038.6 125.194 1038.47 125.727 1038.28 126.178L1038.19 126.488C1035.16 130.521 1031.21 133.525 1026.63 136.171C1030.37 135.939 1033.22 135.212 1035.58 133.988C1035.22 134.908 1034.87 135.816 1034.5 136.698C1033.55 139.06 1032.42 141.205 1031.17 143.205C1026.3 137.616 1022.42 130.978 1020.54 123.989C1022.28 125.458 1024.52 126.469 1027.18 126.349C1023.62 124.419 1023.07 122.595 1021.11 119.64C1023.72 122.534 1027.28 122.965 1030.97 122.015C1030.42 121.687 1029.76 121.619 1029.21 121.293C1023.6 118.292 1019.29 115.173 1016.3 109.438C1014.85 106.44 1013.76 102.917 1013.46 99.4419L1013.41 98.9432C1012.61 103.144 1012.81 108.376 1010.83 112.428C1008.39 117.27 1002.48 122.676 997.644 125.478C1001.64 124.998 1006.99 123.523 1008.59 119.504C1008.43 122.145 1006.6 125.058 1004.97 127.204C1006.55 126.398 1008.23 125.299 1009.72 124.009C1009.06 126.694 1008.27 129.368 1007.38 131.97C1005.77 137.056 1003.9 142.437 1001.49 147.422C995.697 142.829 988.967 135.522 986.341 125.201L986.408 125.265C988.6 127.309 991.201 128.941 994.036 130.158C989.953 125.876 988.337 120.877 986.564 117.051C988.284 121.2 994.056 122.73 998.837 124.444C996.088 122.951 989.389 118.069 986.265 113.606C983.551 109.725 982.124 105.25 981.466 100.639C981.16 98.7792 980.952 96.9146 980.843 95.0433L980.285 90.5281C980.534 94.761 979.718 98.8536 979.232 103.044C978.05 113.268 965.89 124.975 962.713 126.342C967.926 126.04 971.726 123.397 974.416 120.37C973.73 121.895 972.266 125.213 970.638 128.2C964.637 137.711 956.038 150.724 951.08 152.32C955.412 153.618 961.442 149.612 964.846 146.538C964.74 147.029 964.617 147.504 964.434 147.906L964.34 148.176C961.405 151.696 957.58 154.333 953.166 156.646C952.278 155.738 951.261 154.688 950.395 153.801C943.179 146.065 937.34 135.555 935.483 124.652C937.099 126.396 939.247 127.693 941.915 127.798C938.519 125.389 938.115 123.357 936.405 119.986C938.76 123.352 942.276 124.138 946.036 123.435C945.515 123.027 944.861 122.901 944.341 122.498C938.986 118.744 934.937 114.981 932.421 108.496C931.224 105.12 930.415 101.193 930.385 97.4032L930.381 96.8589C929.245 101.344 929.034 107.03 926.729 111.248C923.907 116.284 917.588 121.624 912.546 124.231C916.566 124.069 922.014 122.944 923.929 118.725C923.561 121.579 921.507 124.569 919.707 126.75C921.347 126.018 923.105 124.976 924.701 123.707C923.828 126.565 922.823 129.395 921.722 132.136C918.672 140.29 914.952 149.103 909.815 155.914C908.915 154.566 908.108 153.29 907.431 152.215C903.843 146.65 901.065 140.431 899.033 134.056C903.949 137.54 909.13 139.2 916.07 139.92C910.459 136.751 897.912 128.087 894.096 113.072L894.167 113.141C896.359 115.187 898.959 116.815 901.794 118.034C897.708 113.752 896.092 108.753 894.322 104.927C896.043 109.078 901.811 110.609 906.597 112.32C903.846 110.827 897.144 105.947 894.023 101.484C891.306 97.6027 889.883 93.128 889.226 88.5147C888.915 86.6552 888.711 84.7906 888.601 82.9176L888.044 78.4024C888.289 82.6403 887.476 86.7296 886.99 90.922C885.82 101.041 873.907 112.594 870.583 114.159C863.974 109.171 855.607 100.559 851.953 87.465L852.029 87.5393C854.46 89.8434 857.296 91.6167 860.345 92.8711C855.788 88.0127 853.77 82.1079 851.662 77.6281C853.734 82.5018 859.888 83.9183 865.016 85.6308C862.034 84.035 854.688 78.6441 851.129 73.4966C848.028 69.0203 846.247 63.7308 845.257 58.2216C844.818 56.0054 844.481 53.7689 844.246 51.5189L843.371 46.1195C843.9 51.2078 843.312 56.1998 843.069 61.2881C842.488 73.6995 830.482 88.7075 827.241 90.5974C832.689 89.8401 836.505 86.3746 839.129 82.5271C838.509 84.4154 837.189 88.5181 835.676 92.2354C829.989 104.146 821.806 120.478 816.706 122.769C821.333 124.011 827.405 118.735 830.777 114.779C830.698 115.378 830.598 115.959 830.433 116.456L830.35 116.789C827.444 121.332 823.516 124.845 818.925 128.006C822.79 127.485 825.705 126.498 828.075 125.012C827.76 126.024 827.441 127.022 827.118 127.996C825.924 131.601 824.396 134.812 822.586 137.733C816.294 129.688 811.795 118.845 808.118 108.875C806.856 105.685 805.703 102.388 804.696 99.0615C806.5 100.525 808.492 101.714 810.341 102.556C808.296 100.022 805.954 96.5377 805.515 93.2058C807.709 98.1216 813.847 99.3844 818.383 99.545C812.682 96.5377 805.515 90.3489 802.299 84.4847C799.668 79.5671 799.375 72.9134 798.058 67.6797V68.317C798.058 72.7545 797.182 77.3509 795.865 81.3116C793.089 88.9221 788.553 93.3613 782.56 97.8005C781.974 98.2789 781.24 98.431 780.657 98.9128C784.902 99.7006 788.847 98.7555 791.483 94.788C789.578 98.7555 789.144 101.132 785.338 103.983C788.339 103.834 790.75 102.297 792.553 100.243C790.942 110.55 786.405 120.568 780.476 128.842C777.504 125.409 774.978 121.504 772.96 116.943C772.504 115.914 772.048 114.856 771.597 113.782C774.505 115.173 778.013 115.966 782.604 116.162C776.945 113.157 772.045 109.705 768.264 105.029L768.141 104.684C767.91 104.153 767.746 103.529 767.606 102.882C771.888 106.87 779.453 112.038 784.804 110.236C778.617 108.227 767.687 91.1992 760.047 78.7625C757.975 74.8575 756.098 70.5197 755.219 68.525C758.617 72.4638 763.379 75.8751 769.856 76.1659C765.888 74.4247 750.569 59.219 748.901 45.7392C748.212 40.213 747.126 34.8255 747.349 29.2284L746.744 35.2025C746.645 37.6773 746.43 40.1471 746.084 42.6067C745.349 48.711 743.673 54.6564 740.383 59.836C736.597 65.7983 728.375 72.3877 724.99 74.4129C730.898 72.0513 738.024 69.9112 740.079 64.3935C737.952 69.4818 736.047 76.1185 731.064 81.8594C734.557 80.1926 737.751 77.9865 740.434 75.2378L740.511 75.155C737.555 88.4065 729.76 98.0287 722.828 104.241C719.561 101.726 716.452 98.5696 714.716 95.5149C712.509 91.5373 712.266 86.1413 711.161 81.9067V82.4223C711.161 86.0162 710.425 89.7369 709.319 92.9454C706.992 99.1123 703.191 102.706 698.166 106.3C697.676 106.687 697.063 106.814 696.573 107.198C700.13 107.838 703.439 107.073 705.646 103.864C704.052 107.073 703.686 108.998 700.494 111.302C703.012 111.184 705.033 109.94 706.546 108.276C705.959 111.901 704.91 115.479 703.502 118.923C697.104 114.742 688.946 107.489 685.395 96.416L685.467 96.4768C687.816 98.4141 690.553 99.9034 693.498 100.958C689.096 96.8741 687.149 91.9126 685.116 88.1479C687.117 92.2422 693.056 93.434 698.01 94.8726C695.13 93.532 688.037 89.0016 684.599 84.6774C681.607 80.9144 679.886 76.4684 678.932 71.84C678.505 69.9754 678.181 68.099 677.953 66.2073L677.108 61.6684C677.618 65.9453 677.053 70.1394 676.818 74.4146C676.256 84.8447 664.665 97.459 661.533 99.0463C666.794 98.4124 670.479 95.498 673.014 92.2659C672.416 93.8515 671.141 97.2967 669.682 100.421C664.19 110.43 656.286 124.157 651.364 126.084C655.828 127.127 661.688 122.696 664.945 119.373C664.869 119.875 664.776 120.36 664.618 120.777L664.538 121.056C661.73 124.875 657.939 127.828 653.505 130.482C657.237 130.044 660.052 129.214 662.34 127.969C662.036 128.819 661.727 129.657 661.416 130.474C659.315 136.002 656.175 140.453 652.156 144.248C646.504 137.722 642.203 129.808 638.596 122.426C637.14 119.64 635.808 116.764 634.644 113.862C636.73 115.138 639.031 116.176 641.168 116.911C638.804 114.7 636.1 111.661 635.593 108.751C638.126 113.04 645.219 114.142 650.457 114.283C643.871 111.661 635.593 106.26 631.873 101.146C628.836 96.8538 628.498 91.0471 626.978 86.4811V87.0389C626.978 90.9067 625.965 94.9182 624.443 98.3769C621.235 105.014 615.993 108.888 609.072 112.763C608.396 113.18 607.547 113.314 606.875 113.731C611.777 114.419 616.335 113.594 619.378 110.134C617.176 113.594 616.677 115.669 612.282 118.157C615.749 118.029 618.533 116.686 620.619 114.893C618.871 123.337 614.144 131.562 607.902 138.512C606.763 136.593 605.86 134.357 605.451 131.823L605.482 131.862C606.495 132.989 607.731 133.927 609.106 134.666C607.241 132.328 606.65 129.74 605.929 127.735C606.608 129.901 609.445 130.929 611.777 132.007C610.458 131.131 607.304 128.374 605.933 125.989C604.739 123.913 604.224 121.597 604.097 119.247C604.026 118.297 604.004 117.349 604.033 116.402L603.955 114.105C603.889 116.247 603.298 118.272 602.864 120.358C601.811 125.451 595.171 130.797 593.509 131.344C596.149 131.424 598.178 130.262 599.666 128.861C599.252 129.598 598.364 131.202 597.412 132.634C597.061 133.094 596.697 133.567 596.319 134.054C592.196 132.408 585.227 122.216 580.304 114.688C578.925 112.252 577.67 109.536 577.084 108.288C579.328 110.734 582.476 112.851 586.755 113.032C584.132 111.95 574.012 102.513 572.911 94.1491C572.455 90.7191 571.738 87.3753 571.885 83.9014L571.486 87.6086C571.42 89.1453 571.279 90.6769 571.051 92.205C570.566 95.9934 569.458 99.682 567.285 102.897C564.784 106.596 559.352 110.685 557.116 111.943C561.018 110.477 565.728 109.149 567.084 105.725C565.677 108.883 564.421 113.001 561.128 116.565C563.435 115.532 565.546 114.161 567.317 112.455L567.369 112.404C565.691 119.471 561.655 124.865 557.645 128.69C556.307 127.257 555.069 125.722 554.235 124.268C552.259 120.835 551.405 116.999 551.196 113.106C551.077 111.534 551.044 109.963 551.091 108.396L550.961 104.591C550.851 108.139 549.875 111.492 549.156 114.947C548.036 120.358 543.114 125.93 538.999 129.476C534.021 124.321 528.894 116.889 527.34 107.296L527.401 107.369C529.436 109.632 531.918 111.515 534.674 113.001C530.93 108.303 529.747 103.105 528.298 99.0784C529.664 103.426 535.36 105.494 540.044 107.656C537.394 105.899 531.059 100.362 528.306 95.569C525.908 91.4021 524.87 86.7482 524.618 82.0284C524.475 80.1215 524.434 78.2164 524.492 76.313L524.333 71.6997C524.201 76.0036 523.014 80.0658 522.143 84.2582C520.03 94.4872 506.687 105.227 503.352 106.325C508.651 106.486 512.729 104.157 515.716 101.34C514.888 102.818 513.115 106.031 511.207 108.9C506.19 115.476 499.632 123.785 494.436 128.313C489.495 121.94 485.584 114.637 482.23 107.774C480.678 104.807 479.258 101.739 478.017 98.644C480.241 100.005 482.695 101.112 484.973 101.895C482.45 99.5366 479.567 96.2942 479.027 93.1922C481.73 97.7666 489.294 98.9432 494.88 99.0903C487.855 96.2943 479.027 90.5365 475.06 85.0797C471.822 80.507 471.462 74.3131 469.841 69.4429V70.0379C469.841 74.1644 468.758 78.4396 467.137 82.1298C463.716 89.2078 458.127 93.341 450.744 97.4725C450.023 97.9154 449.12 98.0591 448.402 98.5054C453.63 99.2391 458.49 98.3566 461.737 94.668C459.388 98.3566 458.855 100.569 454.167 103.222C457.865 103.083 460.834 101.655 463.058 99.7411C460.671 111.267 453.079 122.405 443.567 130.8C440.112 126.826 436.058 120.49 434.95 111.931L434.987 111.983C436.249 113.737 437.785 115.195 439.494 116.343C437.176 112.71 436.441 108.687 435.545 105.572C436.389 108.936 439.917 110.533 442.819 112.21C441.178 110.849 437.254 106.567 435.548 102.858C434.062 99.6329 433.422 96.0339 433.263 92.3808C433.175 90.905 433.15 89.431 433.186 87.962L433.088 84.39C433.007 87.7185 432.272 90.8645 431.732 94.1085C430.421 102.02 422.161 110.33 420.094 111.181C423.376 111.304 425.903 109.5 427.752 107.323C427.237 108.471 426.129 110.971 424.938 113.201C420.651 120.219 414.553 129.782 411.365 130.685C414.004 132 418.001 129.287 420.303 127.123C420.21 127.5 420.107 127.862 419.972 128.163L419.893 128.376C417.821 130.966 415.23 132.781 412.272 134.298C414.592 134.396 416.382 134.081 417.897 133.395C417.635 134.002 417.38 134.626 417.117 135.207C416.461 136.659 415.732 137.976 414.938 139.195C408.535 132.95 403.927 124.65 400.148 116.997C398.832 114.511 397.631 111.941 396.581 109.346C398.462 110.486 400.539 111.414 402.468 112.07C400.333 110.097 397.892 107.375 397.437 104.777C399.722 108.611 406.129 109.597 410.855 109.722C404.91 107.375 397.437 102.554 394.079 97.9813C391.335 94.1524 391.031 88.9559 389.658 84.8819V85.3772C389.658 88.8359 388.744 92.418 387.37 95.5099C384.474 101.447 379.747 104.904 373.493 108.362C372.883 108.736 372.12 108.858 371.512 109.226C375.934 109.845 380.053 109.106 382.797 106.02C380.814 109.106 380.358 110.961 376.39 113.18C379.523 113.067 382.035 111.869 383.918 110.264C381.834 120.223 375.071 129.848 366.665 136.953C365.997 137.494 365.257 138.091 364.526 138.684C364.028 138.083 363.553 137.506 363.123 136.98C358.015 130.886 354.073 124.102 351.258 117.153C358.361 121.026 365.89 122.895 376.012 123.796C367.893 120.26 349.752 110.651 344.539 94.2894L344.663 94.3806C347.815 96.6374 351.576 98.4479 355.684 99.8172C349.82 95.1042 347.579 89.6541 345.078 85.4753C347.494 90.0057 355.88 91.7638 362.827 93.7011C358.844 92.0393 349.173 86.6281 344.722 81.7343C340.85 77.4793 338.876 72.6024 338.018 67.5885C337.611 65.5683 337.356 63.5432 337.239 61.5095L336.527 56.6038C336.79 61.2002 335.51 65.6241 334.701 70.163C332.741 81.2288 314.721 93.7129 310.052 95.1414C317.671 94.9013 323.276 92.1019 327.271 88.8664C326.238 90.5044 324.032 94.0611 321.597 97.2663C314.625 105.189 305.319 115.381 298.099 120.323C296.265 117.508 294.699 114.528 293.306 111.678C292.421 109.985 291.612 108.239 290.907 106.476C292.173 107.254 293.565 107.891 294.863 108.337C293.431 106.995 291.793 105.151 291.484 103.386C293.021 105.989 297.323 106.659 300.496 106.741C296.504 105.151 291.484 101.876 289.231 98.7775C287.388 96.1759 287.185 92.653 286.263 89.8891V90.2255C286.263 92.5701 285.647 95.0011 284.725 97.0972C282.779 101.124 279.605 103.472 275.407 105.82C274.998 106.07 274.485 106.155 274.074 106.407C277.045 106.824 279.811 106.322 281.655 104.226C280.322 106.322 280.017 107.583 277.352 109.089C279.464 109.01 281.145 108.183 282.411 107.09C281.018 113.853 276.472 120.394 270.82 125.218C270.094 125.811 269.225 126.525 268.498 127.117C271.02 126.804 273.689 125.527 275.961 123.876C274.659 126.865 273.492 129.938 271.874 132.754C267.848 128.078 264.074 121.807 262.815 114.015L262.87 114.08C264.775 116.199 267.097 117.964 269.681 119.352C266.177 114.957 265.067 110.09 263.711 106.324C264.988 110.393 270.319 112.325 274.704 114.35C272.225 112.707 266.296 107.522 263.716 103.039C261.474 99.1393 260.503 94.783 260.266 90.3641C260.133 88.579 260.092 86.7939 260.147 85.0172L259.998 80.6963C259.876 84.7247 258.767 88.53 257.95 92.4552C255.969 102.027 243.485 112.078 240.363 113.109C245.322 113.256 249.138 111.076 251.935 108.44C251.156 109.831 249.479 112.863 247.678 115.56C242.191 122.752 234.748 132.136 229.671 135.506C227.346 131.197 225.749 126.638 225.185 122.084C226.765 123.685 228.946 124.961 231.764 125.294C228.347 122.978 228.074 121.251 226.511 118.291C228.762 121.308 232.425 122.285 236.462 122.05C235.938 121.665 235.259 121.497 234.737 121.112C229.349 117.498 225.336 113.993 223.159 108.373C222.147 105.455 221.587 102.116 221.844 98.9601L221.879 98.5087C220.337 102.13 219.68 106.839 216.918 110.136C213.55 114.056 206.448 117.91 200.906 119.611C205.182 119.846 211.038 119.415 213.386 116.086C212.782 118.424 210.378 120.723 208.305 122.368C210.098 121.912 212.041 121.208 213.826 120.302C212.685 122.595 211.408 124.855 210.036 127.032C206.271 133.376 201.788 140.187 196.031 145.331C195.459 144.153 194.947 143.046 194.502 142.091C191.713 136.216 189.709 129.777 188.388 123.237C192.539 127.145 197.075 129.26 203.267 130.595C198.466 126.937 187.852 117.183 185.617 101.871L185.672 101.942C187.486 104.179 189.698 106.031 192.156 107.499C188.819 102.867 187.763 97.7362 186.469 93.7721C187.688 98.0557 192.766 100.089 196.944 102.228C194.581 100.497 188.934 95.0349 186.477 90.3066C184.341 86.1954 183.416 81.6024 183.19 76.9469C183.064 75.0671 183.027 73.1856 183.078 71.3092L182.936 66.7618C182.817 71.0032 181.764 75.0147 180.985 79.1496C179.099 89.2433 167.204 99.8324 164.234 100.923C168.958 101.078 172.59 98.7776 175.256 95.9984C174.514 97.4674 172.909 100.673 171.19 103.523C170.275 104.848 169.303 106.246 168.297 107.664C163.174 104.78 159.288 101.871 156.899 96.9282C155.751 94.3198 154.989 91.2989 154.989 88.3761V87.9552C153.84 91.4003 153.585 95.7803 151.292 99.0142C149.663 101.257 146.864 103.558 143.837 105.492C139.829 100.59 136.194 94.1947 134.925 86.3628L134.988 86.4355C137.031 88.7091 139.525 90.6007 142.295 92.0934C138.533 87.3753 137.344 82.1518 135.886 78.1048C137.26 82.4747 142.983 84.5506 147.692 86.7245C145.029 84.9597 138.661 79.3947 135.894 74.5785C133.487 70.3896 132.444 65.7154 132.188 60.9703C132.045 59.0533 132.005 57.1414 132.062 55.2278L131.903 50.5908C131.771 54.9167 130.578 58.9992 129.704 63.2135C127.929 71.7994 118.296 80.7234 113.213 84.0773C104.635 74.4348 98.278 62.5644 96.8109 50.7261C99.0702 53.0132 102.186 54.8373 106.215 55.3156C101.331 52.004 100.94 49.536 98.71 45.3047C101.924 49.6154 107.159 51.0134 112.929 50.6787C112.185 50.1242 111.211 49.8859 110.466 49.3382C102.766 44.1721 97.0293 39.1633 93.9178 31.1302C92.4713 26.9564 91.6699 22.1859 92.036 17.6791L92.0887 17.03C89.885 22.2045 88.9449 28.9376 84.9978 33.6489C80.1832 39.2529 70.031 44.7587 62.1116 47.1913C68.223 47.5294 76.5916 46.9157 79.9484 42.1554C79.0836 45.4907 75.6483 48.782 72.6866 51.1334C75.2427 50.4792 78.0203 49.4903 80.5684 48.2022C78.9392 51.4716 77.116 54.6936 75.1582 57.7973C69.3067 67.6595 62.2679 78.3449 52.9606 85.859C57.0404 84.5641 61.293 83.1441 65.1175 81.2593C62.8622 84.9276 60.6215 88.5536 58.0292 91.7503C52.1381 86.7617 44.3024 77.9916 42.3137 65.7036L42.3764 65.7763C44.4186 68.0516 46.9139 69.9433 49.6836 71.4376C45.9211 66.7162 44.7318 61.4926 43.2741 57.4457C44.6488 61.8155 50.371 63.8931 55.08 66.0653C52.4171 64.3022 46.0498 58.7355 43.2827 53.9194C40.875 49.7338 39.8321 45.0562 39.5763 40.3111C39.4324 38.3975 39.3936 36.4822 39.4517 34.5703L39.2912 29.9333C39.1587 34.2558 37.9662 38.34 37.0921 42.556C34.9682 52.834 21.5588 63.6243 18.2072 64.7282C23.5316 64.8905 27.6285 62.5492 30.6345 59.7193C29.8027 61.2035 28.019 64.4341 26.1002 67.3163C19.1418 76.4364 9.22702 88.8917 4.04512 90.0649C8.33002 91.7756 14.8188 88.2493 18.5528 85.4364C18.4017 85.925 18.2328 86.3949 18.0113 86.7888L17.8912 87.0525C14.5292 90.425 10.3194 92.7865 5.51608 94.7593C9.28848 94.8861 12.208 94.4838 14.669 93.5895C14.2402 94.3891 13.8074 95.1769 13.3762 95.9409C9.38609 103.021 3.78118 107.825 -3.2312 111.439C-5.94297 112.857 -8.47727 113.997 -11.4494 114.935C-4.8538 117.523 0.160592 114.186 5.50342 110.569C1.56823 115.375 -3.88098 118.522 -9.03198 121.699C-5.81227 123.463 0.812234 120.563 3.84316 118.962C2.96389 123.548 -0.964037 129.001 -3.41661 132.196C-8.69881 139.009 -16.2607 144.19 -23 149.245C-15.0074 150.382 -6.93504 146.264 -1.01622 141.335C-5.03921 147.656 -11.4673 151.525 -16.9665 156.282C-8.82884 158.049 -1.29856 151.037 3.46929 145.397C2.64473 149.982 -0.756337 153.926 -3.11181 157.558C0.233706 156.49 4.12617 154.467 7.38928 151.956V155.931C5.9428 157.856 4.37423 159.704 2.79638 161.548C4.40716 161.32 5.93689 160.767 7.38928 160.003V362H1363.93V177.957C1366.38 181.632 1369.49 184.87 1372.42 187.492C1371.58 179.655 1369.76 171.65 1369.22 163.768C1373.23 171.451 1382.11 177.775 1389.44 182.101C1384.3 176.062 1383.24 168.663 1380.46 161.658C1384.5 168.663 1397.62 178.809 1407.54 180.292C1400.18 175.657 1390.89 162.939 1387.43 155.655C1395.53 165.277 1412.72 171.807 1435 165.477Z" fill="#282E32"/>
</svg>
