<svg width="50" height="50" viewBox="0 0 50 50" fill="none" xmlns="http://www.w3.org/2000/svg">
<g clip-path="url(#clip0)">
<path d="M42.1737 8.48915C39.8181 7.85797 37.3884 9.26065 36.7573 11.6163C36.6318 12.0846 36.5899 12.5551 36.6167 13.0144C36.5977 13.0127 36.5803 13.0053 36.5611 13.005C27.5515 12.8833 23.3251 19.0592 22.6857 20.0856C16.038 18.85 8.78535 25.1419 6.20216 34.5311C5.18881 34.8759 4.35887 35.7025 4.0615 36.8123C3.58812 38.579 4.63949 40.401 6.4051 40.8741L27.7673 46.5981C29.533 47.0712 31.3544 46.0189 31.8278 44.2522C32.1252 43.1424 31.8197 42.0117 31.1146 41.2063C32.575 35.6063 32.059 30.1316 30.0623 26.1357C30.1038 25.2848 30.6247 19.457 36.9252 14.3912C37.4248 15.6444 38.4839 16.6574 39.8844 17.0326C42.2399 17.6638 44.6696 16.2611 45.3008 13.9055C45.932 11.5498 44.5292 9.12032 42.1737 8.48915Z" fill="#314E55"/>
<path d="M28.1494 45.1743L6.7872 39.4503C5.80688 39.1877 5.223 38.1754 5.48596 37.194C5.74893 36.2126 6.76073 35.6278 7.74105 35.8905L29.1032 41.6145C30.0836 41.8772 30.6674 42.8895 30.4045 43.8709C30.1415 44.8523 29.1297 45.437 28.1494 45.1743Z" fill="#EAEAEA"/>
<path d="M29.4876 40.1901L8.12538 34.4661L7.78161 34.374C10.3648 25.7413 17.0793 20.0777 23.0035 21.6651C28.9276 23.2524 31.9107 31.5144 29.8315 40.2823L29.4876 40.1901Z" fill="#E65F58"/>
<path d="M28.858 24.146C27.6202 22.4572 26.0439 21.1892 24.1878 20.5026C25.1361 19.1689 28.3982 15.2593 34.4696 14.5789C30.6842 18.1834 29.3394 21.8985 28.858 24.146Z" fill="#E65F58"/>
<path d="M40.267 15.6091C38.6967 15.1883 37.7615 13.5685 38.1822 11.9982C38.603 10.4279 40.2228 9.4927 41.7931 9.91346C43.3634 10.3342 44.2986 11.954 43.8778 13.5243C43.4571 15.0946 41.8372 16.0298 40.267 15.6091Z" fill="#E4AD40"/>
</g>
<defs>
<clipPath id="clip0">
<rect x="10.4922" width="40.539" height="40.539" transform="rotate(15 10.4922 0)" fill="white"/>
</clipPath>
</defs>
</svg>
