<svg width="45" height="45" viewBox="0 0 45 45" fill="none" xmlns="http://www.w3.org/2000/svg">
<g clip-path="url(#clip0)">
<path d="M24.75 18.75V44.25H32.25V18L28.5 15L24.75 18.75Z" fill="#57A4FF"/>
<path d="M36.75 12.75V44.25H44.25V12L40.5 9L36.75 12.75Z" fill="#57A4FF"/>
<path d="M0.75 29.25V44.25H8.25V29.25L4.5 33L0.75 29.25Z" fill="#57A4FF"/>
<path d="M12.75 24.75V44.25H20.25V24L16.5 21L12.75 24.75Z" fill="#57A4FF"/>
<path d="M36.75 12.75V44.25H44.25V12L40.5 9L36.75 12.75Z" fill="#57A4FF"/>
<path d="M12.75 24.75V44.25H20.25V24L16.5 21L12.75 24.75Z" fill="#57A4FF"/>
<path d="M0.75 29.25V44.25H8.25V29.25L4.5 33L0.75 29.25Z" fill="#57A4FF"/>
<path d="M24.75 18.75V44.25H32.25V18L28.5 15L24.75 18.75Z" fill="#57A4FF"/>
<path d="M0.75 29.25V44.25H8.25V29.25L4.5 33L0.75 29.25Z" fill="#57A4FF"/>
<path d="M12.75 24.75V44.25H20.25V24L16.5 21L12.75 24.75Z" fill="#57A4FF"/>
<path d="M24.75 18.75V44.25H32.25V18L28.5 15L24.75 18.75Z" fill="#57A4FF"/>
<path d="M36.75 12.75V44.25H44.25V12L40.5 9L36.75 12.75Z" fill="#57A4FF"/>
<path d="M8.53711 28.557C8.25696 28.4395 7.93359 28.5039 7.71973 28.7196L4.5 31.9394L1.28027 28.7196C1.06567 28.5054 0.743042 28.441 0.462891 28.557C0.182739 28.6731 0 28.9467 0 29.2499V44.2499C0 44.6641 0.335815 44.9999 0.75 44.9999H8.25C8.66418 44.9999 9 44.6641 9 44.2499V29.2499C9 28.9467 8.81726 28.6731 8.53711 28.557ZM7.5 43.4999H1.5V31.0605L3.96973 33.5302C4.2627 33.8228 4.7373 33.8228 5.03027 33.5302L7.5 31.0605V43.4999Z" fill="#1E81CE"/>
<path d="M16.9688 20.4145C16.6703 20.1754 16.24 20.1996 15.9697 20.4698L12.2197 24.2198C12.0791 24.3605 12 24.5513 12 24.7501V44.2501C12 44.6643 12.3358 45.0001 12.75 45.0001H20.25C20.6642 45.0001 21 44.6643 21 44.2501V24.0001C21 23.7723 20.8967 23.5566 20.7188 23.4145L16.9688 20.4145ZM19.5 43.5001H13.5V25.0607L16.5557 22.005L19.5 24.3601V43.5001Z" fill="#1E81CE"/>
<path d="M28.9687 14.4145C28.6703 14.1754 28.24 14.1996 27.9697 14.4698L24.2197 18.2198C24.0791 18.3605 24 18.5513 24 18.7501V44.2501C24 44.6643 24.3358 45.0001 24.75 45.0001H32.25C32.6642 45.0001 33 44.6643 33 44.2501V18.0001C33 17.7723 32.8967 17.5566 32.7187 17.4145L28.9687 14.4145ZM31.5 43.5001H25.5V19.0607L28.5557 16.005L31.5 18.3601V43.5001Z" fill="#1E81CE"/>
<path d="M40.9687 8.41454C40.6703 8.1754 40.24 8.19957 39.9697 8.46983L36.2197 12.2198C36.0791 12.3605 36 12.5513 36 12.7501V44.2501C36 44.6643 36.3358 45.0001 36.75 45.0001H44.25C44.6642 45.0001 45 44.6643 45 44.2501V12.0001C45 11.7723 44.8967 11.5566 44.7187 11.4145L40.9687 8.41454ZM43.5 43.5001H37.5V13.0607L40.5557 10.005L43.5 12.3601V43.5001Z" fill="#1E81CE"/>
<path d="M44.9407 0.463623C44.825 0.183105 44.5518 0.000366211 44.2486 0H38.2486C37.8344 0 37.4986 0.335815 37.4986 0.75C37.4986 1.16418 37.8344 1.5 38.2486 1.5H42.438L31.4986 12.4395L29.0289 9.96973C28.7359 9.67712 28.2613 9.67712 27.9683 9.96973L20.2486 17.6895L17.7789 15.2197C17.4859 14.9271 17.0113 14.9271 16.7183 15.2197L4.49859 27.4395L1.27887 24.2197C0.984434 23.9355 0.516783 23.9396 0.227476 24.2289C-0.0618307 24.5182 -0.065859 24.9858 0.218321 25.2803L3.96832 29.0303C4.26129 29.3229 4.7359 29.3229 5.02887 29.0303L17.2486 16.8105L19.7183 19.2803C20.0113 19.5729 20.4859 19.5729 20.7789 19.2803L28.4986 11.5605L30.9683 14.0303C31.2613 14.3229 31.7359 14.3229 32.0289 14.0303L43.4986 2.56055V6.75C43.4986 7.16418 43.8344 7.5 44.2486 7.5C44.6628 7.5 44.9986 7.16418 44.9986 6.75V0.75C44.9982 0.651489 44.9784 0.554443 44.9407 0.463623Z" fill="#1E81CE"/>
</g>
<defs>
<clipPath id="clip0">
<rect width="45" height="45" fill="white"/>
</clipPath>
</defs>
</svg>
