<svg width="70" height="50" viewBox="0 0 70 50" fill="none" xmlns="http://www.w3.org/2000/svg">
<g clip-path="url(#clip0)">
<path d="M24.1695 17.2875C26.7852 17.2906 29.3726 16.7481 31.7668 15.6945C36.1343 13.7792 39.6222 10.2913 41.5381 5.92324C44.8982 -1.76054 42.8114 -10.7393 36.4071 -16.1535C30.0022 -21.5678 20.8019 -22.1319 13.7841 -17.5404C6.7663 -12.9483 3.59872 -4.29239 5.99539 3.74445C8.39144 11.7813 15.7833 17.2894 24.1695 17.2875ZM16.5851 -9.25793H27.9617C29.3584 -9.25793 30.4898 -8.12656 30.4898 -6.72979V-4.20165C30.4898 -2.8055 29.3584 -1.67352 27.9617 -1.67352C29.3584 -1.67352 30.4898 -0.54215 30.4898 0.854622V3.38276C30.4898 4.77891 29.3584 5.9109 27.9617 5.9109H20.3773V-9.25793H16.5851Z" fill="#9BC9FF"/>
<path d="M20.377 5.91059H27.9614C29.3581 5.91059 30.4895 4.77861 30.4895 3.38245V0.854312C30.4895 -0.542461 29.3581 -1.67383 27.9614 -1.67383H20.377V5.91059Z" fill="#9BC9FF"/>
<path d="M24.1696 21.0798C26.1329 21.0798 28.0871 20.8249 29.9844 20.3212C31.5898 19.9052 33.1415 19.3071 34.6111 18.5387C38.8008 16.3716 42.2146 12.9572 44.3823 8.76746C45.1508 7.29847 45.7489 5.74616 46.1649 4.14077C48.6541 -5.27617 44.8724 -15.2338 36.7596 -20.6246C28.6463 -26.0154 18.0017 -25.6438 10.2839 -19.7006C2.56621 -13.7574 -0.511873 -3.5603 2.62793 5.66037C5.76774 14.881 14.4292 21.081 24.1696 21.0798ZM24.1696 -20.6345C34.642 -20.6345 43.1306 -12.1458 43.1306 -1.67345C43.1306 8.79832 34.642 17.2876 24.1696 17.2876C13.6978 17.2876 5.20853 8.79832 5.20853 -1.67345C5.21224 -12.144 13.6996 -20.6314 24.1696 -20.6345Z" fill="#9BC9FF"/>
<path d="M31.7548 -6.72946C31.7548 -8.82431 30.0574 -10.5217 27.9626 -10.5217H26.6985V-13.0498H24.1704V-10.5217H22.9063V-13.0498H20.3781V-10.5217H16.5859V-7.99353H19.1141V4.64716H16.5859V7.1753H20.3781V9.70343H22.9063V7.1753H24.1704V9.70343H26.6985V7.1753H27.9626C30.0574 7.1753 31.7548 5.47732 31.7548 3.38309V0.854953C31.7517 -0.0813723 31.4005 -0.982514 30.7691 -1.67319C31.4005 -2.36447 31.7517 -3.26562 31.7548 -4.20132V-6.72946ZM21.6422 -7.99353H27.9626C28.6606 -7.99353 29.2266 -7.42754 29.2266 -6.72946V-4.20132C29.2266 -3.50325 28.6606 -2.93725 27.9626 -2.93725H21.6422V-7.99353ZM29.2266 3.38309C29.2266 4.08117 28.6606 4.64716 27.9626 4.64716H21.6422V-0.409117H27.9626C28.6606 -0.409117 29.2266 0.156876 29.2266 0.854953V3.38309Z" fill="#1E81CE"/>
<path d="M28.5103 18.0737C29.1219 17.9397 29.7274 17.786 30.3243 17.5935C32.6364 16.8503 34.7942 15.6937 36.694 14.1809C36.8205 14.0784 36.9619 13.9883 37.0884 13.8834C37.3081 13.7 37.5106 13.497 37.7204 13.3044C37.9729 13.0785 38.2259 12.8612 38.4697 12.6218C38.6493 12.4428 38.8111 12.2428 38.9845 12.057C40.5275 10.4016 41.7817 8.49871 42.6946 6.42794C43.8204 3.87573 44.4 1.11613 44.3957 -1.67309C44.3907 -10.0377 39.2345 -17.5344 31.4254 -20.531C23.6163 -23.5283 14.7684 -21.4057 9.16901 -15.1921C3.56897 -8.97914 2.37526 0.0415497 6.165 7.49758C9.95474 14.9542 17.9459 19.3056 26.2654 18.4446C26.9549 18.3743 27.64 18.2675 28.3183 18.1243C28.3837 18.1119 28.4461 18.0879 28.5103 18.0737ZM24.1706 16.0239C14.3969 16.0239 6.47361 8.10061 6.47361 -1.67309C6.47361 -11.4468 14.3969 -19.3701 24.1706 -19.3701C33.9443 -19.3701 41.8675 -11.4468 41.8675 -1.67309C41.8719 0.768019 41.3657 3.18321 40.3813 5.41693C38.5981 9.498 35.3398 12.7557 31.2587 14.5382C29.025 15.5221 26.6111 16.0282 24.1706 16.0239Z" fill="#1E81CE"/>
<path d="M51.9787 2.11886C50.58 2.12318 49.1845 2.25032 47.8075 2.49783C49.6641 -7.86469 44.5776 -18.2328 35.2464 -23.1064C25.9146 -27.9805 14.4997 -26.2313 7.05543 -18.7877C-0.388873 -11.3434 -2.13746 0.0721512 2.73612 9.4033C7.61032 18.7344 17.9784 23.821 28.3409 21.9644C26.5899 31.9059 31.2437 41.8815 39.9873 46.9266C48.7302 51.9718 59.6958 51.0096 67.4271 44.5189C75.1578 38.0282 78.0038 27.3947 74.548 17.9098C71.0921 8.42562 62.0733 2.11515 51.9787 2.11886ZM35.5976 19.4467C35.834 19.3202 36.0605 19.1721 36.292 19.0369C36.5228 18.9017 36.7253 18.7838 36.9364 18.6579C37.2462 18.4629 37.5443 18.253 37.8443 18.0444C38.0362 17.9105 38.2319 17.7845 38.4208 17.6451C38.7454 17.405 39.0528 17.1482 39.3688 16.8865C39.5188 16.7606 39.6768 16.6464 39.8249 16.5186C40.2774 16.1285 40.7162 15.7224 41.1409 15.299C41.5618 14.8774 41.9692 14.4392 42.3617 13.9831C42.4883 13.8288 42.6148 13.6671 42.7413 13.5103C42.9938 13.2048 43.2468 12.8986 43.4795 12.5801C43.6233 12.3851 43.7548 12.1833 43.8937 11.9833C44.0974 11.6913 44.3023 11.4006 44.4918 11.0988C44.6294 10.8797 44.7547 10.655 44.8862 10.431C45.0176 10.2075 45.1602 9.98472 45.2855 9.75512C47.4087 8.88113 49.6832 8.43427 51.9787 8.4392C61.7524 8.4392 69.6756 16.3625 69.6756 26.1362C69.6756 35.9099 61.7524 43.8331 51.9787 43.8331C42.205 43.8331 34.2817 35.9099 34.2817 26.1362C34.2774 23.8413 34.7248 21.5681 35.5976 19.4467ZM2.67995 -1.67335C2.67687 -10.0194 7.506 -17.6118 15.0657 -21.1479C22.6255 -24.6834 31.5486 -23.5217 37.9517 -18.1692C44.3547 -12.8167 47.0798 -4.24037 44.9405 3.82609C44.5467 5.3389 43.9819 6.80171 43.2567 8.18614C43.0043 8.67683 42.7314 9.15641 42.4389 9.62612C40.3842 12.9282 37.4795 15.6181 34.0292 17.4136C32.643 18.1382 31.1783 18.7024 29.6643 19.0949C23.218 20.8028 16.3446 19.4202 11.06 15.3527C5.77532 11.2858 2.67933 4.99511 2.67995 -1.67335ZM51.9787 47.6253C45.4361 47.6278 39.2491 44.6485 35.1717 39.5323C31.0937 34.4156 29.5704 27.7193 31.0332 21.3428C31.0888 21.3262 31.1419 21.3021 31.1974 21.2854C31.6289 21.1558 32.0566 21.0126 32.4806 20.8558C32.0041 22.5754 31.7597 24.3512 31.7535 26.1362C31.7535 37.306 40.8088 46.3613 51.9787 46.3613C63.1491 46.3613 72.2038 37.306 72.2038 26.1362C72.2038 14.9657 63.1491 5.91106 51.9787 5.91106C50.1943 5.91662 48.4185 6.16104 46.6989 6.63753C46.8557 6.21659 46.9989 5.78824 47.1285 5.3531C47.1452 5.29878 47.1693 5.2457 47.1853 5.19015C55.2351 3.34466 63.6299 6.27522 68.7819 12.7289C73.9344 19.1826 74.9325 28.0181 71.3495 35.4587C67.7666 42.8993 60.2371 47.6284 51.9787 47.6253Z" fill="#1E81CE"/>
<path d="M53.2439 25.3954L60.0247 18.6146L58.2372 16.8271L51.9798 23.0845L45.723 16.8271L43.9355 18.6146L50.7157 25.3954V26.1361H46.9235V28.6642H50.7157V29.9283H46.9235V32.4564H50.7157V40.0408H53.2439V32.4564H57.0361V29.9283H53.2439V28.6642H57.0361V26.1361H53.2439V25.3954Z" fill="#1E81CE"/>
</g>
<defs>
<clipPath id="clip0">
<rect y="-26" width="76" height="76" fill="white"/>
</clipPath>
</defs>
</svg>
