<svg width="17" height="17" viewBox="0 0 17 17" fill="none" xmlns="http://www.w3.org/2000/svg">
<g opacity="0.7">
<path fill-rule="evenodd" clip-rule="evenodd" d="M8.4987 2.12565C4.97788 2.12565 2.1237 4.97984 2.1237 8.50065C2.1237 12.0215 4.97788 14.8757 8.4987 14.8757C12.0195 14.8757 14.8737 12.0215 14.8737 8.50065C14.8737 4.97984 12.0195 2.12565 8.4987 2.12565ZM0.707031 8.50065C0.707031 4.19743 4.19548 0.708984 8.4987 0.708984C12.8019 0.708984 16.2904 4.19743 16.2904 8.50065C16.2904 12.8039 12.8019 16.2923 8.4987 16.2923C4.19548 16.2923 0.707031 12.8039 0.707031 8.50065Z" fill="black"/>
<path fill-rule="evenodd" clip-rule="evenodd" d="M8.4987 7.79232C8.8899 7.79232 9.20703 8.10945 9.20703 8.50065V11.334C9.20703 11.7252 8.8899 12.0423 8.4987 12.0423C8.1075 12.0423 7.79036 11.7252 7.79036 11.334V8.50065C7.79036 8.10945 8.1075 7.79232 8.4987 7.79232Z" fill="black"/>
<path d="M9.20703 5.66732C9.20703 6.05852 8.8899 6.37565 8.4987 6.37565C8.1075 6.37565 7.79036 6.05852 7.79036 5.66732C7.79036 5.27612 8.1075 4.95898 8.4987 4.95898C8.8899 4.95898 9.20703 5.27612 9.20703 5.66732Z" fill="black"/>
</g>
</svg>
