<svg width="82" height="82" viewBox="0 0 82 82" fill="none" xmlns="http://www.w3.org/2000/svg">
<g clip-path="url(#clip0)">
<path d="M41 82C63.6437 82 82 63.6437 82 41C82 18.3563 63.6437 0 41 0C18.3563 0 0 18.3563 0 41C0 63.6437 18.3563 82 41 82Z" fill="#324A5E"/>
<path d="M5.05078 60.7129C12.0167 73.3945 25.5102 82.0004 41.0009 82.0004C56.4916 82.0004 69.9851 73.3945 76.951 60.7129H5.05078Z" fill="#2B3B4E"/>
<path d="M64.965 51.8781H17.0316C16.8042 51.8781 16.6094 51.6833 16.6094 51.4559V17.8441C16.6094 17.6167 16.8042 17.4219 17.0316 17.4219H64.965C65.1923 17.4219 65.3872 17.6167 65.3872 17.8441V51.4722C65.3872 51.6995 65.1923 51.8781 64.965 51.8781Z" fill="#E6E9EE"/>
<path d="M62.7416 20.832H19.2734V48.4685H62.7416V20.832Z" fill="white"/>
<path d="M72.9206 57.2048H9.07422L15.1633 52.8532C16.0402 52.2199 17.1118 51.8789 18.1835 51.8789H63.795C64.8829 51.8789 65.9384 52.2199 66.8152 52.8532L72.9206 57.2048Z" fill="#CED5E0"/>
<path d="M9.07422 57.2051C9.07422 59.1861 10.6817 60.7936 12.6627 60.7936H69.2996C71.2806 60.7936 72.8881 59.1861 72.8881 57.2051H9.07422Z" fill="#ACB3BA"/>
<path d="M45.7114 58.3086H36.2773V59.5264H45.7114V58.3086Z" fill="#324A5E"/>
<path d="M24.8593 23.1562H21.5469V26.4687H24.8593V23.1562Z" fill="#4CDBC4"/>
<path d="M24.8593 28.0254H21.5469V31.3379H24.8593V28.0254Z" fill="#FF7058"/>
<path d="M32.1016 34.327H34.2125C34.7483 31.1281 37.3463 28.6275 40.5938 28.2378V26.127C36.1934 26.5329 32.6699 29.959 32.1016 34.327Z" fill="#84DBFF"/>
<path d="M34.146 36.1289H32.0352C32.3112 40.8053 35.9809 44.5562 40.5924 44.9947V42.8838C37.1338 42.4616 34.4058 39.6362 34.146 36.1289Z" fill="#4CDBC4"/>
<path d="M48.8571 36.1289C48.5973 39.6362 45.8694 42.4616 42.3945 42.8838V44.9947C47.0223 44.5562 50.6757 40.8053 50.9518 36.1289H48.8571Z" fill="#84DBFF"/>
<path d="M50.8868 34.327C50.3185 29.9753 46.7949 26.5329 42.3945 26.127V28.2378V33.7911V34.327H48.7759H50.8868Z" fill="#FF7058"/>
<path d="M52.5444 24.3242L49.2969 27.588L50.1899 28.4811L53.0802 25.607H57.4157V24.3242H52.5444Z" fill="#324A5E"/>
<path d="M29.3247 45.0427H24.8594V46.3255H29.8443L32.556 43.6138L31.6467 42.7207L29.3247 45.0427Z" fill="#324A5E"/>
<path d="M33.1282 27.9251L31.0156 25.8125L30.1086 26.7195L32.2212 28.8322L33.1282 27.9251Z" fill="#324A5E"/>
<path d="M51.6983 44.839L49.5742 42.7148L48.6672 43.6219L50.7913 45.746L51.6983 44.839Z" fill="#324A5E"/>
</g>
<defs>
<clipPath id="clip0">
<rect width="82" height="82" fill="white"/>
</clipPath>
</defs>
</svg>
