<svg width="15" height="15" viewBox="0 0 15 15" fill="none" xmlns="http://www.w3.org/2000/svg">
<path fill-rule="evenodd" clip-rule="evenodd" d="M2.54297 1.83268C2.15177 1.83268 1.83464 2.14981 1.83464 2.54102V12.4577C1.83464 12.8489 2.15177 13.166 2.54297 13.166H12.4596C12.8508 13.166 13.168 12.8489 13.168 12.4577V2.54102C13.168 2.14981 12.8508 1.83268 12.4596 1.83268H2.54297ZM0.417969 2.54102C0.417969 1.36741 1.36936 0.416016 2.54297 0.416016H12.4596C13.6332 0.416016 14.5846 1.36741 14.5846 2.54102V12.4577C14.5846 13.6313 13.6332 14.5827 12.4596 14.5827H2.54297C1.36936 14.5827 0.417969 13.6313 0.417969 12.4577V2.54102Z" fill="black"/>
<path fill-rule="evenodd" clip-rule="evenodd" d="M0.417969 5.37435C0.417969 4.98315 0.7351 4.66602 1.1263 4.66602H13.8763C14.2675 4.66602 14.5846 4.98315 14.5846 5.37435C14.5846 5.76555 14.2675 6.08268 13.8763 6.08268H1.1263C0.7351 6.08268 0.417969 5.76555 0.417969 5.37435Z" fill="black"/>
<path fill-rule="evenodd" clip-rule="evenodd" d="M5.3763 4.66602C5.7675 4.66602 6.08464 4.98315 6.08464 5.37435V13.8743C6.08464 14.2656 5.7675 14.5827 5.3763 14.5827C4.9851 14.5827 4.66797 14.2656 4.66797 13.8743V5.37435C4.66797 4.98315 4.9851 4.66602 5.3763 4.66602Z" fill="black"/>
</svg>
