<svg width="17" height="16" viewBox="0 0 17 16" fill="none" xmlns="http://www.w3.org/2000/svg">
<path fill-rule="evenodd" clip-rule="evenodd" d="M9.05085 1.83378C9.85241 1.10515 10.926 0.701975 12.0403 0.711089C13.1546 0.720202 14.2206 1.14088 15.0086 1.88251C15.7966 2.62414 16.2435 3.62739 16.2532 4.67618C16.2629 5.72497 15.8345 6.73538 15.0604 7.48979L15.0517 7.49805L12.9268 9.49796C12.496 9.90362 11.9775 10.2173 11.4065 10.4178C10.8355 10.6183 10.2253 10.7008 9.61747 10.6598C9.00959 10.6189 8.41819 10.4553 7.88338 10.1803C7.34857 9.90531 6.88285 9.52527 6.51781 9.06596C6.28349 8.77113 6.34748 8.35334 6.66074 8.1328C6.97401 7.91226 7.41791 7.97249 7.65223 8.26732C7.89559 8.57353 8.20606 8.82689 8.56261 9.01023C8.91915 9.19356 9.31342 9.30259 9.71866 9.3299C10.1239 9.35722 10.5307 9.30219 10.9113 9.16854C11.292 9.0349 11.6377 8.82576 11.9249 8.55532L14.0454 6.55956C14.559 6.05705 14.843 5.38513 14.8366 4.68777C14.8301 3.98857 14.5322 3.31974 14.0068 2.82532C13.4815 2.3309 12.7709 2.05045 12.028 2.04437C11.2867 2.03831 10.5725 2.30591 10.0385 2.78967L8.82401 3.92609C8.54658 4.18568 8.09809 4.18445 7.82228 3.92334C7.54646 3.66223 7.54777 3.24012 7.8252 2.98053L9.04353 1.84053L9.05085 1.83378Z" fill="black"/>
<path fill-rule="evenodd" clip-rule="evenodd" d="M5.59692 5.58217C6.16791 5.3817 6.77804 5.29915 7.38591 5.34012C7.99378 5.3811 8.58518 5.54463 9.12 5.81964C9.65481 6.09465 10.1205 6.47469 10.4856 6.93399C10.7199 7.22882 10.6559 7.64662 10.3426 7.86715C10.0294 8.08769 9.58547 8.02746 9.35114 7.73263C9.10779 7.42643 8.79731 7.17307 8.44077 6.98973C8.08422 6.80639 7.68996 6.69737 7.28471 6.67005C6.87946 6.64274 6.47271 6.69777 6.09205 6.83141C5.71139 6.96506 5.36571 7.17419 5.07848 7.44463L2.95798 9.44039C2.44441 9.94291 2.16034 10.6148 2.16677 11.3122C2.17323 12.0114 2.47121 12.6802 2.99653 13.1746C3.52185 13.6691 4.23249 13.9495 4.97538 13.9556C5.71633 13.9616 6.43023 13.6943 6.96415 13.2109L8.17082 12.0752C8.44744 11.8149 8.89593 11.8149 9.17255 12.0752C9.44918 12.3356 9.44918 12.7577 9.17255 13.018L7.9613 14.158L7.95252 14.1662C7.15097 14.8948 6.07741 15.298 4.96307 15.2889C3.84873 15.2798 2.78278 14.8591 1.9948 14.1174C1.20681 13.3758 0.759844 12.3726 0.750161 11.3238C0.740477 10.275 1.16885 9.26458 1.94303 8.51017L1.95165 8.50191L4.07656 6.50199C4.07653 6.50202 4.07659 6.50196 4.07656 6.50199C4.5074 6.09638 5.02596 5.78262 5.59692 5.58217Z" fill="black"/>
</svg>
