<svg width="61" height="75" viewBox="0 0 61 75" fill="none" xmlns="http://www.w3.org/2000/svg">
<g clip-path="url(#clip0)">
<path d="M7.95159 17.289C13.2749 18.2515 18.7276 18.2515 24.0509 17.289L24.176 17.264L29.7508 16.2515L36.6255 2.50195H-4.62305L2.25171 16.2515L7.82647 17.264L7.95159 17.289ZM26.0619 9.9492L22.6459 16.7794L26.0619 9.9492ZM10.6053 16.7794L7.21675 10.0017L10.6053 16.7794Z" fill="#9BC9FF"/>
<path d="M29.7505 66.2498V58.75H27.2506V57.425C22.6932 62.5908 15.2033 63.9885 9.08957 60.8136C2.9765 57.6386 -0.188669 50.7077 1.41589 44.0087C3.01984 37.3097 8.98154 32.5644 15.8697 32.5034C22.7585 32.4424 28.8026 37.0809 30.5256 43.7506H43.4127C40.5991 35.2963 35.8727 27.6055 29.6003 21.2764L24.0506 22.2889C21.4109 22.7656 18.7334 23.0067 16.051 23.0091L16.001 27.5011L16.0547 23.0091C13.3375 23.0134 10.6252 22.7723 7.95131 22.2889L2.40157 21.2764C-5.0231 28.2762 -12.748 42.301 -12.748 51.2503C-12.748 65.0627 2.18918 73.7495 16.001 73.7495C19.8289 73.7397 23.6295 73.102 27.2506 71.8624V66.2498H29.7505ZM28.7721 28.7962C27.159 26.546 25.3445 24.4476 23.3506 22.5263C25.3445 24.4476 27.159 26.546 28.7721 28.7962ZM8.65135 22.5263C7.47342 23.6585 6.38642 24.8816 5.40135 26.1853C6.38642 24.8816 7.47342 23.6585 8.65135 22.5263Z" fill="#9BC9FF"/>
<path d="M16.0552 23.0095C18.7382 23.0071 21.4151 22.766 24.0548 22.2893L29.6051 21.2768L29.751 21.2518V16.252L24.1762 17.2645L24.0511 17.2895C18.7278 18.252 13.2751 18.252 7.95183 17.2895L7.82671 17.2645L2.25195 16.252V21.2518L2.40209 21.2768L7.95183 22.2893C10.6257 22.7727 13.338 23.0138 16.0552 23.0095Z" fill="#9BC9FF"/>
<path d="M29.7499 66.25H27.25V73.7497H34.7497V66.25H29.7499Z" fill="#9BC9FF"/>
<path d="M49.75 66.25V73.7497H57.2497V66.25H49.75Z" fill="#9BC9FF"/>
<path d="M49.7497 66.25H42.25V73.7497H49.7497V66.25Z" fill="#9BC9FF"/>
<path d="M37.2499 66.25H34.75V73.7497H42.2497V66.25H37.2499Z" fill="#9BC9FF"/>
<path d="M34.7498 58.75H29.75V66.2497H37.2497V58.75H34.7498Z" fill="#9BC9FF"/>
<path d="M42.2498 58.75H37.25V66.2497H44.7497V58.75H42.2498Z" fill="#9BC9FF"/>
<path d="M52.2497 58.75H44.75V66.2497H52.2497V58.75Z" fill="#9BC9FF"/>
<path d="M52.25 66.2497H59.7497V58.75H52.25V66.2497Z" fill="#9BC9FF"/>
<path d="M49.75 51.25V58.7497H57.2497V51.25H49.75Z" fill="#9BC9FF"/>
<path d="M44.7499 58.7497H49.7497V51.25H42.25V58.7497H44.7499Z" fill="#9BC9FF"/>
<path d="M34.75 58.7497H42.2497V51.25H34.75V58.7497Z" fill="#9BC9FF"/>
<path d="M34.7497 51.25H27.25V58.7497H34.7497V51.25Z" fill="#9BC9FF"/>
<path d="M49.7498 51.2507H52.2497V43.751H44.75V51.2507H49.7498Z" fill="#9BC9FF"/>
<path d="M29.75 51.2507H37.2497V43.751H29.75V51.2507Z" fill="#9BC9FF"/>
<path d="M57.2498 51.2507H59.7497V43.751H52.25V51.2507H57.2498Z" fill="#9BC9FF"/>
<path d="M37.25 51.2507H44.7497V43.751H37.25V51.2507Z" fill="#9BC9FF"/>
<path d="M23.5014 42.5008C23.5014 40.4299 21.8224 38.7509 19.7516 38.7509H18.5016V36.251H16.0017V38.7509H14.7517V36.251H12.2518V38.7509H8.50195V41.2508H11.0019V53.7504H8.50195V56.2503H12.2518V58.7502H14.7517V56.2503H16.0017V58.7502H18.5016V56.2503H19.7516C21.8224 56.2503 23.5014 54.5719 23.5014 52.5004V50.0005C23.4984 49.0752 23.1505 48.1841 22.5267 47.5006C23.1505 46.8176 23.4984 45.9265 23.5014 45.0007V42.5008ZM13.5018 41.2508H19.7516C20.4418 41.2508 21.0015 41.8105 21.0015 42.5008V45.0007C21.0015 45.691 20.4418 46.2506 19.7516 46.2506H13.5018V41.2508ZM21.0015 52.5004C21.0015 53.1907 20.4418 53.7504 19.7516 53.7504H13.5018V48.7505H19.7516C20.4418 48.7505 21.0015 49.3102 21.0015 50.0005V52.5004Z" fill="#1E81CE"/>
<path d="M59.7494 52.5007C60.4397 52.5007 60.9993 51.9411 60.9993 51.2508V43.7511C60.9993 43.0608 60.4397 42.5011 59.7494 42.5011H44.3123C41.4657 34.435 36.9267 27.0707 31.0004 20.9021V16.5474L38.375 1.8116C38.375 1.80001 38.375 1.78658 38.3854 1.77376C38.4147 1.69686 38.436 1.61691 38.4489 1.53512C38.4745 1.45395 38.491 1.37033 38.4989 1.2855C38.4989 1.27146 38.5062 1.2617 38.5062 1.24766C38.4995 1.18907 38.4873 1.13109 38.4714 1.07371C38.4629 0.983996 38.4452 0.894888 38.4177 0.808831C38.3854 0.736812 38.3469 0.667845 38.3018 0.60254C38.2639 0.532352 38.2194 0.465826 38.1675 0.405403C38.104 0.343149 38.0332 0.28822 37.9575 0.241224C37.913 0.200332 37.8654 0.163102 37.8153 0.128924C37.8037 0.128924 37.7903 0.128924 37.7775 0.119158C37.7 0.0898624 37.6194 0.0685008 37.5376 0.0538529C37.4565 0.0294397 37.3722 0.0129608 37.288 0.00502648C37.2752 0.0105194 37.2642 0.00258516 37.2502 0.00258516C35.2165 -0.0395276 33.2055 0.433478 31.4044 1.37766C29.9366 2.16315 28.2893 2.55132 26.6255 2.5025C24.9612 2.55132 23.3127 2.16376 21.8448 1.37766C20.0437 0.434089 18.0333 -0.0389173 16.0009 0.00258516C13.9685 -0.0395276 11.9587 0.433478 10.1588 1.37766C8.69037 2.16437 7.04126 2.55254 5.37628 2.5025C3.71252 2.55132 2.06524 2.16376 0.598001 1.37766C-1.20369 0.433478 -3.21473 -0.0395276 -5.24835 0.00258516C-5.26178 0.00258516 -5.27338 0.0105194 -5.2868 0.0105194C-5.37164 0.0178434 -5.45586 0.0349326 -5.53704 0.0599561C-5.61821 0.0733835 -5.69756 0.0947451 -5.77446 0.124041C-5.78727 0.124041 -5.8007 0.124041 -5.8123 0.133806C-5.86234 0.168595 -5.91056 0.205825 -5.95572 0.246717C-6.03141 0.293102 -6.10159 0.348032 -6.16446 0.410286C-6.21634 0.471319 -6.26089 0.537845 -6.29812 0.609253C-6.34389 0.673338 -6.38235 0.741695 -6.41469 0.813714C-6.44216 0.900381 -6.45986 0.988879 -6.4684 1.07921C-6.48244 1.13597 -6.49282 1.19395 -6.49831 1.25254C-6.49831 1.26658 -6.49098 1.27634 -6.49098 1.29038C-6.48305 1.37522 -6.46596 1.45883 -6.44094 1.54001C-6.42751 1.62118 -6.40615 1.70113 -6.37685 1.77743C-6.37075 1.79024 -6.37685 1.80367 -6.36709 1.81527L1.00143 16.5474V20.9094C-6.20596 28.0192 -13.998 41.9201 -13.998 51.2508C-13.998 65.9207 1.57392 75 16.0009 75C19.3864 74.981 22.7518 74.4885 26.0006 73.5364V73.75C26.0006 74.4403 26.5602 75 27.2505 75H57.2495C57.9398 75 58.4994 74.4403 58.4994 73.75V67.5002H59.7494C60.4397 67.5002 60.9993 66.9406 60.9993 66.2503V58.7505C60.9993 58.0602 60.4397 57.5006 59.7494 57.5006H58.4994V52.5007H59.7494ZM58.4994 50.0008H53.4996V45.001H58.4994V50.0008ZM26.0006 51.2508V56.9409C21.7783 61.4116 15.1007 62.5346 9.64798 59.6917C4.19529 56.8487 1.29317 50.7308 2.54129 44.7099C3.78942 38.6884 8.88323 34.2275 15.0171 33.7856C21.1503 33.3437 26.8312 37.0283 28.9295 42.8087C28.9179 42.8172 28.9143 42.8325 28.9045 42.8423C28.8258 42.9216 28.7586 43.0107 28.7043 43.1078C28.6701 43.1511 28.639 43.1969 28.6115 43.2451C28.5395 43.4044 28.5017 43.5765 28.5005 43.7511V50.0008H27.2505C26.5602 50.0008 26.0006 50.5605 26.0006 51.2508ZM38.5001 65.0003V60.0005H43.4999V65.0003H38.5001ZM36.0002 57.5006V52.5007H41V57.5006H36.0002ZM36.0002 45.001V50.0008H31.0004V45.001H36.0002ZM43.4999 50.0008H38.5001V45.001H43.4999V50.0008ZM28.5005 52.5007H33.5003V57.5006H28.5005V52.5007ZM31.0004 60.0005H36.0002V65.0003H31.0004V60.0005ZM41 67.5002V72.5H36.0002V67.5002H41ZM43.4999 67.5002H48.4998V72.5H43.4999V67.5002ZM45.9999 65.0003V60.0005H50.9997V65.0003H45.9999ZM43.4999 57.5006V52.5007H48.4998V57.5006H43.4999ZM45.9999 50.0008V45.001H50.9997V50.0008H45.9999ZM-3.136 2.68377C-2.20769 2.87724 -1.30989 3.19705 -0.468246 3.63405C1.33345 4.57579 3.34388 5.04696 5.37628 5.00241C7.40807 5.04696 9.41788 4.57579 11.2184 3.63405C12.6862 2.84489 14.3353 2.45489 16.0009 2.5025C17.6665 2.4555 19.3156 2.8455 20.7835 3.63405C22.5845 4.57518 24.5937 5.04574 26.6255 5.00241C28.6585 5.04696 30.6696 4.57579 32.4719 3.63405C33.3141 3.19766 34.2119 2.87785 35.1403 2.68377L28.9143 15.1333L24.4656 15.942L27.1822 10.5088C27.491 9.89116 27.2407 9.13984 26.6231 8.83101C26.0054 8.52218 25.2547 8.77242 24.9459 9.39007L21.5305 16.2209C21.5079 16.2838 21.4902 16.3478 21.478 16.4131C18.2726 16.8178 15.0323 16.8666 11.8159 16.5584C11.8031 16.4418 11.7719 16.3283 11.7249 16.2209L8.3376 9.44378C8.13985 9.04035 7.74131 8.77425 7.29332 8.74618C6.84534 8.7181 6.41689 8.93233 6.17032 9.30768C5.92374 9.68242 5.8975 10.1609 6.10135 10.5613L8.90765 16.1757C8.67145 16.1373 8.43525 16.1074 8.20028 16.0646L3.09242 15.1333L-3.136 2.68377ZM28.5005 17.7522V20.2094L23.8296 21.062C21.2723 21.5247 18.6784 21.7596 16.0796 21.7645H16.0333C13.3972 21.7657 10.7667 21.5302 8.17281 21.0608L3.50134 20.207V17.7522L3.94017 17.8322L7.72849 18.5218C10.4585 19.0156 13.227 19.2634 16.0009 19.2634C18.7858 19.2609 21.5647 19.0101 24.3045 18.5133L28.5005 17.7522ZM16.0009 72.5C-0.984585 72.5 -11.4981 61.4708 -11.4981 51.2508C-11.4981 42.766 -4.04051 29.3491 2.80495 22.6269L6.21853 23.2519C5.62407 23.9184 5.02229 24.6447 4.41379 25.4308C3.99327 25.9782 4.0958 26.7631 4.64327 27.1836C5.19074 27.6042 5.97562 27.5016 6.39614 26.9542C7.25365 25.8238 8.18746 24.7539 9.19145 23.7518C11.0456 24.0264 12.9157 24.1887 14.79 24.2382L14.7509 27.487C14.7424 28.1773 15.2954 28.7436 15.9863 28.7516H16.0009C16.6857 28.7516 17.2429 28.2011 17.2509 27.5169L17.2899 24.2345C18.6632 24.1967 20.0346 24.0972 21.4048 23.9355C21.8735 23.8805 22.341 23.8207 22.8085 23.7505C24.6188 25.5351 26.2758 27.4693 27.7607 29.5328C28.1666 30.0913 28.9485 30.2139 29.5069 29.8081C30.0647 29.4016 30.188 28.6197 29.7816 28.0619C28.5603 26.3731 27.2353 24.7625 25.8144 23.2385L29.1895 22.622C34.6764 28.317 38.9267 35.085 41.6726 42.5011H31.4532C29.2542 35.6684 22.8372 31.0837 15.6603 31.2191C8.48408 31.3552 2.24406 36.1787 0.305653 43.0895C-1.63337 50.0008 1.18697 57.3657 7.24572 61.2144C13.3045 65.0632 21.1698 64.4858 26.6017 59.793C26.794 59.923 27.0192 59.995 27.2505 60.0005H28.5005V65.0003H27.2505C26.5602 65.0003 26.0006 65.56 26.0006 66.2503V70.9577C22.7634 71.9691 19.3925 72.4891 16.0009 72.5ZM28.5005 67.5002H33.5003V72.5H28.5005V67.5002ZM55.9995 72.5H50.9997V67.5002H55.9995V72.5ZM58.4994 65.0003H53.4996V60.0005H58.4994V65.0003ZM55.9995 57.5006H50.9997V52.5007H55.9995V57.5006Z" fill="#1E81CE"/>
</g>
<defs>
<clipPath id="clip0">
<rect x="-14" width="75" height="75" fill="white"/>
</clipPath>
</defs>
</svg>
