<svg width="21" height="15" viewBox="0 0 21 15" fill="none" xmlns="http://www.w3.org/2000/svg">
<path d="M10.5264 8.90089H10.5308C10.6892 8.90089 10.8457 8.85494 10.9723 8.77128L11.0067 8.74922C11.0142 8.74435 11.022 8.73992 11.0298 8.73467L11.4299 8.40372L20.978 0.524462C20.9582 0.497182 20.9245 0.478516 20.8887 0.478516H0.110936C0.0851667 0.478516 0.06125 0.487849 0.0422059 0.50353L10.0318 8.73725C10.1577 8.84149 10.3373 8.90089 10.5264 8.90089ZM0 1.59498V13.2743L7.15613 7.49348L0 1.59498ZM13.8514 7.5327L21 13.2773V1.63382L13.8514 7.5327ZM11.5785 9.40773C11.2935 9.64155 10.9208 9.77043 10.5293 9.77043C10.1364 9.77043 9.76401 9.6423 9.47978 9.40959L7.84079 8.05783L0 14.3908V14.4109C0 14.4711 0.0515392 14.5223 0.112412 14.5223H20.8891C20.9488 14.5223 21 14.4711 21 14.4106V14.3919L13.1659 8.09747L11.5785 9.40773Z" fill="#9D9D9D"/>
</svg>
