<svg width="134" height="134" viewBox="0 0 134 134" fill="none" xmlns="http://www.w3.org/2000/svg">
<path d="M42.0263 88.3365C41.8156 89.4298 41.8308 90.5546 42.071 91.6419L39.2391 92.8479L40.4643 95.7244L43.2962 94.5184C43.9108 95.4455 44.7107 96.2352 45.6456 96.8379L44.5026 99.6863L47.4059 100.853L48.5516 98.0091C49.6445 98.2226 50.7696 98.2091 51.857 97.9693L53.063 100.796L55.9417 99.5702L54.7357 96.7423C55.6594 96.123 56.4476 95.3223 57.0522 94.3889L59.9001 95.5314L61.0677 92.6335L58.2269 91.4802C58.4346 90.3866 58.4194 89.2624 58.1822 88.1748L61.0078 86.972L59.7799 84.0936L56.9557 85.297C56.3325 84.3756 55.5329 83.5869 54.6031 82.9765L55.7425 80.1348L52.8441 78.9668L51.6971 81.8116C50.6041 81.6004 49.4795 81.6135 48.3917 81.85L47.1893 79.0249L44.3092 80.2501L45.5152 83.0779C44.5901 83.6989 43.8001 84.5005 43.1925 85.4345L40.3531 84.292L39.1797 87.1922L42.0263 88.3365ZM48.7844 86.7687C49.4053 86.5038 50.091 86.429 50.7545 86.5537C51.418 86.6784 52.0296 86.9971 52.512 87.4695C52.9944 87.9419 53.3259 88.5467 53.4645 89.2075C53.6031 89.8682 53.5427 90.5553 53.2909 91.1817C53.039 91.8081 52.607 92.3457 52.0496 92.7267C51.4922 93.1076 50.8343 93.3146 50.1592 93.3216C49.4841 93.3286 48.822 93.1352 48.2568 92.7659C47.6916 92.3967 47.2486 91.8681 46.9838 91.247C46.6297 90.4144 46.6204 89.4753 46.9578 88.6358C47.2953 87.7963 47.952 87.125 48.7839 86.7692L48.7844 86.7687Z" fill="#BFE0E9"/>
<path d="M36.4538 51.5754C36.1678 53.0547 36.1874 54.5769 36.5114 56.0483L32.6786 57.6809L34.337 61.5745L38.1699 59.9432C39.0017 61.1979 40.0844 62.2668 41.3497 63.0824L39.8029 66.9376L43.7336 68.5161L45.2844 64.6672C46.7627 64.9558 48.2846 64.9374 49.7555 64.6131L51.3845 68.4384L55.2808 66.7795L53.6513 62.952C54.9017 62.1138 55.9685 61.0301 56.7869 59.7668L60.6412 61.3132L62.2215 57.391L58.3766 55.8303C58.6582 54.3504 58.6381 52.8289 58.3177 51.357L62.142 49.7289L60.4804 45.833L56.6578 47.4616C55.8145 46.2147 54.7324 45.1472 53.474 44.3211L55.0163 40.4753L51.0937 38.8945L49.5411 42.7452C48.0624 42.4592 46.5409 42.4766 45.0691 42.7962L43.4401 38.9723L39.5452 40.6307L41.175 44.4582C39.9243 45.2991 38.8562 46.384 38.035 47.6479L34.1936 46.1015L32.6035 50.0272L36.4538 51.5754ZM45.6002 49.4533C46.4407 49.0946 47.3688 48.9933 48.267 49.1621C49.1651 49.3309 49.993 49.7623 50.646 50.4017C51.299 51.0411 51.7477 51.8597 51.9353 52.7541C52.123 53.6486 52.0412 54.5785 51.7003 55.4265C51.3594 56.2744 50.7746 57.0022 50.0201 57.5177C49.2655 58.0333 48.375 58.3135 47.4612 58.323C46.5473 58.3324 45.6512 58.0706 44.8862 57.5707C44.1211 57.0708 43.5215 56.3552 43.1632 55.5145C42.6838 54.3875 42.6712 53.1164 43.1281 51.9801C43.585 50.8438 44.4741 49.9352 45.6002 49.4537V49.4533Z" fill="#BFE0E9"/>
<path d="M99.3984 78.033C99.7699 76.5964 99.8436 75.099 99.615 73.6329L103.481 72.262L102.09 68.3349L98.2219 69.704C97.481 68.4201 96.4825 67.3034 95.2891 66.4241L97.0454 62.7297L93.2777 60.9382L91.5179 64.6263C90.0826 64.2524 88.5858 64.1775 87.1204 64.4061L85.7527 60.5469L81.8221 61.9396L83.1898 65.8006C81.9099 66.5481 80.7953 67.548 79.9139 68.7396L76.2204 66.9842L74.427 70.7425L78.1112 72.5113C77.7435 73.9485 77.67 75.4451 77.895 76.9114L74.0371 78.2782L75.4316 82.2089L79.2881 80.8416C80.0407 82.1189 81.0392 83.2341 82.2259 84.1228L80.4745 87.8083L84.2336 89.6021L85.9944 85.9122C87.431 86.2836 88.9281 86.3596 90.3949 86.1355L91.7609 89.9934L95.6915 88.6015L94.3243 84.7401C95.6051 83.9901 96.7211 82.989 97.6055 81.797L101.288 83.552L103.089 79.7906L99.3984 78.033ZM90.2793 79.5592C89.4312 79.8605 88.5128 79.9034 87.6403 79.6826C86.7677 79.4618 85.9803 78.9872 85.3776 78.3188C84.7749 77.6504 84.3839 76.8183 84.2542 75.9277C84.1245 75.037 84.2618 74.128 84.6488 73.3154C85.0359 72.5029 85.6552 71.8234 86.4285 71.3628C87.2017 70.9023 88.0942 70.6815 88.993 70.7283C89.8918 70.7751 90.7565 71.0874 91.4778 71.6257C92.1991 72.1641 92.7445 72.9042 93.045 73.7526C93.4467 74.8894 93.3811 76.1392 92.8625 77.2277C92.3439 78.3162 91.4147 79.1545 90.2788 79.5588L90.2793 79.5592Z" fill="#BFE0E9"/>
<path d="M67.0007 110.64C61.1096 110.64 55.3945 109.486 50.0139 107.21C39.5534 102.775 31.2261 94.448 26.7908 83.9874C24.5151 78.6068 23.3613 72.8917 23.3613 67.0007C23.3613 61.1096 24.5151 55.3945 26.7908 50.0144C31.2261 39.5538 39.5534 31.2266 50.0139 26.7913C55.3945 24.5151 61.1096 23.3613 67.0007 23.3613C72.8917 23.3613 78.6068 24.5151 83.9869 26.7908C94.4477 31.226 102.775 39.5533 107.21 50.0139C109.486 55.394 110.64 61.1091 110.64 67.0002C110.64 72.8913 109.486 78.6064 107.21 83.9865C102.775 94.4472 94.4477 102.774 83.9869 107.21C78.6068 109.486 72.8917 110.64 67.0007 110.64ZM67.0007 23.9867C43.2827 23.9867 23.9867 43.2827 23.9867 67.0007C23.9867 90.7187 43.2827 110.015 67.0007 110.015C90.7187 110.015 110.015 90.7187 110.015 67.0007C110.015 43.2827 90.7187 23.9867 67.0007 23.9867Z" fill="#BFE0E9"/>
<path d="M23.9803 46.209L16.7305 58.0537L25.3208 63.3114L31.6902 52.9045L31.2226 50.6417L23.9803 46.209Z" fill="#F9FCFF"/>
<path d="M73.5355 61.6103C73.5355 61.6103 80.6183 56.4839 82.6922 54.41C84.7661 52.3362 84.8054 49.4793 84.8054 49.4793V38.9942L67.2746 37.7043V37.6641L67.0008 37.6842L66.727 37.6641V37.7043L49.1953 38.9942V49.4815C49.1953 49.4815 49.2346 52.3402 51.3085 54.4123C53.3824 56.4844 60.4652 61.6126 60.4652 61.6126C60.4652 61.6126 62.5645 63.1339 62.7249 67.4295C62.5649 71.7251 60.4652 73.2464 60.4652 73.2464C60.4652 73.2464 53.3824 78.3728 51.3085 80.4467C49.2346 82.5206 49.1953 85.3775 49.1953 85.3775V95.8647L66.7265 97.1503V97.1905L67.0003 97.1704L67.2742 97.1905V97.1503L84.8049 95.8603V85.3752C84.8049 85.3752 84.7661 82.5166 82.6918 80.4445C80.6174 78.3724 73.5351 73.2442 73.5351 73.2442C73.5351 73.2442 71.4357 71.7229 71.2754 67.4273C71.4353 63.1317 73.5355 61.6103 73.5355 61.6103Z" fill="#EFF7FA"/>
<path d="M47.9549 33.5059C47.6762 33.5059 47.409 33.6165 47.212 33.8136C47.015 34.0106 46.9043 34.2778 46.9043 34.5564V39.1236C46.9043 39.4022 47.015 39.6694 47.212 39.8664C47.409 40.0634 47.6762 40.1741 47.9549 40.1741H66.9998V33.5059H47.9549Z" fill="#535967"/>
<path d="M87.096 39.1236V34.5564C87.096 34.2778 86.9853 34.0106 86.7883 33.8136C86.5913 33.6165 86.3241 33.5059 86.0454 33.5059H67V40.1746H86.045C86.183 40.1746 86.3197 40.1475 86.4473 40.0947C86.5748 40.0419 86.6907 39.9645 86.7883 39.8669C86.8859 39.7693 86.9633 39.6534 87.0161 39.5258C87.0689 39.3983 87.0961 39.2616 87.096 39.1236Z" fill="#373F4D"/>
<path d="M86.045 101.348C86.3236 101.348 86.5908 101.238 86.7878 101.041C86.9849 100.844 87.0956 100.576 87.0956 100.298V95.7302C87.0956 95.4516 86.9849 95.1844 86.7878 94.9874C86.5908 94.7904 86.3236 94.6797 86.045 94.6797H67V101.348H86.045Z" fill="#373F4D"/>
<path d="M46.9043 95.7302V100.297C46.9043 100.576 47.015 100.843 47.212 101.04C47.409 101.237 47.6762 101.348 47.9549 101.348H66.9998V94.6797H47.9549C47.6762 94.6797 47.409 94.7904 47.212 94.9874C47.015 95.1844 46.9043 95.4516 46.9043 95.7302Z" fill="#535967"/>
<path d="M52.4785 46.6113C52.516 47.3215 52.8805 51.7239 56.4722 54.5959C60.4703 57.7945 67.0001 62.0589 67.0001 62.0589V46.6113H52.4785Z" fill="#D1A149"/>
<path d="M81.5216 46.6113C81.484 47.3215 81.1196 51.7239 77.5279 54.5959C73.5298 57.7945 67 62.0589 67 62.0589V46.6113H81.5216Z" fill="#BB924A"/>
<path d="M81.5216 90.3616C81.484 89.6514 81.1196 85.249 77.5279 82.377C73.5298 79.1784 67 74.9141 67 74.9141V90.3616H81.5216Z" fill="#BB924A"/>
<path d="M52.4785 90.3616C52.516 89.6514 52.8805 85.249 56.4722 82.377C60.4703 79.1784 67.0001 74.9141 67.0001 74.9141V90.3616H52.4785Z" fill="#D1A149"/>
<path d="M67.4545 63.9935C67.4545 63.8751 67.4074 63.7615 67.3237 63.6777C67.2399 63.5939 67.1263 63.5469 67.0078 63.5469V64.4402C67.1263 64.4402 67.2399 64.3932 67.3237 64.3094C67.4074 64.2256 67.4545 64.112 67.4545 63.9935Z" fill="#BB924A"/>
<path d="M66.5586 63.9935C66.5586 64.112 66.6057 64.2256 66.6894 64.3094C66.7732 64.3932 66.8868 64.4402 67.0053 64.4402V63.5469C66.8868 63.5469 66.7732 63.5939 66.6894 63.6777C66.6057 63.7615 66.5586 63.8751 66.5586 63.9935Z" fill="#D1A149"/>
<path d="M66.5586 67.9545C66.5586 68.0729 66.6057 68.1866 66.6894 68.2703C66.7732 68.3541 66.8868 68.4012 67.0053 68.4012V67.5078C66.8868 67.5078 66.7732 67.5549 66.6894 67.6386C66.6057 67.7224 66.5586 67.836 66.5586 67.9545Z" fill="#D1A149"/>
<path d="M67.4545 67.9545C67.4545 67.836 67.4074 67.7224 67.3237 67.6386C67.2399 67.5549 67.1263 67.5078 67.0078 67.5078V68.4012C67.1263 68.4012 67.2399 68.3541 67.3237 68.2703C67.4074 68.1866 67.4545 68.0729 67.4545 67.9545Z" fill="#BB924A"/>
<path d="M67.4545 71.9154C67.4545 71.7969 67.4074 71.6833 67.3237 71.5996C67.2399 71.5158 67.1263 71.4688 67.0078 71.4688V72.362C67.1263 72.362 67.2399 72.315 67.3237 72.2312C67.4074 72.1475 67.4545 72.0339 67.4545 71.9154Z" fill="#BB924A"/>
<path d="M66.5586 71.9154C66.5586 72.0339 66.6057 72.1475 66.6894 72.2312C66.7732 72.315 66.8868 72.362 67.0053 72.362V71.4688C66.8868 71.4688 66.7732 71.5158 66.6894 71.5996C66.6057 71.6833 66.5586 71.7969 66.5586 71.9154Z" fill="#D1A149"/>
<path d="M66.9996 120.22C59.815 120.22 52.8452 118.813 46.2837 116.037C33.5264 110.628 23.3709 100.473 17.9619 87.7156C15.1863 81.1541 13.7793 74.1843 13.7793 66.9996C13.7793 59.815 15.1863 52.8452 17.9619 46.2837C23.371 33.5265 33.5265 23.371 46.2837 17.9619C52.8452 15.1863 59.815 13.7793 66.9996 13.7793C74.1843 13.7793 81.154 15.1863 87.7156 17.9619C100.473 23.371 110.628 33.5265 116.037 46.2837C118.813 52.8452 120.22 59.815 120.22 66.9996C120.22 74.1843 118.813 81.1541 116.037 87.7156C110.628 100.473 100.473 110.628 87.7156 116.037C81.154 118.813 74.1843 120.22 66.9996 120.22ZM66.9996 14.5418C38.0744 14.5418 14.5418 38.0744 14.5418 66.9996C14.5418 95.9249 38.0744 119.457 66.9996 119.457C95.9249 119.457 119.457 95.9249 119.457 66.9996C119.457 38.0744 95.9249 14.5418 66.9996 14.5418Z" fill="#BFE0E9"/>
<path d="M112.841 61.0623L109.148 61.5598L111.334 77.7738L115.027 77.2763C115.363 77.231 115.687 77.1199 115.98 76.9493C116.274 76.7788 116.53 76.5522 116.736 76.2823C116.942 76.0125 117.092 75.7048 117.179 75.3768C117.266 75.0488 117.287 74.7069 117.242 74.3707L115.746 63.2759C115.654 62.5972 115.297 61.9827 114.752 61.5675C114.207 61.1524 113.519 60.9707 112.841 61.0623Z" fill="white"/>
<path d="M105.588 62.0396C104.909 62.1313 104.294 62.4885 103.879 63.0329C103.464 63.5773 103.282 64.2643 103.372 64.943L104.868 76.0377C104.96 76.7168 105.318 77.3316 105.862 77.747C106.407 78.1624 107.095 78.3443 107.774 78.2528L111.336 77.7726L109.15 61.5586L105.588 62.0396Z" fill="#E7E7E8"/>
<path d="M114.37 63.9573C114.378 64.0142 114.363 64.0719 114.328 64.1176C114.293 64.1633 114.241 64.1934 114.184 64.2011L104.942 65.4473C104.885 65.4551 104.827 65.4399 104.781 65.405C104.735 65.3702 104.705 65.3186 104.697 65.2615C104.69 65.2045 104.705 65.1468 104.74 65.101C104.775 65.0553 104.826 65.0253 104.883 65.0177L114.126 63.7714C114.183 63.7638 114.241 63.7791 114.287 63.8139C114.332 63.8488 114.362 63.9003 114.37 63.9573Z" fill="#C1C1C3"/>
<path d="M114.597 65.6389C114.604 65.6959 114.589 65.7535 114.554 65.7993C114.519 65.845 114.468 65.875 114.411 65.8828L105.168 67.129C105.111 67.1367 105.053 67.1215 105.007 67.0866C104.962 67.0518 104.932 67.0002 104.924 66.9431C104.916 66.8861 104.932 66.8284 104.966 66.7827C105.001 66.7369 105.053 66.7069 105.11 66.6993L114.353 65.4531C114.41 65.4455 114.468 65.4607 114.513 65.4956C114.559 65.5304 114.589 65.582 114.597 65.6389Z" fill="#C1C1C3"/>
<path d="M114.821 67.3186C114.829 67.3756 114.814 67.4332 114.779 67.4789C114.744 67.5247 114.693 67.5547 114.636 67.5625L105.393 68.8087C105.336 68.8164 105.278 68.8012 105.232 68.7664C105.186 68.7315 105.156 68.6799 105.148 68.6229C105.141 68.5658 105.156 68.5081 105.191 68.4624C105.226 68.4166 105.278 68.3866 105.335 68.379L114.578 67.1328C114.634 67.1252 114.692 67.1404 114.738 67.1753C114.784 67.2101 114.814 67.2616 114.821 67.3186Z" fill="#C1C1C3"/>
<path d="M115.05 68.9983C115.058 69.0552 115.042 69.1129 115.007 69.1586C114.973 69.2044 114.921 69.2344 114.864 69.2422L105.621 70.4884C105.564 70.4961 105.506 70.4809 105.461 70.4461C105.415 70.4112 105.385 70.3596 105.377 70.3026C105.369 70.2455 105.385 70.1878 105.42 70.1421C105.454 70.0963 105.506 70.0663 105.563 70.0587L114.806 68.8125C114.863 68.8048 114.921 68.8201 114.966 68.855C115.012 68.8898 115.042 68.9413 115.05 68.9983Z" fill="#C1C1C3"/>
<path d="M115.275 70.678C115.282 70.7349 115.267 70.7926 115.232 70.8383C115.197 70.884 115.146 70.9141 115.089 70.9218L105.846 72.168C105.789 72.1758 105.731 72.1605 105.685 72.1257C105.639 72.0909 105.609 72.0392 105.602 71.9822C105.594 71.9252 105.609 71.8674 105.644 71.8217C105.679 71.776 105.731 71.746 105.788 71.7383L115.031 70.4922C115.088 70.4845 115.145 70.4998 115.191 70.5346C115.237 70.5695 115.267 70.621 115.275 70.678Z" fill="#C1C1C3"/>
<path d="M115.503 72.3596C115.51 72.4166 115.495 72.4742 115.46 72.5199C115.425 72.5657 115.374 72.5957 115.317 72.6035L106.074 73.8497C106.017 73.8573 105.959 73.842 105.914 73.8072C105.868 73.7723 105.838 73.7208 105.83 73.6639C105.822 73.6068 105.838 73.5491 105.873 73.5034C105.908 73.4576 105.959 73.4276 106.016 73.42L115.259 72.1738C115.316 72.1662 115.374 72.1815 115.42 72.2164C115.465 72.2514 115.495 72.303 115.503 72.36L115.503 72.3596Z" fill="#C1C1C3"/>
<path d="M115.728 74.0378C115.735 74.0948 115.72 74.1524 115.685 74.1981C115.65 74.2439 115.599 74.2739 115.542 74.2817L106.299 75.5279C106.271 75.5317 106.242 75.5299 106.214 75.5226C106.187 75.5153 106.161 75.5027 106.138 75.4854C106.115 75.4681 106.096 75.4465 106.082 75.4218C106.068 75.3971 106.058 75.3699 106.055 75.3416C106.047 75.2846 106.062 75.2268 106.097 75.1811C106.132 75.1354 106.184 75.1054 106.241 75.0977L115.484 73.8515C115.541 73.8439 115.598 73.8592 115.644 73.894C115.69 73.9289 115.72 73.9804 115.728 74.0373V74.0378Z" fill="#C1C1C3"/>
<path d="M115.954 75.719C115.962 75.776 115.947 75.8336 115.912 75.8793C115.877 75.9251 115.825 75.9551 115.768 75.9629L106.526 77.2091C106.468 77.2168 106.411 77.2016 106.365 77.1668C106.319 77.1319 106.289 77.0803 106.281 77.0233C106.274 76.9662 106.289 76.9085 106.324 76.8628C106.359 76.817 106.41 76.787 106.467 76.7794L115.71 75.5332C115.767 75.5255 115.825 75.5408 115.871 75.5757C115.916 75.6105 115.946 75.662 115.954 75.719Z" fill="#C1C1C3"/>
<path d="M105.969 62.851C106.177 62.823 106.323 62.6316 106.294 62.4235C106.266 62.2155 106.075 62.0696 105.867 62.0976C105.659 62.1257 105.513 62.3171 105.541 62.5251C105.569 62.7332 105.76 62.8791 105.969 62.851Z" fill="#666769"/>
<path d="M107.261 62.6753C107.47 62.6472 107.615 62.4558 107.587 62.2478C107.559 62.0397 107.368 61.8938 107.16 61.9219C106.952 61.9499 106.806 62.1413 106.834 62.3494C106.862 62.5574 107.053 62.7033 107.261 62.6753Z" fill="#666769"/>
<path d="M108.531 62.5073C108.739 62.4792 108.885 62.2878 108.857 62.0798C108.829 61.8717 108.637 61.7258 108.429 61.7539C108.221 61.7819 108.075 61.9733 108.104 62.1814C108.132 62.3894 108.323 62.5354 108.531 62.5073Z" fill="#666769"/>
<path d="M109.855 62.3296C110.063 62.3015 110.209 62.1101 110.181 61.9021C110.153 61.694 109.962 61.5481 109.754 61.5762C109.546 61.6042 109.4 61.7956 109.428 62.0037C109.456 62.2117 109.647 62.3576 109.855 62.3296Z" fill="#666769"/>
<path d="M111.105 62.1577C111.313 62.1296 111.459 61.9382 111.431 61.7302C111.403 61.5221 111.212 61.3762 111.004 61.4043C110.796 61.4323 110.65 61.6237 110.678 61.8318C110.706 62.0398 110.897 62.1857 111.105 62.1577Z" fill="#666769"/>
<path d="M112.053 62.3301C112.261 62.3029 112.407 62.1123 112.38 61.9044C112.353 61.6966 112.162 61.5502 111.954 61.5775C111.747 61.6048 111.6 61.7954 111.628 62.0033C111.655 62.2111 111.845 62.3574 112.053 62.3301Z" fill="#666769"/>
<path d="M106.181 62.3064C106.186 62.3435 106.184 62.3812 106.174 62.4173C106.165 62.4535 106.148 62.4874 106.125 62.5172C106.103 62.5469 106.074 62.5719 106.042 62.5907C106.009 62.6095 105.974 62.6217 105.937 62.6266C105.9 62.6317 105.862 62.6293 105.826 62.6198C105.79 62.6103 105.756 62.5937 105.726 62.5711C105.696 62.5484 105.671 62.5201 105.652 62.4878C105.634 62.4555 105.621 62.4198 105.616 62.3828L105.522 61.6842C105.517 61.6471 105.519 61.6095 105.529 61.5733C105.538 61.5372 105.555 61.5032 105.578 61.4735C105.6 61.4438 105.629 61.4188 105.661 61.4C105.693 61.3812 105.729 61.3689 105.766 61.3639C105.803 61.3589 105.841 61.3612 105.877 61.3708C105.913 61.3803 105.947 61.3969 105.977 61.4196C106.007 61.4423 106.032 61.4707 106.05 61.503C106.069 61.5354 106.081 61.5711 106.086 61.6082L106.181 62.3064Z" fill="#C1C1C3"/>
<path d="M107.474 62.1306C107.479 62.1677 107.477 62.2054 107.467 62.2416C107.457 62.2777 107.441 62.3117 107.418 62.3414C107.395 62.3712 107.367 62.3962 107.335 62.4149C107.302 62.4337 107.267 62.4459 107.23 62.4509C107.193 62.4559 107.155 62.4536 107.119 62.4441C107.083 62.4345 107.049 62.4179 107.019 62.3953C106.989 62.3727 106.964 62.3444 106.945 62.3121C106.927 62.2797 106.914 62.244 106.909 62.207L106.815 61.5084C106.81 61.4713 106.812 61.4337 106.822 61.3975C106.831 61.3614 106.848 61.3275 106.871 61.2977C106.893 61.268 106.922 61.243 106.954 61.2242C106.986 61.2054 107.022 61.1931 107.059 61.1881C107.096 61.1831 107.134 61.1854 107.17 61.195C107.206 61.2046 107.24 61.2212 107.27 61.2439C107.3 61.2666 107.325 61.2949 107.343 61.3273C107.362 61.3596 107.374 61.3954 107.379 61.4325L107.474 62.1306Z" fill="#C1C1C3"/>
<path d="M108.743 61.9607C108.748 61.9977 108.746 62.0354 108.736 62.0715C108.727 62.1077 108.71 62.1416 108.687 62.1714C108.665 62.2011 108.636 62.2261 108.604 62.2449C108.572 62.2637 108.536 62.2759 108.499 62.2809C108.424 62.291 108.349 62.2709 108.289 62.2252C108.229 62.1795 108.189 62.1118 108.179 62.0371L108.085 61.3385C108.08 61.3014 108.082 61.2637 108.091 61.2275C108.101 61.1913 108.118 61.1574 108.14 61.1277C108.163 61.0979 108.191 61.0729 108.224 61.0541C108.256 61.0354 108.292 61.0232 108.329 61.0182C108.366 61.0132 108.404 61.0155 108.44 61.0251C108.476 61.0346 108.51 61.0512 108.54 61.0739C108.569 61.0966 108.594 61.125 108.613 61.1573C108.632 61.1897 108.644 61.2255 108.649 61.2625L108.743 61.9607Z" fill="#C1C1C3"/>
<path d="M110.068 61.7829C110.073 61.8199 110.07 61.8577 110.061 61.8938C110.051 61.93 110.035 61.9639 110.012 61.9937C109.989 62.0234 109.961 62.0484 109.929 62.0672C109.896 62.086 109.86 62.0982 109.823 62.1031C109.786 62.1082 109.749 62.1058 109.712 62.0963C109.676 62.0868 109.642 62.0702 109.613 62.0476C109.583 62.0249 109.558 61.9966 109.539 61.9643C109.52 61.932 109.508 61.8963 109.503 61.8593L109.409 61.1607C109.404 61.1236 109.406 61.086 109.416 61.0498C109.425 61.0137 109.442 60.9798 109.464 60.95C109.487 60.9203 109.515 60.8953 109.548 60.8765C109.58 60.8577 109.616 60.8454 109.653 60.8404C109.728 60.8304 109.803 60.8505 109.863 60.8963C109.923 60.9421 109.963 61.0099 109.973 61.0847L110.068 61.7829Z" fill="#C1C1C3"/>
<path d="M111.318 61.6149C111.323 61.652 111.32 61.6897 111.311 61.7259C111.301 61.762 111.285 61.796 111.262 61.8257C111.239 61.8555 111.211 61.8804 111.179 61.8992C111.146 61.918 111.11 61.9302 111.073 61.9352C111.036 61.9402 110.999 61.9379 110.962 61.9283C110.926 61.9188 110.892 61.9022 110.863 61.8796C110.833 61.8569 110.808 61.8287 110.789 61.7963C110.77 61.764 110.758 61.7283 110.753 61.6913L110.659 60.9927C110.654 60.9556 110.656 60.9179 110.666 60.8817C110.675 60.8456 110.692 60.8116 110.715 60.7819C110.737 60.7522 110.766 60.7272 110.798 60.7084C110.83 60.6896 110.866 60.6774 110.903 60.6724C110.978 60.6624 111.054 60.6825 111.114 60.7283C111.174 60.7741 111.213 60.8419 111.223 60.9168L111.318 61.6149Z" fill="#C1C1C3"/>
<path d="M112.605 61.4411C112.61 61.4782 112.607 61.5159 112.598 61.5521C112.588 61.5883 112.572 61.6222 112.549 61.6519C112.526 61.6817 112.498 61.7067 112.466 61.7255C112.433 61.7442 112.398 61.7564 112.36 61.7614C112.323 61.7664 112.286 61.7641 112.25 61.7546C112.213 61.745 112.18 61.7285 112.15 61.7058C112.12 61.6832 112.095 61.6549 112.076 61.6226C112.057 61.5903 112.045 61.5546 112.04 61.5175L111.946 60.8189C111.941 60.7819 111.943 60.7442 111.953 60.7081C111.962 60.6719 111.979 60.638 112.002 60.6083C112.024 60.5785 112.052 60.5535 112.085 60.5347C112.117 60.5159 112.153 60.5037 112.19 60.4987C112.227 60.4936 112.265 60.496 112.301 60.5055C112.337 60.5151 112.371 60.5317 112.401 60.5544C112.43 60.5771 112.455 60.6054 112.474 60.6378C112.493 60.6702 112.505 60.7059 112.51 60.743L112.605 61.4411Z" fill="#C1C1C3"/>
<path d="M116.457 67.0961C116.365 67.1986 116.236 67.2604 116.099 67.2679C115.961 67.2753 115.826 67.2278 115.724 67.1359L115.442 66.8831C115.339 66.7911 115.278 66.6622 115.27 66.5248C115.263 66.3874 115.31 66.2526 115.402 66.1501L115.655 65.8678C115.701 65.817 115.756 65.7758 115.817 65.7463C115.879 65.7168 115.945 65.6998 116.014 65.6961C116.082 65.6924 116.15 65.7021 116.214 65.7248C116.278 65.7474 116.338 65.7825 116.388 65.828L116.67 66.0808C116.721 66.1263 116.762 66.1814 116.792 66.2428C116.821 66.3043 116.838 66.3709 116.842 66.439C116.846 66.5071 116.836 66.5752 116.813 66.6395C116.791 66.7038 116.756 66.7631 116.71 66.8138L116.457 67.0961Z" fill="#738E98"/>
<path d="M109.236 74.0992L109.695 73.8892L109.392 73.6172L109.236 74.0992Z" fill="#262929"/>
<path d="M109.799 72.3516L109.391 73.6161L109.693 73.8881L110.897 73.3356L109.799 72.3516Z" fill="#EDBC62"/>
<path d="M115.635 66.959L110.385 72.8143C110.538 72.7223 110.742 72.6871 110.864 72.7956C111.007 72.9242 111.008 73.1529 110.882 73.3271L110.894 73.3374L116.178 67.4459L115.635 66.959Z" fill="#BB6A60"/>
<path d="M115.082 66.4648L109.799 72.3573L109.802 72.3599C109.963 72.2045 110.199 72.1772 110.346 72.309C110.475 72.4251 110.459 72.6574 110.369 72.8236C110.374 72.8206 110.379 72.8179 110.384 72.8155L115.635 66.9602L115.082 66.4648Z" fill="#D77568"/>
<path d="M110.878 72.8008C110.752 72.6874 110.56 72.6923 110.406 72.7924C110.495 72.624 110.485 72.4252 110.354 72.3082C110.206 72.1742 109.968 72.2023 109.805 72.36L110.341 72.8419L110.361 72.8602L110.895 73.3386C111.024 73.1631 111.023 72.9308 110.878 72.8008Z" fill="#EDBC62"/>
<path d="M115.338 66.176L115.084 66.459L116.168 67.4308L116.422 67.1477L115.338 66.176Z" fill="#B7924B"/>
<path d="M116.327 67.3251C116.317 67.3358 116.303 67.3423 116.289 67.343C116.274 67.3438 116.26 67.3388 116.249 67.3291L115.196 66.383C115.185 66.3733 115.179 66.3597 115.178 66.3451C115.177 66.3306 115.182 66.3163 115.192 66.3053C115.196 66.2999 115.202 66.2956 115.209 66.2925C115.215 66.2894 115.222 66.2876 115.23 66.2872C115.237 66.2868 115.244 66.2879 115.251 66.2903C115.258 66.2927 115.264 66.2965 115.269 66.3013L116.324 67.2473C116.33 67.2521 116.334 67.258 116.337 67.2645C116.34 67.271 116.342 67.2781 116.343 67.2853C116.343 67.2925 116.342 67.2997 116.34 67.3066C116.337 67.3134 116.334 67.3197 116.329 67.3251H116.327Z" fill="#E0B14B"/>
<path d="M116.208 67.4672C116.203 67.4726 116.197 67.477 116.19 67.4802C116.184 67.4833 116.177 67.4852 116.17 67.4856C116.162 67.486 116.155 67.485 116.148 67.4826C116.142 67.4802 116.135 67.4765 116.13 67.4717L115.075 66.5256C115.069 66.5208 115.065 66.515 115.062 66.5084C115.059 66.5019 115.057 66.4948 115.057 66.4876C115.056 66.4804 115.057 66.4732 115.06 66.4664C115.062 66.4596 115.066 66.4533 115.071 66.4479C115.081 66.4371 115.094 66.4306 115.109 66.4298C115.123 66.4289 115.137 66.4339 115.148 66.4435L116.204 67.3895C116.214 67.3993 116.221 67.413 116.222 67.4275C116.222 67.4421 116.217 67.4563 116.208 67.4672Z" fill="#E0B14B"/>
<path d="M32.5225 77.0256C32.3209 76.8255 32.0678 76.6851 31.7913 76.62L13.1323 72.4214C12.7631 72.3426 12.3778 72.3992 12.0469 72.5808L19.8801 81.9501L19.9122 81.9684L19.8729 81.9818L20.5594 82.8028L21.5506 82.3258L21.522 82.2967H21.5577L32.5225 77.0256Z" fill="#BB6A60"/>
<path d="M12.0391 72.6133C12.0391 72.6133 23.0476 65.8981 24.3742 66.1951C25.7008 66.4922 32.5169 77.0558 32.5169 77.0558L12.0391 72.6133Z" fill="#BB6A60"/>
<path d="M16.4741 71.0031L13.0254 86.3438L26.1745 89.2998L29.6232 73.9591L16.4741 71.0031Z" fill="white"/>
<path d="M17.1055 72.5421L16.9512 73.2285L28.2416 75.7667L28.3959 75.0804L17.1055 72.5421Z" fill="#F4CA6E"/>
<path d="M16.3985 75.6989L16.2441 76.3848L27.5341 78.9249L27.6885 78.239L16.3985 75.6989Z" fill="#F4CA6E"/>
<path d="M16.752 74.1144L16.5977 74.8008L27.8881 77.339L28.0424 76.6526L16.752 74.1144Z" fill="#F4CA6E"/>
<path d="M16.0469 77.2711L15.8926 77.957L27.1826 80.4972L27.3369 79.8113L16.0469 77.2711Z" fill="#F4CA6E"/>
<path d="M15.7148 78.7281L15.5605 79.4141L26.851 81.9523L27.0052 81.2663L15.7148 78.7281Z" fill="#F4CA6E"/>
<path d="M15.3613 80.3126L15.207 80.998L26.497 83.5382L26.6513 82.8528L15.3613 80.3126Z" fill="#F4CA6E"/>
<path d="M19.4331 81.4581L19.1973 81.1758L19.4318 81.4563L19.4331 81.4581Z" fill="#84B8C6"/>
<path d="M17 78.5469L19.198 81.1746L17 78.5469Z" fill="#7498AE"/>
<path d="M19.4344 81.4574L19.1999 81.1765L17.0023 78.5488L12.0443 72.6152C11.5592 72.8712 11.1679 73.3594 11.0277 73.982L8.69742 84.3447C8.57842 84.8516 8.65464 85.3847 8.91093 85.8379L17.4043 82.8551L19.877 81.9867L19.4344 81.4574Z" fill="#E6B147"/>
<path d="M32.518 77.0566L24.3172 80.9998L22.5832 81.8337L21.6997 82.2581L21.5527 82.3278L23.8124 84.6013L29.7803 90.6036C30.0145 90.458 30.217 90.2668 30.3756 90.0412C30.5343 89.8157 30.6458 89.5605 30.7036 89.2908L33.0339 78.9282C33.1955 78.2023 32.9722 77.4966 32.518 77.0566Z" fill="#E6B147"/>
<path d="M23.8097 84.6022L21.55 82.3286L21.697 82.259C21.6881 82.2621 20.9042 82.5346 20.5629 82.4577C20.2217 82.3809 19.4382 81.4652 19.4337 81.459L19.8728 81.9852L17.4001 82.8535L8.90625 85.8354C9.13226 86.2276 9.49183 86.5211 9.93894 86.6216L28.598 90.818C29.0107 90.9109 29.4221 90.818 29.7776 90.6045L23.8097 84.6022Z" fill="#CF9C51"/>
<path d="M65.1567 28.5366C65.1567 37.4645 57.9207 44.7014 48.9936 44.7014C40.0665 44.7014 32.8301 37.4645 32.8301 28.5366C32.8301 19.6086 40.0661 12.373 48.9936 12.373C57.9211 12.373 65.1567 19.609 65.1567 28.5366Z" fill="#BB6A60"/>
<path d="M62.4488 28.5379C62.4488 35.9686 56.4246 41.9937 48.992 41.9937C41.5595 41.9937 35.5371 35.9682 35.5371 28.5379C35.5371 21.1076 41.5613 15.082 48.992 15.082C56.4228 15.082 62.4488 21.1062 62.4488 28.5379Z" fill="#F2F2F4"/>
<path d="M48.9935 42.1899C41.4641 42.1899 35.3398 36.0644 35.3398 28.5367C35.3398 21.009 41.4636 14.8848 48.9935 14.8848C56.5234 14.8848 62.6459 21.009 62.6459 28.5367C62.6459 36.0644 56.5212 42.1899 48.9935 42.1899ZM48.9935 15.7473C41.942 15.7495 36.2046 21.4852 36.2046 28.5367C36.2046 35.5882 41.942 41.3252 48.9935 41.3252C56.0451 41.3252 61.7821 35.5882 61.7821 28.5367C61.7821 21.4852 56.0451 15.7495 48.9935 15.7495V15.7473Z" fill="#535967"/>
<path d="M49.5458 15.4688H48.4395V18.7241H49.5458V15.4688Z" fill="#535967"/>
<path d="M49.5458 38.3496H48.4395V41.6058H49.5458V38.3496Z" fill="#535967"/>
<path d="M62.0609 27.9844H58.8047V29.0908H62.0609V27.9844Z" fill="#535967"/>
<path d="M39.1796 27.9844H35.9238V29.0908H39.1796V27.9844Z" fill="#535967"/>
<path d="M56.2646 27.6651L49.9702 27.8719C49.823 27.6517 49.6055 27.4881 49.3532 27.4078C49.1009 27.3274 48.8288 27.3352 48.5815 27.4297L42.7748 20.815C42.7003 20.7343 42.5973 20.686 42.4876 20.6803C42.378 20.6745 42.2705 20.7119 42.188 20.7843C42.1055 20.8568 42.0546 20.9586 42.0462 21.0681C42.0377 21.1775 42.0724 21.286 42.1428 21.3702L47.9517 27.9862C47.8142 28.2575 47.7871 28.5715 47.8759 28.8623C47.9647 29.1532 48.1627 29.3984 48.4282 29.5466C48.6938 29.6947 49.0064 29.7344 49.3005 29.6573C49.5947 29.5802 49.8476 29.3922 50.0064 29.1328L56.3044 28.9242C56.3872 28.9217 56.4687 28.9029 56.5443 28.8688C56.6198 28.8347 56.6879 28.7861 56.7447 28.7257C56.8014 28.6653 56.8457 28.5943 56.875 28.5168C56.9043 28.4393 56.918 28.3567 56.9154 28.2739C56.9047 27.9268 56.6286 27.6745 56.2646 27.6651Z" fill="#535967"/>
<path d="M16.0801 43.1259L28.4335 44.0987L29.7749 27.0642L17.4214 26.0918" fill="#F9FCFF"/>
<path d="M22.8382 38.4682L22.8105 38.8379L28.1209 39.2353L28.1485 38.8656L22.8382 38.4682Z" fill="#848186"/>
<path d="M22.7952 39.0424L22.7676 39.4121L28.0779 39.8095L28.1056 39.4398L22.7952 39.0424Z" fill="#848186"/>
<path d="M22.7523 39.6166L22.7246 39.9863L28.0349 40.3838L28.0626 40.014L22.7523 39.6166Z" fill="#848186"/>
<path d="M22.7093 40.1889L22.6816 40.5586L27.9919 40.956L28.0196 40.5863L22.7093 40.1889Z" fill="#848186"/>
<path d="M22.6663 40.7631L22.6387 41.1328L27.949 41.5302L27.9767 41.1605L22.6663 40.7631Z" fill="#848186"/>
<path d="M22.6234 41.3373L22.5957 41.707L27.906 42.1044L27.9337 41.7348L22.6234 41.3373Z" fill="#848186"/>
<path d="M22.5804 41.9096L22.5527 42.2793L27.863 42.6767L27.8907 42.307L22.5804 41.9096Z" fill="#848186"/>
<path d="M22.5374 42.4838L22.5098 42.8535L27.8201 43.2509L27.8477 42.8812L22.5374 42.4838Z" fill="#848186"/>
<path d="M16.9515 38.0287L16.9238 38.3984L22.2341 38.7958L22.2618 38.4262L16.9515 38.0287Z" fill="#848186"/>
<path d="M16.9066 38.601L16.8789 38.9707L22.1892 39.3681L22.2169 38.9984L16.9066 38.601Z" fill="#848186"/>
<path d="M16.8636 39.1752L16.8359 39.5449L22.1463 39.9423L22.1739 39.5726L16.8636 39.1752Z" fill="#848186"/>
<path d="M16.8345 39.5199L16.8086 39.8906L22.1338 40.2634L22.1597 39.8927L16.8345 39.5199Z" fill="#848186"/>
<path d="M16.7777 40.3237L16.75 40.6934L22.0603 41.0908L22.088 40.7211L16.7777 40.3237Z" fill="#848186"/>
<path d="M16.7367 40.8959L16.709 41.2656L22.0193 41.6631L22.047 41.2933L16.7367 40.8959Z" fill="#848186"/>
<path d="M16.7115 41.2347L16.6855 41.6055L22.0107 41.9782L22.0367 41.6075L16.7115 41.2347Z" fill="#848186"/>
<path d="M16.6488 42.0444L16.6211 42.4141L21.9314 42.8115L21.9591 42.4418L16.6488 42.0444Z" fill="#848186"/>
<path d="M21.6316 35.9612L21.5684 36.8066L22.5461 36.8798L22.6093 36.0344L21.6316 35.9612Z" fill="#CADA67"/>
<path d="M21.5379 37.1898L21.4746 38.0352L22.4519 38.1083L22.5151 37.2629L21.5379 37.1898Z" fill="#E5B665"/>
<path d="M25.6527 36.5257L25.627 36.8691L26.7761 36.9551L26.8018 36.6117L25.6527 36.5257Z" fill="#BCBCBE"/>
<path d="M25.5569 37.7942L25.5332 38.1113L26.6824 38.1973L26.7061 37.8802L25.5569 37.7942Z" fill="#BCBCBE"/>
<path d="M20.0511 36.1078L20.0254 36.4512L21.1746 36.5372L21.2003 36.1938L20.0511 36.1078Z" fill="#BCBCBE"/>
<path d="M19.9554 37.3762L19.9316 37.6934L21.0808 37.7794L21.1046 37.4622L19.9554 37.3762Z" fill="#BCBCBE"/>
<path d="M17.348 31.8158L17.3203 32.1855L28.5855 33.0286L28.6131 32.6589L17.348 31.8158Z" fill="#848186"/>
<path d="M17.3031 32.4135L17.2754 32.7832L28.5405 33.6263L28.5682 33.2566L17.3031 32.4135Z" fill="#848186"/>
<path d="M17.2581 33.0131L17.2305 33.3828L28.4956 34.2259L28.5233 33.8562L17.2581 33.0131Z" fill="#848186"/>
<path d="M17.2132 33.6123L17.1855 33.9824L28.4507 34.8255L28.4784 34.4554L17.2132 33.6123Z" fill="#848186"/>
<path d="M17.1683 34.2123L17.1406 34.582L28.4058 35.4251L28.4334 35.0554L17.1683 34.2123Z" fill="#848186"/>
<path d="M17.1002 34.6097L17.0742 34.9805L28.3709 35.7712L28.3968 35.4005L17.1002 34.6097Z" fill="#848186"/>
<path d="M18.3164 29.6511L27.7286 30.372L27.7563 30.0022L18.3441 29.2812L18.3164 29.6511Z" fill="#848186"/>
<path d="M18.2734 30.2253L27.6856 30.9467L27.7133 30.5768L18.3007 29.8555L18.2734 30.2253Z" fill="#848186"/>
<path d="M18.2305 30.7991L27.6431 31.5205L27.6708 31.1506L18.2582 30.4297L18.2305 30.7991Z" fill="#848186"/>
<path d="M18.1875 31.3718L27.6001 32.0927L27.6278 31.7233L18.2152 31.002L18.1875 31.3718Z" fill="#848186"/>
<path d="M17.7445 27.3295L17.7168 27.6992L28.9819 28.5423L29.0096 28.1726L17.7445 27.3295Z" fill="#848186"/>
<path d="M17.6995 27.9291L17.6719 28.2988L28.937 29.1419L28.9647 28.7722L17.6995 27.9291Z" fill="#848186"/>
<path d="M23.3419 57.166L23.1855 57.4238L26.8858 59.6683L27.0421 59.4105L23.3419 57.166Z" fill="#848186"/>
<path d="M23.0997 57.5645L22.9434 57.8223L26.6436 60.0668L26.8 59.809L23.0997 57.5645Z" fill="#848186"/>
<path d="M22.8556 57.9649L22.6992 58.2227L26.3995 60.4671L26.5558 60.2094L22.8556 57.9649Z" fill="#848186"/>
<path d="M22.6153 58.3633L22.459 58.6211L26.1592 60.8656L26.3156 60.6078L22.6153 58.3633Z" fill="#848186"/>
<path d="M22.3732 58.7637L22.2168 59.0215L25.917 61.266L26.0734 61.0082L22.3732 58.7637Z" fill="#848186"/>
<path d="M22.129 59.166L21.9727 59.4238L25.6729 61.6683L25.8293 61.4105L22.129 59.166Z" fill="#848186"/>
<path d="M21.8868 59.5625L21.7305 59.8203L25.4307 62.0648L25.5871 61.807L21.8868 59.5625Z" fill="#848186"/>
<path d="M21.3814 60.1617L21.2246 60.418L24.9032 62.6684L25.06 62.4121L21.3814 60.1617Z" fill="#848186"/>
<path d="M19.2403 54.6758L19.084 54.9336L22.7846 57.1783L22.941 56.9205L19.2403 54.6758Z" fill="#848186"/>
<path d="M18.9962 55.0762L18.8398 55.334L22.5405 57.5787L22.6968 57.3209L18.9962 55.0762Z" fill="#848186"/>
<path d="M18.754 55.4766L18.5977 55.7344L22.2983 57.9791L22.4546 57.7213L18.754 55.4766Z" fill="#848186"/>
<path d="M18.5118 55.875L18.3555 56.1328L22.0561 58.3775L22.2125 58.1197L18.5118 55.875Z" fill="#848186"/>
<path d="M18.2677 56.2754L18.1113 56.5332L21.8119 58.7779L21.9683 58.5201L18.2677 56.2754Z" fill="#848186"/>
<path d="M18.0275 56.6758L17.8711 56.9336L21.5717 59.1783L21.7281 58.9205L18.0275 56.6758Z" fill="#848186"/>
<path d="M17.7853 57.0742L17.6289 57.332L21.3291 59.5765L21.4855 59.3187L17.7853 57.0742Z" fill="#848186"/>
<path d="M17.5431 57.4746L17.3867 57.7324L21.0873 59.9771L21.2437 59.7193L17.5431 57.4746Z" fill="#848186"/>
<path d="M23.3926 54.9049L23.0352 55.4941L23.7165 55.9074L24.0739 55.3181L23.3926 54.9049Z" fill="#CADA67"/>
<path d="M22.871 55.7705L22.5137 56.3594L23.1949 56.7728L23.5522 56.1839L22.871 55.7705Z" fill="#E5B665"/>
<path d="M26.0964 56.7957L25.9512 57.0352L26.752 57.5209L26.8973 57.2815L26.0964 56.7957Z" fill="#BCBCBE"/>
<path d="M25.5599 57.6871L25.4258 57.9082L26.2265 58.3941L26.3607 58.173L25.5599 57.6871Z" fill="#BCBCBE"/>
<path d="M22.1941 54.4266L22.0488 54.666L22.8497 55.1518L22.9949 54.9123L22.1941 54.4266Z" fill="#BCBCBE"/>
<path d="M21.4116 55.4973L21.2773 55.7168L22.0735 56.2039L22.2078 55.9844L21.4116 55.4973Z" fill="#BCBCBE"/>
<path d="M21.8165 50.3223L21.6602 50.5801L29.5101 55.3417L29.6665 55.0839L21.8165 50.3223Z" fill="#848186"/>
<path d="M21.5626 50.7403L21.4062 50.998L29.2562 55.7596L29.4126 55.5019L21.5626 50.7403Z" fill="#848186"/>
<path d="M21.0982 51.3511L20.9414 51.6074L28.7455 56.3817L28.9022 56.1254L21.0982 51.3511Z" fill="#848186"/>
<path d="M20.8423 51.7691L20.6855 52.0254L28.4896 56.7996L28.6464 56.5434L20.8423 51.7691Z" fill="#848186"/>
<path d="M20.8028 51.9922L20.6465 52.25L28.4965 57.0116L28.6528 56.7538L20.8028 51.9922Z" fill="#848186"/>
<path d="M20.3326 52.6011L20.1758 52.8574L27.9798 57.6317L28.1366 57.3754L20.3326 52.6011Z" fill="#848186"/>
<path d="M23.3164 49.1171L29.8686 53.1085L30.0249 52.8508L23.4727 48.8594L23.3164 49.1171Z" fill="#848186"/>
<path d="M23.0742 49.5175L29.6264 53.5089L29.7827 53.2512L23.2306 49.2598L23.0742 49.5175Z" fill="#848186"/>
<path d="M22.8301 49.9159L29.3822 53.9073L29.5386 53.6496L22.9864 49.6582L22.8301 49.9159Z" fill="#848186"/>
<path d="M22.5879 50.3163L29.14 54.3077L29.2964 54.05L22.7442 50.0586L22.5879 50.3163Z" fill="#848186"/>
<path d="M23.7577 47.2206L23.6016 47.4785L30.3296 51.5516L30.4858 51.2937L23.7577 47.2206Z" fill="#848186"/>
<path d="M23.5038 47.6405L23.3477 47.8984L30.0834 51.9761L30.2395 51.7182L23.5038 47.6405Z" fill="#848186"/>
<path d="M82.5988 9.36963L70.4141 13.3457L75.8591 30.0322L88.0438 26.0561L82.5988 9.36963Z" fill="white"/>
<path d="M80.2121 23.4197L74.9648 25.1055L75.0814 25.4682L80.3287 23.7825L80.2121 23.4197Z" fill="#848186"/>
<path d="M80.3918 23.9822L75.1445 25.668L75.2611 26.0307L80.5083 24.345L80.3918 23.9822Z" fill="#848186"/>
<path d="M80.5735 24.5447L75.3262 26.2305L75.4428 26.5936L80.6902 24.9079L80.5735 24.5447Z" fill="#848186"/>
<path d="M80.7551 25.1092L75.5078 26.7949L75.6245 27.1581L80.8718 25.4724L80.7551 25.1092Z" fill="#848186"/>
<path d="M80.9348 25.6717L75.6875 27.3574L75.8042 27.7206L81.0515 26.0349L80.9348 25.6717Z" fill="#848186"/>
<path d="M81.1164 26.2342L75.8691 27.9199L75.9857 28.2827L81.233 26.5969L81.1164 26.2342Z" fill="#848186"/>
<path d="M81.2981 26.7986L76.0508 28.4844L76.1675 28.8475L81.4147 27.1618L81.2981 26.7986Z" fill="#848186"/>
<path d="M81.4777 27.3611L76.2305 29.0469L76.347 29.4096L81.5943 27.7239L81.4777 27.3611Z" fill="#848186"/>
<path d="M86.029 21.5505L80.7812 23.2363L80.8978 23.5991L86.1455 21.9132L86.029 21.5505Z" fill="#848186"/>
<path d="M86.2106 22.113L80.9629 23.7988L81.0794 24.1616L86.3272 22.4757L86.2106 22.113Z" fill="#848186"/>
<path d="M86.3918 22.6756L81.1445 24.3613L81.2612 24.7245L86.5085 23.0388L86.3918 22.6756Z" fill="#848186"/>
<path d="M86.5719 23.2399L81.3242 24.9258L81.4408 25.2885L86.6884 23.6027L86.5719 23.2399Z" fill="#848186"/>
<path d="M86.7536 23.8024L81.5059 25.4883L81.6225 25.8515L86.8703 24.1656L86.7536 23.8024Z" fill="#848186"/>
<path d="M86.9352 24.3649L81.6875 26.0508L81.804 26.4135L87.0518 24.7277L86.9352 24.3649Z" fill="#848186"/>
<path d="M87.1149 24.9274L81.8672 26.6133L81.9839 26.9765L87.2316 25.2906L87.1149 24.9274Z" fill="#848186"/>
<path d="M87.2965 25.4919L82.0488 27.1777L82.1654 27.5405L87.4131 25.8546L87.2965 25.4919Z" fill="#848186"/>
<path d="M75.1713 22.4337L74.2051 22.7441L74.4716 23.5738L75.4378 23.2634L75.1713 22.4337Z" fill="#DAA19D"/>
<path d="M75.56 23.6408L74.5938 23.9512L74.8603 24.7809L75.8265 24.4705L75.56 23.6408Z" fill="#99CDF0"/>
<path d="M80.8232 20.6155L79.8574 20.9258L80.124 21.7555L81.0897 21.4452L80.8232 20.6155Z" fill="#CADA67"/>
<path d="M81.2118 21.8265L80.2461 22.1367L80.5126 22.9664L81.4784 22.6561L81.2118 21.8265Z" fill="#E5B665"/>
<path d="M76.9128 22.1645L75.7773 22.5293L75.8855 22.8661L77.021 22.5013L76.9128 22.1645Z" fill="#BCBCBE"/>
<path d="M77.3136 23.4046L76.1777 23.7695L76.2777 24.0808L77.4136 23.7159L77.3136 23.4046Z" fill="#BCBCBE"/>
<path d="M82.4483 20.3812L81.3125 20.7461L81.4207 21.0829L82.5565 20.718L82.4483 20.3812Z" fill="#BCBCBE"/>
<path d="M82.8488 21.6292L81.7129 21.9941L81.8129 22.3054L82.9488 21.9405L82.8488 21.6292Z" fill="#BCBCBE"/>
<path d="M75.5762 13.346C75.6627 13.3039 75.7523 13.2684 75.8442 13.2397C76.0139 13.1852 76.1341 13.1803 76.2408 13.2169C76.3556 13.2558 76.4494 13.346 76.4995 13.5032C76.554 13.673 76.5294 13.8106 76.4664 13.9106C76.3972 14.0187 76.2658 14.1018 76.0907 14.1581C76.0141 14.1833 75.9359 14.2034 75.8567 14.2184L75.5762 13.346ZM76.0121 14.0057C76.0365 14.0017 76.0604 13.9954 76.0836 13.987C76.2672 13.9294 76.3543 13.7909 76.2864 13.5787C76.2288 13.3938 76.0885 13.3313 75.9143 13.3871C75.8833 13.3962 75.8533 13.4086 75.825 13.4242L76.0121 14.0057Z" fill="#848186"/>
<path d="M76.8923 13.6381L76.9017 13.8864L76.6917 13.9539L76.6797 12.9779L76.945 12.8926L77.5078 13.6917L77.2903 13.7618L77.1478 13.5559L76.8923 13.6381ZM77.071 13.4147L76.9548 13.2441C76.9222 13.1963 76.8852 13.1356 76.8548 13.0873H76.8521C76.8561 13.1445 76.8642 13.216 76.866 13.2718L76.8735 13.4773L77.071 13.4147Z" fill="#848186"/>
<path d="M77.4604 12.9133L77.2201 12.9906L77.166 12.8222L77.8534 12.6016L77.9075 12.77L77.6636 12.8486L77.895 13.5681L77.6922 13.6334L77.4604 12.9133Z" fill="#848186"/>
<path d="M78.2844 13.1908L78.2938 13.4391L78.0839 13.5066L78.0723 12.5306L78.3376 12.4453L78.9004 13.2444L78.6828 13.3145L78.5408 13.1086L78.2844 13.1908ZM78.4631 12.9675L78.347 12.7968C78.3144 12.7495 78.2773 12.6883 78.2469 12.6401H78.2442C78.2478 12.6972 78.2563 12.7687 78.2581 12.8245L78.2657 13.03L78.4631 12.9675Z" fill="#848186"/>
<path d="M71.9824 16.2826L73.9147 22.2978L75.2994 21.8512L84.712 18.8277L85.114 18.699L83.1822 12.6855L71.9824 16.2826ZM78.9821 14.3409L80.7264 13.7808L81.09 14.9122L79.3457 15.4723L78.9821 14.3409ZM74.6941 15.7184L76.4361 15.1583L76.7997 16.2897L75.0577 16.8498L74.6941 15.7184ZM76.0435 21.3017H76.0404L75.5491 21.4599L75.0814 21.6099L74.348 21.8453L74.2032 21.89L74.1237 21.643L73.9897 21.2298L73.9116 20.9864L73.8629 20.8341V20.8292L75.1104 20.4272L75.1046 20.4343L75.6924 20.2454L75.6982 20.2382H75.7036L76.0435 21.3017ZM75.5768 19.8523L75.5424 19.897L75.5687 19.9787L75.4454 20.0185L73.8258 20.5379L73.7731 20.5549L73.3832 19.3436L73.4368 19.3266V19.3235L75.1788 18.7633V18.7665L75.2234 18.7522L75.5768 19.8523ZM75.1345 18.4708L73.2929 19.0626L72.9034 17.8499L74.7451 17.2585L75.1345 18.4708ZM74.6553 16.9789L72.8137 17.5707L72.4501 16.4375L74.2917 15.8462L74.6553 16.9789ZM78.1898 20.6143L76.4478 21.1744L76.1069 20.1136L77.8489 19.5535L78.1898 20.6143ZM77.7636 19.2743H77.7587L76.0315 19.8291L76.0203 19.8327L75.8979 19.4525L75.8943 19.4566L75.6263 18.6222H75.6308V18.6191L77.3728 18.0589L77.7636 19.2743ZM77.2844 17.7775L77.2138 17.8003V17.803L75.5392 18.339L75.1502 17.1272L76.8922 16.5675L76.9176 16.6461H76.9226L77.2844 17.7775ZM80.3351 19.9247L78.5931 20.4848L78.2523 19.424L79.9943 18.8638L80.3351 19.9247ZM79.9045 18.5847L78.1625 19.1448L77.7793 17.9517L77.7721 17.9303L79.5141 17.3702L79.6749 17.8705L79.9045 18.5847ZM79.4252 17.0924L77.6908 17.6494H77.6806L77.2915 16.438L79.0335 15.8779L79.4252 17.0924ZM78.946 15.6005L77.204 16.1606L76.8404 15.0292L78.5824 14.4691L78.946 15.6005ZM82.4791 19.2364L80.7349 19.7965L80.3941 18.7356L82.1383 18.1755L82.4791 19.2364ZM82.0324 17.8124L82.0231 17.8155L82.049 17.8964L80.3047 18.4565L80.1104 17.8512H80.122L80.0256 17.5511H80.0139L79.9157 17.2447L79.9259 17.2411L81.668 16.681L82.0324 17.8124ZM81.5692 16.4036L81.2642 16.5014L79.825 16.9637L79.4355 15.751L81.1797 15.1909L81.2003 15.2548L81.5692 16.4036ZM84.6231 18.5476L82.8811 19.1073L82.5394 18.0455L84.2814 17.4859L84.6231 18.5476ZM84.1925 17.2076L82.4505 17.7673L82.0615 16.5555L83.8035 15.9958L84.1925 17.2076ZM83.7164 15.6291L83.7423 15.7072L83.7132 15.7153L81.9712 16.275L81.5817 15.0623L81.9194 14.9537L81.9172 14.9595L82.3871 14.8086L82.3893 14.8027L83.3242 14.5026V14.5071L83.3523 14.4981L83.7164 15.6291ZM83.2617 14.2145L83.2335 14.2234L82.5407 14.4468L82.0686 14.5986L81.5174 14.7773L81.4902 14.7862L81.1266 13.6548L81.1538 13.6459L82.6814 13.1545L82.8972 13.0853L83.2617 14.2145Z" fill="#848186"/>
<path d="M74.1664 21.8293L73.9609 21.6882L75.5922 19.3409L76.9898 19.5375L78.604 17.3765L79.9373 17.9496L80.7002 15.0234L84.274 16.6596L84.1686 16.8856L80.8668 15.3741L80.1062 18.2935L78.6858 17.6833L77.1014 19.8046L75.7096 19.6089L74.1664 21.8293Z" fill="#DAA19D"/>
<path d="M80.9772 17.5433L78.1467 16.7197L76.8384 17.8546L75.9084 18.0351L74.5528 19.2742L73.4285 19.9437L73.3008 19.7298L74.4027 19.0736L75.7914 17.8042L76.7254 17.6233L78.0864 16.4427L80.9044 17.2624L83.5455 14.5859L83.7238 14.7601L80.9772 17.5433Z" fill="#99CDF0"/>
<path d="M77.1126 20.3734L74.6599 19.8566L73.6536 20.8429L73.4785 20.666L74.5809 19.585L77.0344 20.1023L78.8631 18.3299L80.9016 18.6725L82.7633 16.5924L83.9671 15.8125L84.1033 16.0206L82.9277 16.7827L80.9959 18.9409L78.9457 18.5966L77.1126 20.3734Z" fill="#CADA67"/>
<path d="M73.838 21.2248L73.666 21.0443L76.3581 18.5113L77.1228 18.547L79.4673 14.967L81.0016 15.821L83.0818 13.1816L83.2787 13.3348L81.066 16.1426L79.5486 15.2984L77.2541 18.8025L76.4519 18.765L73.838 21.2248Z" fill="#E5B665"/>
<path d="M72.5078 16.6166L72.1289 16.7383L73.8491 22.0927L74.228 21.971L72.5078 16.6166Z" fill="#848186"/>
<path d="M83.1821 12.6793L82.7734 12.8105L84.7059 18.8259L85.1146 18.6946L83.1821 12.6793Z" fill="#848186"/>
<path d="M118.913 45.5516L104.361 43.0628C103.487 42.9132 102.636 43.6265 102.46 44.6556L100.813 54.2884C100.637 55.3158 101.203 56.2725 102.077 56.4221L116.629 58.911C117.503 59.0606 118.354 58.3473 118.53 57.3186L120.178 47.6858C120.352 46.6567 119.786 45.7013 118.913 45.5516ZM117.783 58.0927L101.26 55.2666L102.976 45.2372L119.498 48.0623L117.783 58.0927Z" fill="#676D78"/>
<path d="M102.982 45.2398L101.266 55.2695L117.79 58.097L119.506 48.0673L102.982 45.2398Z" fill="white"/>
<path d="M105.922 44.4509C105.899 44.5871 105.822 44.7084 105.709 44.7883C105.596 44.8681 105.457 44.8998 105.32 44.8765C105.253 44.865 105.188 44.8403 105.13 44.8038C105.072 44.7674 105.022 44.7198 104.983 44.664C104.943 44.6081 104.915 44.545 104.9 44.4782C104.885 44.4115 104.883 44.3424 104.894 44.2749L105.183 42.5896C105.207 42.4537 105.283 42.3328 105.396 42.2533C105.509 42.1739 105.648 42.1424 105.784 42.1657C105.852 42.1772 105.916 42.2019 105.974 42.2384C106.032 42.2749 106.083 42.3224 106.122 42.3783C106.162 42.4342 106.19 42.4973 106.205 42.564C106.22 42.6308 106.222 42.6999 106.211 42.7674L105.922 44.4509Z" fill="#DAA19D"/>
<path d="M107.427 44.7069C107.404 44.8431 107.327 44.9645 107.215 45.0443C107.102 45.1242 106.962 45.1559 106.826 45.1326C106.689 45.1092 106.568 45.0327 106.488 44.9199C106.408 44.8071 106.377 44.6672 106.4 44.5309L106.688 42.8457C106.7 42.7782 106.724 42.7136 106.761 42.6557C106.797 42.5977 106.845 42.5476 106.901 42.508C106.957 42.4684 107.02 42.4402 107.086 42.4251C107.153 42.4099 107.222 42.408 107.29 42.4196C107.357 42.4311 107.422 42.4558 107.48 42.4922C107.538 42.5287 107.588 42.5762 107.627 42.6321C107.667 42.688 107.695 42.7511 107.71 42.8179C107.726 42.8846 107.727 42.9537 107.716 43.0212L107.427 44.7069Z" fill="#DAA19D"/>
<path d="M116.5 46.2597C116.477 46.3959 116.4 46.5173 116.287 46.5971C116.175 46.6769 116.035 46.7086 115.898 46.6853C115.831 46.6738 115.766 46.6491 115.708 46.6127C115.65 46.5762 115.6 46.5287 115.561 46.4728C115.521 46.4169 115.493 46.3538 115.478 46.287C115.463 46.2203 115.461 46.1512 115.472 46.0837L115.76 44.3984C115.772 44.3309 115.797 44.2664 115.833 44.2084C115.87 44.1505 115.917 44.1003 115.973 44.0607C116.029 44.0212 116.092 43.993 116.159 43.9778C116.225 43.9626 116.295 43.9608 116.362 43.9723C116.498 43.9957 116.62 44.0722 116.699 44.185C116.779 44.2978 116.811 44.4377 116.788 44.574L116.5 46.2597Z" fill="#DAA19D"/>
<path d="M118.006 46.5175C117.982 46.6537 117.906 46.7751 117.793 46.8549C117.68 46.9347 117.54 46.9665 117.404 46.9432C117.336 46.9317 117.272 46.907 117.214 46.8705C117.156 46.834 117.106 46.7865 117.066 46.7306C117.027 46.6747 116.999 46.6116 116.984 46.5448C116.968 46.4781 116.967 46.409 116.978 46.3415L117.266 44.6562C117.278 44.5887 117.303 44.5242 117.339 44.4662C117.376 44.4083 117.423 44.3581 117.479 44.3185C117.535 44.279 117.598 44.2508 117.665 44.2356C117.731 44.2204 117.801 44.2186 117.868 44.2301C118.004 44.2535 118.126 44.33 118.206 44.4428C118.285 44.5556 118.317 44.6955 118.294 44.8318L118.006 46.5175Z" fill="#DAA19D"/>
<path d="M103.306 46.4211L103.159 47.2787C103.122 47.4959 103.268 47.702 103.485 47.7391L104.343 47.886C104.56 47.9231 104.766 47.7772 104.803 47.5601L104.95 46.7025C104.987 46.4853 104.842 46.2792 104.624 46.242L103.766 46.0952C103.549 46.058 103.343 46.2039 103.306 46.4211Z" fill="#BFD8EC"/>
<path d="M107.107 47.9501C107.089 48.0543 107.03 48.1472 106.944 48.2083C106.858 48.2693 106.751 48.2936 106.646 48.2757L105.788 48.1288C105.684 48.1109 105.591 48.0523 105.53 47.9659C105.469 47.8796 105.445 47.7725 105.463 47.6683L105.61 46.8102C105.628 46.706 105.686 46.6131 105.772 46.552C105.859 46.4908 105.966 46.4664 106.07 46.4842L106.928 46.6311C106.979 46.6399 107.029 46.6588 107.073 46.6868C107.118 46.7147 107.156 46.751 107.186 46.7938C107.217 46.8366 107.238 46.8849 107.25 46.936C107.261 46.9871 107.263 47.04 107.254 47.0916L107.107 47.9501Z" fill="#BFD8EC"/>
<path d="M109.416 48.3443C109.398 48.4485 109.339 48.5414 109.253 48.6024C109.166 48.6635 109.059 48.6878 108.955 48.6699L108.097 48.5234C108.046 48.5146 107.996 48.4957 107.952 48.4678C107.908 48.4398 107.869 48.4035 107.839 48.3607C107.809 48.3179 107.787 48.2696 107.776 48.2185C107.764 48.1674 107.763 48.1145 107.771 48.0629L107.918 47.2048C107.927 47.1532 107.946 47.1038 107.974 47.0594C108.002 47.0151 108.038 46.9767 108.081 46.9464C108.124 46.9161 108.172 46.8945 108.223 46.8829C108.274 46.8713 108.327 46.8699 108.379 46.8788L109.236 47.0253C109.288 47.0341 109.337 47.053 109.382 47.0809C109.426 47.1088 109.465 47.1452 109.495 47.188C109.525 47.2307 109.547 47.2791 109.558 47.3302C109.57 47.3813 109.571 47.4341 109.562 47.4858L109.416 48.3443Z" fill="#BFD8EC"/>
<path d="M111.726 48.7408C111.717 48.7924 111.698 48.8418 111.67 48.8862C111.643 48.9305 111.606 48.9689 111.563 48.9992C111.521 49.0295 111.472 49.051 111.421 49.0626C111.37 49.0742 111.317 49.0757 111.266 49.0668L110.408 48.9199C110.356 48.9111 110.307 48.8922 110.263 48.8642C110.218 48.8363 110.18 48.7999 110.15 48.7572C110.119 48.7144 110.098 48.6661 110.086 48.615C110.074 48.5639 110.073 48.511 110.082 48.4594L110.229 47.6013C110.238 47.5497 110.257 47.5002 110.284 47.4559C110.312 47.4116 110.349 47.3732 110.392 47.3429C110.434 47.3126 110.483 47.291 110.534 47.2794C110.585 47.2678 110.638 47.2664 110.689 47.2753L111.547 47.4222C111.599 47.431 111.648 47.4499 111.692 47.4778C111.737 47.5058 111.775 47.5421 111.805 47.5849C111.836 47.6277 111.857 47.676 111.869 47.7271C111.88 47.7782 111.882 47.8311 111.873 47.8827L111.726 48.7408Z" fill="#BFD8EC"/>
<path d="M114.035 49.1333C114.017 49.2376 113.958 49.3305 113.872 49.3916C113.786 49.4528 113.679 49.4771 113.575 49.4594L112.717 49.3125C112.665 49.3036 112.615 49.2847 112.571 49.2568C112.527 49.2289 112.488 49.1925 112.458 49.1498C112.428 49.107 112.406 49.0587 112.395 49.0076C112.383 48.9565 112.382 48.9036 112.39 48.8519L112.537 47.9939C112.546 47.9422 112.565 47.8928 112.593 47.8485C112.621 47.8041 112.657 47.7657 112.7 47.7355C112.743 47.7052 112.791 47.6836 112.842 47.672C112.893 47.6604 112.946 47.659 112.998 47.6678L113.856 47.8148C113.96 47.8327 114.053 47.8913 114.114 47.9776C114.175 48.064 114.199 48.1711 114.182 48.2753L114.035 49.1333Z" fill="#BFD8EC"/>
<path d="M116.343 49.5298C116.325 49.6341 116.267 49.7269 116.18 49.788C116.094 49.8491 115.987 49.8733 115.883 49.8554L115.025 49.7089C114.973 49.7001 114.924 49.6812 114.88 49.6533C114.835 49.6254 114.797 49.589 114.767 49.5462C114.736 49.5035 114.715 49.4552 114.703 49.4041C114.692 49.353 114.69 49.3001 114.699 49.2484L114.846 48.3904C114.855 48.3387 114.874 48.2893 114.902 48.245C114.93 48.2006 114.966 48.1622 115.009 48.1319C115.051 48.1017 115.1 48.0801 115.151 48.0685C115.202 48.0569 115.255 48.0555 115.307 48.0643L116.164 48.2108C116.216 48.2196 116.265 48.2385 116.31 48.2665C116.354 48.2944 116.392 48.3308 116.423 48.3735C116.453 48.4163 116.474 48.4646 116.486 48.5157C116.498 48.5668 116.499 48.6197 116.49 48.6713L116.343 49.5298Z" fill="#BFD8EC"/>
<path d="M118.651 49.9243C118.634 50.0285 118.575 50.1214 118.489 50.1826C118.403 50.2437 118.296 50.2681 118.191 50.2504L117.333 50.1034C117.229 50.0855 117.136 50.0269 117.075 49.9406C117.014 49.8542 116.99 49.7471 117.008 49.6429L117.155 48.7848C117.172 48.6806 117.231 48.5877 117.317 48.5266C117.403 48.4654 117.51 48.441 117.615 48.4588L118.473 48.6057C118.577 48.6236 118.67 48.6822 118.731 48.7686C118.792 48.8549 118.816 48.962 118.798 49.0662L118.651 49.9243Z" fill="#BFD8EC"/>
<path d="M104.377 50.0205C104.359 50.1247 104.3 50.2176 104.214 50.2787C104.128 50.3397 104.021 50.364 103.916 50.3461L103.058 50.1992C103.007 50.1904 102.957 50.1715 102.913 50.1435C102.869 50.1156 102.83 50.0792 102.8 50.0365C102.77 49.9937 102.748 49.9454 102.736 49.8943C102.725 49.8432 102.723 49.7903 102.732 49.7387L102.879 48.8806C102.888 48.829 102.907 48.7795 102.935 48.7352C102.963 48.6909 102.999 48.6524 103.042 48.6222C103.085 48.5919 103.133 48.5703 103.184 48.5587C103.235 48.5471 103.288 48.5457 103.34 48.5546L104.198 48.7015C104.249 48.7103 104.299 48.7292 104.343 48.7571C104.388 48.7851 104.426 48.8214 104.456 48.8642C104.487 48.907 104.508 48.9553 104.52 49.0064C104.531 49.0575 104.533 49.1104 104.524 49.162L104.377 50.0205Z" fill="#BFD8EC"/>
<path d="M106.685 50.4169C106.667 50.5212 106.609 50.614 106.522 50.6751C106.436 50.7361 106.329 50.7604 106.225 50.7425L105.367 50.5956C105.262 50.5777 105.169 50.5191 105.108 50.4328C105.047 50.3464 105.023 50.2393 105.041 50.1351L105.188 49.277C105.206 49.1728 105.264 49.0799 105.35 49.0188C105.437 48.9576 105.544 48.9332 105.648 48.951L106.506 49.0979C106.558 49.1067 106.607 49.1256 106.651 49.1535C106.696 49.1815 106.734 49.2178 106.764 49.2606C106.795 49.3034 106.816 49.3517 106.828 49.4028C106.839 49.4539 106.841 49.5068 106.832 49.5584L106.685 50.4169Z" fill="#BFD8EC"/>
<path d="M108.994 50.8115C108.976 50.9158 108.917 51.0086 108.831 51.0697C108.744 51.1308 108.637 51.155 108.533 51.1372L107.676 50.9902C107.624 50.9814 107.574 50.9625 107.53 50.9346C107.486 50.9066 107.447 50.8703 107.417 50.8275C107.387 50.7847 107.365 50.7364 107.354 50.6853C107.342 50.6342 107.341 50.5813 107.349 50.5297L107.496 49.6716C107.505 49.62 107.524 49.5706 107.552 49.5262C107.58 49.4819 107.616 49.4435 107.659 49.4132C107.702 49.3829 107.75 49.3613 107.801 49.3497C107.852 49.3381 107.905 49.3367 107.957 49.3456L108.815 49.4921C108.866 49.5009 108.916 49.5198 108.96 49.5477C109.004 49.5756 109.043 49.612 109.073 49.6548C109.103 49.6975 109.125 49.7459 109.136 49.797C109.148 49.8481 109.149 49.9009 109.141 49.9526L108.994 50.8115Z" fill="#DAA19D"/>
<path d="M111.302 51.2056C111.284 51.3098 111.226 51.4027 111.139 51.4638C111.053 51.5248 110.946 51.5491 110.842 51.5312L109.984 51.3843C109.879 51.3664 109.787 51.3078 109.726 51.2216C109.665 51.1353 109.64 51.0284 109.658 50.9242L109.805 50.0662C109.814 50.0145 109.833 49.9651 109.861 49.9208C109.889 49.8764 109.925 49.838 109.968 49.8077C110.01 49.7774 110.059 49.7559 110.11 49.7443C110.161 49.7327 110.214 49.7313 110.265 49.7401L111.124 49.8871C111.175 49.8959 111.225 49.9148 111.269 49.9427C111.313 49.9706 111.352 50.007 111.382 50.0497C111.412 50.0925 111.434 50.1408 111.445 50.1919C111.457 50.243 111.458 50.2959 111.45 50.3476L111.302 51.2056Z" fill="#BFD8EC"/>
<path d="M113.613 51.6006C113.595 51.7047 113.536 51.7975 113.45 51.8586C113.364 51.9196 113.257 51.944 113.153 51.9262L112.295 51.7793C112.243 51.7704 112.194 51.7515 112.149 51.7236C112.105 51.6957 112.067 51.6593 112.036 51.6166C112.006 51.5738 111.984 51.5255 111.973 51.4744C111.961 51.4233 111.96 51.3704 111.969 51.3187L112.116 50.4607C112.124 50.409 112.143 50.3596 112.171 50.3153C112.199 50.2709 112.235 50.2325 112.278 50.2022C112.321 50.172 112.369 50.1504 112.42 50.1388C112.472 50.1272 112.524 50.1258 112.576 50.1346L113.434 50.2816C113.538 50.2995 113.631 50.3581 113.692 50.4444C113.753 50.5308 113.778 50.6379 113.76 50.7421L113.613 51.6006Z" fill="#BFD8EC"/>
<path d="M115.921 51.9966C115.903 52.1009 115.845 52.1937 115.759 52.2548C115.672 52.3159 115.565 52.3401 115.461 52.3222L114.603 52.1757C114.552 52.1669 114.502 52.148 114.458 52.1201C114.414 52.0922 114.375 52.0558 114.345 52.013C114.315 51.9703 114.293 51.922 114.281 51.8709C114.27 51.8198 114.268 51.7669 114.277 51.7152L114.424 50.8572C114.433 50.8055 114.452 50.7561 114.48 50.7118C114.508 50.6674 114.544 50.629 114.587 50.5987C114.63 50.5684 114.678 50.5469 114.729 50.5353C114.78 50.5237 114.833 50.5223 114.885 50.5311L115.742 50.6776C115.794 50.6864 115.843 50.7053 115.888 50.7333C115.932 50.7612 115.97 50.7976 116.001 50.8403C116.031 50.8831 116.053 50.9314 116.064 50.9825C116.076 51.0336 116.077 51.0865 116.068 51.1381L115.921 51.9966Z" fill="#BFD8EC"/>
<path d="M118.229 52.3906C118.212 52.4949 118.153 52.5878 118.067 52.6489C117.981 52.7101 117.874 52.7344 117.769 52.7167L116.911 52.5698C116.807 52.5518 116.714 52.4933 116.653 52.4071C116.592 52.3208 116.568 52.2139 116.586 52.1097L116.733 51.2516C116.75 51.1474 116.809 51.0545 116.895 50.9934C116.982 50.9322 117.089 50.9078 117.193 50.9256L118.051 51.0725C118.155 51.0904 118.248 51.149 118.309 51.2354C118.37 51.3217 118.394 51.4288 118.376 51.533L118.229 52.3906Z" fill="#BFD8EC"/>
<path d="M103.955 52.4864C103.946 52.5381 103.927 52.5875 103.899 52.6318C103.872 52.6762 103.835 52.7146 103.792 52.7449C103.75 52.7751 103.701 52.7967 103.65 52.8083C103.599 52.8199 103.546 52.8213 103.495 52.8125L102.636 52.6655C102.585 52.6567 102.535 52.6378 102.491 52.6099C102.447 52.582 102.408 52.5456 102.378 52.5028C102.348 52.4601 102.326 52.4118 102.315 52.3607C102.303 52.3096 102.302 52.2567 102.31 52.205L102.457 51.347C102.475 51.2427 102.534 51.1499 102.62 51.0888C102.707 51.0278 102.814 51.0035 102.918 51.0214L103.776 51.1683C103.88 51.1861 103.973 51.2446 104.034 51.3308C104.095 51.4171 104.12 51.5241 104.102 51.6284L103.955 52.4864Z" fill="#BFD8EC"/>
<path d="M106.261 52.8829C106.252 52.9345 106.234 52.9839 106.206 53.0283C106.178 53.0726 106.141 53.111 106.099 53.1413C106.056 53.1716 106.007 53.1931 105.956 53.2047C105.905 53.2163 105.852 53.2178 105.801 53.2089L104.943 53.062C104.838 53.0441 104.746 52.9855 104.685 52.8991C104.623 52.8128 104.599 52.7057 104.617 52.6014L104.764 51.7434C104.782 51.6392 104.84 51.5465 104.927 51.4854C105.013 51.4244 105.12 51.4 105.224 51.4178L106.082 51.5647C106.186 51.5826 106.279 51.6411 106.34 51.7274C106.401 51.8137 106.426 51.9206 106.408 52.0248L106.261 52.8829Z" fill="#BFD8EC"/>
<path d="M107.081 52.1437L106.934 53.0014C106.897 53.2185 107.043 53.4247 107.26 53.4618L108.118 53.6086C108.335 53.6457 108.541 53.4998 108.578 53.2827L108.725 52.425C108.762 52.2079 108.616 52.0018 108.399 51.9646L107.542 51.8179C107.325 51.7807 107.118 51.9266 107.081 52.1437Z" fill="#BFD8EC"/>
<path d="M110.88 53.6719C110.872 53.7236 110.853 53.773 110.825 53.8173C110.797 53.8617 110.76 53.9001 110.718 53.9304C110.675 53.9606 110.627 53.9822 110.576 53.9938C110.524 54.0054 110.472 54.0068 110.42 53.998L109.562 53.851C109.458 53.8331 109.365 53.7746 109.304 53.6882C109.243 53.6018 109.218 53.4948 109.236 53.3905L109.383 52.5325C109.401 52.4283 109.46 52.3355 109.546 52.2745C109.632 52.2134 109.739 52.1891 109.843 52.2068L110.701 52.3538C110.806 52.3716 110.898 52.4301 110.96 52.5163C111.021 52.6026 111.045 52.7096 111.027 52.8139L110.88 53.6719Z" fill="#BFD8EC"/>
<path d="M113.191 54.0665C113.173 54.1707 113.115 54.2636 113.028 54.3248C112.942 54.3859 112.835 54.4103 112.731 54.3926L111.873 54.2456C111.821 54.2368 111.772 54.2179 111.727 54.19C111.683 54.1621 111.645 54.1257 111.614 54.0829C111.584 54.0402 111.563 53.9918 111.551 53.9407C111.539 53.8896 111.538 53.8368 111.547 53.7851L111.694 52.9271C111.712 52.8228 111.77 52.73 111.857 52.6689C111.943 52.6078 112.05 52.5836 112.154 52.6014L113.012 52.7484C113.116 52.7663 113.209 52.8248 113.27 52.9111C113.331 52.9973 113.356 53.1043 113.338 53.2085L113.191 54.0665Z" fill="#BFD8EC"/>
<path d="M115.5 54.463C115.491 54.5147 115.472 54.5641 115.444 54.6084C115.416 54.6528 115.38 54.6912 115.337 54.7214C115.294 54.7517 115.246 54.7733 115.195 54.7849C115.144 54.7965 115.091 54.7979 115.039 54.7891L114.181 54.6426C114.13 54.6337 114.08 54.6148 114.036 54.5869C113.992 54.5589 113.953 54.5225 113.923 54.4797C113.893 54.4369 113.871 54.3885 113.859 54.3374C113.848 54.2862 113.846 54.2333 113.855 54.1816L114.002 53.3235C114.02 53.2193 114.079 53.1264 114.165 53.0654C114.252 53.0043 114.359 52.9801 114.463 52.9979L115.32 53.1444C115.425 53.1622 115.518 53.2207 115.579 53.307C115.64 53.3932 115.664 53.5003 115.647 53.6045L115.5 54.463Z" fill="#BFD8EC"/>
<path d="M117.808 54.8575C117.79 54.9617 117.731 55.0546 117.645 55.1157C117.559 55.1769 117.452 55.2013 117.348 55.1835L116.49 55.0366C116.385 55.0187 116.292 54.9601 116.231 54.8737C116.17 54.7874 116.146 54.6803 116.164 54.5761L116.311 53.718C116.329 53.6139 116.387 53.5211 116.474 53.46C116.56 53.399 116.667 53.3746 116.771 53.3924L117.629 53.5393C117.733 53.5572 117.826 53.6157 117.887 53.702C117.948 53.7883 117.972 53.8952 117.955 53.9994L117.808 54.8575Z" fill="#BFD8EC"/>
<path d="M103.533 54.9532C103.524 55.0049 103.505 55.0543 103.478 55.0986C103.45 55.143 103.413 55.1814 103.37 55.2117C103.328 55.2419 103.279 55.2635 103.228 55.2751C103.177 55.2867 103.124 55.2881 103.073 55.2793L102.215 55.1323C102.163 55.1235 102.114 55.1046 102.069 55.0767C102.025 55.0488 101.986 55.0124 101.956 54.9696C101.926 54.9269 101.904 54.8785 101.893 54.8274C101.881 54.7763 101.88 54.7235 101.889 54.6718L102.035 53.8142C102.044 53.7626 102.063 53.7131 102.091 53.6688C102.119 53.6245 102.155 53.586 102.198 53.5558C102.241 53.5255 102.289 53.5039 102.34 53.4923C102.391 53.4807 102.444 53.4793 102.496 53.4881L103.354 53.6351C103.406 53.6439 103.455 53.6628 103.499 53.6907C103.544 53.7186 103.582 53.755 103.613 53.7978C103.643 53.8406 103.664 53.8889 103.676 53.94C103.688 53.9911 103.689 54.044 103.68 54.0956L103.533 54.9532Z" fill="#BFD8EC"/>
<path d="M105.841 55.3481C105.832 55.3998 105.814 55.4492 105.786 55.4935C105.758 55.5379 105.721 55.5763 105.679 55.6066C105.636 55.6369 105.588 55.6584 105.536 55.67C105.485 55.6816 105.432 55.683 105.381 55.6742L104.523 55.5272C104.419 55.5093 104.326 55.4508 104.265 55.3644C104.204 55.278 104.179 55.171 104.197 55.0667L104.344 54.2087C104.362 54.1044 104.42 54.0115 104.507 53.9504C104.593 53.8893 104.7 53.8649 104.804 53.8826L105.662 54.0296C105.766 54.0475 105.859 54.106 105.92 54.1924C105.981 54.2788 106.006 54.3858 105.988 54.4901L105.841 55.3481Z" fill="#BFD8EC"/>
<path d="M108.15 55.7442C108.132 55.8485 108.073 55.9413 107.987 56.0024C107.901 56.0634 107.794 56.0877 107.689 56.0698L106.832 55.9233C106.78 55.9145 106.731 55.8956 106.686 55.8677C106.642 55.8398 106.604 55.8034 106.573 55.7606C106.543 55.7179 106.522 55.6696 106.51 55.6185C106.498 55.5674 106.497 55.5145 106.506 55.4628L106.653 54.6052C106.661 54.5536 106.68 54.5042 106.708 54.4598C106.736 54.4155 106.773 54.3771 106.815 54.3468C106.858 54.3165 106.906 54.2949 106.958 54.2833C107.009 54.2717 107.062 54.2703 107.113 54.2792L107.971 54.4261C108.022 54.4349 108.072 54.4538 108.116 54.4817C108.161 54.5097 108.199 54.546 108.229 54.5888C108.26 54.6316 108.281 54.6799 108.293 54.731C108.304 54.7821 108.306 54.835 108.297 54.8866L108.15 55.7442Z" fill="#BFD8EC"/>
<path d="M110.46 56.1382C110.452 56.1899 110.433 56.2393 110.405 56.2837C110.377 56.328 110.341 56.3664 110.298 56.3967C110.255 56.427 110.207 56.4485 110.156 56.4601C110.104 56.4717 110.052 56.4732 110 56.4643L109.142 56.3178C109.091 56.309 109.041 56.2901 108.997 56.2622C108.953 56.2343 108.914 56.1979 108.884 56.1551C108.854 56.1123 108.832 56.064 108.82 56.0129C108.809 55.9618 108.807 55.9089 108.816 55.8573L108.963 54.9997C108.981 54.8955 109.039 54.8026 109.126 54.7414C109.212 54.6803 109.319 54.6559 109.423 54.6736L110.281 54.8201C110.333 54.8289 110.382 54.8478 110.427 54.8758C110.471 54.9037 110.509 54.9401 110.54 54.9828C110.57 55.0256 110.592 55.0739 110.603 55.125C110.615 55.1761 110.616 55.229 110.607 55.2806L110.46 56.1382Z" fill="#BFD8EC"/>
<path d="M111.275 55.3976L111.128 56.2553C111.091 56.4724 111.237 56.6786 111.454 56.7157L112.311 56.8625C112.528 56.8996 112.735 56.7537 112.772 56.5366L112.919 55.6789C112.956 55.4618 112.81 55.2556 112.593 55.2185L111.735 55.0717C111.518 55.0346 111.312 55.1805 111.275 55.3976Z" fill="#BFD8EC"/>
<path d="M115.078 56.9278C115.069 56.9795 115.05 57.0289 115.022 57.0732C114.994 57.1176 114.958 57.156 114.915 57.1863C114.872 57.2165 114.824 57.2381 114.773 57.2497C114.722 57.2613 114.669 57.2627 114.617 57.2539L113.76 57.1074C113.708 57.0986 113.658 57.0797 113.614 57.0517C113.57 57.0238 113.531 56.9874 113.501 56.9447C113.471 56.9019 113.449 56.8536 113.438 56.8025C113.426 56.7514 113.425 56.6985 113.433 56.6469L113.58 55.7888C113.589 55.7372 113.608 55.6878 113.636 55.6434C113.664 55.5991 113.7 55.5607 113.743 55.5304C113.786 55.5001 113.834 55.4785 113.885 55.4669C113.936 55.4553 113.989 55.4539 114.041 55.4628L114.899 55.6093C114.95 55.6181 115 55.637 115.044 55.6649C115.088 55.6928 115.127 55.7292 115.157 55.772C115.187 55.8147 115.209 55.863 115.22 55.9141C115.232 55.9652 115.233 56.0181 115.225 56.0698L115.078 56.9278Z" fill="#BFD8EC"/>
<path d="M117.388 57.3223C117.37 57.4265 117.312 57.5194 117.225 57.5806C117.139 57.6417 117.032 57.6661 116.928 57.6484L116.07 57.5014C115.965 57.4835 115.873 57.4249 115.811 57.3386C115.75 57.2522 115.726 57.1451 115.744 57.0409L115.891 56.1833C115.909 56.079 115.967 55.9862 116.054 55.925C116.14 55.8639 116.247 55.8395 116.351 55.8572L117.209 56.0042C117.313 56.0221 117.406 56.0806 117.467 56.167C117.528 56.2534 117.553 56.3604 117.535 56.4647L117.388 57.3223Z" fill="#BFD8EC"/>
<path d="M26.0488 100.09L29.1715 109.907C29.233 110.098 29.3676 110.257 29.5458 110.349C29.7241 110.441 29.9315 110.459 30.1229 110.398L41.2413 106.862C41.4322 106.8 41.591 106.666 41.683 106.487C41.7751 106.309 41.7929 106.102 41.7326 105.911L38.61 96.0938L26.0488 100.09Z" fill="#5C6679"/>
<path d="M37.3562 92.1535C37.2947 91.9625 37.1601 91.8037 36.9818 91.7116C36.8035 91.6196 36.5961 91.6018 36.4048 91.6622L25.2863 95.1989C25.0954 95.2604 24.9365 95.395 24.8444 95.5733C24.7524 95.7515 24.7346 95.959 24.795 96.1503L26.0483 100.091L38.6104 96.0954L37.3562 92.1535Z" fill="#3F495B"/>
<path d="M38.5687 101.693L37.4824 98.2772C37.3672 97.9145 36.95 97.7228 36.5515 97.8497L32.8281 99.0343L34.1235 103.107L38.5687 101.693Z" fill="#F9FCFF"/>
<path d="M29.4316 104.996L30.5179 108.412C30.6336 108.775 31.0504 108.966 31.4488 108.839L35.1722 107.655L33.8769 103.582L29.4316 104.996Z" fill="#F9FCFF"/>
<path d="M26.4285 97.4837C26.286 97.037 26.458 96.5805 26.8131 96.4675L36.2543 93.4646C36.3459 93.4383 36.4424 93.4337 36.5361 93.4511C36.6299 93.4686 36.7182 93.5076 36.7943 93.5651C36.6442 93.1331 36.2507 92.8741 35.9032 92.9844L26.462 95.9882C26.1069 96.1012 25.9349 96.556 26.0774 97.0044L26.3615 97.8977C26.4233 98.1015 26.5503 98.2795 26.7228 98.4043C26.7197 98.3953 26.7157 98.3868 26.713 98.3775L26.4285 97.4837Z" fill="#6D8E9C"/>
<path d="M27.261 98.503L36.7022 95.5001C37.0568 95.3871 37.2292 94.9324 37.0867 94.4839L36.8027 93.5906C36.8 93.5816 36.7964 93.5727 36.7928 93.5638C36.7168 93.5063 36.6284 93.4673 36.5347 93.4498C36.4409 93.4324 36.3445 93.437 36.2528 93.4633L26.8116 96.4662C26.4565 96.5792 26.2845 97.0339 26.427 97.4824L26.7111 98.3757C26.7142 98.3851 26.7178 98.3936 26.7209 98.4025C26.7969 98.4601 26.8853 98.4991 26.9791 98.5166C27.0728 98.534 27.1693 98.5294 27.261 98.503Z" fill="#BFD8EC"/>
<path d="M32.4673 99.1484L28.7439 100.333C28.3454 100.46 28.1154 100.856 28.2311 101.22L29.3174 104.635L33.7631 103.221L32.4673 99.1484Z" fill="#F9FCFF"/>
<path d="M30.7158 100.5L31.0583 101.578L32.0915 101.249L32.2393 101.714L31.2062 102.042L31.5519 103.13L31.0673 103.284L30.722 102.197L29.6889 102.526L29.541 102.062L30.5742 101.733L30.2316 100.655L30.7158 100.5Z" fill="#3F495B"/>
<path d="M36.4875 99.8379L36.6461 100.337L34.9072 100.89L34.75 100.391L36.4875 99.8379Z" fill="#3F495B"/>
<path d="M33.1612 105.218L32.6412 106.223L33.6043 106.721L33.3809 107.153L32.4179 106.655L31.8917 107.669L31.4401 107.435L31.9645 106.422L31.002 105.924L31.2253 105.49L32.1883 105.988L32.7078 104.984L33.1612 105.218Z" fill="#3F495B"/>
<path d="M34.2383 103.469L35.5336 107.542L39.257 106.357C39.6555 106.23 39.8855 105.833 39.7703 105.47L38.6817 102.055L34.2383 103.469Z" fill="#F9FCFF"/>
<path d="M35.7511 104.923L35.6055 104.465L38.143 103.658L38.2886 104.116L35.7511 104.923ZM36.0749 105.941L35.9293 105.483L38.4668 104.676L38.6124 105.134L36.0749 105.941Z" fill="#3F495B"/>
<path d="M102.287 111.903L83.0723 108.42L98.5591 114.052L102.287 111.903Z" fill="white"/>
<path d="M98.5591 114.052L96.1663 119.819L83.0723 108.42" fill="#EEE5DC"/>
<path d="M96.1663 119.819L96.5563 115.065L83.0723 108.42L96.1663 119.819Z" fill="#CECFC2"/>
<path d="M83.0723 108.42L90.4735 118.754L96.5563 115.065L83.0723 108.42Z" fill="white"/>
<path d="M82.2309 112.816L60.5332 104.785L77.4382 114.554L82.2309 112.816Z" fill="#E2917E"/>
<path d="M77.4382 114.554L73.4562 120.787L60.5332 104.785" fill="#D47A6E"/>
<path d="M73.4562 120.787L74.8927 115.322L60.5332 104.785L73.4562 120.787Z" fill="#D06C5C"/>
<path d="M60.5332 104.785L67.0349 118.37L74.8927 115.322L60.5332 104.785Z" fill="#E2917E"/>
<path d="M58.6974 110.68L44.3965 108.088L55.9227 112.279L58.6974 110.68Z" fill="white"/>
<path d="M55.9227 112.279L54.1423 116.571L44.3965 108.088" fill="#EEE5DC"/>
<path d="M54.1423 116.571L54.4322 113.033L44.3965 108.088L54.1423 116.571Z" fill="#CECFC2"/>
<path d="M44.3965 108.088L49.9052 115.779L54.4322 113.033L44.3965 108.088Z" fill="white"/>
<path d="M31.697 52.9025L31.2249 50.6406L30.3477 52.0802L31.697 52.9025Z" fill="#80939F"/>
<path d="M115.584 82.2422H98.2734V105.815H115.584V82.2422Z" fill="#676D78"/>
<path d="M114.161 84.4805H99.6992V104.421H114.161V84.4805Z" fill="#FFFDF6"/>
<path d="M106.742 98.3828H100.527V98.8156H106.742V98.3828Z" fill="#848186"/>
<path d="M106.742 99.0547H100.527V99.4879H106.742V99.0547Z" fill="#848186"/>
<path d="M106.742 99.7266H100.527V100.16H106.742V99.7266Z" fill="#848186"/>
<path d="M106.742 100.398H100.527V100.831H106.742V100.398Z" fill="#848186"/>
<path d="M106.742 101.068H100.527V101.501H106.742V101.068Z" fill="#848186"/>
<path d="M106.742 101.74H100.527V102.173H106.742V101.74Z" fill="#848186"/>
<path d="M106.742 102.412H100.527V102.845H106.742V102.412Z" fill="#848186"/>
<path d="M106.742 103.084H100.527V103.517H106.742V103.084Z" fill="#848186"/>
<path d="M113.632 98.3828H107.418V98.8156H113.632V98.3828Z" fill="#848186"/>
<path d="M113.632 99.0547H107.418V99.4879H113.632V99.0547Z" fill="#848186"/>
<path d="M113.632 99.7266H107.418V100.16H113.632V99.7266Z" fill="#848186"/>
<path d="M113.632 100.398H107.418V100.831H113.632V100.398Z" fill="#848186"/>
<path d="M113.632 101.068H107.418V101.501H113.632V101.068Z" fill="#848186"/>
<path d="M113.632 101.74H107.418V102.173H113.632V101.74Z" fill="#848186"/>
<path d="M113.632 102.412H107.418V102.845H113.632V102.412Z" fill="#848186"/>
<path d="M101.672 95.5703H100.527V96.5593H101.672V95.5703Z" fill="#DAA19D"/>
<path d="M101.672 97.0098H100.527V97.9996H101.672V97.0098Z" fill="#99CDF0"/>
<path d="M108.365 95.5703H107.221V96.5593H108.365V95.5703Z" fill="#CADA67"/>
<path d="M108.365 97.0098H107.221V97.9996H108.365V97.0098Z" fill="#E5B665"/>
<path d="M103.634 95.8789H102.289V96.2809H103.634V95.8789Z" fill="#BCBCBE"/>
<path d="M103.634 97.3633H102.289V97.734H103.634V97.3633Z" fill="#BCBCBE"/>
<path d="M110.191 95.8789H108.846V96.2809H110.191V95.8789Z" fill="#BCBCBE"/>
<path d="M110.191 97.3633H108.846V97.7344H110.191V97.3633Z" fill="#BCBCBE"/>
<path d="M113.53 90.459H100.527V90.8918H113.53V90.459Z" fill="#848186"/>
<path d="M113.53 91.1309H100.527V91.5641H113.53V91.1309Z" fill="#848186"/>
<path d="M113.53 91.8027H100.527V92.236H113.53V91.8027Z" fill="#848186"/>
<path d="M113.53 92.4746H100.527V92.907H113.53V92.4746Z" fill="#848186"/>
<path d="M113.53 93.1445H100.527V93.5773H113.53V93.1445Z" fill="#848186"/>
<path d="M113.53 93.8164H100.527V94.2492H113.53V93.8164Z" fill="#848186"/>
<path d="M113.53 94.4883H100.527V94.9211H113.53V94.4883Z" fill="#848186"/>
<path d="M112.345 85.4395H106.098V87.4838H112.345V85.4395Z" fill="#848186"/>
<path d="M112.282 87.9609H106.16V88.4764H112.282V87.9609Z" fill="#BCBCBE"/>
<path d="M112.282 89.5254H106.16V90.0408H112.282V89.5254Z" fill="#BCBCBE"/>
<path d="M112.282 88.7441H106.16V89.2596H112.282V88.7441Z" fill="#BCBCBE"/>
<path d="M105.703 85.6289H100.527V86.1443H105.703V85.6289Z" fill="#BCBCBE"/>
<path d="M105.703 87.1934H100.527V87.7088H105.703V87.1934Z" fill="#BCBCBE"/>
<path d="M105.703 86.4102H100.527V86.9256H105.703V86.4102Z" fill="#BCBCBE"/>
<path d="M105.703 87.9922H100.527V88.5077H105.703V87.9922Z" fill="#BCBCBE"/>
<path d="M105.703 89.5566H100.527V90.0721H105.703V89.5566Z" fill="#BCBCBE"/>
<path d="M105.703 88.7734H100.527V89.2889H105.703V88.7734Z" fill="#BCBCBE"/>
<path d="M110.798 84.1043H103.063C102.988 84.1043 102.916 84.0743 102.863 84.0211C102.809 83.9678 102.779 83.8955 102.779 83.8202V82.5204C102.779 82.4451 102.809 82.3728 102.863 82.3195C102.916 82.2663 102.988 82.2363 103.063 82.2363H110.798C110.873 82.2363 110.945 82.2663 110.999 82.3195C111.052 82.3728 111.082 82.4451 111.082 82.5204V83.8202C111.082 83.8955 111.052 83.9677 110.999 84.0209C110.946 84.0742 110.874 84.1042 110.798 84.1043ZM103.064 82.4364C103.053 82.4364 103.042 82.4386 103.032 82.4429C103.021 82.4471 103.012 82.4533 103.004 82.4612C102.996 82.469 102.99 82.4783 102.986 82.4885C102.982 82.4988 102.979 82.5098 102.979 82.5209V83.8206C102.979 83.8317 102.982 83.8427 102.986 83.853C102.99 83.8632 102.996 83.8725 103.004 83.8803C103.012 83.8882 103.021 83.8944 103.032 83.8986C103.042 83.9029 103.053 83.9051 103.064 83.9051H110.798C110.809 83.9051 110.82 83.9029 110.831 83.8986C110.841 83.8944 110.85 83.8882 110.858 83.8803C110.866 83.8725 110.872 83.8632 110.876 83.853C110.881 83.8427 110.883 83.8317 110.883 83.8206V82.5209C110.883 82.5098 110.881 82.4988 110.876 82.4885C110.872 82.4783 110.866 82.469 110.858 82.4612C110.85 82.4533 110.841 82.4471 110.831 82.4429C110.82 82.4386 110.809 82.4364 110.798 82.4364H103.064Z" fill="white"/>
<path d="M103.837 83.2496C104.073 83.4213 104.283 83.6257 104.462 83.8566H109.404C109.582 83.6257 109.793 83.4214 110.029 83.2496C110.176 83.2466 110.315 83.1862 110.418 83.0815C110.52 82.9768 110.578 82.8361 110.578 82.6895V82.1289C110.578 81.9803 110.519 81.8377 110.414 81.7325C110.309 81.6274 110.166 81.5684 110.018 81.5684H103.854C103.705 81.5684 103.562 81.6274 103.457 81.7325C103.352 81.8377 103.293 81.9803 103.293 82.1289V82.6895C103.293 82.8352 103.35 82.9751 103.451 83.0797C103.553 83.1843 103.691 83.2452 103.837 83.2496Z" fill="#535967"/>
<path d="M97.0791 21.6975L93.9668 35.7129L104.201 37.9856L107.313 23.9702L97.0791 21.6975Z" fill="white"/>
<path d="M95.4973 31.598L95.4297 31.9023L99.8276 32.879L99.8952 32.5746L95.4973 31.598Z" fill="#848186"/>
<path d="M95.3918 32.0706L95.3242 32.375L99.7222 33.3516L99.7898 33.0473L95.3918 32.0706Z" fill="#848186"/>
<path d="M95.2883 32.5433L95.2207 32.8477L99.6187 33.8243L99.6863 33.5199L95.2883 32.5433Z" fill="#848186"/>
<path d="M95.1691 33.0062L95.1016 33.3105L99.4997 34.2864L99.5672 33.982L95.1691 33.0062Z" fill="#848186"/>
<path d="M95.0774 33.4867L95.0098 33.791L99.4077 34.7676L99.4753 34.4633L95.0774 33.4867Z" fill="#848186"/>
<path d="M94.9738 33.9574L94.9062 34.2617L99.3042 35.2383L99.3718 34.934L94.9738 33.9574Z" fill="#848186"/>
<path d="M94.8546 34.4222L94.7871 34.7266L99.1852 35.7024L99.2528 35.398L94.8546 34.4222Z" fill="#848186"/>
<path d="M94.7491 34.8933L94.6816 35.1973L99.0797 36.1731L99.1472 35.8692L94.7491 34.8933Z" fill="#848186"/>
<path d="M100.374 32.682L100.307 32.9863L104.705 33.9629L104.772 33.6586L100.374 32.682Z" fill="#848186"/>
<path d="M100.269 33.155L100.201 33.459L104.599 34.4356L104.667 34.1317L100.269 33.155Z" fill="#848186"/>
<path d="M100.15 33.6156L100.082 33.9199L104.48 34.8958L104.548 34.5914L100.15 33.6156Z" fill="#848186"/>
<path d="M100.044 34.0882L99.9766 34.3926L104.375 35.3684L104.442 35.0641L100.044 34.0882Z" fill="#848186"/>
<path d="M99.9406 34.5609L99.873 34.8652L104.271 35.8411L104.339 35.5367L99.9406 34.5609Z" fill="#848186"/>
<path d="M99.8487 35.0418L99.7812 35.3457L104.179 36.3223L104.247 36.0184L99.8487 35.0418Z" fill="#848186"/>
<path d="M99.7316 35.5042L99.6641 35.8086L104.062 36.7844L104.13 36.4801L99.7316 35.5042Z" fill="#848186"/>
<path d="M99.626 35.9754L99.5586 36.2793L103.957 37.2551L104.024 36.9512L99.626 35.9754Z" fill="#848186"/>
<path d="M95.9219 29.6131L95.7676 30.3086L96.5774 30.4883L96.7317 29.7927L95.9219 29.6131Z" fill="#DAA19D"/>
<path d="M95.7111 30.6326L95.5566 31.3281L96.3664 31.5079L96.5208 30.8125L95.7111 30.6326Z" fill="#99CDF0"/>
<path d="M100.668 30.6697L100.514 31.3652L101.323 31.5449L101.477 30.8495L100.668 30.6697Z" fill="#CADA67"/>
<path d="M100.447 31.6834L100.293 32.3789L101.103 32.5587L101.257 31.8632L100.447 31.6834Z" fill="#E5B665"/>
<path d="M97.1232 30.1081L97.0605 30.3906L98.0125 30.6018L98.0751 30.3193L97.1232 30.1081Z" fill="#BCBCBE"/>
<path d="M96.8997 31.1572L96.8418 31.418L97.7937 31.6293L97.8516 31.3686L96.8997 31.1572Z" fill="#BCBCBE"/>
<path d="M101.772 31.1432L101.709 31.4258L102.661 31.6372L102.724 31.3546L101.772 31.1432Z" fill="#BCBCBE"/>
<path d="M101.542 32.1885L101.484 32.4492L102.436 32.6606L102.494 32.3998L101.542 32.1885Z" fill="#BCBCBE"/>
<path d="M100.773 23.5488C100.852 23.5547 100.93 23.5665 101.006 23.5841C101.149 23.6158 101.235 23.6618 101.296 23.732C101.331 23.7742 101.355 23.8245 101.366 23.8783C101.377 23.9321 101.375 23.9878 101.36 24.0406C101.351 24.0977 101.328 24.1519 101.295 24.1993C101.262 24.2467 101.219 24.2861 101.168 24.3144C101.075 24.3622 100.948 24.3667 100.801 24.3341C100.737 24.3202 100.673 24.3022 100.611 24.28L100.773 23.5488ZM100.809 24.1943C100.828 24.2015 100.847 24.2071 100.867 24.2108C101.02 24.2461 101.139 24.1844 101.179 24.0062C101.215 23.8521 101.142 23.7498 100.996 23.7177C100.97 23.7114 100.944 23.708 100.918 23.7074L100.809 24.1943Z" fill="#848186"/>
<path d="M101.584 24.298L101.488 24.4767L101.312 24.4378L101.707 23.7441L101.93 23.7937L101.997 24.5897L101.815 24.549L101.799 24.3449L101.584 24.298ZM101.802 24.214L101.79 24.0456C101.787 23.9987 101.786 23.9402 101.785 23.8938H101.782C101.761 23.9358 101.738 23.9894 101.716 24.0278L101.636 24.1761L101.802 24.214Z" fill="#848186"/>
<path d="M102.283 24.0217L102.082 23.9771L102.113 23.8359L102.69 23.9637L102.658 24.1048L102.454 24.0602L102.32 24.6632L102.149 24.6252L102.283 24.0217Z" fill="#848186"/>
<path d="M102.751 24.5578L102.655 24.7364L102.479 24.6976L102.873 24.0039L103.096 24.053L103.164 24.849L102.981 24.8083L102.966 24.6047L102.751 24.5578ZM102.969 24.4738L102.957 24.3054C102.953 24.2585 102.952 24.2 102.951 24.1535C102.93 24.1955 102.906 24.2491 102.885 24.2875L102.805 24.4354L102.969 24.4738Z" fill="#848186"/>
<path d="M97.0271 24.1387L95.9082 29.1802L97.0695 29.4379L104.959 31.1889L105.295 31.2634L106.414 26.2219L97.0271 24.1387ZM102.767 25.6573L104.229 25.9816L104.019 26.9299L102.557 26.6052L102.767 25.6573ZM99.1738 24.8596L100.635 25.1839L100.424 26.1304L98.963 25.8061L99.1738 24.8596ZM97.8195 29.3571L97.4072 29.2677L97.015 29.1806L96.4004 29.0444L96.2794 29.0176L96.3241 28.8108L96.4009 28.4642L96.4455 28.2601L96.4737 28.1323V28.1283L97.5189 28.3606L97.5117 28.3632L98.0031 28.4727L98.0102 28.47H98.0147L97.8195 29.3571ZM98.0875 28.1404L98.0451 28.1569L98.0299 28.2252L97.9267 28.2024L96.5688 27.9009L96.5242 27.8911L96.7475 26.8754L96.7922 26.8852V26.8825L98.2532 27.2068V27.2095L98.2903 27.2175L98.0875 28.1404ZM98.3457 26.983L96.802 26.6405L97.0276 25.6238L98.5712 25.9664L98.3457 26.983ZM98.623 25.7324L97.0794 25.3898L97.2897 24.4415L98.8334 24.7841L98.623 25.7324ZM99.6164 29.7559L98.1554 29.4317L98.3555 28.5424L99.8165 28.8666L99.6164 29.7559ZM99.8692 28.6335H99.8652L98.4176 28.3123H98.4082L98.4788 27.9934H98.4748L98.6297 27.2944H98.6333V27.2917L100.094 27.616L99.8692 28.6335ZM100.147 27.3828L100.088 27.3699H100.085L98.682 27.0572L98.9053 26.0415L100.366 26.3658L100.351 26.4314H100.355L100.147 27.3828ZM101.414 30.1566L99.9523 29.8323L100.15 28.943L101.612 29.2673L101.414 30.1566ZM101.663 29.0332L100.202 28.709L100.425 27.7089L100.429 27.6906L101.89 28.0148L101.797 28.4343L101.663 29.0332ZM101.941 27.7826L100.487 27.4601L100.479 27.457L100.703 26.4417L102.165 26.766L101.941 27.7826ZM102.218 26.5319L100.756 26.2076L100.967 25.2594L102.429 25.5836L102.218 26.5319ZM103.214 30.5524L101.75 30.2299L101.948 29.3405L103.41 29.6653L103.214 30.5524ZM103.486 29.3633H103.478L103.463 29.4312L102.001 29.1069L102.114 28.6L102.122 28.6044L102.178 28.353L102.17 28.3485L102.227 28.0917H102.236L103.697 28.4159L103.486 29.3633ZM103.741 28.1783L103.485 28.1216L102.279 27.8536L102.505 26.837L103.967 27.1617L103.955 27.2153L103.741 28.1783ZM105.011 30.9544L103.55 30.6301L103.748 29.7408L105.208 30.065L105.011 30.9544ZM105.26 29.831L103.799 29.5067L104.023 28.491L105.483 28.8153L105.26 29.831ZM105.575 28.5209L105.561 28.5866L105.537 28.5803L104.077 28.256L104.302 27.2394L104.586 27.3024L104.582 27.3055L104.976 27.3949L104.98 27.3917L105.763 27.5655V27.5695L105.787 27.5749L105.575 28.5209ZM105.839 27.335L105.815 27.3297L105.234 27.2024L104.838 27.113L104.377 27.0103L104.354 27.0054L104.564 26.0571L104.587 26.062L105.867 26.3461L106.048 26.3863L105.839 27.335Z" fill="#848186"/>
<path d="M96.28 28.9532L96.1934 28.7688L98.3132 27.7857L99.2177 28.5012L101.249 27.6427L101.953 28.5973L103.699 26.8477L105.545 29.4767L105.377 29.5929L103.672 27.1639L101.93 28.9099L101.18 27.8933L99.1865 28.7357L98.2855 28.0233L96.28 28.9532Z" fill="#DAA19D"/>
<path d="M102.856 28.7389L101.199 26.9897L99.8072 27.2506L99.0764 26.9942L97.6087 27.3091L96.5393 27.3171L96.5371 27.1139L97.5854 27.1059L99.0894 26.7829L99.8228 27.0407L101.27 26.7695L102.92 28.5106L105.888 27.7124L105.942 27.909L102.856 28.7389Z" fill="#99CDF0"/>
<path d="M98.9603 29.1423L97.443 27.7652L96.3259 28.0457L96.2754 27.8488L97.4993 27.541L99.017 28.9185L101.039 28.4227L102.336 29.5059L104.507 28.8064L105.679 28.7533L105.689 28.9561L104.545 29.0083L102.292 29.7341L100.987 28.6452L98.9603 29.1423Z" fill="#CADA67"/>
<path d="M96.2989 28.391L96.252 28.1927L99.1968 27.5164L99.7217 27.8572L102.853 26.2988L103.584 27.5348L106.14 26.5311L106.216 26.72L103.496 27.788L102.774 26.5664L99.7087 28.0913L99.1584 27.734L96.2989 28.391Z" fill="#E5B665"/>
<path d="M96.9497 24.5239L95.9531 29.0117L96.271 29.0823L97.2675 24.5945L96.9497 24.5239Z" fill="#848186"/>
<path d="M106.079 26.1479L104.959 31.1895L105.301 31.2655L106.421 26.2239L106.079 26.1479Z" fill="#848186"/>
</svg>
