<svg width="138" height="122" viewBox="0 0 138 122" fill="none" xmlns="http://www.w3.org/2000/svg">
<path d="M54.9888 97.0584C55.5781 99.7795 53.8496 102.463 51.1284 103.053C48.4073 103.642 45.7241 101.913 45.1348 99.1924C44.5455 96.4712 46.274 93.788 48.9951 93.1987C51.7163 92.6094 54.3995 94.3379 54.9888 97.0584Z" fill="white"/>
<path d="M49.1929 94.1256C46.9853 94.6033 45.5786 96.7881 46.0563 98.995C46.534 101.203 48.7188 102.609 50.9265 102.132C53.1334 101.654 54.5408 99.4692 54.0624 97.2615C53.5847 95.0546 51.3999 93.6472 49.1929 94.1256ZM51.3262 103.979C48.1002 104.678 44.9071 102.622 44.2084 99.3955C43.5104 96.1688 45.5664 92.9764 48.7924 92.2777C52.0185 91.579 55.2116 93.6357 55.9103 96.8618C56.609 100.088 54.5522 103.281 51.3262 103.979Z" fill="#E6F4FF"/>
<path d="M87.487 60.3183C88.0763 63.0395 86.3478 65.7234 83.6267 66.3127C80.9055 66.9013 78.2222 65.1735 77.6328 62.4523C77.0435 59.7312 78.7721 57.048 81.4932 56.4587C84.2135 55.8695 86.8977 57.5972 87.487 60.3183Z" fill="white"/>
<path d="M81.679 57.3768C79.472 57.8553 78.0648 60.04 78.5429 62.2469C79.0209 64.4546 81.2052 65.8613 83.4122 65.3837C85.6201 64.9052 87.0264 62.7211 86.5492 60.5135C86.0711 58.3058 83.8869 56.8991 81.679 57.3768ZM83.8125 67.2309C80.5869 67.9295 77.3933 65.8735 76.6948 62.6475C75.9963 59.4207 78.053 56.2283 81.2786 55.5296C84.5051 54.8309 87.6979 56.887 88.3972 60.1137C89.0949 63.3397 87.039 66.5329 83.8125 67.2309Z" fill="#E6F4FF"/>
<path d="M115.559 61.4301C116.149 64.1513 114.42 66.8346 111.699 67.4238C108.977 68.013 106.294 66.2846 105.705 63.5634C105.116 60.8423 106.844 58.1591 109.566 57.5698C112.287 56.9805 114.97 58.709 115.559 61.4301Z" fill="white"/>
<path d="M109.765 58.5099C107.557 58.9876 106.151 61.1724 106.629 63.38C107.107 65.587 109.291 66.9937 111.499 66.516C113.705 66.0383 115.113 63.8535 114.635 61.6465C114.157 59.4389 111.973 58.0315 109.765 58.5099ZM111.898 68.3639C108.673 69.0619 105.479 67.0059 104.781 63.7798C104.082 60.5538 106.138 57.3606 109.365 56.662C112.591 55.9632 115.784 58.0201 116.483 61.2461C117.181 64.4721 115.124 67.6653 111.898 68.3639Z" fill="#E6F4FF"/>
<path d="M20.9458 90.1528C21.5349 92.8739 19.8067 95.5579 17.0855 96.1464C14.3645 96.7357 11.681 95.0079 11.0918 92.2868C10.5025 89.5657 12.2308 86.8817 14.9519 86.2924C17.673 85.7039 20.3565 87.4316 20.9458 90.1528Z" fill="white"/>
<path d="M15.1515 87.2186C12.9442 87.6971 11.5372 89.8811 12.0151 92.0888C12.493 94.2965 14.6777 95.7031 16.885 95.2254C19.0924 94.747 20.4994 92.5629 20.0215 90.3553C19.5435 88.1476 17.3589 86.7409 15.1515 87.2186ZM17.2852 97.0727C14.059 97.7714 10.866 95.7153 10.1675 92.4886C9.46896 89.2625 11.5253 86.0694 14.7514 85.3714C17.9777 84.6727 21.1706 86.7288 21.8691 89.9548C22.5676 93.1815 20.5113 96.374 17.2852 97.0727Z" fill="#E6F4FF"/>
<path d="M31.6144 113.932H10.9766V109.958H31.6144V113.932Z" fill="#E0E0E0"/>
<path d="M45.9717 73.1504H25.334V69.1763H45.9717V73.1504Z" fill="#E0E0E0"/>
<path d="M88.7705 101.572H68.1328V97.5981H88.7705V101.572Z" fill="#E0E0E0"/>
<path d="M107.282 45.7656H86.6445V41.7917H107.282V45.7656Z" fill="#E0E0E0"/>
<path d="M137.259 79.0156H116.621V75.0415H137.259V79.0156Z" fill="#E0E0E0"/>
<path d="M114.568 116.816H98.498V79.6595H114.568V116.816Z" fill="url(#paint0_linear)"/>
<path d="M34.8633 58.466C34.8633 58.466 34.9999 57.8138 35.9517 57.8167C37.2733 57.821 37.3799 59.6997 37.1568 60.8675C36.8607 62.4165 36.3 63.0494 37.3692 67.0664C37.3692 67.0664 35.0042 62.1004 35.3753 60.6236C35.6478 59.5402 34.8633 58.466 34.8633 58.466Z" fill="#3A3F47"/>
<path d="M27.4277 70.9908C27.4277 70.9908 26.8642 70.7069 26.8706 70.3987C26.8771 70.0904 26.7348 69.6749 26.684 69.5462C26.6153 69.3746 26.591 68.7603 26.3851 68.8539C26.1791 68.9476 26.3786 69.8695 26.3843 70.0726C26.3901 70.2757 25.7185 69.7264 25.5197 69.73C25.3209 69.7336 24.5085 70.9837 25.0113 71.3033C25.514 71.623 26.232 71.6459 26.3328 71.6824C26.438 71.721 26.817 71.8633 26.817 71.8633L27.4277 70.9908Z" fill="#EEA886"/>
<path d="M25.6521 69.7746C25.6521 69.7746 24.0502 68.9064 23.8957 68.9443C23.742 68.9829 23.7012 69.0787 23.8478 69.1667C23.9944 69.2547 25.3725 70.0535 25.3725 70.0535C25.3725 70.0535 23.3079 69.3677 23.1763 69.3698C23.099 69.3705 23.0096 69.5514 23.084 69.6065C23.1584 69.6616 25.1658 70.4661 25.1658 70.4661C25.1658 70.4661 23.2371 69.8296 23.1262 69.8661C23.0297 69.8983 22.9868 70.0857 23.1269 70.1429C23.2664 70.2008 25.0235 70.9002 25.0235 70.9002C25.0235 70.9002 23.5911 70.5312 23.5131 70.6206C23.4659 70.6749 23.3822 70.8273 23.7548 70.9102C24.1281 70.9932 24.9863 71.2871 24.9863 71.2871L25.6521 69.7746Z" fill="#EEA886"/>
<path d="M32.2808 72.2011C32.2808 72.2011 29.6576 71.6197 29.152 71.4659C28.5713 71.2893 27.435 70.9896 27.435 70.9896L26.8242 71.8621C26.8242 71.8621 30.2083 73.597 30.8319 73.8438C31.414 74.074 32.9916 74.6426 32.9916 74.6426L32.2808 72.2011Z" fill="#EEA886"/>
<path d="M20.9146 83.0783C20.9146 83.0783 20.1487 86.3437 20.1234 86.983C20.0983 87.6224 17.887 96.1326 17.7265 96.5553C17.566 96.9786 18.5555 97.3384 18.8373 97.0602C19.1192 96.7813 21.3092 92.0341 21.81 91.153C22.3109 90.272 23.537 88.2238 23.6064 86.1763C23.6751 84.1289 20.9146 83.0783 20.9146 83.0783Z" fill="#DE9673"/>
<path d="M20.3516 84.065C20.3516 84.065 21.5434 87.2002 21.8802 87.7445C22.217 88.2887 25.1448 96.5794 25.2485 97.0199C25.3522 97.4605 26.3677 97.1673 26.4456 96.7782C26.5229 96.3899 25.689 91.268 25.611 90.2575C25.5338 89.247 25.4036 86.8634 24.3159 85.1277C23.2275 83.3914 20.3516 84.065 20.3516 84.065Z" fill="#EEA886"/>
<path d="M26.5002 96.7833C26.5002 96.7833 25.1715 96.4758 25.1307 96.4414C25.0899 96.4071 25.0778 96.3277 24.9004 96.4093C24.7231 96.4908 24.6623 96.7683 24.4892 96.8634C24.3161 96.9592 23.2506 97.3297 22.6732 97.6508C22.4643 97.7666 21.5759 98.1571 21.4598 98.4524C21.3436 98.7478 21.4059 99.179 22.9567 98.9981C24.5078 98.8179 26.2213 98.9516 26.5538 98.765C26.8864 98.5776 26.6118 97.2288 26.5002 96.7833Z" fill="#E0E0E0"/>
<path d="M18.9036 97.0898C18.9036 97.0898 17.6717 96.5048 17.6394 96.4626C17.6071 96.4197 17.6116 96.3403 17.4212 96.3811C17.2307 96.4226 17.1116 96.6807 16.922 96.7372C16.7325 96.7937 15.6127 96.926 14.9794 97.1163C14.7506 97.1842 13.799 97.3752 13.6222 97.639C13.4455 97.9022 13.4137 98.337 14.9675 98.4929C16.5213 98.6495 18.166 99.1487 18.5306 99.0364C18.8954 98.9249 18.9172 97.5489 18.9036 97.0898Z" fill="#E0E0E0"/>
<path d="M31.5568 78.5062C31.5568 78.5062 21.2768 80.7647 20.3516 84.0579C20.3516 84.0579 22.1683 83.7883 24.0077 84.7988C24.0077 84.7988 28.802 84.4627 33.5985 84.575C34.1964 84.5886 38.3879 83.3828 37.7378 79.855C37.0799 76.2807 31.5568 78.5062 31.5568 78.5062Z" fill="#2F4563"/>
<path d="M33.3017 64.2215C33.4511 64.3645 33.5863 64.5626 33.705 64.7807C33.818 64.9867 33.916 65.2091 33.9975 65.4172C34.1734 65.8684 34.2721 66.2539 34.2721 66.2539C34.2721 66.2539 36.7036 64.9695 36.1108 64.4839C35.5179 63.9983 35.2583 62.0996 35.2583 62.0996C35.2583 62.0996 32.8096 63.7502 33.3017 64.2215Z" fill="#EEA987"/>
<path d="M30.456 59.6386C30.456 59.6386 29.9539 60.3981 30.712 61.9735C30.712 61.9735 30.933 63.3344 30.795 63.6205C30.6569 63.9073 31.4257 63.785 31.5501 63.9287C31.6746 64.0732 32.0386 64.8077 32.6887 65.1309C33.338 65.4541 35.5156 63.328 35.4191 62.4963C35.3225 61.6653 36.1528 57.7549 33.2901 58.3835C30.4266 59.0128 30.456 59.6386 30.456 59.6386Z" fill="#EEA886"/>
<path d="M30.4781 61.3936C30.4781 61.3936 29.2023 58.0403 32.7108 57.7249C36.2193 57.4102 35.5464 61.651 35.4384 63.002C35.4384 63.002 34.9628 61.0825 33.3387 61.468C31.7146 61.8534 31.2791 61.5745 30.4781 61.3936Z" fill="#3A3F47"/>
<path d="M33.4717 60.915C33.5754 60.5095 34.3163 60.5038 34.3856 61.0581C34.455 61.6123 34.051 62.2974 33.7964 62.0914C33.5418 61.8848 33.3194 61.5107 33.4717 60.915Z" fill="#EEA886"/>
<path d="M33.7109 64.7756C33.8239 64.9816 33.9219 65.204 34.0034 65.4121C34.7536 64.7806 35.0633 63.404 35.0633 63.404C34.5899 64.1141 33.7116 64.7756 33.7116 64.7756H33.7109Z" fill="#A77860"/>
<path d="M33.9186 65.8353C33.9186 65.8353 31.7753 68.2868 31.5028 68.4814C31.231 68.6759 30.4151 70.4244 31.5028 71.4735C31.5028 71.4735 31.6015 72.5906 31.796 73.0175C31.9905 73.4452 31.8525 77.8469 31.5421 78.3525C31.231 78.8574 35.6421 80.5337 37.7403 79.8536C37.7403 79.8536 37.1453 77.0309 36.9508 75.5928C36.757 74.1553 37.6238 69.966 37.6431 68.8389C37.6624 67.7119 36.8814 64.8498 36.1155 64.538C35.3503 64.2262 33.9186 65.8353 33.9186 65.8353Z" fill="#5F8CC9"/>
<path d="M30.6655 78.8002L22.8903 81.3926L22.7305 80.9134L30.506 78.3203L30.6655 78.8002Z" fill="#6E6760"/>
<path d="M22.8878 81.3926L16.3379 76.4652L16.6416 76.0619L23.1914 80.9892L22.8878 81.3926Z" fill="#6E6760"/>
<path d="M24.8501 80.2402C24.7857 80.0715 24.7728 79.799 25.2777 79.4235C25.7833 79.0481 26.884 78.0118 27.2987 77.9339C27.7135 77.8559 28.0239 78.0376 28.1927 78.0111C28.3607 77.9854 28.581 78.9959 28.581 78.9959L24.8501 80.2402Z" fill="#EEA886"/>
<path d="M28.1896 78.0087C28.1896 78.0087 30.3951 77.1026 30.7706 76.9209C31.146 76.7393 32.9603 76.105 33.1155 76.027C33.2707 75.949 34.0874 71.7004 34.1518 70.599C34.2168 69.4977 34.2812 67.1663 35.5248 67.2693C36.7685 67.373 37.0667 68.1897 36.9115 69.7959C36.7556 71.4021 35.8359 77.1541 35.4476 77.3486C35.0586 77.5424 30.4559 78.4599 28.2532 79.1079C26.0513 79.7558 28.1896 78.0087 28.1896 78.0087Z" fill="#EEA886"/>
<path d="M42.4259 116.814H28.0078V84.5627H42.4259V116.814Z" fill="url(#paint1_linear)"/>
<path d="M34.9961 58.6351C34.9961 58.6351 35.5224 59.5826 35.4688 60.2949C35.4688 60.2949 35.9515 59.2158 34.9961 58.6351Z" fill="#5F8CC9"/>
<path d="M72.1668 116.816H55.9395V67.2905H72.1668V116.816Z" fill="url(#paint2_linear)"/>
<path d="M83.0687 78.3007C83.0687 78.3007 84.3697 78.8878 84.9509 79.0916C85.5322 79.2954 87.6609 79.0659 87.8975 79.249C88.134 79.4313 88.1441 80.1222 87.8019 80.243C87.4596 80.3639 84.9165 80.9911 84.03 80.9017C83.1434 80.8116 81.5833 81.4102 81.2109 81.3329C80.8385 81.2549 80.8058 79.1638 80.8846 78.6819C80.9634 78.1998 83.0687 78.3007 83.0687 78.3007Z" fill="#484E7D"/>
<path d="M82.769 77.4744L83.0686 78.3125C83.0686 78.3125 81.4994 78.8711 80.8848 78.6937L80.6797 77.8391L82.769 77.4744Z" fill="#EEA886"/>
<path d="M79.5601 79.056C79.5601 79.056 80.7884 79.8039 81.3426 80.0808C81.8977 80.3567 84.0361 80.3997 84.2507 80.6114C84.4654 80.8224 84.3985 81.5096 84.0467 81.5862C83.6933 81.6626 81.0986 81.9623 80.2277 81.7606C79.3577 81.5596 77.7424 81.9552 77.3808 81.8307C77.0201 81.7063 77.2184 79.6259 77.3498 79.1575C77.4812 78.6884 79.5601 79.056 79.5601 79.056Z" fill="#5B639E"/>
<path d="M79.3866 78.1782L79.5698 79.0493C79.5698 79.0493 77.9504 79.4046 77.3593 79.1507L77.25 78.2761L79.3866 78.1782Z" fill="#EEA886"/>
<path d="M67.0788 62.504C67.0788 62.504 72.6752 62.5534 73.3617 62.6506C74.1048 62.7558 77.0174 62.8501 77.3683 63.3829C80.9173 68.7694 83.234 77.5886 83.234 77.5886L80.4289 78.1406C80.4289 78.1406 77.7168 72.8836 76.5799 70.1533C75.5603 67.701 74.687 67.0709 72.545 67.1253C70.403 67.1789 63.5516 66.707 59.6016 66.2178L67.0788 62.504Z" fill="#292C47"/>
<path d="M66.4907 49.5211C66.4907 49.5211 68.1512 53.0956 68.0166 54.4225C67.882 55.7499 66.4541 59.4301 66.3532 60.1695C66.2522 60.909 66.9747 62.3708 66.9747 62.3708L59.4969 65.832C59.4969 65.832 59.1962 63.6437 59.4969 61.1235C59.7984 58.6034 60.0204 55.8944 60.3533 54.4697C61.4876 49.6091 64.4879 47.5949 64.4879 47.5949L66.4907 49.5211Z" fill="#EB4747"/>
<path d="M66.9761 62.3708C66.9761 62.3708 72.5727 62.4201 73.2584 62.5174C74.0023 62.6225 76.9805 62.6733 77.2655 63.2497C79.2989 67.3569 79.7563 78.3187 79.7563 78.3187L77.1395 78.6348C77.1395 78.6348 75.8547 73.0716 75.4508 70.422C75.0478 67.7716 74.5439 67.3869 72.4018 67.4412C70.2589 67.4948 61.8692 69.6403 59.498 65.8321L66.9761 62.3708Z" fill="#323657"/>
<path d="M62.1353 52.896C62.1522 52.2038 62.5541 49.2172 64.2388 49.4219C65.9236 49.6258 65.7285 51.6471 65.573 53.1716C65.4094 54.7664 64.5821 58.6775 64.8454 58.8792C65.1087 59.0802 67.1073 59.6809 67.5371 59.7668C67.9669 59.8525 70.5582 60.4883 70.7709 60.5477C70.9784 60.6056 70.5618 61.6133 70.5618 61.6133C70.5618 61.6133 63.3859 61.403 62.1852 60.8344C60.9853 60.2652 62.1353 52.896 62.1353 52.896Z" fill="#EEA886"/>
<path d="M70.7699 60.5588C70.7699 60.5588 71.303 60.6933 71.5599 60.7133C71.8168 60.734 73.034 60.2513 73.4122 60.3207C73.791 60.3908 76.2262 61.5658 76.3351 61.648C76.444 61.7302 76.2699 61.8926 76.2699 61.8926L70.5605 61.6859L70.7699 60.5588Z" fill="#EEA886"/>
<path d="M77.8833 62.7754L68.3887 62.3913L68.4236 61.5217L77.9182 61.9057L77.8833 62.7754Z" fill="#807066"/>
<path d="M81.1052 53.8324L77.8936 62.7754L77.0742 62.4814L80.2858 53.5382L81.1052 53.8324Z" fill="#807066"/>
<path d="M70.8311 43.9034C70.8311 43.9034 71.0109 45.3707 70.6125 45.4323C70.2845 45.483 70.4004 46.8997 70.4004 47.1235C70.4004 47.348 69.7834 47.2695 69.6154 47.348C69.4474 47.4265 68.4921 48.8264 68.0123 48.6921C67.5325 48.5578 65.7342 47.0193 65.3982 46.2079C65.0622 45.3971 65.6396 42.5534 66.4569 41.579C67.2749 40.604 70.5068 41.3347 70.8311 43.9034Z" fill="#EEA886"/>
<path d="M67.0909 47.6446C67.0909 47.6446 67.043 47.7733 66.9715 47.9729C66.9186 48.1202 66.8535 48.3054 66.7863 48.5071C66.6032 49.0535 66.4037 49.7157 66.388 50.0397C66.3601 50.6447 64.4785 47.5974 64.4785 47.5974C64.4785 47.5974 65.1558 45.7624 65.577 43.6162C65.9989 41.47 67.0909 47.6446 67.0909 47.6446Z" fill="#EEA886"/>
<path d="M70.8618 44.2085C70.8618 44.2085 72.0414 43.1607 71.2096 41.7155C70.3779 40.2703 67.4763 41.0998 67.1988 41.0657C66.9213 41.0324 65.4739 40.5729 65.1935 43.3627C64.9138 46.1517 65.0899 45.7336 65.0899 45.7336C65.0899 45.7336 65.801 44.5356 66.3086 44.7294C66.8155 44.9226 67.7035 45.0151 67.7035 45.0151C67.7035 45.0151 67.7198 43.7127 68.4509 43.8133C69.1813 43.914 70.2839 43.6927 70.8618 44.2085Z" fill="#D88A51"/>
<path d="M62.0098 53.0266L65.8565 53.166C65.8565 53.166 66.4537 49.1633 64.2432 49.2406C62.0319 49.3171 62.0098 53.0266 62.0098 53.0266Z" fill="#D13F3F"/>
<path d="M67.2542 44.0913C67.2563 43.9125 67.3278 43.1688 66.5998 43.3368C65.8718 43.5056 66.3102 45.1311 66.4039 45.1862C66.4975 45.242 67.2377 45.5953 67.2542 44.0913Z" fill="#EEA886"/>
<path d="M64.4785 47.5937C64.4785 47.5937 67.7789 53.5588 67.6931 52.7127C67.6259 52.0519 66.1963 48.8595 66.1963 48.8595L64.4785 47.5937Z" fill="#EEA886"/>
<path d="M66.9762 47.9677C66.9233 48.1151 66.8582 48.3003 66.791 48.502C66.1252 47.6738 65.6639 46.737 65.5273 46.4452C65.7991 46.9401 66.9762 47.9677 66.9762 47.9677Z" fill="#A77860"/>
<path d="M86.9392 46.6289L90.5927 44.5194L86.9392 42.41V43.6602H81.8711V45.3786H86.9392V46.6289Z" fill="#6EA2E8"/>
<path d="M85.5245 47.3514L81.8711 49.4609L85.5245 51.5703V50.3201H90.5927V48.6016H85.5245V47.3514Z" fill="#6EA2E8"/>
<path d="M45.2034 57.4961L48.4316 55.6324L45.2034 53.7687V54.8736H40.7266V56.3919H45.2034V57.4961Z" fill="#6EA2E8"/>
<path d="M43.954 58.134L40.7266 59.9977L43.954 61.8613V60.7564H48.4316V59.2389H43.954V58.134Z" fill="#6EA2E8"/>
<path d="M106.121 41.7969H101.421C101.162 41.388 100.984 40.9566 100.964 40.5312C100.964 40.5312 100.768 39.668 101.899 39.2639C102.108 39.1889 102.304 39.1583 102.485 39.1583C103.28 39.1583 103.774 39.7471 103.774 39.7471C103.774 39.7471 104.267 39.1725 105.051 39.1725C105.236 39.1725 105.439 39.2048 105.654 39.2845C106.781 39.7012 106.575 40.5621 106.575 40.5621C106.551 40.9781 106.375 41.3986 106.121 41.7969Z" fill="url(#paint3_linear)"/>
<path d="M103.741 44.0605C103.741 44.0605 102.204 43.0218 101.412 41.7712H106.112C105.312 43.0248 103.741 44.0605 103.741 44.0605Z" fill="url(#paint4_linear)"/>
<path d="M95.8554 15.1113C95.8554 15.1113 93.1485 13.2817 93.0699 11.5561C93.0699 11.5561 92.8721 10.6932 94.0032 10.2885C94.2129 10.2135 94.4098 10.1837 94.5905 10.1837C95.3856 10.1837 95.8789 10.7718 95.8789 10.7718C95.8789 10.7718 96.3713 10.1972 97.1555 10.1972C97.3408 10.1972 97.5431 10.2297 97.76 10.3092C98.8857 10.7258 98.6788 11.5868 98.6788 11.5868C98.5822 13.3125 95.8554 15.1113 95.8554 15.1113Z" fill="url(#paint5_linear)"/>
<path d="M39.0507 39.9609C39.0507 39.9609 36.3431 38.1316 36.2652 36.4052C36.2652 36.4052 36.0678 35.542 37.1991 35.138C37.4087 35.0629 37.6053 35.0329 37.7863 35.0329C38.5808 35.0329 39.0743 35.6214 39.0743 35.6214C39.0743 35.6214 39.567 35.0464 40.3508 35.0464C40.5367 35.0464 40.7391 35.0793 40.9551 35.1587C42.0815 35.5757 41.8748 36.4367 41.8748 36.4367C41.7775 38.1616 39.0507 39.9609 39.0507 39.9609Z" fill="url(#paint6_linear)"/>
<path d="M30.0327 11.8496C30.0327 11.8496 27.3259 10.0204 27.2476 8.29437C27.2476 8.29437 27.0501 7.43134 28.1816 7.02688C28.3915 6.95228 28.5875 6.92156 28.7689 6.92156C29.5631 6.92156 30.0576 7.51033 30.0576 7.51033C30.0576 7.51033 30.5491 6.93546 31.3338 6.93546C31.5196 6.93546 31.7215 6.96764 31.9372 7.04736C33.0635 7.46425 32.8573 8.32509 32.8573 8.32509C32.76 10.0504 30.0327 11.8496 30.0327 11.8496Z" fill="url(#paint7_linear)"/>
<path d="M94.6704 36.1152H86.543V35.4667H94.6704V36.1152Z" fill="url(#paint8_linear)"/>
<path d="M93.8188 34.9902H87.3691V34.3412H93.8188V34.9902Z" fill="url(#paint9_linear)"/>
<path d="M90.6058 26.7695C89.8557 26.7695 89.2461 26.1608 89.2461 25.4098C89.2461 24.658 89.8557 24.0493 90.6058 24.0493C91.3576 24.0493 91.9664 24.658 91.9664 25.4098C91.9664 26.1608 91.3576 26.7695 90.6058 26.7695Z" fill="url(#paint10_linear)"/>
<path d="M90.6008 32.8027C89.7631 32.8027 88.9559 32.629 88.2017 32.2857C88.1791 32.2753 88.1574 32.2649 88.1348 32.2545V29.8458C88.1348 28.4851 89.2383 27.3798 90.6008 27.3798C91.9624 27.3798 93.0659 28.4851 93.0659 29.8458V32.2545C93.0433 32.2649 93.0216 32.2753 92.999 32.2857C92.2447 32.629 91.4375 32.8027 90.6008 32.8027Z" fill="url(#paint11_linear)"/>
<path d="M90.5825 33.1406C89.6992 33.1406 88.8461 32.957 88.0501 32.5942C85.8653 31.6021 84.4551 29.411 84.4551 27.0123C84.4551 23.6339 87.2033 20.8848 90.5825 20.8848C93.9618 20.8848 96.7109 23.6339 96.7109 27.0123C96.7109 29.411 95.2989 31.6021 93.115 32.5942C92.3181 32.957 91.4659 33.1406 90.5825 33.1406ZM88.1169 32.2688C88.1392 32.2795 88.1615 32.2893 88.1838 32.3C88.9379 32.6432 89.7455 32.8171 90.5825 32.8171C91.4196 32.8171 92.2272 32.6432 92.9813 32.3C93.0036 32.2893 93.0258 32.2795 93.0481 32.2688C95.0787 31.315 96.3873 29.2595 96.3873 27.0123C96.3873 23.8122 93.7826 21.2084 90.5825 21.2084C87.3815 21.2084 84.7778 23.8122 84.7778 27.0123C84.7778 29.2595 86.0863 31.315 88.1169 32.2688Z" fill="url(#paint12_linear)"/>
<path d="M48.2348 25.3105H40.9238V24.727H48.2348V25.3105Z" fill="url(#paint13_linear)"/>
<path d="M47.4797 24.2676H41.6777V23.684H47.4797V24.2676Z" fill="url(#paint14_linear)"/>
<path d="M45.8132 15.6553C45.8132 16.3311 45.2654 16.8789 44.5896 16.8789C43.9138 16.8789 43.3652 16.3311 43.3652 15.6553C43.3652 14.9795 43.9138 14.4317 44.5896 14.4317C45.2654 14.4317 45.8132 14.9795 45.8132 15.6553Z" fill="url(#paint15_linear)"/>
<path d="M46.7915 19.6535V21.9805C46.1157 22.2881 45.3648 22.459 44.5739 22.459C43.7829 22.459 43.0313 22.2881 42.3555 21.9805V19.6535C42.3555 18.4284 43.3481 17.4351 44.5739 17.4351C45.7989 17.4351 46.7915 18.4284 46.7915 19.6535Z" fill="url(#paint16_linear)"/>
<path d="M44.5834 11.8789C41.7035 11.8789 39.3614 14.221 39.3614 17.1009C39.3614 19.1441 40.5643 21.0113 42.4251 21.8574C43.1037 22.1656 43.8296 22.3222 44.5834 22.3222C45.3364 22.3222 46.0623 22.1656 46.741 21.8574C48.6025 21.0113 49.8047 19.1441 49.8047 17.1009C49.8047 14.221 47.4626 11.8789 44.5834 11.8789ZM44.5834 22.6133C43.7881 22.6133 43.0215 22.4481 42.3049 22.122C40.3397 21.2288 39.0703 19.2578 39.0703 17.1009C39.0703 14.0608 41.5433 11.5878 44.5834 11.5878C47.6228 11.5878 50.0957 14.0608 50.0957 17.1009C50.0957 19.2578 48.8264 21.2288 46.8618 22.122C46.1446 22.4481 45.3779 22.6133 44.5834 22.6133Z" fill="url(#paint17_linear)"/>
<path d="M77.5405 19.7012H62.2222C61.0122 19.7012 60.0312 18.7203 60.0312 17.5095V2.19197C60.0312 0.981965 61.0122 0.00105499 62.2222 0.00105499H77.5405C78.7505 0.00105499 79.7314 0.981965 79.7314 2.19197V17.5095C79.7314 18.7203 78.7505 19.7012 77.5405 19.7012Z" fill="url(#paint18_linear)"/>
<path d="M72.078 10.1707C72.1796 10.1707 72.273 10.1474 72.3573 10.0999C72.4416 10.0525 72.5176 9.99004 72.5853 9.91252C72.6523 9.83499 72.7042 9.74467 72.7419 9.64381C72.7788 9.5422 72.7976 9.43456 72.7976 9.3194C72.7976 9.19822 72.7773 9.08457 72.7366 8.97994C72.6967 8.87532 72.644 8.78425 72.5801 8.70672C72.5161 8.62919 72.4401 8.56822 72.352 8.52457C72.2639 8.48016 72.1736 8.45833 72.078 8.45833C71.9772 8.45833 71.8846 8.48241 71.8003 8.52908C71.7152 8.5765 71.6392 8.63898 71.5715 8.7165C71.5045 8.79478 71.4518 8.88585 71.4149 8.99048C71.378 9.0951 71.3592 9.20499 71.3592 9.3194C71.3592 9.55574 71.4299 9.75672 71.5715 9.92231C71.7145 10.0879 71.8823 10.1707 72.078 10.1707ZM72.078 10.8496C71.8424 10.8496 71.6226 10.809 71.4202 10.7277C71.2169 10.6464 71.0416 10.5388 70.8933 10.4033C70.7443 10.2685 70.6261 10.1082 70.5388 9.92231C70.4507 9.73639 70.4071 9.53542 70.4071 9.3194C70.4071 9.10338 70.4507 8.90242 70.5388 8.7165C70.6261 8.53134 70.7443 8.36876 70.8933 8.23026C71.0416 8.09177 71.2169 7.98188 71.4202 7.90135C71.6226 7.82006 71.8424 7.77941 72.078 7.77941C72.3151 7.77941 72.5341 7.82006 72.7366 7.90135C72.9398 7.98188 73.1175 8.09177 73.2688 8.23026C73.4216 8.36876 73.539 8.53134 73.6233 8.7165C73.7083 8.90242 73.7505 9.10338 73.7505 9.3194C73.7505 9.53542 73.7083 9.73639 73.6233 9.92231C73.539 10.1082 73.4216 10.2685 73.2688 10.4033C73.1175 10.5388 72.9398 10.6464 72.7366 10.7277C72.5341 10.809 72.3151 10.8496 72.078 10.8496ZM68.1678 5.84425C68.2694 5.84425 68.362 5.82092 68.4463 5.7735C68.5314 5.72684 68.6066 5.66436 68.6744 5.58608C68.7421 5.50855 68.794 5.41748 68.8317 5.31286C68.8686 5.20823 68.8874 5.09834 68.8874 4.98318C68.8874 4.74684 68.8166 4.54662 68.6744 4.38103C68.5321 4.21544 68.3635 4.13265 68.1678 4.13265C68.067 4.13265 67.9736 4.15598 67.8893 4.20339C67.8043 4.25081 67.7282 4.31329 67.6612 4.39082C67.5935 4.46834 67.5416 4.55791 67.5039 4.65953C67.4671 4.76039 67.4482 4.86877 67.4482 4.98318C67.4482 5.22028 67.5197 5.42275 67.6612 5.59135C67.8028 5.75995 67.9721 5.84425 68.1678 5.84425ZM67.0636 10.2715L69.9208 6.93866L72.5545 3.47405L73.1724 4.02125L70.4071 7.29317L67.6816 10.8188L67.0636 10.2715ZM68.1678 6.52317C67.9315 6.52317 67.7124 6.48253 67.5092 6.40199C67.3067 6.3207 67.1306 6.21081 66.9823 6.07232C66.8341 5.93383 66.7159 5.77199 66.6278 5.58608C66.5397 5.40092 66.4961 5.19995 66.4961 4.98318C66.4961 4.77393 66.5397 4.57522 66.6278 4.38555C66.7159 4.19662 66.8341 4.0348 66.9823 3.89931C67.1306 3.76458 67.3067 3.6562 67.5092 3.57566C67.7124 3.49437 67.9315 3.45372 68.1678 3.45372C68.3974 3.45372 68.6157 3.49437 68.8211 3.57566C69.0274 3.6562 69.205 3.76458 69.3533 3.89931C69.5016 4.0348 69.6205 4.19662 69.7078 4.38555C69.7951 4.57522 69.8395 4.77393 69.8395 4.98318C69.8395 5.19995 69.7951 5.40092 69.7078 5.58608C69.6205 5.77199 69.5016 5.93383 69.3533 6.07232C69.205 6.21081 69.0274 6.3207 68.8211 6.40199C68.6157 6.48253 68.3974 6.52317 68.1678 6.52317Z" fill="#4BADCC"/>
<path d="M65.7114 13.0527H63.9336V11.2763H64.2611V12.7252H65.7114V13.0527Z" fill="#4BADCC"/>
<path d="M76.3016 13.043H74.5234V12.7151H75.9737V11.2664H76.3016V13.043Z" fill="#4BADCC"/>
<path d="M64.251 3.88477H63.9238V2.10796H65.7014V2.43592H64.251V3.88477Z" fill="#4BADCC"/>
<path d="M76.3016 3.88477H75.9737V2.43607H74.5234V2.10817H76.3016V3.88477Z" fill="#4BADCC"/>
<path d="M73.8664 15.7598H64.7461V15.1258H73.8664V15.7598Z" fill="#3F8BC0"/>
<path d="M70.9862 17.2812H64.7461V16.6467H70.9862V17.2812Z" fill="#3F8BC0"/>
<path d="M120.509 33.5527H106.742C105.655 33.5527 104.773 32.6712 104.773 31.5835V17.8176C104.773 16.7305 105.655 15.849 106.742 15.849H120.509C121.596 15.849 122.477 16.7305 122.477 17.8176V31.5835C122.477 32.6712 121.596 33.5527 120.509 33.5527Z" fill="url(#paint19_linear)"/>
<path d="M114.698 29.834H110.562V29.2639H114.698V29.834Z" fill="#3F8BC0"/>
<path d="M116.686 31.2031H110.562V30.6331H116.686V31.2031Z" fill="#3F8BC0"/>
<path d="M111.108 21.4954C111.087 21.4748 111.049 21.4463 110.993 21.4099C110.937 21.3736 110.868 21.3373 110.789 21.3029C110.708 21.2685 110.622 21.2391 110.528 21.2145C110.434 21.19 110.339 21.1782 110.242 21.1782C110.07 21.1782 109.942 21.2096 109.857 21.2734C109.772 21.3373 109.73 21.4266 109.73 21.5405C109.73 21.6073 109.746 21.6623 109.777 21.7065C109.809 21.7507 109.856 21.789 109.915 21.8224C109.976 21.8558 110.053 21.8852 110.144 21.9127C110.237 21.9402 110.344 21.9687 110.464 21.9992C110.622 22.0414 110.764 22.0866 110.893 22.1347C111.021 22.1838 111.13 22.2437 111.22 22.3163C111.308 22.389 111.378 22.4754 111.426 22.5776C111.474 22.6787 111.499 22.8034 111.499 22.9517C111.499 23.1236 111.466 23.2709 111.4 23.3936C111.335 23.5154 111.248 23.6146 111.137 23.6902C111.027 23.7658 110.9 23.8208 110.757 23.8562C110.613 23.8905 110.463 23.9082 110.305 23.9082C110.064 23.9082 109.825 23.8719 109.589 23.7992C109.353 23.7265 109.142 23.6234 108.955 23.4908L109.231 22.9517C109.258 22.9782 109.308 23.0136 109.378 23.0578C109.45 23.102 109.533 23.1452 109.63 23.1894C109.727 23.2336 109.834 23.2699 109.952 23.3003C110.07 23.3308 110.19 23.3455 110.315 23.3455C110.66 23.3455 110.832 23.2355 110.832 23.0146C110.832 22.9448 110.812 22.8859 110.773 22.8378C110.734 22.7897 110.678 22.7475 110.605 22.7111C110.532 22.6748 110.445 22.6414 110.342 22.611C110.24 22.5805 110.124 22.5481 109.997 22.5118C109.843 22.4686 109.709 22.4234 109.596 22.3733C109.482 22.3232 109.388 22.2643 109.313 22.1965C109.237 22.1278 109.18 22.0492 109.143 21.9609C109.105 21.8715 109.086 21.7645 109.086 21.6407C109.086 21.4777 109.116 21.3324 109.176 21.2057C109.237 21.078 109.321 20.9729 109.428 20.8885C109.535 20.8031 109.66 20.7392 109.803 20.695C109.945 20.6518 110.097 20.6292 110.26 20.6292C110.487 20.6292 110.695 20.6656 110.887 20.7363C111.076 20.807 111.242 20.8914 111.385 20.9877L111.108 21.4954Z" fill="#4BADCC"/>
<path d="M112.728 23.4631C112.831 23.4631 112.929 23.4452 113.02 23.4092C113.112 23.3723 113.184 23.3244 113.236 23.2635C113.302 23.2126 113.336 23.1548 113.336 23.0919V22.8195C113.263 22.7925 113.184 22.7706 113.1 22.7536C113.016 22.7376 112.934 22.7287 112.856 22.7287C112.698 22.7287 112.569 22.7646 112.47 22.8354C112.37 22.9063 112.32 22.9961 112.32 23.1049C112.32 23.2077 112.359 23.2935 112.438 23.3613C112.517 23.4292 112.613 23.4631 112.728 23.4631ZM112.555 23.9082C112.442 23.9082 112.334 23.8893 112.234 23.8513C112.134 23.8134 112.048 23.7605 111.976 23.6927C111.903 23.6248 111.846 23.545 111.806 23.4541C111.765 23.3633 111.744 23.2635 111.744 23.1548C111.744 23.043 111.769 22.9402 111.819 22.8444C111.869 22.7496 111.939 22.6688 112.028 22.6019C112.116 22.5351 112.223 22.4832 112.348 22.4452C112.472 22.4073 112.607 22.3884 112.755 22.3884C112.861 22.3884 112.965 22.3973 113.066 22.4163C113.167 22.4343 113.257 22.4602 113.336 22.4931V22.3574C113.336 22.1998 113.291 22.079 113.202 21.9942C113.112 21.9093 112.981 21.8674 112.805 21.8674C112.678 21.8674 112.554 21.8904 112.434 21.9353C112.313 21.9802 112.189 22.0471 112.061 22.1349L111.876 21.7497C112.181 21.5471 112.511 21.4453 112.864 21.4453C113.206 21.4453 113.472 21.5291 113.66 21.6968C113.849 21.8654 113.944 22.1079 113.944 22.4253V23.1638C113.944 23.2276 113.955 23.2725 113.978 23.3005C114 23.3274 114.036 23.3424 114.088 23.3454V23.8623C113.986 23.8833 113.897 23.8942 113.821 23.8942C113.706 23.8942 113.617 23.8683 113.555 23.8174C113.494 23.7655 113.456 23.6976 113.441 23.6128L113.427 23.4811C113.321 23.6208 113.192 23.7266 113.041 23.7994C112.89 23.8713 112.728 23.9082 112.555 23.9082Z" fill="#4BADCC"/>
<path d="M114.502 20.5537H115.11V23.1023C115.11 23.1899 115.131 23.2585 115.173 23.3068C115.215 23.3552 115.276 23.3794 115.354 23.3794C115.391 23.3794 115.431 23.3734 115.475 23.3613C115.519 23.3492 115.56 23.3341 115.599 23.3159L115.681 23.7785C115.599 23.8178 115.505 23.848 115.396 23.8691C115.287 23.8903 115.188 23.9004 115.101 23.9004C114.91 23.9004 114.763 23.85 114.658 23.7482C114.554 23.6474 114.502 23.5033 114.502 23.3159V20.5537Z" fill="#4BADCC"/>
<path d="M117.665 22.4756C117.65 22.2965 117.584 22.1542 117.468 22.0467C117.351 21.9392 117.21 21.8859 117.044 21.8859C116.962 21.8859 116.885 21.9003 116.814 21.9289C116.744 21.9576 116.68 21.9975 116.626 22.0487C116.572 22.1009 116.527 22.1624 116.493 22.235C116.458 22.3077 116.438 22.3876 116.432 22.4756H117.665ZM117.049 23.9082C116.857 23.9082 116.685 23.8757 116.531 23.8106C116.377 23.7461 116.245 23.657 116.137 23.5454C116.028 23.4338 115.944 23.3038 115.885 23.1554C115.827 23.0069 115.797 22.8513 115.797 22.6885C115.797 22.5196 115.826 22.3599 115.883 22.2105C115.94 22.06 116.024 21.9289 116.133 21.8153C116.241 21.7017 116.373 21.6126 116.529 21.5461C116.684 21.4795 116.858 21.4457 117.053 21.4457C117.246 21.4457 117.419 21.4795 117.572 21.5461C117.725 21.6126 117.855 21.7017 117.962 21.8133C118.069 21.9249 118.15 22.0549 118.207 22.2033C118.263 22.3517 118.291 22.5053 118.291 22.666C118.291 22.7049 118.29 22.7428 118.289 22.7786C118.288 22.8155 118.282 22.8452 118.277 22.8697H116.441C116.45 22.9639 116.473 23.0468 116.508 23.1195C116.545 23.1922 116.591 23.2536 116.65 23.3048C116.707 23.357 116.771 23.3959 116.844 23.4226C116.917 23.4502 116.992 23.4635 117.07 23.4635C117.191 23.4635 117.306 23.4348 117.413 23.3755C117.521 23.3161 117.595 23.2383 117.633 23.1421L118.154 23.2874C118.066 23.4686 117.927 23.6171 117.735 23.7338C117.543 23.85 117.314 23.9082 117.049 23.9082Z" fill="#4BADCC"/>
<path d="M24.7469 45.748H2.26051C1.01208 45.748 0 44.7361 0 43.4875V21.0011C0 19.7524 1.01208 18.7405 2.26051 18.7405H24.7469C25.9955 18.7405 27.0082 19.7524 27.0082 21.0011V43.4875C27.0082 44.7361 25.9955 45.748 24.7469 45.748Z" fill="url(#paint20_linear)"/>
<path d="M8.96319 33.6328H7.12891V31.7999H7.46696V33.2945H8.96319V33.6328Z" fill="#4BADCC"/>
<path d="M19.891 33.6328H18.0566V33.2945H19.5529V31.7999H19.891V33.6328Z" fill="#4BADCC"/>
<path d="M7.46696 22.7051H7.12891V20.8722H8.96319V21.2104H7.46696V22.7051Z" fill="#4BADCC"/>
<path d="M19.891 22.7051H19.5529V21.2104H18.0566V20.8722H19.891V22.7051Z" fill="#4BADCC"/>
<path d="M9.72361 31.0383H17.2964V23.4656H9.72361V31.0383ZM18.1626 31.9043H8.85742V22.5988H18.1626V31.9043Z" fill="#4BADCC"/>
<path d="M16.1214 25.6992H10.8848V24.6773H16.1214V25.6992Z" fill="#4BADCC"/>
<path d="M14.4186 35.0117H12.5938V34.6735H14.4186V35.0117Z" fill="#4BADCC"/>
<path d="M21.0166 39.5508H5.99609V38.6254H21.0166V39.5508Z" fill="#3F8BC0"/>
<path d="M13.1168 41.7734H5.99609V40.848H13.1168V41.7734Z" fill="#3F8BC0"/>
<path d="M46.6459 46.9513H45.2557V45.5611H44.4762V46.9513H43.0859V47.7301H44.4762V49.1211H45.2557V47.7301H46.6459V46.9513Z" fill="url(#paint21_linear)"/>
<path d="M77.4122 39.4497H76.021V38.0585H75.2427V39.4497H73.8516V40.2287H75.2427V41.6191H76.021V40.2287H77.4122V39.4497Z" fill="url(#paint22_linear)"/>
<path d="M122.269 51.1701H120.879V49.7791H120.1V51.1701H118.709V51.9488H120.1V53.3398H120.879V51.9488H122.269V51.1701Z" fill="url(#paint23_linear)"/>
<path d="M123.951 39.8507L113.35 39.8995L113.385 47.5844L113.392 49.2031L115.003 47.5769L123.987 47.5356L123.951 39.8507Z" fill="#FFCA55"/>
<path d="M119.489 44.0197C119.49 44.4669 119.128 44.8306 118.682 44.832C118.234 44.8335 117.87 44.4721 117.869 44.0248C117.867 43.5776 118.229 43.2139 118.676 43.2125C119.123 43.2111 119.487 43.5725 119.489 44.0197Z" fill="white"/>
<path d="M122.153 44.006C122.155 44.4534 121.793 44.817 121.346 44.8184C120.899 44.8198 120.534 44.4585 120.533 44.0112C120.532 43.5639 120.893 43.2003 121.341 43.1988C121.788 43.1974 122.151 43.5589 122.153 44.006Z" fill="white"/>
<path d="M116.893 44.0197C116.894 44.467 116.532 44.8307 116.086 44.832C115.638 44.8334 115.274 44.4721 115.273 44.0248C115.271 43.5776 115.633 43.214 116.08 43.2125C116.527 43.2111 116.89 43.5725 116.893 44.0197Z" fill="white"/>
<path d="M54.815 70.5132L47.9746 70.5446L47.9975 75.502L48.0025 76.5469L49.0416 75.4978L54.8372 75.4706L54.815 70.5132Z" fill="url(#paint24_linear)"/>
<path d="M51.9296 73.1926C51.9303 73.4815 51.6972 73.7161 51.4083 73.7168C51.1201 73.7175 50.8855 73.4844 50.8848 73.1962C50.8833 72.9072 51.1165 72.6727 51.4054 72.672C51.6936 72.6713 51.9282 72.9044 51.9296 73.1926Z" fill="white"/>
<path d="M53.6483 73.1933C53.6491 73.4815 53.4159 73.7161 53.127 73.7168C52.8388 73.7182 52.6042 73.4851 52.6035 73.1962C52.6021 72.908 52.8352 72.6734 53.1241 72.672C53.4124 72.6712 53.6469 72.9044 53.6483 73.1933Z" fill="white"/>
<path d="M50.2519 73.2031C50.2526 73.4913 50.0194 73.7258 49.7305 73.7266C49.4423 73.728 49.2078 73.4948 49.207 73.2059C49.2056 72.9177 49.4388 72.6832 49.7277 72.6817C50.0159 72.681 50.2504 72.9141 50.2519 73.2031Z" fill="white"/>
<path d="M53.33 30.8043L63.9327 30.8529L63.897 38.5379L63.8898 40.1562L62.2786 38.53L53.2949 38.4892L53.33 30.8043Z" fill="url(#paint25_linear)"/>
<path d="M57.7988 34.9806C57.7974 35.4275 58.1586 35.7915 58.6055 35.793C59.0532 35.7944 59.4165 35.4325 59.4179 34.9856C59.4194 34.5386 59.0582 34.1746 58.6112 34.1732C58.1636 34.1717 57.8003 34.5329 57.7988 34.9806Z" fill="white"/>
<path d="M55.1445 34.9727C55.1431 35.4197 55.5043 35.7837 55.9519 35.7852C56.3989 35.7866 56.7629 35.4254 56.7636 34.9777C56.7651 34.5308 56.4039 34.1668 55.9569 34.1653C55.5093 34.1639 55.146 34.5258 55.1445 34.9727Z" fill="white"/>
<path d="M60.4023 34.9806C60.4009 35.4282 60.7621 35.7915 61.2098 35.793C61.6567 35.7944 62.0207 35.4332 62.0222 34.9856C62.0236 34.5386 61.6617 34.1746 61.2148 34.1739C60.7678 34.1724 60.4038 34.5336 60.4023 34.9806Z" fill="white"/>
<path d="M18.8499 51.3521L27.135 51.39L27.1078 57.3958L27.1021 58.6602L25.8427 57.3893L18.8223 57.3572L18.8499 51.3521Z" fill="url(#paint26_linear)"/>
<path d="M22.3496 54.6091C22.3485 54.9588 22.631 55.2427 22.9801 55.2441C23.3298 55.2449 23.6137 54.9631 23.6151 54.6134C23.6166 54.2637 23.3341 53.9798 22.9844 53.9783C22.6349 53.9776 22.3507 54.2601 22.3496 54.6091Z" fill="white"/>
<path d="M20.2695 54.6091C20.2684 54.9588 20.5508 55.2427 20.9003 55.2441C21.2498 55.2449 21.534 54.9624 21.5351 54.6134C21.5361 54.2637 21.2537 53.9798 20.9043 53.9783C20.5548 53.9769 20.2706 54.2594 20.2695 54.6091Z" fill="white"/>
<path d="M24.377 54.6189C24.3755 54.9686 24.658 55.2525 25.0077 55.2539C25.3567 55.2546 25.6413 54.9729 25.6421 54.6232C25.6435 54.2734 25.361 53.9895 25.0113 53.9881C24.6623 53.9874 24.3777 54.2691 24.377 54.6189Z" fill="white"/>
<path d="M58.5541 72.6883L65.3774 72.7198L65.3545 77.6658L65.3495 78.707L64.3132 77.6608L58.5312 77.6343L58.5541 72.6883Z" fill="#FFCA55"/>
<path d="M61.4336 75.3639C61.4329 75.6514 61.6653 75.886 61.9528 75.8867C62.241 75.8874 62.4749 75.655 62.4756 75.3675C62.477 75.0793 62.2439 74.8455 61.9564 74.8447C61.6682 74.8433 61.4343 75.0765 61.4336 75.3639Z" fill="white"/>
<path d="M59.7266 75.3639C59.7251 75.6521 59.9583 75.886 60.2458 75.8867C60.5333 75.8881 60.7678 75.655 60.7685 75.3675C60.7693 75.0793 60.5368 74.8455 60.2493 74.8447C59.9611 74.844 59.7273 75.0764 59.7266 75.3639Z" fill="white"/>
<path d="M63.1094 75.3757C63.1087 75.6639 63.3411 75.8977 63.6293 75.8984C63.9168 75.8999 64.1506 75.6667 64.1521 75.3792C64.1528 75.0917 63.9204 74.8572 63.6322 74.8565C63.3447 74.8557 63.1108 75.0882 63.1094 75.3757Z" fill="white"/>
<path d="M70.7329 117.051L70.4964 117.697L68.832 117.074L68.9601 116.3L70.7329 117.051Z" fill="#EEA987"/>
<path d="M74.1327 85.153C74.1327 85.153 74.8262 89.7378 74.8747 90.1505C74.9763 91.0144 73.8811 97.7461 73.8811 97.7461L72.8252 96.5775C72.8252 96.5775 73.3838 90.5539 73.3255 90.1505C73.1868 89.1965 72.2598 86.0462 72.2598 86.0462C72.2598 86.0462 73.4202 84.7597 74.1327 85.153Z" fill="#EEA987"/>
<path d="M70.5695 117.473C70.5695 117.473 71.0715 118.82 71.6058 119.049C72.1408 119.279 73.7654 119.96 73.7361 120.276C73.706 120.591 73.9066 121.593 70.795 120.609C67.6833 119.625 67.5367 119.227 67.8178 118.694C68.0981 118.161 68.573 117.334 68.8938 116.833L70.5695 117.473Z" fill="#6797D9"/>
<path d="M72.9876 95.793L74.1509 96.9079L74.1275 98.168L72.6074 96.659L72.9876 95.793Z" fill="#323657"/>
<path d="M68.8285 118.237V118.996H67.0676L66.9062 118.141L68.8285 118.237Z" fill="#EEA987"/>
<path d="M68.8295 118.577C68.8295 118.577 69.7801 119.42 70.3617 119.452C70.9419 119.484 72.6778 119.884 72.7579 120.191C72.8387 120.497 73.448 121.268 70.1432 121.28C66.8802 121.292 66.6003 121.208 66.6811 120.611C66.762 120.014 66.8675 119.203 66.997 118.622L68.8295 118.577Z" fill="#6EA2E8"/>
<path d="M72.8931 94.9363C72.8931 94.9363 76.2694 102.235 76.5603 103.906C76.8503 105.576 70.9317 117.596 70.9317 117.596L68.825 116.253C68.825 116.253 72.7469 105.83 72.8561 105.286C72.9646 104.741 68.6465 97.0904 68.6465 97.0904C68.6465 97.0904 69.5152 95.1537 72.8931 94.9363Z" fill="#323657"/>
<path d="M70.4304 97.2604L69.7857 107.49L69.117 118.242H66.7421C66.7421 118.242 66.2909 109.055 66.1821 107.82C66.0734 106.585 65.1951 98.7057 65.3404 97.3619C65.4857 96.0181 70.4304 97.2604 70.4304 97.2604Z" fill="#323657"/>
<path d="M73.0864 96.1987L64.896 99.2188C64.896 99.2188 64.7213 96.2201 64.896 95.7947L73.0864 96.1987Z" fill="#6EA2E8"/>
<path d="M70.8825 80.8464C70.8825 80.8464 73.3843 81.706 73.6961 82.2195C74.0078 82.7322 74.4812 84.9906 74.4812 84.9906C74.4812 84.9906 73.2854 85.4205 73.0808 85.4798C72.8762 85.5392 72.803 86.9008 72.572 88.4348C72.341 89.9688 73.425 96.0862 73.5194 96.3115C73.5194 96.3115 71.4562 98.2889 64.5449 97.5129C64.5449 97.5129 64.8182 93.5782 64.7932 92.3767C64.7729 91.3927 64.3086 87.9872 64.3086 87.9872L63.3672 81.9427C63.3672 81.9427 64.4309 80.8535 67.3139 80.4431C69.1454 80.182 70.8825 80.8464 70.8825 80.8464Z" fill="#DBDFF0"/>
<path d="M64.7152 85.9033C64.7152 85.9033 64.0927 88.9584 64.1907 89.1293C64.2886 89.3002 69.4441 90.2879 69.5638 90.4051C69.6835 90.5224 69.5174 91.6016 69.5174 91.6016C69.5174 91.6016 62.2405 91.2419 62.062 90.6469C61.8835 90.0518 62.0605 85.8325 62.3449 85.1409C62.6286 84.4487 64.7152 85.9033 64.7152 85.9033Z" fill="#EEA987"/>
<path d="M69.5284 73.4667C69.5284 73.4667 67.6332 73.5389 67.0867 76.5476C66.4527 80.0296 68.7602 80.4401 69.9889 79.3631C71.219 78.2868 72.292 76.3673 72.0198 75.2109C71.747 74.0552 70.3544 73.5782 69.5284 73.4667Z" fill="#EEA987"/>
<path d="M67.6056 74.9677C67.6056 74.9677 67.0492 73.1477 69.0643 72.8416C71.0801 72.5362 71.9084 74.2169 72.2423 74.372C72.5754 74.5272 73.1706 75.8288 72.0794 77.0453C70.9882 78.2617 70.9882 78.2617 70.9882 78.2617C70.9882 78.2617 70.8635 78.2703 70.6036 77.3313C70.3534 76.4274 70.505 76.9373 70.505 76.9373L69.8724 76.6698C69.8724 76.6698 70.0195 76.3044 69.2039 75.8259C68.3719 75.3382 67.6056 74.9677 67.6056 74.9677Z" fill="#FCCCA2"/>
<path d="M70.3871 76.4239C70.4842 76.1564 71.0632 75.9934 71.2133 76.6191C71.3627 77.2442 70.5011 77.7662 70.315 77.6082C70.1281 77.4502 70.2252 76.8673 70.3871 76.4239Z" fill="#EEA987"/>
<path d="M63.3662 81.9371C63.3662 81.9371 62.5831 82.8946 62.0195 85.4191L65.046 85.9512L66.0058 83.6098L63.3662 81.9371Z" fill="#DBDFF0"/>
<path d="M70.8795 80.8431C70.8795 80.8431 70.7667 83.3233 69.4512 83.4392C69.4512 83.4392 67.7012 83.5292 66.4238 80.595C66.4238 80.595 66.9639 80.457 67.241 80.3254C67.3025 80.296 67.3729 80.2317 67.4403 80.1323C67.5304 79.9971 67.614 79.7976 67.6499 79.5301H67.6528C67.6917 79.2634 67.6851 78.9258 67.5986 78.5175C67.3633 77.4076 70.2683 78.9802 70.2683 78.9802C70.2683 78.9802 70.1555 80.1866 70.294 80.6307L70.8795 80.8431Z" fill="#EEA987"/>
<path d="M71.3202 88.0544L73.4673 88.2583L72.2732 92.2188L70.293 92.1215L71.3202 88.0544Z" fill="#353D4A"/>
<path d="M70.457 90.293C70.457 90.293 70.8606 89.3768 70.8547 89.188C70.8488 89 71.2458 88.8927 71.2046 89.3475C71.1627 89.803 71.1311 90.0913 71.1311 90.0913L70.457 90.293Z" fill="#EEA886"/>
<path d="M70.5014 90.1841C70.5014 90.1841 70.5776 90.0783 71.0743 89.9503C71.8482 89.75 72.8462 89.6127 72.9889 89.7343C73.1943 89.9095 73.039 90.0612 72.5624 90.1169C72.0858 90.1727 71.9282 90.1891 71.9282 90.1891C71.9282 90.1891 72.8193 90.285 72.9934 90.4294C73.1682 90.5746 73.1301 90.8178 72.9784 90.8285C72.8268 90.8385 72.4839 90.7934 72.4839 90.7934C72.4839 90.7934 72.8515 90.8836 72.8582 91.0394C72.8634 91.1554 72.8447 91.3163 72.4809 91.3091C72.4809 91.3091 72.6647 91.6223 72.2733 91.7182C71.8811 91.814 71.2043 91.8361 70.8689 91.8225C70.172 91.7947 68.666 91.4006 68.666 91.4006L69.3069 90.3122C69.3069 90.3122 69.8269 90.3786 70.0831 90.3458C70.4289 90.3021 70.5014 90.1841 70.5014 90.1841Z" fill="#EEA886"/>
<path d="M69.9104 79.4381C69.9104 79.4381 69.4445 80.5187 68.1063 80.3063C67.8424 80.2649 67.6236 80.207 67.4434 80.1426C67.5335 80.0074 67.6171 79.8079 67.6527 79.5404H67.6556C67.6556 79.5404 68.1768 80.0231 68.8623 79.8851C69.5441 79.7464 69.9104 79.4381 69.9104 79.4381Z" fill="#A77860"/>
<path d="M49.4774 118.697C49.4774 118.697 50.6817 120.739 51.1909 121.073C51.881 121.526 51.4483 121.983 51.1208 121.984C50.7925 121.984 49.1184 122.104 48.7494 121.685C48.3804 121.267 48.1973 120.012 47.854 119.683C47.5107 119.355 47.1968 118.144 48.0214 117.733C48.9253 117.283 49.4774 118.697 49.4774 118.697Z" fill="#E55353"/>
<path d="M49.0172 117.627C49.0172 117.627 50.3274 120.191 50.5648 120.544C50.803 120.897 50.1171 120.896 49.6923 120.729C49.2675 120.561 48.1655 118.86 48.0454 118.533C47.9259 118.207 48.0132 117.733 48.0132 117.733L49.0172 117.627Z" fill="#3B3B40"/>
<path d="M47.5508 119.087L47.869 121.539L48.0378 121.547L47.9856 119.783L47.5508 119.087Z" fill="#E55353"/>
<path d="M39.1436 116.701C39.1436 116.701 39.4325 119.054 39.7658 119.563C40.2178 120.254 39.6378 120.502 39.3374 120.371C39.0363 120.24 37.4537 119.681 37.2828 119.15C37.1119 118.619 37.4451 117.395 37.2613 116.957C37.0783 116.519 37.2742 115.283 38.1939 115.236C39.2023 115.184 39.1436 116.701 39.1436 116.701Z" fill="#E55353"/>
<path d="M39.1621 115.541C39.1621 115.541 39.3387 118.415 39.4152 118.834C39.4925 119.253 38.8639 118.978 38.542 118.655C38.2195 118.332 37.8884 116.332 37.9091 115.985C37.9299 115.637 38.1988 115.238 38.1988 115.238L39.1621 115.541Z" fill="#3B3B40"/>
<path d="M37.227 116.299L36.5391 118.674L36.6914 118.748L37.3479 117.11L37.227 116.299Z" fill="#E55353"/>
<path d="M49.2837 95.7949C49.245 95.6047 47.7897 92.7856 47.5272 91.936C47.2655 91.0864 47.0395 90.3083 46.9079 89.9722C46.8993 89.95 46.885 89.9114 46.8665 89.8599C46.7771 89.6103 46.5832 89.0532 46.383 88.5333C46.3687 88.4969 46.3551 88.4604 46.3408 88.4246L46.3208 88.2258C46.1792 87.8654 46.3194 87.658 46.3222 87.3705C46.3229 87.2847 46.3115 87.191 46.2765 87.0844L46.2722 87.073C46.107 86.5896 45.9825 86.1669 45.9582 85.9295C45.8774 85.1414 45.4512 81.6343 45.4512 81.6343C45.4512 81.6343 46.83 82.348 46.9837 82.8994C47.2162 83.7354 47.4536 84.979 47.5122 85.3616C47.5709 85.7443 48.1702 88.9295 48.2953 89.5767C48.4205 90.2247 48.5635 90.7732 48.7437 91.2015C48.9239 91.6299 50.1218 95.4488 50.1955 95.7906C50.2698 96.1332 49.323 95.9852 49.2837 95.7949Z" fill="#EEA886"/>
<path d="M49.2634 95.3921C49.2634 95.3921 49.2391 95.8384 49.144 96.3047C49.0975 96.5321 49.2884 97.9438 49.3263 98.124C49.3578 98.2756 49.4443 98.1683 49.4794 98.0596C49.4994 97.9974 49.5123 97.4968 49.5595 97.2236C49.5995 96.9948 49.651 96.9025 49.7011 96.9669C49.7511 97.0305 49.9678 97.9223 49.9485 98.3214C49.9292 98.7204 50.1616 99.5951 50.3433 99.4334C50.5256 99.2711 50.7366 97.5862 50.5971 96.9876C50.4584 96.389 50.1173 95.6653 50.1173 95.6653L49.2634 95.3921Z" fill="#EEA886"/>
<path d="M44.1722 98.8424C44.2322 99.1321 44.6163 100.345 45.0461 101.693C45.4387 102.922 45.8685 104.262 46.1266 105.117C46.2232 105.437 46.2954 105.688 46.3326 105.841C46.5801 106.853 46.3019 108.443 46.2118 109.77C46.1216 111.098 48.049 118.537 48.049 118.537C48.3865 118.694 49.0209 117.63 49.0209 117.63C48.7734 117.157 48.8085 108.767 48.9429 108.249C49.0781 107.732 49.1682 106.291 49.033 105.729C49.0058 105.613 48.9922 105.46 48.9887 105.277C48.9779 104.567 49.1238 103.393 49.2132 102.106C49.3255 100.485 48.6955 96.4574 48.6061 96.097C48.5975 96.0641 48.5846 96.0169 48.5675 95.9597C48.4015 95.3954 47.868 93.7913 47.868 93.7913C46.7853 93.4688 45.9708 93.4109 45.3622 93.5353C44.5569 93.6991 44.1135 94.1825 43.8918 94.7961C43.3626 96.2607 44.0949 98.4662 44.1722 98.8424Z" fill="#3B3B40"/>
<path d="M38.082 115.441L39.1784 115.826C39.3643 114.927 43.8154 108.628 44.0864 107.931C44.3582 107.233 44.6478 105.883 44.6478 105.388C44.6478 105.3 44.6542 105.15 44.6671 104.957C44.715 104.206 44.8523 102.791 45.049 101.69C45.0862 101.484 45.1248 101.289 45.1656 101.112C45.3837 100.162 45.4216 96.9162 45.4237 95.0075C45.4252 94.1579 45.4194 93.5736 45.4194 93.5736C45.4194 93.5736 45.4001 93.5586 45.3651 93.5322C44.9546 93.2211 42.3221 91.3281 41.4046 93.0981C41.1622 93.5651 41.0041 94.0671 40.9076 94.5906C40.6137 96.1947 40.9026 98.0011 41.14 99.6467C41.3431 101.056 41.7321 103.045 41.8444 104.522C41.9059 105.334 41.8838 105.991 41.7 106.31C41.1822 107.211 40.6766 107.972 39.6296 111.149C39.2892 112.182 38.082 115.441 38.082 115.441Z" fill="#3B3B40"/>
<path d="M46.0615 77.1869C46.0615 77.1869 46.6344 73.4839 43.5671 73.5518C40.4998 73.6205 40.5406 75.4513 40.5957 77.2692C40.65 79.0864 41.825 78.9498 40.4998 81.4778C39.1747 84.0059 41.6476 84.0059 41.6476 84.0059L43.5671 81.3684L46.0615 77.1869Z" fill="#FCCCA2"/>
<path d="M43.9062 73.9043C43.9062 73.9043 45.983 74.2326 46.0653 77.184C46.1475 80.1354 45.5053 80.764 43.6874 80.1497C41.8702 79.5347 41.2959 76.4459 41.2552 75.9675C41.2144 75.4898 41.105 73.5489 43.9062 73.9043Z" fill="#EEA886"/>
<path d="M40.254 84.1797C40.2454 85.196 41.4139 87.6253 41.5941 88.3755C41.7736 89.1257 42.059 89.366 41.8187 90.3264C41.5791 91.2862 40.8347 94.5344 40.8647 94.8197C40.8947 95.1043 47.5599 96.1556 48.5647 95.9604C48.5647 95.9604 47.3361 91.3756 47.246 90.8506C47.1558 90.325 47.3554 88.3569 47.4004 87.802C47.4455 87.2463 48.0076 86.052 47.9883 85.4956C47.969 84.9285 47.6908 84.4386 47.301 83.8336C47.1809 83.6455 47.0536 83.4546 46.927 83.2686C46.5144 82.6636 46.1024 82.1137 45.9 81.9242C45.7491 81.7833 45.6083 81.676 45.486 81.5945L45.4853 81.5938C45.2307 81.4236 45.0597 81.3692 45.0597 81.3692L43.274 81.0839C43.274 81.0839 42.1613 81.4865 41.5212 81.6367C41.5212 81.6367 40.2718 81.8183 40.254 84.1797Z" fill="#E55353"/>
<path d="M45.4922 81.5906L46.527 83.2212L47.4817 84.7266C47.4796 84.718 47.4159 84.4906 47.3079 83.8305C47.2879 83.7053 47.2658 83.5644 47.2422 83.4064C47.235 83.3599 47.225 83.3134 47.2121 83.2677C46.8031 82.3251 45.5394 81.6142 45.4929 81.5914L45.4922 81.5906Z" fill="#E55353"/>
<path d="M40.3155 83.3216C40.3155 83.3216 40.6023 81.3864 42.0197 81.7053C43.3821 82.0121 42.1055 84.548 42.0054 84.8484C41.9053 85.1488 40.8962 87.6017 40.809 87.9228C40.5322 88.939 40.7918 88.9634 41.208 89.2029C42.4367 89.9109 44.9626 89.8637 45.2536 90.0583C45.5447 90.2528 45.5275 90.8585 45.0384 90.8792C44.4019 90.9071 40.7625 90.5646 40.2554 90.5145C39.7627 90.4666 38.783 90.4251 39.0404 88.6759C39.2135 87.4973 40.3155 83.3216 40.3155 83.3216Z" fill="#EEA886"/>
<path d="M42.5183 78.8211C42.6985 79.1616 42.8887 81.272 42.8887 81.272C42.8887 81.272 45.4289 82.2324 45.1693 81.6889C45.0513 81.4429 45.0163 81.1225 45.0142 80.8472C45.012 80.6297 45.0299 80.4395 45.042 80.3344C45.0492 80.2786 45.0542 80.2471 45.0542 80.2471C45.0542 80.2471 42.3388 78.4814 42.5183 78.8211Z" fill="#EEA886"/>
<path d="M44.7558 76.0271C44.7558 76.0271 43.6895 77.7628 42.7197 78.4457C41.7493 79.1287 42.2413 79.6758 42.2413 79.6758C42.2413 79.6758 39.7097 74.3465 42.1162 73.9775C44.5233 73.6085 45.9994 73.5813 46.0673 77.1885C46.0673 77.1885 44.9739 75.9999 44.7558 76.0271Z" fill="#FCCCA2"/>
<path d="M43.5879 80.1175C43.9776 80.6925 45.0082 80.8477 45.0082 80.8477C45.006 80.6303 45.0239 80.44 45.0361 80.3349C44.3746 80.4622 43.5879 80.1175 43.5879 80.1175Z" fill="#A77860"/>
<path d="M47.2064 83.2578C47.2064 83.2578 47.2615 83.3722 47.3065 83.832L46.9325 83.2671C46.9325 83.2671 46.2645 82.3088 46.0357 82.0599C45.8061 81.811 45.4922 81.5929 45.4922 81.5929C45.4922 81.5929 46.8066 82.2244 47.2064 83.2578Z" fill="#BD4444"/>
<path d="M46.7968 85.3287L42.7927 84.9976C42.6225 84.9833 42.473 85.1113 42.4601 85.2815L41.9638 91.9138C41.9509 92.0804 42.0732 92.2263 42.2392 92.2434L46.0831 92.6389C46.2533 92.6568 46.4049 92.5324 46.4213 92.3629L47.0778 85.6662C47.095 85.4946 46.9684 85.343 46.7968 85.3287Z" fill="#2F4563"/>
<path d="M43.0256 89.7815C43.0256 89.7815 43.7843 89.9088 43.8551 89.8967C43.9259 89.8852 44.2256 89.3946 44.5731 89.3067C44.9207 89.218 45.3548 89.1501 45.4621 89.0836C45.5686 89.017 45.5979 89.3575 45.2647 89.4969C44.9307 89.6356 44.847 89.8223 45.4721 89.9475C45.8175 90.0168 47.1098 89.8724 47.0025 90.0912C46.9396 90.2192 45.6945 90.3107 45.6945 90.3107C45.6945 90.3107 47.0375 90.3043 47.0833 90.3858C47.1734 90.546 45.8261 90.6025 45.7696 90.5968C45.7696 90.5968 46.9245 90.6633 46.9345 90.767C46.9474 90.8957 45.7774 90.8407 45.7882 90.8621C45.7882 90.8621 46.7064 90.9251 46.6971 91.0037C46.685 91.106 45.8768 91.1189 45.7202 91.1003C45.5643 91.0817 43.981 90.9022 43.7164 90.8493C43.4489 90.7956 43.002 90.7649 43.002 90.7649L43.0256 89.7815Z" fill="#EEA886"/>
<path d="M41.5756 89.373C41.5756 89.373 42.3265 89.6362 43.0237 89.7843C43.721 89.9323 43.0001 90.7676 43.0001 90.7676C43.0001 90.7676 41.7922 90.656 41.2115 90.5995C40.9305 90.5716 41.5756 89.373 41.5756 89.373Z" fill="#EEA886"/>
<path d="M42.1523 84.6855C42.1523 84.6855 40.5218 84.0462 40.0391 84.009C40.0391 84.009 40.3673 81.3909 41.9685 81.6683C43.5705 81.9458 42.1523 84.6855 42.1523 84.6855Z" fill="#E55353"/>
<path d="M41.136 99.6498C41.3391 101.059 41.7282 103.048 41.8404 104.525C41.8404 104.525 42.989 104.754 44.6631 104.96C45.1158 105.016 45.6078 105.07 46.1256 105.117C47.0224 105.199 47.9979 105.261 48.9876 105.277C48.9769 104.567 49.1228 103.393 49.2122 102.106C49.3245 100.485 48.6944 96.4574 48.605 96.097C48.5964 96.0641 48.5836 96.0169 48.5664 95.9597C47.7569 95.5142 46.5955 95.2138 45.4197 95.0107C44.9034 94.9213 44.3842 94.8512 43.8908 94.7961C42.3496 94.6231 41.0624 94.5966 40.9036 94.5938C40.6097 96.1978 40.8986 98.0043 41.136 99.6498Z" fill="#E55353"/>
<path d="M45.062 81.3651C45.062 81.3651 46.2592 83.2059 45.8537 83.3668C45.4489 83.527 43.2548 83.1523 42.3223 81.4037C42.3223 81.4037 43.7168 80.6886 45.062 81.3651Z" fill="#EEA886"/>
<path d="M97.8007 95.0913C97.8007 95.0913 97.2074 95.6119 96.6736 96.4121C96.1397 97.2117 94.7238 97.2546 94.6635 98.3466C94.6031 99.4386 96.5886 99.4723 97.6315 99.1168C98.6736 98.7614 98.8308 97.6944 99.4616 97.4276C100.092 97.1609 100.42 96.9449 100.371 96.4243C100.323 95.9036 99.9744 95.0591 99.9744 95.0591C99.9744 95.0591 99.5822 95.1835 99.3519 95.2093C99.1215 95.2343 98.3464 95.2436 97.8007 95.0913Z" fill="#163F75"/>
<path d="M104.948 65.5128C104.948 65.5128 104.549 67.8885 104.227 69.4583C104.096 70.0948 103.978 70.5989 103.905 70.757C103.812 70.9573 103.063 71.7625 102.145 72.7072C100.535 74.3649 98.4059 76.4531 98.4059 76.4531L97.5742 74.8741C97.5742 74.8741 99.4646 72.6586 100.746 71.1796C101.339 70.4959 101.801 69.9696 101.886 69.8938C102.154 69.6543 102.465 67.2928 102.902 65.3469C103.339 63.4017 104.215 62.3261 104.215 62.3261L104.948 65.5128Z" fill="#FFB56B"/>
<path d="M102.145 72.7072C100.534 74.3649 98.4064 76.4531 98.4064 76.4531L97.5742 74.8741C97.5742 74.8741 99.4643 72.6586 100.746 71.1796C101.139 71.3728 101.859 71.8319 102.145 72.7072Z" fill="#EEA886"/>
<path d="M112.487 94.4503C112.487 94.4503 113.033 95.0553 113.357 95.4222C113.68 95.7883 114.919 96.4441 114.926 97.5326C114.933 98.7133 114.012 98.6103 113.193 98.5667C112.373 98.5237 111.706 97.9573 111.361 97.2887C111.016 96.6207 110.098 96.4448 110.033 95.9056C109.969 95.3664 110.459 94.396 110.459 94.396L112.487 94.4503Z" fill="#163F75"/>
<path d="M110.565 93.3869L110.459 94.3923C110.459 94.3923 112.169 95.1375 112.486 94.4467L112.412 93.5513L110.565 93.3869Z" fill="#5F8CC9"/>
<path d="M97.8938 94.3648L97.8008 95.0928C97.8008 95.0928 98.8344 95.4582 99.9738 95.0606L99.9966 94.4134L97.8938 94.3648Z" fill="#5F8CC9"/>
<path d="M112.567 76.1325C112.626 76.3441 101.617 76.1325 101.617 76.1325C101.617 76.1325 104.663 73.9155 104.86 73.3234C105.058 72.7312 104.085 69.1784 103.958 68.0227C103.857 67.0973 103.602 62.9588 104.213 62.3266C104.849 61.6658 107.144 60.9735 107.144 60.9735L110.49 61.0972C110.49 61.0972 111.042 61.2131 111.437 61.3962C111.832 61.5793 114.09 62.3838 114.456 63.5116C114.823 64.6394 112.204 68.2659 112.204 68.2659C112.204 68.2659 112.198 68.4289 112.19 68.6957C112.18 69.0518 112.165 69.5932 112.152 70.1803C112.134 70.9405 112.119 71.778 112.119 72.3894C112.119 73.8275 112.508 75.9208 112.567 76.1325Z" fill="#FFB56B"/>
<path d="M112.568 76.1257C112.568 76.1257 114.066 78.3248 114.087 79.8266C114.108 81.3276 113.532 85.4912 113.489 86.3158C113.447 87.1403 112.672 94.0136 112.672 94.0136C112.672 94.0136 112.073 94.5699 110.275 93.8727C110.275 93.8727 109.879 87.3541 109.836 86.6568C109.794 85.9589 109.794 82.7444 109.392 82.2795C108.991 81.814 106.558 80.3551 106.241 80.0797C105.924 79.8051 100.398 81.1245 99.8194 81.2747C98.3193 81.663 99.0029 84.2718 99.3343 85.4419C99.8892 87.3985 100.375 94.4648 100.375 94.4648C100.375 94.4648 99.3064 94.9197 97.5178 94.5349C97.5178 94.5349 94.0055 81.776 93.8928 80.5074C93.78 79.238 93.7251 77.1461 102.38 75.5557L112.568 76.1257Z" fill="#1B4D8F"/>
<path d="M108.064 53.6994C108.064 53.6994 105.159 53.0441 105.823 56.6993C106.487 60.3551 107.186 60.6418 108.938 59.8859C110.69 59.1293 110.533 56.7872 110.621 55.6387C110.71 54.4904 108.991 53.7393 108.064 53.6994Z" fill="#EEA886"/>
<path d="M107.309 61.906C107.309 61.906 108.595 63.2698 110.629 62.0305C110.629 62.0305 110.174 59.0748 110.413 57.6352C110.652 56.1956 107.761 59.8657 107.761 59.8657C107.799 59.8857 107.823 60.023 107.829 60.2183C107.834 60.3842 107.826 60.5915 107.799 60.804C107.739 61.2831 107.591 61.788 107.309 61.906Z" fill="#EEA886"/>
<path d="M109.632 56.2112C109.671 55.8887 110.308 55.7699 110.36 56.2533C110.411 56.7375 110.07 57.5857 109.828 57.5021C109.586 57.4191 109.579 56.6553 109.632 56.2112Z" fill="#EEA886"/>
<path d="M110.492 57.5195C110.492 57.5195 110.417 56.3682 109.996 56.3317C109.576 56.296 109.512 56.76 109.512 56.76L109.087 56.8402C109.087 56.8402 109.22 55.8303 108.8 55.6545C108.381 55.4778 106.08 56.2101 105.742 55.9133C105.405 55.6173 105.563 53.5698 106.174 53.2896C106.783 53.0093 108.467 52.3814 109.701 53.2166C109.701 53.2166 110.662 53.1069 110.805 53.883C110.948 54.6589 110.753 56.9424 110.492 57.5195Z" fill="#3A3F47"/>
<path d="M107.793 60.8105C109.889 60.164 110.048 58.9011 110.05 58.8818C109.36 60.0682 107.814 60.2255 107.814 60.2255C107.818 60.3914 107.819 60.5981 107.793 60.8105Z" fill="#A77860"/>
<path d="M111.474 61.4017C111.474 61.4017 109.938 64.4597 107.457 64.2623C104.975 64.065 107.033 60.992 107.146 60.9634C107.27 60.9319 109.692 60.329 111.474 61.4017Z" fill="#EEA886"/>
<path d="M100.375 75.9649C100.375 75.9649 107.978 76.9024 112.584 76.1201L103.783 75.0201C103.783 75.0201 103.73 75.2446 100.375 75.9649Z" fill="#FFB56B"/>
<path d="M106.055 74.6758L105.488 74.9626C105.488 74.9626 105.618 75.8623 105.928 76.1348L106.563 75.9731C106.563 75.9731 106.431 74.9862 106.055 74.6758Z" fill="#EEA886"/>
<path d="M114.853 72.8349C114.739 72.9659 113.245 73.5673 111.557 74.2174L111.556 74.2181C109.249 75.1063 106.648 75.9473 106.648 75.9473L106.055 74.6772C106.055 74.6772 108.78 73.1969 110.621 72.1585C111.491 71.6679 112.163 71.2759 112.259 71.1859C112.555 70.9034 112.631 70.4514 112.414 69.6625C112.196 68.8745 111.694 65.2501 111.638 64.8267C111.582 64.404 111.779 63.2763 112.836 63.2198C113.894 63.1633 114.432 63.4623 114.432 63.4623C114.432 63.4623 114.697 63.5724 114.895 66.1383C115.093 68.7043 115.121 72.5246 114.853 72.8349Z" fill="#FFB56B"/>
<path d="M112.191 68.6911C112.182 69.0472 112.167 69.5886 112.153 70.1758C111.121 67.6463 111.717 65.6274 111.727 65.5938C111.615 66.2803 112.184 68.6574 112.191 68.6911Z" fill="#BD864F"/>
<path d="M104.226 69.4532C104.095 70.0896 103.978 70.5939 103.905 70.752C103.552 69.0463 103.869 66.8622 103.869 66.8622C103.917 67.9056 104.226 69.4532 104.226 69.4532Z" fill="#BD864F"/>
<path d="M111.556 74.2213L111.555 74.2221C109.249 75.1103 106.563 75.9785 106.563 75.9785L106.055 74.6812C106.055 74.6812 108.78 73.2009 110.621 72.1625C110.621 72.1625 111.291 72.4885 111.556 74.2213Z" fill="#EEA886"/>
<path d="M105.89 76.057L95.084 75.8982L100.539 78.668L105.89 76.057Z" fill="#5E5853"/>
<path d="M100.54 78.668L105.89 76.5955V76.057L100.117 78.1395L100.54 78.668Z" fill="#91887F"/>
<path d="M105.612 74.978C105.612 74.978 104.938 74.8728 104.471 74.7642C104.109 74.6805 103.211 74.7956 102.982 75.0274C102.755 75.259 102.028 76.8738 101.89 76.9725C101.752 77.0706 101.96 77.2986 102.201 77.1843C102.201 77.1843 102.423 77.8908 102.97 77.6262C103.518 77.3616 103.89 76.7845 104.176 76.6829C104.463 76.5806 106.132 76.0678 106.132 76.0678C106.132 76.0678 106.042 74.8057 105.612 74.978Z" fill="#EEA886"/>
<path d="M103.139 74.9278C103.139 74.9278 102.705 75.1374 102.591 75.231C102.478 75.324 102.019 75.6673 101.908 75.7481C101.797 75.8297 102.076 76.0592 102.896 75.7038C103.716 75.3484 103.139 74.9278 103.139 74.9278Z" fill="#EEA886"/>
<path d="M100.539 78.668L97.3248 69.8924L86.9629 70.0612L90.0265 78.1488L100.539 78.668Z" fill="#6E6760"/>
<defs>
<linearGradient id="paint0_linear" x1="168.517" y1="56.4035" x2="168.517" y2="121.041" gradientUnits="userSpaceOnUse">
<stop stop-color="#EB4747"/>
<stop offset="1" stop-color="#C93D69"/>
</linearGradient>
<linearGradient id="paint1_linear" x1="35.2165" y1="88.0019" x2="35.2165" y2="127.554" gradientUnits="userSpaceOnUse">
<stop stop-color="#FAB46C"/>
<stop offset="1" stop-color="#FA8A52"/>
</linearGradient>
<linearGradient id="paint2_linear" x1="68.0724" y1="70.6776" x2="68.0724" y2="119.702" gradientUnits="userSpaceOnUse">
<stop stop-color="#6EA2E8"/>
<stop offset="1" stop-color="#5278E9"/>
</linearGradient>
<linearGradient id="paint3_linear" x1="154.212" y1="21.7952" x2="154.212" y2="8.03697" gradientUnits="userSpaceOnUse">
<stop stop-color="#CAD9F1"/>
<stop offset="1" stop-color="#EEFFFE"/>
</linearGradient>
<linearGradient id="paint4_linear" x1="153.583" y1="22.0884" x2="153.583" y2="8.37218" gradientUnits="userSpaceOnUse">
<stop stop-color="#C8D7EF"/>
<stop offset="1" stop-color="#ECFDFC"/>
</linearGradient>
<linearGradient id="paint5_linear" x1="133.919" y1="-10.7386" x2="133.919" y2="-21.2404" gradientUnits="userSpaceOnUse">
<stop stop-color="#CAD9F1"/>
<stop offset="1" stop-color="#EEFFFE"/>
</linearGradient>
<linearGradient id="paint6_linear" x1="39.0707" y1="44.9069" x2="39.0707" y2="32.5561" gradientUnits="userSpaceOnUse">
<stop stop-color="#CAD9F1"/>
<stop offset="1" stop-color="#EEFFFE"/>
</linearGradient>
<linearGradient id="paint7_linear" x1="31.8385" y1="12.3104" x2="31.8385" y2="3.58749" gradientUnits="userSpaceOnUse">
<stop stop-color="#CAD9F1"/>
<stop offset="1" stop-color="#EEFFFE"/>
</linearGradient>
<linearGradient id="paint8_linear" x1="122.44" y1="16.401" x2="122.44" y2="-7.0935" gradientUnits="userSpaceOnUse">
<stop stop-color="#CAD9F1"/>
<stop offset="1" stop-color="#EEFFFE"/>
</linearGradient>
<linearGradient id="paint9_linear" x1="121.426" y1="17.074" x2="121.426" y2="-6.2828" gradientUnits="userSpaceOnUse">
<stop stop-color="#CAD9F1"/>
<stop offset="1" stop-color="#EEFFFE"/>
</linearGradient>
<linearGradient id="paint10_linear" x1="119.228" y1="18.4716" x2="119.228" y2="-4.58208" gradientUnits="userSpaceOnUse">
<stop stop-color="#CAD9F1"/>
<stop offset="1" stop-color="#EEFFFE"/>
</linearGradient>
<linearGradient id="paint11_linear" x1="120.525" y1="17.6358" x2="120.525" y2="-5.59718" gradientUnits="userSpaceOnUse">
<stop stop-color="#CAD9F1"/>
<stop offset="1" stop-color="#EEFFFE"/>
</linearGradient>
<linearGradient id="paint12_linear" x1="124.881" y1="14.8438" x2="124.881" y2="-8.99004" gradientUnits="userSpaceOnUse">
<stop stop-color="#CAD9F1"/>
<stop offset="1" stop-color="#EEFFFE"/>
</linearGradient>
<linearGradient id="paint13_linear" x1="44.5797" y1="28.1332" x2="44.5797" y2="9.77597" gradientUnits="userSpaceOnUse">
<stop stop-color="#C7D7F0"/>
<stop offset="1" stop-color="#EDFFFE"/>
</linearGradient>
<linearGradient id="paint14_linear" x1="44.5791" y1="28.1301" x2="44.5791" y2="9.77282" gradientUnits="userSpaceOnUse">
<stop stop-color="#C7D7F0"/>
<stop offset="1" stop-color="#EDFFFE"/>
</linearGradient>
<linearGradient id="paint15_linear" x1="44.5896" y1="28.1167" x2="44.5896" y2="9.75997" gradientUnits="userSpaceOnUse">
<stop stop-color="#C7D7F0"/>
<stop offset="1" stop-color="#EDFFFE"/>
</linearGradient>
<linearGradient id="paint16_linear" x1="44.5739" y1="28.1251" x2="44.5739" y2="9.76833" gradientUnits="userSpaceOnUse">
<stop stop-color="#C7D7F0"/>
<stop offset="1" stop-color="#EDFFFE"/>
</linearGradient>
<linearGradient id="paint17_linear" x1="44.5834" y1="28.1342" x2="44.5834" y2="9.7776" gradientUnits="userSpaceOnUse">
<stop stop-color="#C7D7F0"/>
<stop offset="1" stop-color="#EDFFFE"/>
</linearGradient>
<linearGradient id="paint18_linear" x1="97.7413" y1="-1.87338" x2="59.2656" y2="-1.87338" gradientUnits="userSpaceOnUse">
<stop stop-color="#EEF4FF"/>
<stop offset="1" stop-color="#EEFFFE"/>
</linearGradient>
<linearGradient id="paint19_linear" x1="209.353" y1="-22.6991" x2="163.843" y2="-22.6991" gradientUnits="userSpaceOnUse">
<stop stop-color="#EEF4FF"/>
<stop offset="1" stop-color="#EEFFFE"/>
</linearGradient>
<linearGradient id="paint20_linear" x1="38.6222" y1="32.2446" x2="-9.37522" y2="32.2446" gradientUnits="userSpaceOnUse">
<stop stop-color="#EEF4FF"/>
<stop offset="1" stop-color="#EEFFFE"/>
</linearGradient>
<linearGradient id="paint21_linear" x1="44.8659" y1="50.5807" x2="44.8659" y2="40.9573" gradientUnits="userSpaceOnUse">
<stop stop-color="#C7D7F0"/>
<stop offset="1" stop-color="#EDFFFE"/>
</linearGradient>
<linearGradient id="paint22_linear" x1="85.6572" y1="36.7755" x2="85.6572" y2="29.0997" gradientUnits="userSpaceOnUse">
<stop stop-color="#C7D7F0"/>
<stop offset="1" stop-color="#EDFFFE"/>
</linearGradient>
<linearGradient id="paint23_linear" x1="199.192" y1="21.7239" x2="199.192" y2="8.46229" gradientUnits="userSpaceOnUse">
<stop stop-color="#C7D7F0"/>
<stop offset="1" stop-color="#EDFFFE"/>
</linearGradient>
<linearGradient id="paint24_linear" x1="47.9746" y1="73.5297" x2="54.8374" y2="73.5297" gradientUnits="userSpaceOnUse">
<stop stop-color="#EB4747"/>
<stop offset="1" stop-color="#E4454E"/>
</linearGradient>
<linearGradient id="paint25_linear" x1="53.2949" y1="35.4799" x2="63.933" y2="35.4799" gradientUnits="userSpaceOnUse">
<stop stop-color="#EB4747"/>
<stop offset="1" stop-color="#E4454E"/>
</linearGradient>
<linearGradient id="paint26_linear" x1="18.8223" y1="55.0065" x2="27.1352" y2="55.0065" gradientUnits="userSpaceOnUse">
<stop stop-color="#6EA2E8"/>
<stop offset="1" stop-color="#5C88E9"/>
</linearGradient>
</defs>
</svg>
