<svg width="12" height="17" viewBox="0 0 12 17" fill="none" xmlns="http://www.w3.org/2000/svg">
<path opacity="0.7" d="M6.13184 9.34521C4.44336 8.85986 3.21289 8.26514 2.44043 7.56104C1.6748 6.8501 1.29199 5.9751 1.29199 4.93604C1.29199 3.76025 1.76025 2.78955 2.69678 2.02393C3.64014 1.25146 4.86377 0.865234 6.36768 0.865234C7.39307 0.865234 8.30566 1.06348 9.10547 1.45996C9.91211 1.85645 10.5342 2.40332 10.9717 3.10059C11.416 3.79785 11.6382 4.56006 11.6382 5.38721H9.65918C9.65918 4.48486 9.37207 3.77734 8.79785 3.26465C8.22363 2.74512 7.41357 2.48535 6.36768 2.48535C5.39697 2.48535 4.63818 2.70068 4.09131 3.13135C3.55127 3.55518 3.28125 4.14648 3.28125 4.90527C3.28125 5.51367 3.5376 6.02979 4.05029 6.45361C4.56982 6.87061 5.44824 7.25342 6.68555 7.60205C7.92969 7.95068 8.90039 8.33691 9.59766 8.76074C10.3018 9.17773 10.8213 9.6665 11.1562 10.2271C11.498 10.7876 11.6689 11.4473 11.6689 12.2061C11.6689 13.416 11.1973 14.3867 10.2539 15.1182C9.31055 15.8428 8.04932 16.2051 6.47021 16.2051C5.44482 16.2051 4.48779 16.0103 3.59912 15.6206C2.71045 15.2241 2.02344 14.6841 1.53809 14.0005C1.05957 13.3169 0.820312 12.541 0.820312 11.6729H2.79932C2.79932 12.5752 3.13086 13.2896 3.79395 13.8159C4.46387 14.3354 5.35596 14.5952 6.47021 14.5952C7.50928 14.5952 8.30566 14.3833 8.85938 13.9595C9.41309 13.5356 9.68994 12.958 9.68994 12.2266C9.68994 11.4951 9.43359 10.9312 8.9209 10.5347C8.4082 10.1313 7.47852 9.73486 6.13184 9.34521Z" fill="black"/>
</svg>
