<svg width="20" height="20" viewBox="0 0 20 20" fill="none" xmlns="http://www.w3.org/2000/svg">
<path d="M19.1647 11.4478C19.2393 10.9756 19.2786 10.4925 19.2786 9.99946C19.2786 4.87465 15.1244 0.720492 9.99942 0.720492C9.50765 0.720492 9.02318 0.760992 8.55141 0.834784C7.69682 0.306005 6.68818 0 5.60723 0C2.51049 0 0 2.51017 0 5.60723C0 6.68795 0.306192 7.69575 0.834738 8.55206C0.761596 9.02505 0.721328 9.50658 0.721328 9.99965C0.721328 15.1248 4.87549 19.2777 9.99923 19.2777C10.4914 19.2777 10.976 19.2398 11.4477 19.1654C12.3032 19.6931 13.311 20 14.3917 20C17.4893 20 19.9995 17.4891 19.9995 14.3922C19.9998 13.311 19.6938 12.3035 19.1647 11.4478ZM14.405 14.2197C14.0125 14.7847 13.4358 15.2263 12.6824 15.5439C11.9274 15.8623 11.035 16.0207 10.0045 16.0207C8.76944 16.0207 7.74685 15.8045 6.93969 15.3681C6.36753 15.0556 5.90217 14.6364 5.54441 14.1136C5.18591 13.5904 5.00415 13.078 5.00415 12.5784C5.00415 12.2837 5.11654 12.0274 5.33531 11.8185C5.55636 11.608 5.84107 11.5025 6.17712 11.5025C6.45239 11.5025 6.68883 11.5854 6.88133 11.7497C7.07239 11.9139 7.23267 12.1527 7.36375 12.4677C7.52087 12.8327 7.69152 13.1379 7.8731 13.3813C8.05356 13.6218 8.30753 13.8225 8.63646 13.9796C8.96176 14.1372 9.39471 14.2159 9.93646 14.2159C10.6779 14.2159 11.2771 14.0556 11.7356 13.7392C12.1965 13.4199 12.4179 13.0315 12.4179 12.5621C12.4179 12.1878 12.2985 11.8905 12.0538 11.6587C11.8068 11.4238 11.4878 11.245 11.0919 11.1203C10.6946 10.9942 10.161 10.8605 9.49245 10.7197C8.59466 10.5237 7.8438 10.2957 7.23574 10.0337C6.62689 9.77083 6.14201 9.41145 5.78262 8.95748C5.42249 8.49906 5.24292 7.92927 5.24292 7.25439C5.24292 6.61085 5.43249 6.03534 5.81201 5.53446C6.19134 5.03219 6.74016 4.64774 7.45577 4.37996C8.16887 4.11227 9.0084 3.97835 9.97017 3.97835C10.7393 3.97835 11.4046 4.06735 11.9677 4.24441C12.5293 4.42278 12.9975 4.65816 13.3718 4.95351C13.7437 5.24822 14.0174 5.55906 14.1908 5.88525C14.364 6.21241 14.4512 6.53195 14.4512 6.84376C14.4512 7.13368 14.3388 7.39663 14.1198 7.62707C13.9009 7.85785 13.6208 7.97549 13.2936 7.97442C12.9987 7.97442 12.7674 7.90639 12.607 7.76238C12.4508 7.62307 12.2867 7.40128 12.1092 7.09216C11.8848 6.66084 11.6161 6.32479 11.3036 6.08444C10.9994 5.84856 10.4975 5.72576 9.79901 5.72724C9.15278 5.72724 8.63571 5.8593 8.24545 6.11755C7.85278 6.37994 7.66506 6.68437 7.66418 7.04106C7.66483 7.26457 7.72909 7.45303 7.8584 7.61419C7.98971 7.77684 8.17241 7.91778 8.40722 8.03658C8.64213 8.15725 8.88109 8.25057 9.1212 8.31771C9.36416 8.38658 9.76725 8.48613 10.3276 8.61795C11.0302 8.7694 11.6676 8.93861 12.2403 9.12302C12.8119 9.30836 13.2997 9.53188 13.7027 9.79817C14.1089 10.0637 14.4264 10.4022 14.6531 10.811C14.8813 11.2206 14.995 11.7207 14.995 12.3093C14.9959 13.018 14.7985 13.6554 14.405 14.2197Z" fill="#989898"/>
</svg>
